<svg width="80" height="81" viewBox="0 0 80 81" fill="none" xmlns="http://www.w3.org/2000/svg">
<g clip-path="url(#clip0_43_28205)">
<path d="M39.0179 79.2206C60.5669 79.2206 78.0359 61.7517 78.0359 40.2027C78.0359 18.6537 60.5669 1.18475 39.0179 1.18475C17.4689 1.18475 0 18.6537 0 40.2027C0 61.7517 17.4689 79.2206 39.0179 79.2206Z" fill="#F9CCD4"/>
<path d="M60.1908 20.7345H37.857C37.2354 20.7345 36.7314 21.2384 36.7314 21.86V36.0007C36.7314 36.6223 37.2354 37.1262 37.857 37.1262H60.1908C60.8124 37.1262 61.3163 36.6223 61.3163 36.0007V21.86C61.3163 21.2384 60.8124 20.7345 60.1908 20.7345Z" fill="#666666"/>
<path d="M44.1511 41.1763H53.8945C54.518 41.1763 55.0255 41.6839 55.0255 42.3073H43.02C43.02 41.6839 43.5276 41.1763 44.1511 41.1763Z" fill="#666666"/>
<path d="M59.7436 22.2625H38.3091V35.5866H59.7436V22.2625Z" fill="#D40918"/>
<path d="M50.0613 36.756H47.6172V41.5284H50.0613V36.756Z" fill="#666666"/>
<path d="M38.1406 20.6401H50.4661" stroke="#1D1D1B" stroke-width="0.551724" stroke-linecap="round" stroke-linejoin="round"/>
<path d="M61.3667 35.9501V26.9515" stroke="#1D1D1B" stroke-width="0.551724" stroke-linecap="round" stroke-linejoin="round"/>
<path d="M67.3385 42.1341H22.853V45.1906H67.3385V42.1341Z" fill="#F3930D"/>
<path d="M28.144 42.1071H59.6144" stroke="#1D1D1B" stroke-width="0.551724" stroke-linecap="round" stroke-linejoin="round"/>
<path d="M39.8853 45.3173H67.1459" stroke="#1D1D1B" stroke-width="0.551724" stroke-linecap="round" stroke-linejoin="round"/>
<path d="M62.866 44.5176H60.4053V74.4211H62.866V44.5176Z" fill="#F3930D"/>
<path d="M60.4224 63.6351V74.0902" stroke="#1D1D1B" stroke-width="0.551724" stroke-linecap="round" stroke-linejoin="round"/>
<path d="M62.9873 49.5662V60.0268" stroke="#1D1D1B" stroke-width="0.551724" stroke-linecap="round" stroke-linejoin="round"/>
<path d="M21.094 55.0392H18.6333V70.3496H21.094V55.0392Z" fill="#F3930D"/>
<path d="M27.6482 52.6557H12.0785C11.2863 52.6557 10.644 53.2979 10.644 54.0902V54.6143C10.644 55.4066 11.2863 56.0488 12.0785 56.0488H27.6482C28.4404 56.0488 29.0827 55.4066 29.0827 54.6143V54.0902C29.0827 53.2979 28.4404 52.6557 27.6482 52.6557Z" fill="#666666"/>
<path d="M25.2986 30.1399C25.1386 25.4282 24.6806 24.5013 24.3882 24.0103C24.1069 23.5303 23.4172 22.3937 22.0324 21.7096C20.5648 20.9868 18.54 20.882 17.0337 21.8255C17.0227 21.8365 16.9841 21.8586 16.9013 21.9137C15.5441 22.8186 14.6503 23.8779 14.0875 24.6834C14.0875 24.6834 12.0186 28.2751 11.5386 31.4365L11.6931 35.8503L19.4779 36.2696C21.5468 36.8875 23.6213 37.5055 25.6903 38.1234C25.6131 37.4503 25.5137 36.4406 25.4365 35.1993C25.2986 33.042 25.3703 32.3744 25.2931 30.1455L25.2986 30.1399Z" fill="#D40918"/>
<path d="M36.8825 67.1488V71.1267L33.9473 71.2095L33.7598 67.1488H36.8825Z" fill="#925F36"/>
<path d="M36.4925 71.1381L36.2221 71.1491L36.2056 71.1381H36.4925Z" fill="#808080"/>
<path d="M42.6512 73.7146H38.7339L34.4305 73.6208C33.967 73.7863 33.4539 73.6098 33.2057 73.2181C32.9905 72.876 33.0015 72.4236 33.2443 72.076L33.4374 71.276L36.2236 71.1491L36.4939 71.1381H37.316L38.5188 71.6236C38.8719 71.7725 39.2194 71.9436 39.5505 72.1312C39.9091 72.3408 40.2236 72.4567 40.4553 72.5229C41.4208 72.7987 42.1105 72.6056 42.4691 73.0581C42.6401 73.2787 42.6567 73.5436 42.6512 73.7146Z" fill="#808080"/>
<path d="M36.586 71.1382H36.4922L36.5805 71.1327L36.586 71.1382Z" fill="#808080"/>
<path d="M33.1113 73.0475C33.0395 73.1744 32.9458 73.3731 32.8851 73.6269C32.8189 73.9193 32.7692 74.1344 32.874 74.3386C33.0395 74.6531 33.4533 74.7027 33.5195 74.7138C36.4768 74.7138 39.4395 74.7138 42.3968 74.7138C42.3968 74.7138 42.6727 74.1896 42.6451 73.7151H42.2092C39.423 73.6765 36.6368 73.6379 33.8506 73.6048C33.7513 73.5882 33.5637 73.5331 33.3816 73.3841C33.2326 73.2627 33.1499 73.1303 33.1058 73.0475H33.1113Z" fill="#D9D9D9"/>
<path d="M37.3215 71.1385C37.3215 71.1385 34.0498 71.122 33.4429 71.282" stroke="#1D1D1B" stroke-width="0.551724" stroke-linecap="round" stroke-linejoin="round"/>
<path d="M33.2155 72.2146C33.1161 72.496 33.0224 72.9043 33.2099 73.2187C33.4968 73.6987 34.2582 73.6491 36.3603 73.6325C36.3603 73.6325 37.4361 73.627 39.8637 73.6491C40.8624 73.6601 41.6844 73.6877 42.2251 73.7098" stroke="#1D1D1B" stroke-width="0.551724" stroke-linecap="round" stroke-linejoin="round"/>
<path d="M33.5249 74.7128C34.1318 74.6687 35.0752 74.6135 36.2394 74.619C37.3097 74.619 37.8615 74.6797 38.9484 74.7128C39.7594 74.7404 40.9401 74.757 42.4021 74.7128" stroke="#1D1D1B" stroke-width="0.551724" stroke-linecap="round" stroke-linejoin="round"/>
<path d="M20.5245 46.9672C20.5245 46.9672 18.6872 53.2955 24.4693 53.7534C30.2514 54.2113 34.3783 54.2113 34.3783 54.2113L33.4624 68.981L37.1314 68.8872C37.1314 68.8872 39.6803 50.5865 38.0527 48.2472C35.9452 45.2182 20.53 46.9617 20.53 46.9617L20.5245 46.9672Z" fill="#941B1A"/>
<path d="M33.799 67.1492V71.1271L30.8639 71.2099L30.6763 67.1492H33.799Z" fill="#925F36"/>
<path d="M42.7676 33.9189L39.5786 37.9299L34.74 44.0154L23.5786 35.1327L31.6062 25.0416L42.7676 33.9189Z" fill="#F3930D"/>
<path d="M38.79 38.8239L42.768 33.9191L39.11 31.0115" stroke="#1D1D1B" stroke-width="0.551724" stroke-linecap="round" stroke-linejoin="round"/>
<path d="M36.1023 28.6168L31.6057 25.0416L24.2788 34.2499" stroke="#1D1D1B" stroke-width="0.551724" stroke-linecap="round" stroke-linejoin="round"/>
<path d="M31.2781 32.1975L33.2187 29.7579C33.6758 29.1832 33.5805 28.3467 33.0058 27.8896C32.4311 27.4324 31.5946 27.5277 31.1375 28.1024L29.1969 30.542C28.7398 31.1167 28.8351 31.9532 29.4098 32.4103C29.9845 32.8675 30.821 32.7722 31.2781 32.1975Z" fill="#F8BE6E"/>
<path d="M34.5888 71.1384L35.8854 71.668C36.2716 71.8225 36.6413 72.0101 36.9999 72.2142C37.3861 72.4349 37.7226 72.5618 37.9764 72.6335C39.0137 72.9315 39.7585 72.7218 40.1447 73.2128C40.3268 73.4446 40.3488 73.737 40.3433 73.9191H36.1171L35.775 72.8432L33.3916 71.1384H34.5944H34.5888Z" fill="#B1B1B1"/>
<path d="M30.1965 72.1537L30.4062 71.2875L33.7993 71.133L36.122 73.0199V73.9192L31.482 73.8199C30.98 73.9964 30.4282 73.8089 30.1579 73.384C29.9262 73.0144 29.9427 72.5289 30.202 72.1537H30.1965Z" fill="#B1B1B1"/>
<path d="M30.0487 73.1965C29.9715 73.3344 29.8722 73.5496 29.806 73.8254C29.7343 74.1399 29.6791 74.3716 29.7949 74.5978C29.9715 74.9344 30.4184 74.9896 30.4956 75.0006C33.6901 75.0006 36.8791 75.0006 40.0736 75.0006C40.0736 75.0006 40.3715 74.4323 40.3439 73.9192H39.8694C36.8625 73.8751 33.8556 73.8365 30.8487 73.7978C30.7439 73.7758 30.5398 73.7206 30.3412 73.5606C30.1812 73.4337 30.0929 73.2847 30.0432 73.1965H30.0487Z" fill="#D9D9D9"/>
<path d="M34.5888 71.1388C34.5888 71.1388 31.0578 71.1222 30.4067 71.2933" stroke="#1D1D1B" stroke-width="0.551724" stroke-linecap="round" stroke-linejoin="round"/>
<path d="M30.1599 72.3022C30.0496 72.6056 29.9503 73.047 30.1544 73.3836C30.4634 73.9022 31.2855 73.847 33.5531 73.8305C33.5531 73.8305 34.7172 73.8194 37.3324 73.847C38.4137 73.858 39.2965 73.8856 39.8758 73.9132" stroke="#1D1D1B" stroke-width="0.551724" stroke-linecap="round" stroke-linejoin="round"/>
<path d="M30.4951 75.0009C31.1517 74.9512 32.1724 74.8905 33.4248 74.9016C34.5779 74.9071 35.1793 74.9623 36.3489 75.0009C37.2206 75.0285 38.5006 75.0506 40.073 75.0009" stroke="#1D1D1B" stroke-width="0.551724" stroke-linecap="round" stroke-linejoin="round"/>
<path d="M14.566 46.9672C14.566 46.9672 12.7287 53.2955 18.5108 53.7535C24.2929 54.2114 29.4294 54.2114 29.4294 54.2114L30.257 69.1631L33.926 69.0693C33.926 69.0693 36.3094 50.261 34.2956 48.2472C32.2818 46.2335 14.5715 46.9617 14.5715 46.9617L14.566 46.9672Z" fill="#B70E13"/>
<path d="M27.9414 36.694C27.9414 36.694 28.918 34.1726 29.8062 34.9285C29.8062 34.9285 29.6462 35.414 29.3207 35.883C29.3207 35.883 29.078 36.6223 29.2986 36.8043" fill="#925F36"/>
<path d="M25.6942 38.1174C25.6556 40.0319 25.8432 44.3519 26.0915 46.7243C26.3673 49.2898 14.5273 52.534 14.5273 52.534C13.6777 46.3436 13.2363 39.8443 13.9315 33.6319H20.337L25.6942 38.1174Z" fill="#D40918"/>
<path d="M18.2627 30.0134L19.1013 35.3596" stroke="black" stroke-width="0.551724" stroke-linecap="round" stroke-linejoin="round"/>
<path d="M26.2795 12.8433C28.8726 12.9978 28.7292 7.55228 26.6988 9.27366C24.4147 11.2102 21.6064 7.70125 19.2947 12.1206C17.9264 14.7302 18.8754 17.0695 20.845 17.5716C22.8147 18.0737 26.2795 12.8433 26.2795 12.8433Z" fill="#3A312A"/>
<path d="M23.1801 25.6986C23.2573 24.1096 24.3111 21.4448 24.4435 20.6999C24.5097 20.3137 24.6532 19.9551 24.8683 19.6296C25.0614 19.3372 25.7621 19.2434 26.1428 18.7248C26.9152 17.671 26.3249 16.7661 26.5676 15.0503C26.5842 14.3055 26.6063 13.5165 26.2807 12.8434C26.0656 12.402 25.4476 12.3855 24.8297 12.3303C24.3773 12.2917 23.9525 12.1427 23.5663 12.2034C22.6559 12.3468 22.1538 12.9537 21.6904 13.7537C21.4476 14.173 21.0614 14.6972 21.0614 14.6972C19.5938 14.0517 19.4449 16.7496 20.8683 16.7275C20.8959 18.2392 20.5594 19.8668 19.9635 21.3068C19.3676 22.7468 23.1414 26.6089 23.1856 25.6986H23.1801Z" fill="#925F36"/>
<path d="M21.833 13.5166L21.5792 15.9332L20.9502 15.878L20.9833 14.0738L21.833 13.5166Z" fill="#3A312A"/>
<path d="M26.545 16.9369C26.545 16.9369 25.3974 19.828 22.7105 17.7369C22.0705 17.2569 21.5739 15.9328 21.5739 15.9328L20.945 15.8776C20.945 15.8776 20.4925 17.6762 20.6857 18.4983C20.8788 19.3204 23.5988 22.2224 25.4691 21.0859C27.3394 19.9493 27.3229 17.4114 26.5394 16.9369H26.545Z" fill="#3A312A"/>
<path d="M21.1333 10.0737C22.4905 8.92607 27.4174 7.75641 26.143 10.4047C24.8685 13.053 21.1333 10.0737 21.1333 10.0737Z" fill="#3A312A"/>
<path d="M24.5749 11.8005C24.5749 11.8005 24.5418 11.7839 24.5363 11.7618C24.5197 11.7287 24.5363 11.6901 24.5694 11.6736C24.9059 11.5246 25.2094 11.2984 25.4466 11.017C25.7832 10.6143 25.9101 10.1894 25.9652 9.89701C25.9708 9.85839 26.0039 9.83633 26.0425 9.84184C26.0811 9.84736 26.1032 9.88046 26.0977 9.91908C26.0425 10.2225 25.9101 10.6749 25.5515 11.0998C25.3032 11.3977 24.9832 11.6349 24.6301 11.7894C24.6135 11.7949 24.597 11.7949 24.5804 11.7894L24.5749 11.8005Z" fill="#60564F"/>
<path d="M25.2874 12.0047C25.2874 12.0047 25.2598 11.9882 25.2488 11.9716C25.2323 11.9385 25.2433 11.8999 25.2764 11.8834C25.5467 11.7344 25.9274 11.453 26.2033 10.973C26.3799 10.6585 26.4902 10.2999 26.5123 9.93578C26.5123 9.89716 26.5454 9.86958 26.584 9.87509C26.6226 9.87509 26.6502 9.9082 26.6447 9.94682C26.6226 10.333 26.5067 10.7082 26.3192 11.0392C26.0323 11.5468 25.6295 11.8392 25.3426 11.9992C25.3261 12.0103 25.304 12.0103 25.2874 11.9992V12.0047Z" fill="#60564F"/>
<path d="M21.4414 15.9658C21.4414 15.9658 22.8869 15.7562 24.4538 16.7217C24.4538 16.7217 25.5407 16.2086 26.5449 16.9369L25.8883 18.3713L25.2649 18.6472C25.2649 18.6472 25.9711 17.4555 25.3918 17.1686C25.3918 17.1686 24.8069 16.9148 24.4152 17.1465C24.4152 17.1465 23.1352 16.4955 22.9476 17.0196C22.9476 17.0196 22.4511 17.8031 23.4993 18.4872L22.5669 18.3382L21.469 17.2348L21.4414 15.9768V15.9658Z" fill="#3A312A"/>
<path d="M18.5888 35.8668C18.5888 35.8668 18.3571 35.784 17.9543 35.6792C16.7515 35.3647 14.0591 34.8516 11.6978 35.8447C11.8026 36.0488 12.6302 37.6268 14.4012 37.9633C16.0012 38.2668 17.706 37.4337 18.5888 35.8723V35.8668Z" fill="#941B1A"/>
<path d="M17.8045 35.629L17.8983 40.4842L26.7093 37.7532L28.232 39.938L17.5948 44.8483C17.5948 44.8483 14.2072 46.3049 13.3079 42.018L12.4307 35.6401C12.4307 35.6401 14.5658 34.4483 17.8045 35.629Z" fill="#925F36"/>
<path d="M26.5835 37.8148C26.5835 37.8148 27.9683 36.9099 28.3104 36.0492L29.1821 36.281C29.1821 36.281 31.5656 34.4768 32.989 34.1513C32.989 34.1513 33.8111 34.1513 33.2538 34.6754L32.0621 35.4699C32.0621 35.4699 34.0538 34.8851 33.1656 35.7954L32.5421 36.1706C32.5421 36.1706 34.1807 36.2368 32.5587 36.9817C32.5587 36.9817 33.7228 37.0644 32.3325 37.8589C32.3325 37.8589 31.4 38.6754 29.6345 39.1885C29.6345 39.1885 28.4649 39.7623 27.5049 40.3417" fill="#925F36"/>
<path d="M18.5118 35.7787C17.8608 35.4808 16.7628 35.1332 15.2401 35.1112C13.618 35.0891 12.5035 35.525 11.8359 35.8229" stroke="black" stroke-width="0.551724" stroke-linecap="round" stroke-linejoin="round"/>
<path d="M24.4748 14.5705C24.4527 14.9898 24.5355 15.2933 24.6238 15.4974C24.7507 15.8064 24.9493 16.0381 24.85 16.2036C24.7893 16.3084 24.6513 16.325 24.6293 16.325C24.4472 16.347 24.2486 16.2146 24.1548 15.9939" stroke="#161415" stroke-width="0.413793" stroke-linecap="round" stroke-linejoin="round"/>
<path d="M23.8418 14.6362C23.7535 14.8679 23.5439 15.0169 23.3176 15.0113C23.0859 15.0058 22.8818 14.8348 22.8101 14.592" stroke="#161415" stroke-width="0.413793" stroke-linecap="round" stroke-linejoin="round"/>
<path d="M25.9862 14.6976C25.9035 14.9294 25.7104 15.0783 25.5007 15.0728C25.2855 15.0673 25.0979 14.8963 25.0317 14.6535" stroke="#161415" stroke-width="0.413793" stroke-linecap="round" stroke-linejoin="round"/>
<path d="M25.1817 17.561C25.11 17.6603 24.95 17.8479 24.6906 17.9141C24.2824 18.0189 23.8024 17.7872 23.521 17.3237" stroke="#161415" stroke-width="0.413793" stroke-linecap="round" stroke-linejoin="round"/>
<path d="M26.5842 72.1923H12.918C12.918 71.315 13.4752 70.5481 14.3028 70.2778C17.8173 69.1357 21.5966 69.1302 25.1166 70.2557L25.1938 70.2833C26.0214 70.5481 26.5842 71.3205 26.5842 72.1923Z" fill="#666666"/>
<path d="M13.5296 74.5477C14.1878 74.5477 14.7213 74.0141 14.7213 73.356C14.7213 72.6978 14.1878 72.1642 13.5296 72.1642C12.8714 72.1642 12.3379 72.6978 12.3379 73.356C12.3379 74.0141 12.8714 74.5477 13.5296 74.5477Z" fill="#333333"/>
<path d="M26.2689 74.5477C26.927 74.5477 27.4606 74.0141 27.4606 73.356C27.4606 72.6978 26.927 72.1642 26.2689 72.1642C25.6107 72.1642 25.0771 72.6978 25.0771 73.356C25.0771 74.0141 25.6107 74.5477 26.2689 74.5477Z" fill="#333333"/>
<path d="M18.6504 58.0684V68.5235" stroke="#1D1D1B" stroke-width="0.551724" stroke-linecap="round" stroke-linejoin="round"/>
<path d="M21.9976 56.049H27.6527" stroke="#1D1D1B" stroke-width="0.551724" stroke-linecap="round" stroke-linejoin="round"/>
<path d="M47.3843 30.6687L47.1084 29.2177L48.4491 30.3432L47.776 30.8288C47.627 30.9336 47.4229 30.8508 47.3898 30.6743L47.3843 30.6687Z" fill="#B2B2B2"/>
<path d="M45.5917 27.5515L52.5324 26.2494C52.709 26.2163 52.8414 26.4039 52.7586 26.5583L50.182 31.3583C50.1214 31.4742 49.9669 31.5073 49.862 31.4246L45.4979 27.9266C45.3545 27.8108 45.4152 27.5846 45.5917 27.5515Z" fill="white"/>
<path d="M49.8073 31.4968L45.4431 27.9988C45.3493 27.9216 45.3107 27.8057 45.3383 27.6899C45.3659 27.574 45.4597 27.4912 45.5756 27.4692L52.5162 26.1671C52.6321 26.145 52.748 26.1892 52.8142 26.283C52.8804 26.3768 52.8914 26.4981 52.8362 26.603L50.2542 31.403C50.21 31.4802 50.1383 31.5354 50.05 31.5574C49.9618 31.574 49.8735 31.5574 49.8073 31.4968ZM45.5149 27.734C45.5038 27.7836 45.5149 27.8278 45.559 27.8609L49.9231 31.3588C49.9507 31.3809 49.9894 31.3919 50.0225 31.3809C50.0611 31.3754 50.0887 31.3533 50.1052 31.3202L52.6873 26.5202C52.7094 26.4761 52.7093 26.4264 52.6762 26.3878C52.6487 26.3492 52.6045 26.3326 52.5549 26.3381L45.6142 27.6402C45.57 27.6512 45.5314 27.6843 45.5149 27.7285V27.734Z" fill="#D40918"/>
<path d="M47.1253 29.3064C47.1253 29.3064 47.1418 29.3064 47.1473 29.2953L53.1721 26.1284C53.2163 26.1064 46.5073 28.6057 46.5073 28.6057C46.5735 28.8043 47.0039 29.2126 47.0315 29.2567C47.048 29.2898 47.0921 29.3119 47.1253 29.3009V29.3064Z" fill="#D40918"/>
<path d="M21.4561 28.187L20.325 28.5125L20.7388 29.4338L20.1099 29.7263L20.4133 30.3332L21.0147 30.1125L21.3126 30.7856L22.543 30.3663L22.2395 29.6214L22.6864 29.4835L22.4381 28.838L21.8754 28.9869L21.4561 28.187Z" fill="#FFE200"/>
<path d="M31.9986 23.0724C31.6565 22.9069 31.3145 22.7138 30.9448 22.6476C30.1227 22.4986 29.24 23.0724 29.0469 23.8834" stroke="#1D1D1B" stroke-width="0.413793" stroke-linecap="round" stroke-linejoin="round"/>
<path d="M31.8218 21.8698C31.4798 21.7043 31.1377 21.5112 30.768 21.445C29.946 21.296 29.0632 21.8698 28.8701 22.6808" stroke="#1D1D1B" stroke-width="0.413793" stroke-linecap="round" stroke-linejoin="round"/>
</g>
<defs>
<clipPath id="clip0_43_28205">
<rect width="80" height="80" fill="white" transform="translate(0 0.633057)"/>
</clipPath>
</defs>
</svg>
