<svg width="80" height="81" viewBox="0 0 80 81" fill="none" xmlns="http://www.w3.org/2000/svg">
<g clip-path="url(#clip0_43_26083)">
<path d="M39.0174 78.9043C60.5665 78.9043 78.0354 61.4353 78.0354 39.8863C78.0354 18.3373 60.5665 0.868408 39.0174 0.868408C17.4684 0.868408 -0.000488281 18.3373 -0.000488281 39.8863C-0.000488281 61.4353 17.4684 78.9043 39.0174 78.9043Z" fill="#F9CCD4"/>
<path fill-rule="evenodd" clip-rule="evenodd" d="M17.5727 19.1403C17.0378 19.1698 16.4156 19.3705 15.9102 19.9951C15.9102 19.9951 12.6857 20.6504 13.746 25.4511C13.746 25.4511 15.9232 30.9674 12.1367 34.2816C12.1367 34.2816 13.9904 35.3241 15.8359 33.4858C15.8359 33.4858 16.3683 35.0207 15.4793 35.4162C15.4793 35.4162 18.5019 37.5805 20.6873 32.8317C20.6873 32.8317 21.2812 31.1575 22.1337 30.7714C22.1337 30.7714 23.1727 30.4762 23.0924 29.397C23.0924 29.397 24.4018 29.0393 24.4254 26.9022C24.4254 26.9022 24.4254 26.4228 24.5329 25.6955C24.7596 24.1547 24.0429 22.6269 22.7229 21.8016L19.1359 19.5583C18.6684 19.2654 18.1229 19.1096 17.5715 19.1403H17.5727Z" fill="#F3930D"/>
<path d="M19.936 21.0659C21.2525 21.2843 22.36 22.2313 22.7945 23.4899" stroke="#F15A24" stroke-width="0.23614" stroke-miterlimit="10" stroke-linecap="round"/>
<path d="M21.4282 23.21C21.4601 23.6315 21.714 24.3647 22.8947 25.1357C22.8947 25.1357 24.2206 25.7591 24.0588 28.2268" stroke="#006833" stroke-width="0.0779262" stroke-miterlimit="10" stroke-linecap="round"/>
<path d="M18.5913 24.2837C18.5784 24.3711 18.5618 24.508 18.5642 24.6745C18.5642 24.6745 18.5701 25.1007 18.7354 25.5282C19.0034 26.2189 20.262 27.324 20.5442 27.6074C21.1287 28.1977 21.6033 29.3879 21.0071 32.0456" stroke="#F15A24" stroke-width="0.23614" stroke-miterlimit="10" stroke-linecap="round"/>
<path d="M15.2948 23.0618C15.2027 23.4337 15.1885 23.8304 15.2192 24.1941C15.2971 25.0831 15.4636 25.9616 15.571 26.8471C15.6218 27.2627 15.6584 27.6807 15.6679 28.0986C15.7021 29.7469 15.3054 31.4483 14.4116 32.8427C14.1412 33.2654 13.8272 33.6597 13.4741 34.0175" stroke="#F15A24" stroke-width="0.23614" stroke-miterlimit="10" stroke-linecap="round"/>
<path d="M17.4577 22.4836C16.8024 23.0386 16.3714 23.8261 16.4624 24.6998C16.506 25.1119 16.6395 25.5086 16.7965 25.8923C17.1212 26.6834 17.5533 27.4379 17.7576 28.2738C17.9477 29.0554 18.0398 29.8559 18.0114 30.6612C17.9902 31.2598 17.9075 31.856 17.7753 32.4405C17.5179 33.581 17.2357 35.0605 15.9204 35.4088" stroke="#F15A24" stroke-width="0.23614" stroke-miterlimit="10" stroke-linecap="round"/>
<path d="M22.5311 26.4174C21.8121 25.7043 20.6491 23.9262 20.2854 23.0147C21.1426 22.6711 20.3764 21.0913 19.6597 21.8469C19.6597 21.8469 19.3621 20.9933 19.1118 20.8032C18.6372 20.4419 18.1035 20.2235 17.5214 20.3652C17.2758 20.4254 16.767 20.7312 16.5084 20.8693C16.1518 21.0582 16.0881 21.7289 16.0715 22.0488C16.0455 22.5317 16.2557 23.0005 16.4529 23.4432C17.0291 24.4102 16.9016 25.0986 17.6289 25.5354C17.989 25.7515 18.4306 25.6311 18.6195 25.7586C18.8296 25.9003 19.0056 26.0786 19.1425 26.2911C19.407 26.7032 21.4921 28.7068 21.8522 29.1118C22.2123 29.5168 23.2525 27.1306 22.5323 26.4186L22.5311 26.4174Z" fill="#925F36"/>
<path d="M17.8491 24.4301C19.0428 24.6993 19.3628 23.717 19.1798 23.175" stroke="#1D1D1B" stroke-width="0.23614" stroke-linecap="round" stroke-linejoin="round"/>
<path fill-rule="evenodd" clip-rule="evenodd" d="M15.981 20.684C15.981 20.684 18.1287 23.1257 19.9847 21.651C20.1441 21.4479 18.9835 19.7713 18.5242 19.4183C18.5242 19.4183 17.6871 18.5564 15.981 20.684Z" fill="#F3930D"/>
<path fill-rule="evenodd" clip-rule="evenodd" d="M15.0441 21.4636C15.0441 21.4636 14.7831 22.2228 16.0158 23.6349C16.0158 23.6349 17.7231 22.1685 16.5235 20.7776L16.2874 20.7351L15.0441 21.4636Z" fill="#F3930D"/>
<path d="M17.1538 21.1301C17.7548 21.5776 18.6462 21.593 19.2496 21.1478" stroke="#F15A24" stroke-width="0.23614" stroke-miterlimit="10" stroke-linecap="round"/>
<path d="M16.473 21.1855C16.6277 21.4961 16.6371 21.8644 16.5592 22.2033C16.4813 22.5422 16.3219 22.8551 16.1519 23.1585" stroke="#F15A24" stroke-width="0.23614" stroke-miterlimit="10" stroke-linecap="round"/>
<path d="M16.9297 20.5677C17.0678 20.4401 17.2685 20.4012 17.4504 20.3976C17.938 20.3882 18.4634 20.5972 18.9097 20.2949" stroke="#F15A24" stroke-width="0.23614" stroke-miterlimit="10" stroke-linecap="round"/>
<path d="M17.6001 22.6936C17.7382 22.8943 17.8421 23.1316 17.7996 23.3808C17.7878 23.4493 17.7654 23.5166 17.7701 23.5862C17.7784 23.7279 17.926 23.8011 18.0405 23.7137C18.0877 23.6771 18.1184 23.624 18.1373 23.5673C18.1562 23.5106 18.1621 23.4516 18.1692 23.3926" stroke="#1D1D1B" stroke-width="0.23614" stroke-linecap="round" stroke-linejoin="round"/>
<path d="M18.6185 22.2615C18.6232 22.2815 18.6539 22.4197 18.5642 22.5401C18.5595 22.5472 18.4414 22.6995 18.2643 22.6688C18.1297 22.6452 18.0624 22.533 18.0518 22.5165" stroke="#1D1D1B" stroke-width="0.23614" stroke-linecap="round" stroke-linejoin="round"/>
<path d="M17.2928 22.8335C17.2975 22.8536 17.3282 22.9917 17.2385 23.1121C17.2338 23.1192 17.1157 23.2715 16.9386 23.2408C16.804 23.2172 16.7367 23.1051 16.7261 23.0885" stroke="#1D1D1B" stroke-width="0.23614" stroke-linecap="round" stroke-linejoin="round"/>
<path d="M10.0939 21.7912C10.8354 21.966 11.6701 22.5174 11.6937 22.3757C11.7173 22.234 10.304 21.6802 10.2308 21.3697C10.2155 21.3024 10.2946 21.2209 10.3737 21.2398C10.7822 21.3426 11.7067 21.7794 12.0397 21.9825C12.2062 22.084 13.1365 22.6649 13.2629 22.6035C13.4671 22.5055 13.1814 22.1454 12.8402 21.9282C12.3726 21.6306 12.7127 21.4311 12.9063 21.5256C14.0445 22.0793 14.3798 22.9082 14.4589 23.2553C14.6396 24.0511 14.7647 26.2566 14.7647 26.2566L13.1425 26.5412C13.1425 26.5412 13.172 25.6108 12.8154 25.1243C12.46 24.6379 12.3077 24.3651 11.4907 23.835C10.8023 23.4643 10.3147 23.1844 10.2769 23.1183C10.2249 23.0286 10.3088 22.9448 10.4009 22.9755C10.6146 23.0487 11.2096 23.3556 11.2061 23.26C11.2026 23.1644 10.4823 23.0168 10.0892 22.4772C10.0348 22.4028 10.1163 22.2883 10.2131 22.3343C10.6901 22.5599 11.3631 22.9613 11.3584 22.8019C11.3537 22.6425 10.0301 22.2446 9.95456 21.9199C9.93921 21.8526 10.0183 21.7723 10.0974 21.79L10.0939 21.7912Z" fill="#925F36"/>
<path d="M13.2628 22.6082C13.4671 22.5102 13.1813 22.1501 12.8401 21.9329C12.3726 21.6353 12.7126 21.4358 12.9062 21.5302C14.0444 22.084 14.3798 22.9128 14.4589 23.26C14.4671 23.2989 14.4766 23.3414 14.4848 23.3863C14.401 23.5256 14.2239 23.5717 13.9382 23.554C13.4942 23.5268 13.1188 23.3828 12.8295 23.1419" fill="#925F36"/>
<path d="M21.0174 29.3281L18.793 29.7531C18.1129 29.883 17.4281 29.5477 17.1152 28.929C16.5674 27.8463 15.7043 26.1756 15.1069 25.1685C14.1741 25.6089 13.2567 26.0823 12.3594 26.59C13.18 28.2406 14.0324 29.8747 14.9156 31.4923C15.5508 32.6553 16.846 33.2976 18.1531 33.0874C19.7801 32.8253 21.0174 32.7167 21.0174 32.7167" fill="#4D4D4D"/>
<path d="M9.45068 20.3079C9.47784 20.2618 9.67265 19.9419 10.0753 19.8734C10.4413 19.8108 10.7117 20.0009 10.7589 20.0363" stroke="#161415" stroke-width="0.23614" stroke-linecap="round" stroke-linejoin="round"/>
<path d="M8.48815 23.0576C8.47162 23.0777 8.22013 23.413 8.36418 23.8085C8.4669 24.0907 8.72901 24.2903 9.036 24.3186" stroke="#161415" stroke-width="0.23614" stroke-linecap="round" stroke-linejoin="round"/>
<path d="M8.76562 20.1435C8.78806 20.0762 9.04663 19.3453 9.82471 19.1163C10.5438 18.9049 11.1188 19.2969 11.1908 19.3465" stroke="#161415" stroke-width="0.23614" stroke-linecap="round" stroke-linejoin="round"/>
<path d="M41.5883 14.5564H21.0205V55.7935H41.5883V14.5564Z" fill="#0892CB"/>
<path fill-rule="evenodd" clip-rule="evenodd" d="M41.676 55.7937L44.9595 58.272H40.4611H35.8504H25.6397H21.1708H17.853L20.7186 55.7937H41.676Z" fill="#D40918"/>
<path d="M17.8539 58.9248H44.9604V58.2754H17.8539V58.9248Z" fill="#B70E13"/>
<path d="M22.5038 58.272H21.1708H17.853L20.7186 55.7937H22.7081" stroke="#161415" stroke-width="0.23614" stroke-linecap="round" stroke-linejoin="round"/>
<path d="M43.3562 57.061L44.9596 58.2713H41.7717H38.1045" stroke="#B71918" stroke-width="0.23614" stroke-linecap="round" stroke-linejoin="round"/>
<path d="M27.2456 55.7937H41.6761" stroke="#161415" stroke-width="0.23614" stroke-linecap="round" stroke-linejoin="round"/>
<path d="M24.8252 39.4448L24.9456 52.5754H30.2871L29.9518 39.4448H24.8252Z" stroke="#A8DCF2" stroke-width="0.23614" stroke-linecap="round" stroke-linejoin="round"/>
<path d="M29.229 40.3303L29.4702 51.6887H25.7261L25.6392 40.3303H29.229Z" fill="#A8DCF2" stroke="#A8DCF2" stroke-width="0.11807"/>
<path d="M32.7466 39.4448L32.6167 52.5754H37.8708L37.9676 39.4448H32.7466Z" stroke="#A8DCF2" stroke-width="0.23614" stroke-linecap="round" stroke-linejoin="round"/>
<path d="M37.2417 40.4744L37.1655 51.6863H37.063C36.9604 51.6868 36.814 51.6875 36.6382 51.6882C36.2858 51.6898 35.8148 51.6919 35.3423 51.6931C34.8698 51.6944 34.395 51.695 34.0347 51.6941C33.8545 51.6936 33.7026 51.6925 33.5942 51.6912C33.54 51.6905 33.4967 51.6901 33.4663 51.6892C33.4653 51.6892 33.4643 51.6883 33.4634 51.6882C33.4622 51.6687 33.4606 51.6433 33.4595 51.6121C33.4566 51.5285 33.4546 51.4058 33.4526 51.2498C33.4487 50.9378 33.4466 50.4931 33.4458 49.9597C33.4441 48.893 33.4479 47.4725 33.4536 46.0525C33.4594 44.6327 33.4668 43.2135 33.4731 42.1492C33.4763 41.6171 33.479 41.1734 33.481 40.863C33.482 40.7079 33.4833 40.5858 33.4839 40.5027C33.4841 40.4753 33.4838 40.4521 33.4839 40.4333L37.2417 40.4744Z" fill="#A8DCF2" stroke="#A8DCF2" stroke-width="0.11807"/>
<path d="M37.9671 32.3422L37.8478 19.2117H32.5063L32.8417 32.3422H37.9671Z" stroke="#A8DCF2" stroke-width="0.23614" stroke-linecap="round" stroke-linejoin="round"/>
<path d="M37.1426 20.2229L37.2285 31.5813H33.6377L33.3975 20.2229H37.1426Z" fill="#A8DCF2" stroke="#A8DCF2" stroke-width="0.11807"/>
<path d="M30.0463 32.3422L30.1761 19.2117H24.9232L24.8252 32.3422H30.0463Z" stroke="#A8DCF2" stroke-width="0.23614" stroke-linecap="round" stroke-linejoin="round"/>
<path d="M25.835 20.2249C25.9364 20.2257 26.0817 20.2263 26.2559 20.2278C26.6045 20.2307 27.0706 20.2348 27.5381 20.2395C28.0054 20.2442 28.4746 20.2498 28.8311 20.2551C29.0092 20.2578 29.1594 20.2604 29.2666 20.2629C29.3203 20.2642 29.3634 20.2656 29.3936 20.2668H29.3955C29.3965 20.2866 29.3976 20.3129 29.3984 20.345C29.4006 20.4289 29.4028 20.5517 29.4033 20.7083C29.4044 21.0217 29.4025 21.4691 29.3984 22.0051C29.3904 23.0772 29.3732 24.5048 29.3545 25.9319C29.3357 27.3591 29.3149 28.7858 29.2988 29.8557C29.2908 30.3906 29.2841 30.8367 29.2793 31.1487C29.2769 31.3042 29.2748 31.4265 29.2734 31.51C29.273 31.5381 29.2728 31.5622 29.2725 31.5813H25.5576L25.7344 20.2239C25.7602 20.2241 25.794 20.2245 25.835 20.2249Z" fill="#A8DCF2" stroke="#A8DCF2" stroke-width="0.11807"/>
<path d="M24.8259 37.3567C25.3678 37.3567 25.807 36.9274 25.807 36.3979C25.807 35.8684 25.3678 35.4392 24.8259 35.4392C24.284 35.4392 23.8447 35.8684 23.8447 36.3979C23.8447 36.9274 24.284 37.3567 24.8259 37.3567Z" fill="#FDDA24"/>
<path d="M27.8105 35.2625L27.7939 37.3181H35.1792L35.1367 35.2625H27.8105Z" stroke="#A8DCF2" stroke-width="0.23614" stroke-linecap="round" stroke-linejoin="round"/>
<path d="M34.1348 36.6606L28.6777 36.6509L28.6699 35.8823L34.1348 35.8745V36.6606Z" fill="#A8DCF2" stroke="#A8DCF2" stroke-width="0.11807"/>
<path d="M21.0146 21.3904V39.8164" stroke="#161415" stroke-width="0.23614" stroke-linecap="round" stroke-linejoin="round"/>
<path d="M24.8252 35.4392C24.8252 35.4392 25.8064 35.5018 25.8064 36.3979" stroke="#161415" stroke-width="0.23614" stroke-linecap="round" stroke-linejoin="round"/>
<path d="M13.2197 22.9175C13.1252 23.0934 13.0981 23.3047 13.1453 23.4996C13.1713 23.6094 13.2197 23.7121 13.2704 23.8125C13.2893 23.8502 13.3295 23.9317 13.3979 24.045C13.4712 24.1667 13.5845 24.3379 13.7522 24.535" stroke="#161415" stroke-width="0.23614" stroke-linecap="round" stroke-linejoin="round"/>
<path d="M40.4067 20.4112C40.4067 20.4112 44.7293 19.6 46.0434 22.5506L40.4067 21.2211V20.4124V20.4112Z" fill="#D40918"/>
<path d="M37.6835 20.8619C37.6835 20.8619 33.361 20.0507 32.0469 23.0013L37.6835 21.6718V20.863V20.8619Z" fill="#D40918"/>
<path d="M13.3145 23.9001C13.2861 23.8635 13.1126 23.6415 12.8103 23.6191C12.6084 23.6037 12.4573 23.6852 12.3994 23.7194" stroke="#161415" stroke-width="0.23614" stroke-linecap="round" stroke-linejoin="round"/>
<path d="M12.064 23.3022C12.2647 23.3411 12.4666 23.2738 12.5858 23.1239C12.711 22.968 12.6968 22.7862 12.6921 22.7449" stroke="#161415" stroke-width="0.23614" stroke-linecap="round" stroke-linejoin="round"/>
<path d="M37.8667 17.6711C37.8691 17.4113 37.6507 17.2106 37.4476 17.0489C37.287 16.9214 37.1241 16.7927 36.9375 16.7076C36.751 16.6226 36.5373 16.5813 36.3389 16.6333C36.2775 16.6498 36.2173 16.6758 36.1689 16.7159C36.0721 16.795 36.0272 16.919 35.9942 17.0394C35.9469 17.2142 35.9174 17.3984 35.9481 17.5766C35.9788 17.7549 36.0768 17.9285 36.2362 18.017C36.3342 18.0714 36.4464 18.0902 36.5573 18.108C36.9316 18.1694 37.3366 18.2272 37.6755 18.0548" fill="#2A2A2D"/>
<path d="M43.4144 21.7314L40.5583 21.7833L40.5571 17.6863" stroke="#1D1D1B" stroke-width="0.23614" stroke-linecap="round" stroke-linejoin="round"/>
<path d="M37.727 21.6346C38.1899 22.6653 39.5406 23.5697 40.2053 23.1282C40.4285 22.9794 40.5536 22.8224 40.6233 22.7137C41.092 21.99 40.6351 21.448 40.7756 19.932C40.7909 19.7726 40.824 19.5849 40.9078 19.3594C41.0046 19.0984 41.5289 18.9048 41.732 18.4337C42.1417 17.4832 41.5265 16.8905 41.4096 15.5221C41.4037 15.2741 41.3541 14.5279 40.7957 13.8679C40.3564 13.3508 39.8393 13.163 39.7271 13.1253C39.524 13.0556 38.818 12.8265 38.0493 13.1784C37.9006 13.2469 37.2866 13.5491 36.9737 14.2694C36.5569 15.2293 37.0328 16.1136 37.093 16.2211C35.845 15.9814 36.2086 18.0936 37.3031 17.8245C37.361 18.2105 37.4401 18.8032 37.5015 19.5306C37.6231 20.984 37.5204 21.1717 37.727 21.6334V21.6346Z" fill="#F18900"/>
<path d="M39.752 15.5981C39.7816 15.924 39.8796 16.1472 39.9669 16.2936C40.1004 16.5179 40.2763 16.6726 40.2208 16.8107C40.1854 16.8969 40.0815 16.9241 40.0638 16.9288C39.9256 16.9654 39.7603 16.8875 39.6611 16.7245" stroke="#161415" stroke-width="0.23614" stroke-linecap="round" stroke-linejoin="round"/>
<path d="M39.27 15.7173C39.2275 15.9062 39.0822 16.0443 38.9063 16.0644C38.728 16.0845 38.5521 15.9782 38.4683 15.7988" stroke="#161415" stroke-width="0.23614" stroke-linecap="round" stroke-linejoin="round"/>
<path d="M40.9321 15.5259C40.8943 15.7148 40.7609 15.8506 40.598 15.8683C40.4327 15.886 40.2686 15.7785 40.1895 15.5979" stroke="#161415" stroke-width="0.23614" stroke-linecap="round" stroke-linejoin="round"/>
<path d="M38.9463 17.6079C38.977 17.6669 39.1364 17.9586 39.4847 18.0625C39.9735 18.2089 40.3655 17.8476 40.382 17.8322" stroke="#161415" stroke-width="0.23614" stroke-linecap="round" stroke-linejoin="round"/>
<path d="M40.2367 14.1572C40.2143 14.1549 40.1931 14.1537 40.1718 14.1513C39.6629 14.1159 39.1399 14.2363 38.7018 14.4984C38.1658 14.8196 37.7974 15.3899 37.8364 16.0275C37.8387 16.0605 37.8411 16.0936 37.8458 16.1266C37.8576 16.2211 37.886 16.3061 37.9108 16.397C37.9344 16.4867 37.9556 16.5895 37.8966 16.6709C37.847 16.7394 37.7443 16.7949 37.6428 16.8126C37.6085 16.8185 37.5436 16.8291 37.4822 16.8091C37.2838 16.7418 37.357 16.41 37.1622 16.2766C37.0087 16.1703 36.7513 16.2305 36.5978 16.3309C36.3452 16.4962 36.3841 16.7654 36.181 16.8173C36.0016 16.8634 35.8292 16.6875 35.8197 16.6792C35.6391 16.4915 35.6828 16.201 35.7158 16.103C35.7749 15.9283 35.8977 15.7807 35.952 15.6048C36.0441 15.3049 35.9177 14.979 35.7418 14.7192C35.6686 14.6106 35.5836 14.5032 35.5588 14.3733C35.5258 14.2009 35.6119 14.0191 35.7524 13.914C35.893 13.8089 36.0771 13.7759 36.2507 13.7971C36.3263 13.8066 36.4018 13.8254 36.4786 13.8207C36.6828 13.8066 36.8375 13.6224 36.9072 13.4299C36.9768 13.2375 36.9863 13.0285 37.043 12.8313C37.0996 12.6341 37.2224 12.4358 37.4196 12.3814C37.664 12.3141 37.9025 12.4865 38.1504 12.542C38.4622 12.6117 38.7868 12.4865 39.0549 12.3118C39.3217 12.1359 39.5531 11.9092 39.8223 11.738C40.3111 11.4251 40.9204 11.3094 41.4907 11.4192C41.65 11.4499 41.8177 11.5066 41.9086 11.6412C42.0491 11.8501 41.9311 12.1418 41.7516 12.3177C41.5639 12.5007 41.2923 12.666 41.3017 12.9269C41.3076 13.0733 41.4104 13.2032 41.5367 13.2776C41.6276 13.3307 41.741 13.3732 41.7752 13.4736C41.8319 13.6365 41.6335 13.764 41.545 13.9128C41.4576 14.0569 41.4765 14.2422 41.5284 14.4028C41.5957 14.6106 41.6713 14.6602 41.6973 14.8786C41.7079 14.9684 41.7197 15.0912 41.6571 15.1868C41.6111 15.2565 41.4847 15.319 41.3997 15.3072C41.395 15.3072 41.3868 15.201 41.3856 15.1903C41.349 14.894 41.2297 14.6142 40.9948 14.4241C40.7917 14.2599 40.4977 14.1879 40.2367 14.1619V14.1572Z" fill="#2A2A2D"/>
<path d="M38.8127 73.3788C40.6522 73.3788 42.1434 73.1235 42.1434 72.8086C42.1434 72.4936 40.6522 72.2383 38.8127 72.2383C36.9732 72.2383 35.4819 72.4936 35.4819 72.8086C35.4819 73.1235 36.9732 73.3788 38.8127 73.3788Z" fill="#D9D9D9"/>
<path d="M73.8597 74.9938C76.5046 74.9938 78.6486 74.7385 78.6486 74.4236C78.6486 74.1086 76.5046 73.8533 73.8597 73.8533C71.2149 73.8533 69.0708 74.1086 69.0708 74.4236C69.0708 74.7385 71.2149 74.9938 73.8597 74.9938Z" fill="#D9D9D9"/>
<path d="M37.0559 66.6139C36.4136 66.3943 35.1692 66.6623 35.4632 67.6069C35.7572 68.5514 37.0311 70.0993 38.0064 69.5468C38.9805 68.9954 38.1233 68.2008 38.1233 68.2008L37.0547 66.6127L37.0559 66.6139Z" fill="black"/>
<path d="M37.4771 66.1963L36.7628 66.5942L36.1748 67.1751L37.1052 68.8009L39.6425 67.5801L37.4771 66.1963Z" fill="#B70E13"/>
<path d="M36.7604 66.5974L35.8359 67.1122C35.8265 67.4522 35.8088 67.5998 36.2114 68.3578C36.6152 69.1147 37.2599 68.8773 37.2599 68.8773L37.3838 68.6388C37.3838 68.6388 36.8549 68.2492 36.5408 67.6695C36.2268 67.0898 36.7593 66.5974 36.7593 66.5974H36.7604Z" fill="#E52335"/>
<path d="M36.1509 66.8401C35.7967 67.0833 35.8475 67.5225 35.8923 67.6666C35.9372 67.8106 35.6491 67.6937 35.6527 67.6689C35.6562 67.6441 35.524 67.0821 35.5417 67.0703C35.5594 67.0585 36.1521 66.8401 36.1521 66.8401H36.1509Z" fill="black"/>
<path d="M38.4804 68.9049C38.4804 68.9049 38.5288 69.8317 39.6623 69.9899L40.3766 71.3064C40.3766 71.3064 38.8087 72.8874 37.6929 72.6123C36.7602 72.382 35.9809 70.781 35.4567 69.2296C35.3539 68.9249 35.4212 68.5637 35.3221 68.2791C35.1816 67.847 35.2843 67.5258 35.2843 67.5258L35.5783 66.9095C35.5948 66.8918 35.6113 67.0122 35.6243 67.0335L36.2406 68.7195C36.7637 69.6145 37.3493 69.0383 38.3789 68.9155L38.4804 68.9037V68.9049Z" fill="black"/>
<path d="M38.3281 71.0307C38.3281 71.0307 39.0047 69.4261 40.196 70.1782C40.196 70.1782 40.7686 70.5761 41.0189 71.2479C41.3023 71.7887 38.5454 72.6399 38.5454 72.6399L38.3281 71.0307Z" fill="black"/>
<path d="M41.129 71.398C41.129 71.398 40.7996 70.6896 40.5445 70.5385C40.2895 70.3874 38.9482 70.2516 38.5149 71.0533C38.0816 71.855 38.4547 72.3768 38.4547 72.3768C38.2764 72.45 38.2115 72.4666 38.0556 72.4382C37.6518 72.345 37.4877 72.2836 37.1217 71.9801C36.8572 71.7605 36.7049 71.339 36.3554 70.8242C36.1299 70.5161 35.9894 70.0969 35.7698 69.6742C35.3683 68.8997 35.4097 68.1122 35.281 67.5312L35.1499 67.9681C35.2066 68.2007 35.4321 69.5195 35.9469 70.7581C36.248 71.4819 36.5384 72.2375 37.2374 72.5776C37.7474 72.8255 38.3484 72.8019 38.3484 72.8019C38.3484 72.8019 39.607 72.868 40.9306 71.9707C41.1998 71.7877 41.1443 71.4346 41.1278 71.3992L41.129 71.398Z" fill="#333333"/>
<path d="M39.0003 69.7522C39.0003 69.7522 38.1289 69.6672 37.7251 70.3744" stroke="#979797" stroke-width="0.145226" stroke-miterlimit="10" stroke-linecap="round"/>
<path d="M38.554 69.4788C38.554 69.4788 37.6826 69.3938 37.2788 70.101" stroke="#979797" stroke-width="0.145226" stroke-miterlimit="10" stroke-linecap="round"/>
<path d="M38.2649 69.0755C38.2649 69.0755 37.3935 68.9905 36.9897 69.6977" stroke="#979797" stroke-width="0.145226" stroke-miterlimit="10" stroke-linecap="round"/>
<path d="M37.7012 71.3321C37.7059 70.8043 39.0519 69.4619 40.2432 70.2128" stroke="#353435" stroke-width="0.133419" stroke-miterlimit="10" stroke-linecap="round"/>
<path d="M36.9344 69.0924C36.5389 68.0569 37.6664 68.2104 38.0655 68.267C38.4646 68.3237 38.4918 68.3143 38.2001 68.6827C37.9085 69.051 36.9344 69.0924 36.9344 69.0924Z" fill="black"/>
<path d="M68.9704 71.8019C68.6941 71.2162 68.9113 70.4228 69.4426 70.6424C69.974 70.8632 69.7886 71.1359 69.7886 71.1359L68.9704 71.8007V71.8019Z" fill="black"/>
<path d="M69.7195 66.6426L71.1375 68.2129L69.017 70.7302L66.6426 68.0866L69.7195 66.6426Z" fill="#B70E13"/>
<path d="M70.4831 67.4656C70.4831 67.4656 69.7805 67.455 68.8997 68.0571C68.098 68.6061 67.8843 69.1245 68.1606 69.5141C68.4369 69.9037 69.6495 71.6146 69.6495 71.6146L71.136 68.2153L70.4831 67.4656Z" fill="#E52335"/>
<path d="M71.6104 67.6865C71.6104 67.6865 71.5054 67.1139 71.1807 67.2273C70.856 67.3406 70.0342 67.7645 70.4687 68.1081C70.902 68.4516 71.2421 68.7527 71.2515 68.7267C71.261 68.7008 71.6116 67.6865 71.6116 67.6865H71.6104Z" fill="#585856"/>
<path d="M76.2044 66.091C74.9115 65.1074 73.9292 64.6883 72.9433 65.8159C71.9562 66.9446 70.8216 68.4583 69.9325 69.9341C69.0435 71.41 69.2076 71.2341 68.9915 71.6568C68.7754 72.0795 70.1262 73.5742 70.5418 73.8434C70.9574 74.1126 74.7545 68.221 74.7545 68.221L76.2032 66.0898L76.2044 66.091Z" fill="black"/>
<path d="M76.2022 66.0912C75.0463 65.1278 73.3084 67.0972 71.6105 69.6522C69.9115 72.2073 69.7804 73.2852 70.6423 73.9264C71.5042 74.5675 72.8101 73.4092 74.6933 70.912C76.5765 68.4149 77.1964 66.9189 76.2034 66.0901L76.2022 66.0912Z" fill="#4E4D4D"/>
<path d="M69.0173 70.7347C69.0173 70.7347 69.5274 70.6143 69.6501 70.4018C69.7729 70.1893 69.9453 71.1244 69.9453 71.1244C69.9453 71.1244 69.5144 71.5671 69.4565 71.5435C69.3987 71.5199 69.0704 71.3334 69.0704 71.3334L69.0161 70.7347H69.0173Z" fill="black"/>
<path d="M72.8488 65.9267C72.8488 65.9267 72.6824 65.8311 72.6103 66.0306C72.5383 66.2302 72.7556 66.5076 72.7556 66.5076L72.8335 66.3648L72.7107 66.0861L72.8477 65.9267H72.8488Z" fill="#808080"/>
<path d="M72.5342 66.2947C72.5342 66.2947 72.3607 66.2002 72.2875 66.4009C72.2143 66.6016 72.4327 66.8779 72.4327 66.8779L72.5106 66.7351L72.3985 66.4588L72.533 66.2958L72.5342 66.2947Z" fill="#808080"/>
<path d="M72.2024 66.7026C72.2024 66.7026 72.0359 66.607 71.9639 66.8065C71.8918 67.006 72.1091 67.2835 72.1091 67.2835L72.187 67.1406L72.0689 66.8714L72.2024 66.7026Z" fill="#808080"/>
<mask id="mask0_43_26083" style="mask-type:luminance" maskUnits="userSpaceOnUse" x="70" y="66" width="7" height="8">
<path d="M71.0276 73.6032C70.9922 73.5902 70.958 73.5713 70.9237 73.5454C70.6699 73.3565 70.5223 73.1239 70.6297 72.6044C70.7537 72.001 71.2035 71.1226 72.0041 69.9171C72.8683 68.6171 73.5956 67.6926 74.2261 67.0893C75.0314 66.3207 75.4812 66.2628 75.7162 66.3502C75.7764 66.3726 75.8366 66.408 75.8945 66.4576C76.3679 66.852 76.5498 67.656 74.3088 70.6267C73.4185 71.8074 72.7101 72.615 72.141 73.0979C71.8588 73.3364 71.0264 73.6032 71.0264 73.6032H71.0276Z" fill="white"/>
</mask>
<g mask="url(#mask0_43_26083)">
<path d="M77.6191 67.9745L73.2222 66.3888L73.6106 65.7654L78.0075 67.3522L77.6191 67.9745Z" fill="black"/>
<path d="M76.8991 68.966L72.501 67.3804L72.88 66.7817L77.2781 68.3686L76.8991 68.966Z" fill="black"/>
<path d="M76.1803 69.9574L71.7822 68.3717L72.1518 67.7979L76.5499 69.3847L76.1803 69.9574Z" fill="black"/>
<path d="M75.4611 70.9489L71.063 69.3632L71.4243 68.8142L75.8212 70.4011L75.4611 70.9489Z" fill="black"/>
<path d="M74.7426 71.9363L70.3457 70.3506L70.6964 69.8264L75.0945 71.4133L74.7426 71.9363Z" fill="black"/>
<path d="M74.0239 72.9276L69.627 71.342L69.9682 70.8425L74.3663 72.4294L74.0239 72.9276Z" fill="black"/>
<path d="M73.3046 73.9173L68.9077 72.3316L69.2407 71.8569L73.6376 73.4438L73.3046 73.9173Z" fill="black"/>
</g>
<path d="M75.9676 65.9047C75.4635 65.5564 74.7869 65.5611 74.3017 65.9354C74.2887 65.946 74.2757 65.9555 74.2627 65.9673C73.6346 66.4856 71.8517 68.3287 71.0972 69.8967C70.344 71.4634 69.6769 72.4033 69.8752 73.0964C70.0724 73.7894 70.8894 74.0563 70.8894 74.0563C70.8894 74.0563 70.0441 73.7528 70.1267 73.0385C70.2094 72.3242 70.7501 70.9274 71.7632 69.4704C72.7762 68.0146 74.108 66.5541 74.6547 66.1397C75.1707 65.7477 75.6784 65.9142 76.1258 66.0995C76.3785 66.2046 76.1837 66.0547 75.9653 65.9035L75.9676 65.9047Z" fill="#333333"/>
<path d="M74.3018 65.9421C74.6678 65.6552 74.7504 65.6245 74.6146 65.36C74.4789 65.0956 75.3738 65.262 76.0929 65.9846L75.3974 65.7745L74.6749 65.8819L74.3018 65.9421Z" fill="#333333"/>
<path d="M70.1538 73.5841C69.7075 73.2299 68.829 72.2015 69.0959 72.1672C69.3627 72.133 69.8586 73.296 69.8704 72.8957C69.8822 72.4955 70.0345 73.3161 70.0345 73.3161L70.1538 73.5829V73.5841Z" fill="#333333"/>
<path d="M42.3807 40.3444C42.3807 40.3444 42.0513 40.9371 40.893 40.6903L40.6816 39.0763L42.0324 38.7339L42.3807 40.3444Z" fill="#A96772"/>
<path d="M49.1389 37.5018C49.1389 37.5018 64.3534 55.4319 70.0125 66.1066C70.0125 66.1066 70.5379 67.0134 70.3172 67.2353C70.3172 67.2353 69.2085 66.6969 68.2273 67.6781C67.2462 68.6593 67.4669 69.2614 67.4669 69.2614C67.4669 69.2614 67.278 69.4869 66.6322 68.9934C66.6322 68.9934 57.895 59.915 48.1318 47.8341C48.1318 47.8341 42.8517 41.4311 40.9897 38.1937L44.5602 34.8806H47.5993L49.1378 37.5018H49.1389Z" fill="#4D4D4D"/>
<path d="M51.8789 36.3617C51.8789 36.3617 50.7891 33.2093 43.5325 37.1977C43.5325 37.1977 41.8559 38.4409 41.5737 39.1482L52.1563 41.1471C52.1563 41.1471 51.8411 39.0584 51.8789 36.3605V36.3617Z" fill="#4D4D4D"/>
<path d="M50.2204 47.7207C50.2204 47.7207 42.7749 64.3969 39.4324 67.9295C39.4324 67.9295 37.7227 68.1574 36.7734 66.6756C36.7734 66.6756 41.4455 55.583 44.5991 41.4146L50.2216 47.7207H50.2204Z" fill="#4D4D4D"/>
<path d="M46.5718 44.5662C46.5718 44.5662 42.7345 59.2293 38.0625 65.6487" stroke="#1D1D1B" stroke-width="0.23614" stroke-linecap="round" stroke-linejoin="round"/>
<path d="M45.246 36.3599C45.246 36.3599 46.0784 39.0944 44.2554 40.0826" stroke="#1D1D1B" stroke-width="0.23614" stroke-linecap="round" stroke-linejoin="round"/>
<path d="M50.2209 32.1623C50.2209 32.1623 54.0263 37.1307 52.0462 39.5901C52.0462 39.5901 52.0462 37.4058 46.4414 37.5947C46.4414 37.5947 41.2747 37.9737 40.8945 40.6893C40.8945 40.6893 38.0644 40.0813 37.0962 36.5297L50.2209 32.1611V32.1623Z" fill="#D40918"/>
<path d="M34.4587 34.9757C34.4587 34.9757 33.0654 33.5365 31.8245 29.7063C31.7454 29.4607 31.6663 29.2045 31.5884 28.9388V28.1206H32.7171L34.4587 34.9757Z" fill="#F3930D"/>
<path d="M31.7938 29.6033C31.7938 29.6033 31.5069 29.758 31.2271 29.4085L31.5895 28.9351L31.7938 29.6033Z" fill="#A96772"/>
<path d="M58.9209 31.6384C58.9209 31.6384 58.7391 32.2016 57.9787 32.4484C57.9787 32.4484 55.3281 35.824 51.8238 34.8523L50.6572 32.5889C50.6572 32.5889 53.1261 33.6645 55.236 32.5417L57.9894 31.8675L58.9209 31.6396V31.6384Z" fill="#F3930D"/>
<path d="M31.5928 24.3946C31.5928 24.3946 31.4889 23.3544 32.633 22.4193C33.7771 21.4841 37.7289 21.6341 37.7289 21.6341C37.7289 21.6341 40.4835 25.5399 40.9002 21.0674C41.0278 19.6918 45.2677 21.483 45.2677 21.483L50.4934 26.6308L36.6887 29.4385L31.8018 27.5152L31.594 24.3958L31.5928 24.3946Z" fill="#D40918"/>
<path d="M43.5122 22.8169L42.6303 23.0707L42.9538 23.7886L42.4614 24.0177L42.6976 24.4888L43.1675 24.3187L43.3989 24.8442L44.3588 24.5183L44.1227 23.9374L44.471 23.8311L44.2762 23.3258L43.8381 23.4427L43.5122 22.8169Z" fill="#FFE31D"/>
<path d="M31.6606 23.9568C31.6606 23.9568 30.6169 27.5272 31.2249 29.4081C31.2249 29.4081 31.7704 28.3643 32.7988 28.4399L31.6606 23.9568Z" fill="#D40918"/>
<path d="M46.9441 23.2922L49.9112 33.8725L36.3379 37.195L35.1005 37.4984L32.3896 26.7269L46.9441 23.2922Z" fill="#8C6239"/>
<path d="M43.1524 28.6995L46.6768 27.7254C46.878 27.6698 46.996 27.4617 46.9404 27.2606L46.3119 24.9868C46.2563 24.7857 46.0482 24.6677 45.8471 24.7233L42.3226 25.6974C42.1215 25.753 42.0035 25.9611 42.0591 26.1622L42.6875 28.436C42.7431 28.6371 42.9512 28.7551 43.1524 28.6995Z" fill="#C69C6D"/>
<path d="M36.3381 37.1944C36.3381 37.1944 40.3714 40.08 44.1697 36.4246C44.1697 36.4246 44.6951 36.0538 44.845 35.323L43.2003 34.3926C43.2003 34.3926 42.9252 33.8518 42.4836 33.8223C42.4836 33.8223 42.1849 33.7798 42.4978 34.2497C42.4978 34.2497 42.7729 35.1281 42.2168 35.7551C42.2168 35.7551 41.5733 36.4246 39.7539 36.3584L36.3369 37.1955L36.3381 37.1944Z" fill="#F3930D"/>
<path d="M43.0251 34.6456C43.0251 34.6456 43.3746 34.2536 43.3309 32.8651L43.3345 32.6797C43.3345 32.6797 43.4879 32.2877 43.5871 32.7435L43.6721 33.4979L43.8575 32.6785C43.8575 32.6785 44.1137 32.3149 44.1491 32.8851L44.2129 33.9679L44.4124 33.0705C44.4124 33.0705 44.6545 32.7352 44.612 33.3692L44.5765 34.3516C44.5765 34.3516 44.8434 34.3315 44.9473 33.7648C44.9603 33.6927 44.9981 33.6266 45.0571 33.5818C45.1315 33.5263 45.2106 33.5263 45.1468 33.8817C45.1468 33.8817 45.0547 34.9313 44.8446 35.3257L43.0239 34.6444L43.0251 34.6456Z" fill="#F3930D"/>
<path d="M67.5601 67.835C67.5601 67.835 53.7896 51.0242 46.4209 40.425" stroke="#1D1D1B" stroke-width="0.23614" stroke-linecap="round" stroke-linejoin="round"/>
<path d="M62.0843 54.0939C62.0843 54.0939 52.8583 41.7804 50.916 39.7378" stroke="#1D1D1B" stroke-width="0.23614" stroke-linecap="round" stroke-linejoin="round"/>
<path d="M58.2777 21.6694C58.2399 21.4663 58.2139 21.255 58.1242 21.0708C57.9258 20.6623 57.3862 20.4604 56.9683 20.6363" stroke="#1D1D1B" stroke-width="0.23614" stroke-linecap="round" stroke-linejoin="round"/>
<path d="M58.7454 21.198C58.7076 20.9949 58.6817 20.7835 58.5919 20.5994C58.3936 20.1908 57.854 19.9889 57.436 20.1649" stroke="#1D1D1B" stroke-width="0.23614" stroke-linecap="round" stroke-linejoin="round"/>
<path d="M34.1456 37.4565C34.1385 37.6632 34.1184 37.8757 34.1657 38.074C34.2707 38.5156 34.7536 38.8297 35.2011 38.747" stroke="#1D1D1B" stroke-width="0.23614" stroke-linecap="round" stroke-linejoin="round"/>
<path d="M33.5855 37.8101C33.5784 38.0167 33.5584 38.2292 33.6056 38.4276C33.7107 38.8691 34.1936 39.1832 34.6411 39.1006" stroke="#1D1D1B" stroke-width="0.23614" stroke-linecap="round" stroke-linejoin="round"/>
<path d="M34.8828 65.8999C34.6856 65.9613 34.479 66.0133 34.3078 66.1231C33.9264 66.3686 33.7895 66.9295 34.0162 67.3227" stroke="#1D1D1B" stroke-width="0.23614" stroke-linecap="round" stroke-linejoin="round"/>
<path d="M34.3633 65.4863C34.1661 65.5477 33.9595 65.5997 33.7883 65.7095C33.4069 65.9551 33.2699 66.5159 33.4966 66.9091" stroke="#1D1D1B" stroke-width="0.23614" stroke-linecap="round" stroke-linejoin="round"/>
<path d="M36.3371 25.8145L39.4955 36.4219L35.167 37.553L32.4443 26.7814L36.3371 25.8145Z" fill="#754C24"/>
<path d="M45.7823 23.572L32.3896 26.7316L33.9352 32.9114" stroke="#1D1D1B" stroke-width="0.23614" stroke-linecap="round" stroke-linejoin="round"/>
<path d="M36.6362 26.9954L38.7686 33.7029" stroke="#1D1D1B" stroke-width="0.23614" stroke-linecap="round" stroke-linejoin="round"/>
<path d="M57.2987 22.1421L59.5999 31.5109L49.734 33.9208L47.186 24.67L57.2987 22.1421Z" fill="#8C6239"/>
<path d="M49.9521 23.9175L52.2533 33.2863L49.8683 33.8058L47.3345 24.6814L49.9521 23.9175Z" fill="#754C24"/>
<path d="M55.0679 32.6586C55.0679 32.6586 56.0656 31.9467 56.3466 30.7164C56.3466 30.7164 56.4103 30.5381 56.4032 30.4531C56.4032 30.4531 56.5319 30.1685 56.6099 30.5098C56.6099 30.5098 56.6595 31.008 56.5532 31.2359C56.4469 31.4638 56.9948 30.6869 56.9735 30.1178C56.9735 30.1178 57.0904 29.662 57.2793 30.0823C57.2793 30.0823 57.3572 30.7022 57.1223 31.0364C57.1223 31.0364 57.643 30.6774 57.6146 30.0788C57.6146 30.0788 57.6878 29.7423 57.8496 30.0316C57.8496 30.0316 57.9346 30.6231 57.6855 30.9572C57.6855 30.9572 57.9866 30.9525 58.1058 30.3539C58.1058 30.3539 58.2156 30.0481 58.3207 30.3445C58.3207 30.3445 58.349 31.413 57.8543 32.0553L55.0679 32.6575V32.6586Z" fill="#F3930D"/>
<path d="M59.0875 29.427L57.2976 22.1421L48.9453 24.2414" stroke="#1D1D1B" stroke-width="0.23614" stroke-linecap="round" stroke-linejoin="round"/>
<path d="M50.3115 25.6416L51.8193 31.4129" stroke="#1D1D1B" stroke-width="0.23614" stroke-linecap="round" stroke-linejoin="round"/>
<path d="M49.9094 33.8247L47.6035 25.4524" stroke="#1D1D1B" stroke-width="0.23614" stroke-linecap="round" stroke-linejoin="round"/>
<path d="M54.6411 26.2996L56.8067 25.701C57.0079 25.6454 57.1258 25.4373 57.0702 25.2362L56.707 23.9217C56.6514 23.7206 56.4433 23.6026 56.2421 23.6582L54.0765 24.2568C53.8753 24.3124 53.7574 24.5205 53.8129 24.7216L54.1762 26.036C54.2318 26.2372 54.4399 26.3551 54.6411 26.2996Z" fill="#C69C6D"/>
</g>
<defs>
<clipPath id="clip0_43_26083">
<rect width="80" height="80" fill="white" transform="translate(0 0.31665)"/>
</clipPath>
</defs>
</svg>
