<svg width="69" height="33" viewBox="0 0 69 33" fill="none" xmlns="http://www.w3.org/2000/svg">
<path d="M42.6317 20.9623C42.6317 20.7612 42.5768 20.7063 42.3757 20.7063C41.8911 20.7063 41.4065 20.7063 40.922 20.7063C40.6934 20.7063 40.6385 20.7703 40.6385 20.9897C40.6385 21.4194 40.6385 21.8309 40.6385 22.2514C40.6385 22.5806 40.538 22.6629 40.3277 22.7634C40.1997 22.8274 40.0534 22.8914 39.9163 22.9189C39.7243 22.9646 39.5231 22.9829 39.322 23.0012C38.7277 23.0469 38.1882 22.9006 37.7494 22.4709C37.2557 21.9954 37.1094 21.4012 37.1643 20.7337C37.2465 19.6457 38.3437 18.8046 39.4134 19.0057C39.9985 19.1154 40.4648 19.408 40.7665 19.9292C40.8305 20.048 40.922 20.0937 41.05 20.0297C41.562 19.7829 42.074 19.5452 42.5768 19.2983C42.7048 19.2343 42.7414 19.152 42.6682 19.0057C42.3665 18.384 41.946 17.872 41.37 17.488C40.5746 16.9577 39.6877 16.7474 38.7368 16.8206C37.4203 16.9212 36.3871 17.4972 35.6648 18.6126C35.3174 19.1429 35.1071 19.7372 35.0705 20.368C35.0431 20.7703 35.0431 20.8983 35.0431 21.2457C35.0431 21.6572 35.162 22.0594 35.2351 22.2789C35.7014 23.7509 36.6888 24.656 38.2065 24.976C38.3802 25.0126 38.6728 25.0492 39.4043 25.0492C39.8706 25.0492 40.3185 24.9029 40.7482 24.72C40.8488 24.6743 40.9403 24.7017 40.9951 24.7932C41.0591 24.9029 41.1597 24.9394 41.2785 24.9394C41.6077 24.9394 41.9368 24.9577 42.266 24.9669C42.3208 24.9669 42.3665 24.9669 42.4214 24.9577C42.5585 24.9394 42.6225 24.8663 42.6225 24.7292V20.9532L42.6317 20.9623Z" fill="#7066E0"/>
<path d="M57.1505 25.0857C56.7757 25.0034 56.4008 24.9486 56.0351 24.8389C55.322 24.6286 54.7186 24.2263 54.1974 23.696C54.0877 23.5863 54.0786 23.4949 54.1974 23.376C54.5906 23.0103 54.9837 22.6263 55.3768 22.2606C55.5414 22.1052 55.5963 22.1052 55.77 22.2514C56.3368 22.7452 56.986 23.0377 57.7448 23.0286C57.9917 23.0286 58.2385 22.9646 58.4763 22.8914C58.7414 22.8092 58.8603 22.5532 58.7871 22.3246C58.7414 22.16 58.6134 22.0777 58.458 22.0594C58.202 22.0229 57.9368 21.9863 57.6717 21.9863C57.0683 21.9863 56.474 21.9589 55.8888 21.7852C54.6363 21.4194 54.17 20.432 54.3163 19.2709C54.4626 18.0823 55.2762 17.2412 56.4923 16.9669C58.0191 16.6194 59.3997 16.9394 60.6157 17.936C60.8168 18.1006 60.826 18.1737 60.6431 18.3657C60.3048 18.7406 59.9574 19.1154 59.6191 19.4903C59.482 19.6457 59.4271 19.6457 59.2534 19.5269C58.6957 19.1154 58.074 18.8777 57.37 18.896C57.0774 18.9052 56.8031 18.96 56.5563 19.1246C56.4283 19.2069 56.3277 19.3166 56.346 19.4903C56.3734 19.6732 56.474 19.8012 56.6568 19.8377C56.8488 19.8834 57.0408 19.9109 57.2328 19.92C57.8271 19.9292 58.4214 19.92 59.0065 20.0663C59.5917 20.2034 60.0854 20.4869 60.4603 20.9714C60.6706 21.2366 60.7894 21.5383 60.826 21.8583C60.9174 22.6903 60.7711 23.4674 60.186 24.1074C59.7105 24.6286 59.098 24.8937 58.4214 25.0309C58.3026 25.0583 58.1746 25.0766 58.0557 25.104H57.1323L57.1505 25.0857Z" fill="#7066E0"/>
<path d="M19.9574 7.92459C19.9574 7.7143 19.8934 7.64116 19.7105 7.64116C19.1894 7.64116 18.6591 7.64116 18.138 7.64116C18.0008 7.64116 17.9368 7.70516 17.9368 7.82401C17.9368 8.8663 17.9277 9.89944 17.9368 10.9417V11.5086C17.9368 11.5726 17.8088 11.5177 17.7083 11.4172L14.5631 7.76001C14.4625 7.6503 14.3986 7.6503 14.3163 7.6503C13.9871 7.63201 13.6671 7.64116 13.338 7.64116C13.0911 7.64116 13.0362 7.69601 13.0362 7.94287V15.4034C13.0362 15.6503 13.0728 15.6869 13.3288 15.6869C13.8317 15.6869 14.3345 15.6869 14.8374 15.6869C14.9837 15.6869 15.0386 15.6503 15.0294 15.4949C15.0294 14.9097 15.0294 14.3337 15.0294 13.7486C15.0294 13.1726 15.0294 12.5966 15.0294 12.0206C15.0294 12.0206 15.0294 11.8286 15.1025 11.8286C15.1848 11.8286 15.258 11.9109 15.258 11.9109C16.3003 13.1269 17.3425 14.3429 18.394 15.5497C18.458 15.6229 18.5768 15.6686 18.6682 15.6777C18.9974 15.696 19.3265 15.6777 19.6648 15.6777C19.93 15.6777 19.9665 15.6412 19.9665 15.3852V7.92459H19.9574Z" fill="#7066E0"/>
<path d="M53.2831 11.3532C53.2831 11.3532 53.2831 11.5452 53.2191 11.5452C53.1643 11.5452 53.1368 11.5086 53.0728 11.4354L49.8728 7.73259C49.8271 7.67773 49.7265 7.64116 49.6534 7.64116C49.3151 7.64116 48.9768 7.64116 48.6477 7.6503C48.41 7.6503 48.3825 7.68687 48.3825 7.92459V15.4034C48.3825 15.6503 48.4008 15.6777 48.6477 15.6869C49.0957 15.696 49.5528 15.6869 50.0008 15.696C50.3757 15.696 50.3757 15.696 50.3757 15.312C50.3757 14.2149 50.3757 13.1177 50.3757 12.0297C50.3757 11.9932 50.3757 11.8834 50.4488 11.8469C50.4945 11.8194 50.5585 11.8926 50.5585 11.8926C50.6317 11.9657 50.7048 12.0572 50.778 12.1394C51.7745 13.2914 52.762 14.4434 53.7677 15.5954C53.8134 15.6503 53.8865 15.696 53.9505 15.696C54.3345 15.7052 54.7185 15.7052 55.1025 15.696C55.2305 15.696 55.3037 15.6229 55.2945 15.4857V7.94287C55.2945 7.69601 55.2488 7.64116 55.002 7.64116C54.5174 7.64116 54.0328 7.64116 53.5482 7.64116C53.3288 7.64116 53.3014 7.66859 53.3014 7.88801V11.3623L53.2831 11.3532Z" fill="#7066E0"/>
<path d="M39.706 11.664C39.706 10.6949 39.9437 9.80801 40.538 9.04001C41.2145 8.1623 42.1197 7.68687 43.2168 7.56801C44.1585 7.46744 45.0363 7.61373 45.85 8.10744C46.938 8.76573 47.5231 9.7623 47.6877 11.0057C47.7974 11.856 47.7243 12.6972 47.3585 13.4834C46.7917 14.7269 45.8408 15.4949 44.4877 15.7234C43.0706 15.9703 41.8088 15.632 40.7848 14.5897C40.2088 14.0046 39.898 13.2823 39.77 12.4777C39.7243 12.2126 39.7243 11.9383 39.706 11.664ZM43.7105 9.71659C42.6134 9.71659 41.7905 10.5577 41.7905 11.6549C41.7905 12.7703 42.65 13.6297 43.738 13.6114C44.8351 13.6023 45.6397 12.752 45.6306 11.6274C45.6306 10.5303 44.7985 9.70744 43.7105 9.70744V9.71659Z" fill="#7066E0"/>
<path d="M50.2751 24.7657C50.2751 24.8937 50.1928 24.9577 50.074 24.9577C49.5345 24.9577 48.986 24.9577 48.4465 24.9577C48.3003 24.9577 48.2637 24.8937 48.2637 24.7566C48.2637 23.9337 48.2637 23.1017 48.2637 22.2789C48.2637 22.096 48.1753 22.0046 47.9986 22.0046C47.2123 22.0046 46.4351 22.0046 45.6488 22.0046C45.4964 22.0046 45.4203 22.0777 45.4203 22.224C45.4203 23.0469 45.4203 23.8789 45.4203 24.7017C45.4203 24.9394 45.3837 24.976 45.1551 24.976C44.6797 24.976 44.1951 24.976 43.7197 24.976C43.4728 24.976 43.3997 24.9029 43.3997 24.6652V17.2594C43.3997 16.9577 43.4363 16.9212 43.7471 16.9212C44.2226 16.9212 44.698 16.9212 45.1734 16.9212C45.3928 16.9212 45.4203 16.9486 45.4203 17.168C45.4203 17.9817 45.4202 18.7954 45.4111 19.6183C45.4111 19.8286 45.4294 19.856 45.6488 19.856C46.4625 19.856 47.2671 19.856 48.0808 19.856C48.2363 19.856 48.2728 19.792 48.2728 19.6457C48.2728 18.8686 48.2728 18.0914 48.2728 17.3143C48.2728 17.2503 48.2728 17.1772 48.2728 17.1132C48.2728 16.976 48.3185 16.912 48.4648 16.9212H49.9551C50.2294 16.9212 50.2843 16.976 50.2843 17.2503V24.7749L50.2751 24.7657Z" fill="#7066E0"/>
<path d="M7.65112 17.2046C7.65112 16.9577 7.66939 16.9303 7.92539 16.9303C8.4191 16.9303 8.92197 16.9303 9.41568 16.9303C9.58025 16.9303 9.64424 16.976 9.6351 17.1497C9.6351 17.9726 9.6351 18.7954 9.6351 19.6092C9.6351 19.8103 9.66255 19.8377 9.85455 19.8377C10.6591 19.8377 11.4637 19.8377 12.2682 19.8377C12.4237 19.8377 12.4785 19.7829 12.4785 19.6274C12.4785 18.7863 12.4785 17.9543 12.4785 17.1132C12.4785 16.9943 12.506 16.912 12.6431 16.912C13.1825 16.912 13.7128 16.912 14.2523 16.9212C14.4534 16.9212 14.49 16.976 14.49 17.168C14.49 19.6823 14.49 22.1966 14.49 24.7109C14.49 24.8663 14.426 24.9394 14.2614 24.9394C13.722 24.9394 13.1917 24.9394 12.6523 24.9394C12.506 24.9394 12.4694 24.8754 12.4694 24.7474C12.4694 23.9063 12.4694 23.056 12.4694 22.2149C12.4694 22.0412 12.4237 21.9863 12.25 21.9954C11.4454 21.9954 10.6408 21.9954 9.83624 21.9954C9.67167 21.9954 9.61683 22.0412 9.61683 22.2057C9.61683 23.0469 9.61683 23.8972 9.61683 24.7383C9.61683 24.9029 9.56198 24.9577 9.39741 24.9486C8.88541 24.9486 8.3734 24.9486 7.85226 24.9486C7.64197 24.9486 7.61454 24.9212 7.61454 24.7109V17.1954L7.65112 17.2046Z" fill="#7066E0"/>
<path d="M31.4774 24.6926C31.4774 24.9212 31.4225 24.976 31.194 24.976C30.7277 24.976 30.2614 24.976 29.786 24.976C29.4934 24.976 29.4751 24.9577 29.4751 24.6652V22.1874C29.4843 22.0412 29.4294 22.0046 29.2922 22.0046C28.4694 22.0046 27.6465 22.0046 26.8237 22.0046C26.6683 22.0046 26.6317 22.0594 26.6317 22.2057C26.6317 23.0469 26.6317 23.8789 26.6317 24.72C26.6317 24.9577 26.5951 24.9852 26.3665 24.9852C25.9003 24.9852 25.4431 24.9852 24.9768 24.9852C24.666 24.9852 24.6294 24.9486 24.6294 24.6377V17.1954C24.6294 16.9669 24.6477 16.9394 24.8763 16.9303C25.3883 16.9303 25.8911 16.9303 26.4031 16.9212C26.5586 16.9212 26.6134 16.9669 26.6134 17.1314C26.6042 17.9452 26.6043 18.7497 26.5951 19.5634C26.5951 19.8194 26.6225 19.856 26.8785 19.8469C27.6648 19.8469 28.4511 19.8469 29.2465 19.8469C29.4568 19.8469 29.4751 19.8286 29.4751 19.6092C29.4751 18.7954 29.4751 17.9817 29.4751 17.1589C29.4751 17.0034 29.5117 16.9212 29.6763 16.9212C30.1974 16.9212 30.7094 16.912 31.2306 16.9212C31.4134 16.9212 31.4682 17.0034 31.4682 17.2046V24.6926H31.4774Z" fill="#7066E0"/>
<path d="M20.8168 17.2412C20.8168 16.9943 20.7803 16.9394 20.5334 16.9394C19.7014 16.9394 18.8785 16.9394 18.0465 16.9394C17.2145 16.9394 16.3917 16.9394 15.5597 16.9394C15.3677 16.9394 15.2488 17.0034 15.2488 17.1863V24.528C15.2488 24.976 15.3037 24.9852 15.7517 24.9852H20.4968C20.7437 24.9852 20.7985 24.9029 20.7985 24.656C20.7985 24.1623 20.7985 23.696 20.7985 23.1657C20.8077 22.8457 20.7803 22.7909 20.4603 22.7909C19.4637 22.7909 18.458 22.7909 17.4614 22.7909C17.3243 22.7909 17.2602 22.7452 17.2694 22.608V22.0777C17.2694 21.9132 17.3151 21.8583 17.4888 21.8583C18.3117 21.8583 19.1345 21.8583 19.9574 21.8583C20.186 21.8583 20.2408 21.8034 20.2408 21.5749C20.2408 21.1543 20.2408 20.7429 20.2408 20.3223C20.2408 20.0389 20.2042 20.0023 19.9208 20.0023C19.098 20.0023 18.2751 20.0023 17.4523 20.0023C17.3151 20.0023 17.2694 19.9566 17.2694 19.8286C17.2694 19.6457 17.2785 19.4629 17.2694 19.28C17.2602 19.1154 17.3334 19.0789 17.4797 19.0789H20.5791C20.7345 19.0789 20.7985 19.0057 20.7985 18.8594V17.2229L20.8168 17.2412Z" fill="#7066E0"/>
<path d="M65.6808 24.6194C65.6808 24.912 65.6077 24.9852 65.3242 24.9852C64.8854 24.9852 64.4465 24.9852 64.0077 24.9852C63.7242 24.9852 63.6694 24.9212 63.6694 24.6469C63.6694 22.8823 63.6694 21.1086 63.6694 19.344C63.6694 19.1063 63.6694 19.1063 63.4317 19.1063C62.8008 19.1063 62.1608 19.1063 61.53 19.1063C61.3105 19.1063 61.274 19.0606 61.274 18.8503C61.274 18.3292 61.274 17.808 61.274 17.296C61.274 16.9577 61.2923 16.9486 61.6214 16.9486H67.8203C68.0488 16.9486 68.0945 16.9943 68.0945 17.2229C68.0945 17.7897 68.0762 18.3657 68.0671 18.9326C68.0671 19.088 67.9665 19.1154 67.8385 19.1154H65.8637C65.7265 19.1063 65.69 19.1612 65.69 19.2983V24.6377L65.6808 24.6194Z" fill="#7066E0"/>
<path d="M31.1665 10.064C31.1665 9.8263 31.1665 9.81716 30.9105 9.81716C30.298 9.81716 29.6762 9.81716 29.0637 9.81716C28.7985 9.81716 28.762 9.78059 28.762 9.52459C28.762 9.00344 28.762 8.47316 28.762 7.95201C28.762 7.66859 28.7985 7.63201 29.0911 7.63201H35.2077C35.5277 7.63201 35.5551 7.66859 35.5551 7.98859C35.5551 8.50059 35.5551 9.01259 35.5551 9.52459C35.5551 9.7623 35.5002 9.81716 35.2625 9.81716C34.6317 9.81716 34.01 9.81716 33.3791 9.81716C33.1597 9.81716 33.1597 9.81716 33.1597 10.0366C33.1597 11.8103 33.1597 13.584 33.1597 15.3577C33.1597 15.6412 33.114 15.6869 32.8306 15.6869C32.3826 15.6869 31.9437 15.6869 31.4957 15.6869C31.194 15.6869 31.13 15.632 31.1391 15.3303L31.1665 10.064Z" fill="#7066E0"/>
<path d="M6.80996 16.9394C7.02025 16.9394 7.06596 16.9852 7.06596 17.2046C7.06596 17.7806 7.04769 18.3566 7.05684 18.9326C7.05684 19.0789 6.99283 19.1063 6.87397 19.0972C6.21568 19.0972 5.54827 19.0972 4.88998 19.0972C4.67055 19.0972 4.64311 19.1154 4.64311 19.344C4.64311 21.1269 4.64311 22.9189 4.64311 24.7017C4.64311 24.8754 4.5974 24.976 4.42369 24.976C3.90255 24.976 3.37226 24.976 2.85112 24.9577C2.7414 24.9577 2.67739 24.8754 2.69568 24.7566V19.3806C2.66825 19.1063 2.65913 19.0972 2.3757 19.0972C1.75398 19.0972 1.13226 19.0972 0.510547 19.0972C0.26369 19.0972 0.263672 19.0972 0.263672 18.8503C0.263672 18.2834 0.263672 17.7166 0.263672 17.1589C0.263672 16.9943 0.327691 16.9394 0.483119 16.9394H6.82826H6.80996Z" fill="#7066E0"/>
<path d="M34.4214 24.656C34.4214 24.9212 34.3665 24.976 34.1014 24.976C33.5894 24.976 33.0866 24.976 32.5746 24.976C32.3094 24.976 32.2454 24.9029 32.2454 24.6377C32.2454 22.1874 32.2454 19.7372 32.2454 17.2777C32.2454 16.976 32.2911 16.9303 32.5928 16.9303C33.114 16.9303 33.6443 16.9303 34.1654 16.9303C34.394 16.9303 34.4306 16.9669 34.4306 17.2046V24.6469L34.4214 24.656Z" fill="#7066E0"/>
<path d="M24.5562 12.3863C23.3494 12.3589 22.1791 12.1577 21.0454 11.7463C20.7711 11.6457 20.6248 11.4537 20.5791 11.1794C20.5334 10.9143 20.6431 10.6857 20.8534 10.5212C21.0728 10.3566 21.3105 10.384 21.5574 10.448C22.0877 10.5852 22.6088 10.7589 23.1482 10.8503C24.6202 11.0972 26.0648 10.96 27.482 10.4663C27.6191 10.4206 27.7837 10.3932 27.93 10.4023C28.2591 10.4389 28.4694 10.6857 28.5151 11.0423C28.5517 11.2892 28.3414 11.6183 28.0854 11.7189C27.4271 11.9657 26.7505 12.1486 26.0465 12.24C25.5894 12.304 25.1048 12.3772 24.5471 12.3772L24.5562 12.3863Z" fill="#7066E0"/>
<path d="M26.7231 12.8617C26.97 13.0903 27.2077 13.328 27.4363 13.5749C27.7197 13.8583 27.738 14.2697 27.482 14.544C27.2077 14.8366 26.8146 14.8732 26.5037 14.5989C26.3117 14.4343 26.138 14.2423 25.9551 14.0594C25.6991 13.8034 25.4431 13.5474 25.178 13.2823C25.0865 13.1909 25.0226 13.0812 25.0774 12.944C25.1323 12.816 25.242 12.7977 25.37 12.7794L26.2843 12.6972C26.2843 12.6972 26.4946 12.6514 26.714 12.8526L26.7231 12.8617Z" fill="#7066E0"/>
<path d="M25.242 9.06744C25.242 9.35087 25.242 9.62516 25.242 9.90859C25.242 10.064 25.1871 10.192 25.0317 10.2469C24.8763 10.3109 24.7574 10.2469 24.6477 10.128C24.4283 9.89944 24.1905 9.68001 23.9803 9.4423C23.9163 9.36916 23.8523 9.26859 23.8523 9.17716C23.8431 8.82059 23.834 8.47316 23.8705 8.11659C23.9071 7.74173 24.218 7.50401 24.602 7.53144C24.9403 7.54973 25.2328 7.8423 25.242 8.19887C25.242 8.49144 25.242 8.78401 25.242 9.06744Z" fill="#7066E0"/>
<path d="M23.8431 13.4834C23.8431 13.3189 23.8705 13.1634 24.0534 13.0903C24.2363 13.0172 24.3551 13.1086 24.474 13.2274C24.6843 13.4469 24.9037 13.648 25.1048 13.8766C25.178 13.9589 25.2328 14.096 25.242 14.2057C25.2603 14.4983 25.242 14.7817 25.242 15.0743C25.242 15.4492 24.9768 15.7509 24.6294 15.7783C24.2271 15.8057 23.8797 15.5772 23.8431 15.184V13.4834Z" fill="#7066E0"/>
<path d="M23.9437 10.3017C24.0168 10.1463 23.9163 10.0549 23.8248 9.96344C23.5688 9.70744 23.3128 9.45144 23.066 9.20459C22.8923 9.03087 22.7185 8.83887 22.5265 8.68344C22.2888 8.4823 21.9505 8.49144 21.7037 8.68344C21.4568 8.8663 21.3471 9.1863 21.4568 9.46059C21.594 9.78059 21.8225 10.0549 22.1517 10.1554C22.6271 10.3109 23.1208 10.3932 23.6145 10.5029C23.6145 10.5029 23.8431 10.5486 23.9528 10.32L23.9437 10.3017Z" fill="#7066E0"/>
<path d="M23.386 13.3189C23.4043 13.7303 23.2854 13.8857 23.0385 14.16C22.8831 14.2972 22.746 14.4526 22.5997 14.5897C22.3163 14.8549 21.8957 14.8549 21.6306 14.5897C21.3563 14.3154 21.338 13.9132 21.6122 13.6206C21.8774 13.3463 22.1517 13.0812 22.4168 12.8069C22.5357 12.688 22.6728 12.6697 22.8283 12.688C22.9106 12.688 22.9837 12.7063 23.066 12.7154C23.322 12.7612 23.386 12.8252 23.386 13.0903C23.386 13.1634 23.386 13.2366 23.386 13.3097V13.3189Z" fill="#7066E0"/>
<path d="M26.0191 9.20459C26.1746 9.04001 26.33 8.88459 26.4945 8.72916C26.778 8.46401 27.1803 8.45487 27.4546 8.71087C27.7197 8.95773 27.7471 9.36001 27.5277 9.66173C27.2717 10.0092 26.9243 10.2012 26.5037 10.2743C26.3666 10.3017 26.2294 10.3383 26.0831 10.3657C25.8363 10.4114 25.7174 10.32 25.7174 10.0549C25.7174 9.64344 25.6808 9.55201 26.0191 9.20459Z" fill="#7066E0"/>
<path d="M68.5974 22.7817H66.9517C66.8305 22.7817 66.7323 22.88 66.7323 23.0012V24.7657C66.7323 24.8869 66.8305 24.9852 66.9517 24.9852H68.5974C68.7186 24.9852 68.8168 24.8869 68.8168 24.7657V23.0012C68.8168 22.88 68.7186 22.7817 68.5974 22.7817Z" fill="#7066E0"/>
</svg>
