<svg width="90" height="33" viewBox="0 0 90 33" fill="none" xmlns="http://www.w3.org/2000/svg">
<path d="M26.7052 13.6971C25.5402 13.6971 24.4819 14.204 23.7171 15.0222V9.93522H22.4631V18.2415C22.4631 20.7495 24.3663 22.786 26.7052 22.786C29.0442 22.786 30.9562 20.7495 30.9562 18.2415C30.9562 15.7336 29.0531 13.706 26.7052 13.706V13.6971ZM26.7052 21.5232C25.0511 21.5232 23.7171 20.0469 23.7171 18.2327C23.7171 16.4184 25.06 14.951 26.7052 14.951C28.3505 14.951 29.7023 16.4273 29.7023 18.2327C29.7023 20.038 28.3594 21.5232 26.7052 21.5232Z" fill="#003060"/>
<path d="M88.2112 18.1882C89.145 18.8285 89.7497 19.9046 89.7497 21.123V22.6437H88.4958V21.123C88.4958 19.8512 87.4641 18.8196 86.1924 18.8196H84.0936V22.6437H82.8396V9.94412H84.0936V17.5657H86.1924C87.4641 17.5657 88.4958 16.534 88.4958 15.2623V13.9016H89.7497V15.2623C89.7497 16.4718 89.1361 17.5479 88.2112 18.1971V18.1882Z" fill="#306090"/>
<path d="M60.6509 13.6259C58.312 13.6259 56.3999 15.6625 56.3999 18.1704V26.3167H57.6539V21.3898C58.4276 22.208 59.477 22.7149 60.6509 22.7149C62.9898 22.7149 64.893 20.6783 64.893 18.1704C64.893 15.6625 62.9898 13.6259 60.6509 13.6259ZM60.6509 21.452C58.9967 21.452 57.6539 19.9757 57.6539 18.1704C57.6539 16.3651 58.9967 14.8888 60.6509 14.8888C62.305 14.8888 63.639 16.3651 63.639 18.1704C63.639 19.9757 62.2962 21.452 60.6509 21.452Z" fill="#306090"/>
<path d="M70.5936 13.6259C68.2546 13.6259 66.3426 15.6625 66.3426 18.1704C66.3426 20.6783 68.2458 22.7149 70.5936 22.7149C71.7586 22.7149 72.8169 22.208 73.5817 21.3898V22.6437H74.8357V18.1704C74.8357 15.6625 72.9325 13.6259 70.5936 13.6259ZM70.5936 21.452C68.9394 21.452 67.5965 19.9757 67.5965 18.1704C67.5965 16.3651 68.9394 14.8888 70.5936 14.8888C72.2477 14.8888 73.5817 16.3651 73.5817 18.1704C73.5817 19.9757 72.2388 21.452 70.5936 21.452Z" fill="#306090"/>
<path d="M36.061 22.6615C34.2467 22.6615 32.7794 21.4342 32.7794 19.9224V9.93522H34.0333V19.9224C34.0333 20.7317 34.9582 21.4076 36.061 21.4076V22.6615Z" fill="#003060"/>
<path d="M78.3485 22.6348H77.0946V16.534C77.0946 15.0222 78.5709 13.7949 80.3762 13.7949H80.9898V15.0489H80.3762C79.2734 15.0489 78.3485 15.7336 78.3485 16.534V22.6348Z" fill="#306090"/>
<path d="M40.9078 22.7771C38.9513 22.7771 37.3594 21.0518 37.3594 18.9352V13.9016H38.6133V18.9352C38.6133 20.3582 39.645 21.5143 40.9078 21.5143C42.1707 21.5143 43.2023 20.3582 43.2023 18.9352V13.9016H44.4562V18.9352C44.4562 21.0518 42.8643 22.7771 40.9078 22.7771Z" fill="#003060"/>
<path d="M50.726 21.5232C49.7122 21.5232 48.8228 20.9718 48.2803 20.1269L52.5936 18.0993L54.3278 17.29L54.8258 17.0498C54.3367 15.12 52.6825 13.6971 50.726 13.6971C48.3871 13.6971 46.475 15.7336 46.475 18.2327C46.475 20.7317 48.3782 22.7771 50.726 22.7771C52.5402 22.7771 54.0877 21.5587 54.6924 19.8512H53.3228C52.807 20.8473 51.8377 21.5232 50.7171 21.5232H50.726ZM47.729 18.2415C47.729 16.4273 49.0718 14.9599 50.726 14.9599C51.7665 14.9599 52.6736 15.538 53.2161 16.4273L47.809 18.9708C47.7645 18.7396 47.7379 18.4995 47.7379 18.2504L47.729 18.2415Z" fill="#003060"/>
<path d="M13.2764 15.6358C12.6361 17.0498 11.5066 18.0993 10.146 18.4461V22.6437H8.225V18.4461C6.87322 18.1082 5.73488 17.0587 5.09457 15.6447C5.32579 15.5291 5.54812 15.4313 5.78824 15.3334C6.17065 16.2406 6.84654 16.9876 7.71808 17.45C7.17559 16.7475 6.80208 15.9204 6.642 15.04C6.89101 14.9688 7.14002 14.9066 7.38904 14.8532C7.63805 16.0004 8.10939 16.9787 8.70524 17.3344V14.5686H9.67461V17.3344C10.2705 16.9787 10.7329 16.0004 10.9908 14.8532C11.2398 14.9066 11.4888 14.9599 11.7379 15.04C11.5778 15.9204 11.2042 16.7386 10.6618 17.45C11.5244 16.9876 12.2092 16.2406 12.5916 15.3334C12.8228 15.4224 13.0541 15.5291 13.2764 15.6358Z" fill="url(#paint0_linear_43_34507)"/>
<path d="M15.2685 11.1536C14.9483 10.0242 13.9878 9.19708 12.8406 9.037C12.2181 7.0538 10.1282 5.89767 8.10939 6.45795C6.83765 6.80479 5.83271 7.77416 5.43251 9.02811C4.23192 9.15262 3.22698 9.99748 2.89793 11.1714C2.76453 11.1803 2.64002 11.207 2.50662 11.2425C1.67954 11.4649 1.03923 12.1052 0.816895 12.9323H1.3505C1.69733 11.9362 2.79121 11.4115 3.78725 11.7672C4.32974 11.9629 4.75662 12.3898 4.95227 12.9323H5.47698C5.21907 11.9896 4.44536 11.3315 3.53824 11.1892C3.86729 10.2821 4.71215 9.66843 5.68152 9.65064C6.27737 9.65064 6.84654 9.89965 7.26452 10.3087C6.81097 10.6823 6.48192 11.1892 6.32184 11.7761H6.96216C7.38903 10.5755 8.70524 9.94412 9.90583 10.371C10.5639 10.6022 11.0797 11.118 11.311 11.7761H11.9513C11.7823 11.1625 11.4266 10.6467 10.9641 10.2732C11.3732 9.88186 11.9157 9.65953 12.4938 9.65953C13.472 9.67732 14.3347 10.2998 14.646 11.2248C14.6104 11.2248 14.5837 11.2336 14.5481 11.2425C13.721 11.4738 13.0807 12.1141 12.8495 12.9323H13.3831C13.7388 11.9362 14.8238 11.4115 15.8199 11.7672C16.3624 11.9629 16.7892 12.3898 16.9849 12.9323H17.5185C17.2339 11.8829 16.309 11.1892 15.2774 11.1536H15.2685ZM10.4127 9.92633C9.79911 9.62396 9.07876 9.53503 8.3673 9.73068C8.16275 9.78404 7.97599 9.86408 7.78923 9.9619C7.38903 9.51724 6.85544 9.20598 6.27738 9.08147C6.88212 7.55182 8.59852 6.76032 10.1637 7.31171C10.9997 7.60518 11.6578 8.2455 11.9869 9.06368C11.3821 9.1704 10.8307 9.48167 10.4127 9.92633Z" fill="url(#paint1_linear_43_34507)"/>
<defs>
<linearGradient id="paint0_linear_43_34507" x1="45.38" y1="6.53691" x2="45.38" y2="25.8541" gradientUnits="userSpaceOnUse">
<stop stop-color="#2F5F8F"/>
<stop offset="1" stop-color="#013161"/>
</linearGradient>
<linearGradient id="paint1_linear_43_34507" x1="9.16769" y1="12.87" x2="9.16769" y2="6.67139" gradientUnits="userSpaceOnUse">
<stop stop-color="#5F8FBF"/>
<stop offset="1" stop-color="#326292"/>
</linearGradient>
</defs>
</svg>
