<svg width="75" height="33" viewBox="0 0 75 33" fill="none" xmlns="http://www.w3.org/2000/svg">
<path d="M72.6031 16.1291H52.6259V21.6148H72.6031V16.1291Z" fill="white"/>
<path d="M6.61906 10.1862C10.4316 10.1862 13.1928 13.0205 13.1928 16.6502C13.1928 20.2799 10.3951 23.2605 6.58251 23.2605C2.76993 23.2605 0.00878906 20.3439 0.00878906 16.6502C0.00878906 12.9565 2.80649 10.1862 6.61906 10.1862ZM6.61906 20.4171C8.52077 20.4171 10.0202 18.8079 10.0202 16.6411C10.0202 14.5839 8.49334 13.0205 6.61906 13.0205C4.74477 13.0205 3.21794 14.5931 3.21794 16.6411C3.18137 18.7714 4.7082 20.4171 6.61906 20.4171Z" fill="#1B7CBF"/>
<path d="M13.6042 13.9256H16.5208V14.7119C16.5208 15.0136 16.4842 15.2696 16.4842 15.2696H16.5208C16.9322 14.5565 17.8282 13.6971 19.4008 13.6971C21.2293 13.6971 22.6465 14.5565 22.6465 17.0982V22.9954H19.5836V17.6925C19.5836 16.8331 19.2454 16.4948 18.5779 16.4948C17.6454 16.4948 17.0511 17.0159 16.7859 17.8022C16.6762 18.1405 16.603 18.5519 16.603 18.9999V23.0319H13.5402L13.6134 13.9165L13.6042 13.9256Z" fill="#1B7CBF"/>
<path d="M23.0854 10.4148H27.7208C30.2625 10.4148 32.0179 11.5394 32.0179 13.6971C32.0179 14.7394 31.4968 15.8274 30.5642 16.3851V16.4216C32.0179 16.8696 32.5391 18.1405 32.5391 19.2559C32.5391 22.0171 30.2625 23.0319 27.7208 23.0319H23.0854V10.4056V10.4148ZM27.7573 15.3062C28.5436 15.3062 28.882 14.7485 28.882 14.1451C28.882 13.5416 28.5436 13.0662 27.7208 13.0662H26.1939V15.3062H27.7665H27.7573ZM28.0225 20.3896C28.9185 20.3896 29.3665 19.7954 29.3665 19.0822C29.3665 18.3691 28.9551 17.7748 28.0591 17.7748H26.1939V20.3896H28.0225Z" fill="#1B7CBF"/>
<path d="M32.6854 13.9256H35.7482V19.2651C35.7482 20.1245 36.0865 20.4628 36.7173 20.4628C38.0248 20.4628 38.6557 19.3016 38.6557 17.9576V13.9256H41.7185V23.0045H38.8019V22.2182C38.8019 21.9165 38.8385 21.6605 38.8385 21.6605H38.8019C38.3174 22.6296 37.1928 23.2331 35.9677 23.2331C34.1757 23.2331 32.7585 22.3736 32.7585 19.8319L32.6854 13.9348V13.9256Z" fill="#1B7CBF"/>
<path d="M43.1082 23.8548C43.1082 23.8548 43.5928 24.1931 44.0408 24.1931C44.5253 24.1931 45.2019 24.0468 45.4945 23.2605L45.6774 22.8491L41.8282 13.9256H45.3025L46.6465 18.1039C46.7928 18.5885 46.9848 19.5211 46.9848 19.5211H47.0213C47.0213 19.5211 47.2042 18.6616 47.3231 18.1771L48.4842 13.9531H51.8122L48.082 24.0011C47.3322 26.0216 45.7322 26.7256 44.2693 26.7256C43.0716 26.7256 42.1391 26.0948 42.1391 26.0948L43.1082 23.8548Z" fill="#1B7CBF"/>
<path d="M73.7276 14.2182C73.4991 14.0354 73.2431 13.9165 72.9414 13.9165H53.7048C53.2568 13.9165 52.8088 14.2182 52.6259 14.6296L49.6728 22.5839C49.5631 22.9222 49.5996 23.3336 49.819 23.6262C50.0476 23.9279 50.3768 24.1108 50.7516 24.1108H72.9322C73.5631 24.1108 74.0568 23.6262 74.0568 22.9862V14.9588C74.0568 14.6936 73.9471 14.4011 73.7185 14.2091L73.7276 14.2182ZM54.491 21.5416H53.0739V20.1245H54.491V21.5416ZM57.4077 21.6514C55.7619 21.6514 54.8293 20.4902 54.8293 19.2194C54.8293 17.9485 55.7619 16.7874 57.4077 16.7874C58.6785 16.7874 59.2362 17.5005 59.2362 17.5005L58.5597 18.5428C58.5597 18.5428 58.1116 18.0948 57.4808 18.0948C56.7311 18.0948 56.3562 18.6525 56.3562 19.2194C56.3562 19.7862 56.7311 20.3805 57.5174 20.3805C58.1482 20.3805 58.7882 19.8228 58.7882 19.8228L59.3459 20.9016C59.4191 20.8651 58.7151 21.6514 57.4077 21.6514ZM61.8511 21.6514C60.3974 21.6514 59.2362 20.6822 59.2362 19.2651C59.2362 17.8479 60.3974 16.8331 61.8511 16.8331C63.3048 16.8331 64.4659 17.8022 64.4659 19.2651C64.4659 20.7279 63.3048 21.6514 61.8511 21.6514ZM72.0088 21.5416H70.4362V18.7805C70.4362 18.4422 70.3631 18.1862 70.0613 18.1862C69.5768 18.1862 69.3116 18.5611 69.2019 19.0456C69.1653 19.1919 69.1654 19.3839 69.1654 19.5668V21.4685H67.5928V18.7805C67.5928 18.4422 67.5196 18.1862 67.2179 18.1862C66.7334 18.1862 66.4682 18.5245 66.3584 19.0091C66.3219 19.1919 66.322 19.3839 66.322 19.5668V21.4685H64.7493V16.9154H66.2396V17.6285C66.4682 17.2902 66.8705 16.8422 67.6202 16.8422C68.2144 16.8422 68.6625 17.1074 68.9276 17.6285C69.1562 17.2536 69.7139 16.8422 70.4179 16.8422C71.2774 16.8422 71.9082 17.2902 71.9082 18.5611L71.9813 21.5508L72.0088 21.5416Z" fill="#1B7CBF"/>
<path d="M61.8511 18.1039C61.2934 18.1039 60.8088 18.5519 60.8088 19.2651C60.8088 19.9782 61.2934 20.3896 61.8511 20.3896C62.4088 20.3896 62.8934 19.9782 62.8934 19.2651C62.8934 18.5154 62.4088 18.1039 61.8511 18.1039Z" fill="#1B7CBF"/>
</svg>
