<svg width="79" height="33" viewBox="0 0 79 33" fill="none" xmlns="http://www.w3.org/2000/svg">
<path d="M17.174 8.3641C17.1557 8.25439 17.0642 8.19039 16.9819 8.19039C16.8996 8.19039 15.3545 8.16296 15.3545 8.16296C15.3545 8.16296 14.0654 6.91039 13.9374 6.78239C13.8094 6.65439 13.5625 6.69096 13.4619 6.71839C13.4619 6.71839 13.2151 6.79153 12.8128 6.91953C12.7488 6.7001 12.6483 6.42582 12.502 6.15153C12.0448 5.27382 11.3683 4.80753 10.5545 4.80753C10.4997 4.80753 10.4448 4.80753 10.3899 4.81667C10.3625 4.78925 10.3443 4.76182 10.3168 4.73439C9.96025 4.35039 9.50313 4.16753 8.9637 4.18582C7.91227 4.21325 6.86075 4.9721 6.01046 6.32525C5.41618 7.2761 4.95911 8.46467 4.83111 9.3881C3.62425 9.76296 2.77395 10.0281 2.75566 10.0281C2.14309 10.2201 2.12478 10.2384 2.04249 10.8144C1.97849 11.2532 0.387695 23.587 0.387695 23.587L13.7637 25.9001L19.5602 24.4555C19.5602 24.4555 17.1923 8.46467 17.1831 8.35496L17.174 8.3641ZM12.1454 7.12067C11.8345 7.2121 11.4871 7.32182 11.1031 7.44067C11.1031 6.91039 11.03 6.16982 10.7831 5.52982C11.5785 5.68525 11.9717 6.58125 12.1454 7.12067ZM10.4082 7.6601C9.70423 7.87953 8.94532 8.11725 8.17732 8.35496C8.39674 7.5321 8.79912 6.70925 9.30198 6.16982C9.48484 5.96867 9.74994 5.74925 10.0608 5.62125C10.3534 6.22467 10.4174 7.09325 10.4082 7.66925V7.6601ZM8.97285 4.88067C9.21971 4.88067 9.42994 4.92639 9.60365 5.04525C9.32023 5.19153 9.04593 5.40182 8.78993 5.68525C8.1225 6.39839 7.61049 7.51382 7.40935 8.59267C6.76935 8.79382 6.14762 8.98582 5.57162 9.15953C5.93734 7.4681 7.35457 4.93553 8.97285 4.88067Z" fill="#95BF47"/>
<path d="M16.991 8.19039C16.9088 8.19039 15.3637 8.16296 15.3637 8.16296C15.3637 8.16296 14.0745 6.91039 13.9465 6.78239C13.9008 6.73667 13.8368 6.70925 13.7637 6.7001V25.9184L19.5602 24.4738C19.5602 24.4738 17.1923 8.48296 17.1831 8.37325C17.1648 8.26353 17.0733 8.19953 16.991 8.19953V8.19039Z" fill="#5E8E3E"/>
<path d="M10.5454 11.171L9.86883 13.6852C9.86883 13.6852 9.11907 13.347 8.22307 13.4018C6.91565 13.4841 6.90657 14.307 6.91571 14.5172C6.98885 15.6418 9.95114 15.8887 10.1157 18.531C10.2437 20.6064 9.01854 22.0235 7.23569 22.1424C5.1054 22.2795 3.93513 21.0178 3.93513 21.0178L4.38312 19.0978C4.38312 19.0978 5.5625 19.9847 6.50421 19.9298C7.12593 19.8932 7.34537 19.3904 7.31794 19.0338C7.22651 17.5618 4.81277 17.6532 4.65734 15.2395C4.52934 13.2098 5.86423 11.1527 8.80823 10.9607C9.94195 10.8875 10.5271 11.1801 10.5271 11.1801L10.5454 11.171Z" fill="white"/>
<path d="M27.4139 16.547C26.7465 16.1812 26.3991 15.8795 26.3991 15.4498C26.3991 14.9104 26.8745 14.563 27.6242 14.563C28.4928 14.563 29.2791 14.9287 29.2791 14.9287L29.8916 13.0452C29.8916 13.0452 29.3248 12.6064 27.6608 12.6064C25.3477 12.6064 23.7476 13.9321 23.7476 15.7972C23.7476 16.8487 24.4974 17.6624 25.4939 18.2384C26.2985 18.6955 26.591 19.0247 26.591 19.5092C26.591 19.9938 26.1887 20.4144 25.439 20.4144C24.3236 20.4144 23.2722 19.8384 23.2722 19.8384L22.6231 21.7218C22.6231 21.7218 23.5922 22.371 25.2379 22.371C27.6151 22.371 29.3247 21.2007 29.3247 19.0887C29.3247 17.955 28.4654 17.1504 27.4231 16.5561L27.4139 16.547Z" fill="black"/>
<path d="M36.8951 12.5881C35.7248 12.5881 34.8014 13.1458 34.0883 13.987L34.0516 13.9687L35.0665 8.64753H32.415L29.846 22.179H32.4974L33.3842 17.5527C33.7317 15.8064 34.6277 14.7275 35.478 14.7275C36.0723 14.7275 36.3008 15.1298 36.3008 15.7058C36.3008 16.0715 36.2642 16.5104 36.1819 16.8761L35.1854 22.179H37.8368L38.8699 16.7115C38.9888 16.1355 39.0619 15.4407 39.0619 14.9835C39.0619 13.4841 38.2756 12.5881 36.8951 12.5881Z" fill="black"/>
<path d="M45.0597 12.5881C41.8688 12.5881 39.7568 15.4681 39.7568 18.6772C39.7568 20.7344 41.0276 22.3801 43.4048 22.3801C46.5316 22.3801 48.6436 19.5732 48.6436 16.291C48.6436 14.3892 47.5282 12.5881 45.0505 12.5881H45.0597ZM43.7522 20.3412C42.8471 20.3412 42.463 19.5732 42.463 18.6132C42.463 17.0955 43.2494 14.6178 44.6939 14.6178C45.6357 14.6178 45.9374 15.4224 45.9374 16.2087C45.9374 17.8361 45.1511 20.3321 43.7522 20.3321V20.3412Z" fill="black"/>
<path d="M55.4185 12.5881C53.6265 12.5881 52.6117 14.1607 52.6117 14.1607H52.5751L52.7306 12.7435H50.3899C50.2711 13.7035 50.0608 15.1664 49.8505 16.2544L48.0037 25.9458H50.6551L51.3865 22.0327H51.4414C51.4414 22.0327 51.9808 22.3801 52.9956 22.3801C56.1042 22.3801 58.1431 19.1892 58.1431 15.971C58.1431 14.1881 57.3568 12.5881 55.4185 12.5881ZM52.8859 20.387C52.2002 20.387 51.7888 20.003 51.7888 20.003L52.2276 17.5252C52.5385 15.8704 53.398 14.7824 54.3214 14.7824C55.126 14.7824 55.3729 15.5321 55.3729 16.2452C55.3729 17.955 54.3579 20.3961 52.8768 20.3961L52.8859 20.387Z" fill="black"/>
<path d="M61.9282 8.78467C61.0871 8.78467 60.4105 9.4521 60.4105 10.3207C60.4105 11.107 60.9134 11.6464 61.654 11.6464H61.6905C62.5133 11.6464 63.2266 11.0887 63.2448 10.1104C63.2448 9.34239 62.7236 8.78467 61.9191 8.78467H61.9282Z" fill="black"/>
<path d="M58.2254 22.1881H60.8768L62.678 12.7984H60.0082L58.2254 22.1881Z" fill="black"/>
<path d="M69.4163 12.7801H67.5694L67.6608 12.3412C67.8162 11.4361 68.3556 10.6315 69.2333 10.6315C69.7088 10.6315 70.0745 10.7687 70.0745 10.7687L70.5956 8.69325C70.5956 8.69325 70.1385 8.46467 69.1602 8.46467C68.182 8.46467 67.2769 8.72982 66.5729 9.35153C65.6677 10.1195 65.2471 11.235 65.0368 12.3504L64.9637 12.7892H63.7385L63.3545 14.7824H64.5797L63.1808 22.1972H65.8322L67.2311 14.7824H69.0505L69.4163 12.7892V12.7801Z" fill="black"/>
<path d="M75.7888 12.7984C75.7888 12.7984 74.134 16.9675 73.3934 19.2532H73.3568C73.3019 18.5218 72.7077 12.7984 72.7077 12.7984H69.9282L71.5191 21.4201C71.5556 21.6121 71.5374 21.731 71.4643 21.859C71.1534 22.4532 70.6413 23.0292 70.0288 23.4498C69.5259 23.8155 68.9773 24.0441 68.5293 24.1995L69.2608 26.4487C69.8002 26.3298 70.9156 25.891 71.8482 25.0132C73.055 23.8795 74.1705 22.1332 75.3225 19.7561L78.5683 12.8075H75.8071L75.7888 12.7984Z" fill="black"/>
</svg>
