<svg width="61" height="33" viewBox="0 0 61 33" fill="none" xmlns="http://www.w3.org/2000/svg">
<path d="M10.9914 6.15679V12.9602C10.9914 12.9602 13.3887 12.9602 14.6717 12.8628C15.6807 12.6862 15.8664 12.5888 16.0521 11.5798L16.4235 10.1021H17.5208L17.3351 13.3317L17.4325 16.6405H16.3261L16.0521 15.3484C15.778 14.4289 15.4066 14.2421 14.6717 14.1538C13.7522 14.0564 10.9914 14.0564 10.9914 14.0564V19.7625C10.9914 20.8598 11.5485 21.3286 12.8315 21.3286H16.6975C17.8922 21.3286 19.0858 21.2312 19.8298 19.4885L20.8297 17.2769H21.7582C21.6608 17.7367 21.2011 21.7884 21.1128 22.7C21.1128 22.7 17.6182 22.6116 16.1495 22.6116H9.52269L5.56836 22.7V21.7001L6.85136 21.417C7.77993 21.2312 8.05397 20.9572 8.05397 20.2223C8.05397 20.2223 8.15135 17.7367 8.15135 13.5955C8.15135 9.46452 8.05397 6.97778 8.05397 6.97778C8.05397 6.15453 7.77993 5.96882 6.85136 5.7831L5.56836 5.51133V4.50236L9.43436 4.58163H16.7949C18.2636 4.58163 20.7402 4.31665 20.7402 4.31665C20.7402 4.31665 20.6519 5.87369 20.5545 9.55398H19.5455L19.1741 8.26192C18.8117 6.60749 18.2625 5.78424 17.2456 5.78424H11.4602C10.9914 5.78537 10.9914 5.87369 10.9914 6.15679ZM25.8892 6.88266H26.9956V10.7487L30.7732 10.5629L30.5875 12.3148L26.9072 12.0317V18.8442C26.9072 20.7726 27.5527 21.5155 28.659 21.5155C29.6589 21.5155 30.4018 20.9583 30.6758 20.4986L31.2239 21.1441C30.6758 22.4271 29.1188 23.0725 27.641 23.0725C25.8099 23.0725 24.3231 21.9752 24.3231 19.861V12.1279H22.1285V11.2084C23.9698 11.0227 25.3411 9.91635 25.8892 6.88266ZM33.8069 18.7456L34.5407 20.4975C34.8147 21.2312 35.4602 21.9752 36.9289 21.9752C38.495 21.9752 39.1405 21.1441 39.1405 20.1351C39.1405 17.0029 32.9746 17.9235 32.9746 13.694C32.9746 11.3058 34.9031 10.1904 37.3887 10.1904C38.495 10.1904 40.1495 10.3761 40.9806 10.7475C40.7949 11.667 40.6975 12.8617 40.6975 13.7823L39.786 13.8707L39.1405 12.0305C38.9548 11.5798 38.2119 11.2073 37.3004 11.2073C36.194 11.2073 35.0888 11.667 35.0888 12.8617C35.0888 15.7108 41.4404 15.0733 41.4404 19.3028C41.4404 21.7001 39.3262 22.9831 36.7432 22.9831C34.8147 22.9831 32.8772 22.2402 32.8772 22.2402C33.0629 21.1429 32.9746 19.9494 32.8772 18.7456H33.8069ZM40.9818 27.5749C41.2558 26.566 41.4415 25.2841 41.6272 24.0804L42.6362 23.992L43.0076 25.9205C43.096 26.3802 43.37 26.7517 44.1049 26.7517C45.2996 26.7517 46.8657 26.0179 48.3423 23.4428C47.6878 21.8767 45.7593 16.8251 44.0075 12.9591C43.5478 11.9422 43.4595 11.8527 42.8219 11.667L42.3531 11.4904V10.5618L45.1218 10.6592L48.519 10.4735V11.3941L47.6878 11.5798C47.0424 11.6682 46.7762 12.0305 46.7762 12.4031C46.7762 12.5005 46.7762 12.5888 46.8646 12.7745C47.0412 13.3317 48.519 17.4638 49.6254 20.2234C50.5369 18.2949 52.2887 13.9692 52.5628 13.2343C52.6602 12.8628 52.7485 12.7745 52.7485 12.5005C52.7485 12.0317 52.4745 11.7576 51.8369 11.581L51.1824 11.3941V10.4746L53.7654 10.5629L56.1536 10.4746V11.3941L55.6939 11.7565C54.7743 12.1279 54.677 12.2162 54.3135 12.9591L50.2708 22.4248C47.8735 27.8569 45.3879 28.3166 43.644 28.3166C42.5388 28.3178 41.7076 28.0347 40.9818 27.5749Z" fill="#F45800"/>
</svg>
