<svg width="81" height="80" viewBox="0 0 81 80" fill="none" xmlns="http://www.w3.org/2000/svg">
<g clip-path="url(#clip0_3250_3558)">
<g clip-path="url(#clip1_3250_3558)">
<path d="M39.2679 78.5866C60.8169 78.5866 78.2859 61.1177 78.2859 39.5687C78.2859 18.0197 60.8169 0.550781 39.2679 0.550781C17.7189 0.550781 0.25 18.0197 0.25 39.5687C0.25 61.1177 17.7189 78.5866 39.2679 78.5866Z" fill="#F4AEBA"/>
<path d="M101.25 62.8103H-3.75V65.8341H101.25V62.8103Z" fill="#F3930D"/>
<path d="M51.8119 99.4925L45.0666 92.1377C45.0666 92.1377 51.6118 82.5513 55.2924 79.5811L50.6701 66.67L38.0378 85.2239C35.003 88.706 35.0235 93.9 38.0866 97.3569L50.1472 110.973" fill="#B70E13"/>
<path d="M49.0449 69.8552L50.1804 117.286L59.3432 117.905L61.8709 90.9604L63.5765 68.6063H49.0449V69.8552Z" fill="#B70E13"/>
<path d="M49.5211 77.5131L49.4707 87.3972" stroke="#1D1D1B" stroke-width="0.366458" stroke-linecap="round" stroke-linejoin="round"/>
<path d="M29.2522 47.7277H48.2266C48.5164 47.7277 48.7511 47.9623 48.7511 48.2521V61.5411C48.7511 61.8309 48.5164 62.0655 48.2266 62.0655H29.0948C28.805 62.0655 28.5703 61.8309 28.5703 61.5411V48.4096C28.5703 48.0332 28.8758 47.7277 29.2522 47.7277Z" fill="#4D4D4D"/>
<path d="M51.9513 61.3751H27.7562C27.5144 61.3751 27.3184 61.5711 27.3184 61.8129V62.602C27.3184 62.8438 27.5144 63.0398 27.7562 63.0398H51.9513C52.1931 63.0398 52.3892 62.8438 52.3892 62.602V61.8129C52.3892 61.5711 52.1931 61.3751 51.9513 61.3751Z" fill="#333333"/>
<path d="M19.6417 32.9404H2.82812V46.8751H19.6417V32.9404Z" fill="#F6AA43"/>
<path d="M19.6328 33.7975V46.055" stroke="#1D1D1B" stroke-width="0.366458" stroke-linecap="round" stroke-linejoin="round"/>
<path d="M2.73242 38.3787V33.0744H16.0891" stroke="#1D1D1B" stroke-width="0.366458" stroke-linecap="round" stroke-linejoin="round"/>
<path d="M17.2188 34.8822H11.6563C11.378 34.8822 11.1523 35.1078 11.1523 35.3862V37.4052C11.1523 37.6835 11.378 37.9092 11.6563 37.9092H17.2188C17.4972 37.9092 17.7228 37.6835 17.7228 37.4052V35.3862C17.7228 35.1078 17.4972 34.8822 17.2188 34.8822Z" fill="#F8BE6E"/>
<path d="M21.7723 21.7946H8.26758V32.9874H21.7723V21.7946Z" fill="#F3930D"/>
<path d="M21.7715 22.4846V32.3293" stroke="#1D1D1B" stroke-width="0.366458" stroke-linecap="round" stroke-linejoin="round"/>
<path d="M8.19336 26.1629V21.9028H18.9216" stroke="#1D1D1B" stroke-width="0.366458" stroke-linecap="round" stroke-linejoin="round"/>
<path d="M19.7364 23.3509H15.4669C15.1885 23.3509 14.9629 23.5765 14.9629 23.8549V25.2786C14.9629 25.5569 15.1885 25.7825 15.4669 25.7825H19.7364C20.0147 25.7825 20.2404 25.5569 20.2404 25.2786V23.8549C20.2404 23.5765 20.0147 23.3509 19.7364 23.3509Z" fill="#F8BE6E"/>
<path d="M27.403 46.7402H7.91211V62.894H27.403V46.7402Z" fill="#F3930D"/>
<path d="M27.4062 47.4266V61.6354" stroke="#1D1D1B" stroke-width="0.366458" stroke-linecap="round" stroke-linejoin="round"/>
<path d="M7.91211 52.8886V46.7402H23.3949" stroke="#1D1D1B" stroke-width="0.366458" stroke-linecap="round" stroke-linejoin="round"/>
<path d="M24.8443 48.9904H18.2344C17.9561 48.9904 17.7305 49.216 17.7305 49.4943V51.9953C17.7305 52.2736 17.9561 52.4992 18.2344 52.4992H24.8443C25.1226 52.4992 25.3483 52.2736 25.3483 51.9953V49.4943C25.3483 49.216 25.1226 48.9904 24.8443 48.9904Z" fill="#F8BE6E"/>
<path d="M48.9945 50.1103C49.0543 52.8648 48.9646 55.9862 48.6008 59.3943C48.2086 63.078 47.5724 66.3727 46.8652 69.2185L65.0411 70.8312C66.2617 61.9331 66.8932 52.5892 65.8963 43.6642H56.6926L48.9945 50.1119V50.1103Z" fill="#068B38"/>
<path d="M49.5635 38.6445C49.7966 31.8724 50.4533 30.5385 50.8691 29.8313C51.2754 29.1399 52.2629 27.5068 54.2551 26.5256C56.3623 25.4893 59.279 25.3381 61.4367 26.6957C61.4556 26.7083 61.5091 26.7414 61.6256 26.8185C63.5738 28.1178 64.8636 29.6423 65.6684 30.7967C65.6684 30.7967 68.6434 35.9577 69.3316 40.5028L69.1111 46.8465L57.9231 47.4481C54.9449 48.3364 51.9684 49.223 48.9902 50.1113C49.0973 49.1474 49.2438 47.6891 49.3572 45.9079C49.554 42.8053 49.4501 41.8462 49.5619 38.6445H49.5635Z" fill="#068B38"/>
<path d="M59.6684 38.4666L58.4668 46.1505" stroke="#006837" stroke-width="0.366458" stroke-linecap="round" stroke-linejoin="round"/>
<path d="M48.1505 13.7887C44.4211 14.0092 44.6322 6.18355 47.5505 8.65929C50.8325 11.4437 54.869 6.40246 58.192 12.754C60.1559 16.5086 58.7937 19.8663 55.9636 20.5891C53.1319 21.312 48.1505 13.7903 48.1505 13.7903V13.7887Z" fill="#F3930D"/>
<path d="M57.2389 25.9511C56.379 23.8786 55.9018 21.5399 55.9381 19.3665C57.9838 19.3996 57.7712 15.5159 55.6609 16.4466C55.6609 16.4466 55.1018 15.6954 54.7537 15.0922C54.0923 13.9473 53.3725 13.0764 52.0607 12.8669C51.5063 12.7787 50.8889 12.9882 50.2416 13.0464C49.3518 13.1268 48.4667 13.1472 48.1565 13.7851C47.6887 14.7505 47.7171 15.886 47.7423 16.9585C48.0903 19.4263 47.2415 20.7225 48.3518 22.2391C48.9014 22.9888 49.9078 23.1211 50.1849 23.5416C50.4921 24.0093 50.6999 24.5243 50.7976 25.0771C50.985 26.1449 52.5048 29.9782 52.6119 32.2602C52.6733 33.5705 58.0988 28.0221 57.2389 25.9511Z" fill="#F9E8D8"/>
<path d="M54.5469 14.7579L54.9107 18.2258L55.8115 18.1486L55.7643 15.5532L54.5469 14.7579Z" fill="#F3930D"/>
<path d="M47.7722 19.6678C47.7722 19.6678 49.4195 23.8255 53.2796 20.8175C54.1993 20.1277 54.9112 18.2268 54.9112 18.2268L55.812 18.1496C55.812 18.1496 56.4593 20.734 56.1837 21.9152C55.9081 23.0964 51.996 27.2667 49.3077 25.6304C46.6178 23.994 46.6445 20.345 47.7722 19.6694V19.6678Z" fill="#F3930D"/>
<path d="M55.56 9.8056C53.6118 8.15826 46.2398 6.49832 48.0682 10.3033C49.8967 14.1082 55.56 9.8056 55.56 9.8056Z" fill="#F3930D"/>
<path d="M46.5735 49.3519H30.5363C30.2919 49.3519 30.0938 49.5501 30.0938 49.7945V59.4061C30.0938 59.6505 30.2919 59.8486 30.5363 59.8486H46.5735C46.8179 59.8486 47.016 59.6505 47.016 59.4061V49.7945C47.016 49.5501 46.8179 49.3519 46.5735 49.3519Z" fill="#BDCCD4"/>
<path d="M50.6089 12.2904C50.6341 12.2826 50.6546 12.2637 50.6656 12.2385C50.6861 12.1896 50.6656 12.1345 50.6168 12.114C50.1318 11.903 49.6955 11.577 49.3585 11.1738C48.875 10.5958 48.6891 9.98163 48.6167 9.56743C48.6073 9.51546 48.5584 9.48081 48.5065 9.49026C48.4545 9.49971 48.4198 9.54853 48.4293 9.6005C48.5049 10.0368 48.7017 10.6856 49.212 11.2951C49.5679 11.7219 50.0278 12.0652 50.5396 12.2889C50.5617 12.2983 50.5869 12.2983 50.6074 12.292L50.6089 12.2904Z" fill="#FBB03B"/>
<path d="M46.0607 52.048H31.5023C31.3953 52.048 31.3086 52.1347 31.3086 52.2417V58.5901C31.3086 58.6971 31.3953 58.7838 31.5023 58.7838H46.0607C46.1676 58.7838 46.2544 58.6971 46.2544 58.5901V52.2417C46.2544 52.1347 46.1676 52.048 46.0607 52.048Z" fill="white"/>
<path d="M49.5801 12.5754C49.6022 12.5675 49.6211 12.5533 49.6337 12.5313C49.6589 12.4856 49.6416 12.4273 49.5959 12.4021C49.2069 12.188 48.6604 11.7879 48.2667 11.0965C48.01 10.6461 47.8556 10.1311 47.8241 9.60827C47.821 9.5563 47.7753 9.51692 47.7233 9.52007C47.6714 9.52322 47.6304 9.5689 47.6351 9.62087C47.6698 10.1721 47.832 10.7154 48.1029 11.191C48.5187 11.9202 49.0951 12.3423 49.5061 12.5691C49.5297 12.5817 49.5581 12.5832 49.5817 12.5754H49.5801Z" fill="#FBB03B"/>
<path d="M59.9186 55.9562C59.9186 62.5865 56.8129 67.9616 52.9827 67.9616C49.1526 67.9616 46.0469 62.5865 46.0469 55.9562C46.0469 49.3259 49.1526 47.5037 52.9827 47.5037C56.8129 47.5037 59.9186 49.3259 59.9186 55.9562Z" fill="#068B38"/>
<path d="M55.1113 18.2726C55.1113 18.2726 53.0371 17.9718 50.7834 19.3577C50.7834 19.3577 49.2196 18.6222 47.7754 19.6663L48.7172 21.7263L49.6133 22.1216C49.6133 22.1216 48.5943 20.4097 49.429 19.9939C49.429 19.9939 50.27 19.6333 50.8338 19.9593C50.8338 19.9593 52.6702 19.0269 52.9458 19.7766C52.9458 19.7766 53.6624 20.9042 52.1505 21.8854L53.4923 21.6696L55.0687 20.0837L55.1113 18.2726Z" fill="#F3930D"/>
<path d="M59.2051 46.8807C59.2051 46.8807 59.5405 46.7594 60.1169 46.6082C61.8415 46.1531 65.7173 45.4192 69.1128 46.8461C68.9647 47.139 67.7709 49.4053 65.2243 49.8888C62.925 50.3266 60.4776 49.1297 59.2067 46.8807H59.2051Z" fill="#006837"/>
<path d="M60.3306 46.5345L60.8551 52.453L50.7852 45.8195L48.5977 48.9567L60.359 59.1873C60.359 59.1873 66.4727 64.049 67.7673 57.8895L68.0508 46.5519C68.0508 46.5519 64.9797 44.8431 60.3306 46.5361V46.5345Z" fill="#F9E8D8"/>
<path d="M59.3125 46.7516C60.2511 46.3217 61.8292 45.8224 64.0183 45.7909C66.3539 45.7563 67.9555 46.3831 68.9131 46.813" stroke="#006837" stroke-width="0.366458" stroke-linecap="round" stroke-linejoin="round"/>
<path d="M50.7477 16.2702C50.7791 16.8734 50.6595 17.3065 50.5366 17.5978C50.3508 18.0435 50.0704 18.3727 50.209 18.6105C50.2957 18.7585 50.4925 18.7822 50.5272 18.7853C50.7902 18.8168 51.0721 18.6294 51.2091 18.3065" stroke="#161415" stroke-width="0.366458" stroke-linecap="round" stroke-linejoin="round"/>
<path d="M49.7539 20.6292C49.8515 20.7646 50.0705 21.0198 50.4217 21.1127C50.9729 21.2576 51.6296 20.9426 52.0092 20.3079" stroke="#161415" stroke-width="0.366458" stroke-linecap="round" stroke-linejoin="round"/>
<path d="M49.3014 17.482C49.4841 17.482 49.6322 17.2268 49.6322 16.9119C49.6322 16.597 49.4841 16.3418 49.3014 16.3418C49.1188 16.3418 48.9707 16.597 48.9707 16.9119C48.9707 17.2268 49.1188 17.482 49.3014 17.482Z" fill="#161415"/>
<path d="M52.1647 17.4306C52.3474 17.4306 52.4954 17.1754 52.4954 16.8605C52.4954 16.5457 52.3474 16.2904 52.1647 16.2904C51.9821 16.2904 51.834 16.5457 51.834 16.8605C51.834 17.1754 51.9821 17.4306 52.1647 17.4306Z" fill="#161415"/>
<path d="M51.8608 9.08671C52.0389 8.14135 51.7371 7.29091 51.1866 7.1872C50.6362 7.08349 50.0455 7.76577 49.8674 8.71113C49.6893 9.65649 49.9912 10.5069 50.5416 10.6106C51.0921 10.7144 51.6827 10.0321 51.8608 9.08671Z" stroke="#161415" stroke-width="0.366458" stroke-linecap="round" stroke-linejoin="round"/>
<path d="M48.7369 8.97428C48.9016 8.09986 48.6222 7.31321 48.1128 7.21723C47.6033 7.12124 47.0568 7.75228 46.8921 8.6267C46.7273 9.50111 47.0067 10.2878 47.5162 10.3838C48.0256 10.4797 48.5721 9.84869 48.7369 8.97428Z" stroke="#161415" stroke-width="0.366458" stroke-linecap="round" stroke-linejoin="round"/>
<path d="M48.873 8.66707C48.873 8.66707 49.4195 7.86072 49.8684 8.71117" stroke="#161415" stroke-width="0.366458" stroke-linecap="round" stroke-linejoin="round"/>
<path d="M51.916 8.79492L55.1146 11.2659" stroke="#161415" stroke-width="0.366458" stroke-linecap="round" stroke-linejoin="round"/>
<path d="M47.093 39.5623H43.0518C42.7309 39.5623 42.4707 39.8225 42.4707 40.1435V47.5471C42.4707 47.868 42.7309 48.1282 43.0518 48.1282H47.093C47.414 48.1282 47.6742 47.868 47.6742 47.5471V40.1435C47.6742 39.8225 47.414 39.5623 47.093 39.5623Z" fill="#161415"/>
<path d="M43.5955 41.4637C43.5955 41.4637 40.7891 40.6479 40.7891 43.4213C40.7891 46.1947 43.7577 46.338 43.7577 46.338" stroke="#161415" stroke-width="1.09937" stroke-miterlimit="10"/>
<path d="M48.8992 43.7129C48.8992 43.7129 46.6849 40.3474 45.9258 41.8467C45.9258 41.8467 46.4124 42.401 47.1022 42.8357C47.1022 42.8357 47.8346 43.6798 47.6487 44.0436" fill="#F9E8D8"/>
<path d="M51.3823 46.2511C51.3823 46.2511 49.3885 44.9518 48.8971 43.7156L47.6466 44.0463C47.6466 44.0463 44.2181 41.4493 42.1754 40.9847C42.1754 40.9847 40.9911 40.9784 41.7959 41.7343L43.5062 42.8746C43.5062 42.8746 40.6478 42.0304 41.9203 43.3423L42.818 43.8825C42.818 43.8825 40.4588 43.9754 42.7959 45.0463C42.7959 45.0463 41.1234 45.166 43.1219 46.311C43.1219 46.311 44.4622 47.4874 46.9978 48.2245C46.9978 48.2245 47.8545 48.5489 49.2388 49.382" fill="#F9E8D8"/>
<path d="M47.6751 43.828L45.5254 42.302V41.0893H47.6751V43.828Z" fill="#161415"/>
<path d="M46.3236 43.1244C46.3236 43.1244 47.5977 43.8788 47.7017 43.4882C47.8056 43.0976 47.9883 44.5544 47.9883 44.5544L45.752 44.4237L46.3236 43.1228V43.1244Z" fill="#F9E8D8"/>
<path d="M29.8848 47.7809H38.9704" stroke="#1D1D1B" stroke-width="0.366458" stroke-linecap="round" stroke-linejoin="round"/>
<path d="M33.1445 59.7802H40.5639" stroke="#1D1D1B" stroke-width="0.366458" stroke-linecap="round" stroke-linejoin="round"/>
<path d="M28.5703 51.457V61.2356" stroke="#1D1D1B" stroke-width="0.366458" stroke-linecap="round" stroke-linejoin="round"/>
<path d="M38.5882 48.7523C38.7222 48.7523 38.8308 48.6437 38.8308 48.5097C38.8308 48.3758 38.7222 48.2672 38.5882 48.2672C38.4543 48.2672 38.3457 48.3758 38.3457 48.5097C38.3457 48.6437 38.4543 48.7523 38.5882 48.7523Z" fill="#BDCCD4"/>
<path d="M46.0607 50.2439H31.5023C31.3953 50.2439 31.3086 50.3306 31.3086 50.4376V51.4723C31.3086 51.5793 31.3953 51.666 31.5023 51.666H46.0607C46.1676 51.666 46.2544 51.5793 46.2544 51.4723V50.4376C46.2544 50.3306 46.1676 50.2439 46.0607 50.2439Z" fill="white"/>
<path d="M38.8681 53.1345H32.1055V53.4369H38.8681V53.1345Z" fill="#BDCCD4"/>
<path d="M33.6095 50.7082H32.1055V51.2421H33.6095V50.7082Z" fill="#BDCCD4"/>
<path d="M38.8681 53.7842H32.1055V53.9228H38.8681V53.7842Z" fill="#BDCCD4"/>
<path d="M38.8681 54.2706H32.1055V54.4092H38.8681V54.2706Z" fill="#BDCCD4"/>
<path d="M38.8681 54.7551H32.1055V54.8937H38.8681V54.7551Z" fill="#BDCCD4"/>
<path d="M38.8681 55.2396H32.1055V55.3782H38.8681V55.2396Z" fill="#BDCCD4"/>
<path d="M38.8681 55.726H32.1055V55.8645H38.8681V55.726Z" fill="#BDCCD4"/>
<path d="M38.8681 56.2123H32.1055V56.3509H38.8681V56.2123Z" fill="#BDCCD4"/>
<path d="M38.8681 56.6969H32.1055V56.8355H38.8681V56.6969Z" fill="#BDCCD4"/>
<path d="M38.8681 57.1814H32.1055V57.32H38.8681V57.1814Z" fill="#BDCCD4"/>
<path d="M42.4008 57.4899C43.4733 57.4899 44.3427 56.6205 44.3427 55.548C44.3427 54.4756 43.4733 53.6062 42.4008 53.6062C41.3284 53.6062 40.459 54.4756 40.459 55.548C40.459 56.6205 41.3284 57.4899 42.4008 57.4899Z" fill="#DDE4E9"/>
<path d="M43.4428 55.6698C44.1987 55.6698 44.8114 55.0571 44.8114 54.3012C44.8114 53.5454 44.1987 52.9326 43.4428 52.9326C42.687 52.9326 42.0742 53.5454 42.0742 54.3012C42.0742 55.0571 42.687 55.6698 43.4428 55.6698Z" fill="#DDE4E9"/>
<path d="M74.3392 59.048C76.5415 59.048 78.3268 57.2627 78.3268 55.0604C78.3268 52.8581 76.5415 51.0728 74.3392 51.0728C72.1369 51.0728 70.3516 52.8581 70.3516 55.0604C70.3516 57.2627 72.1369 59.048 74.3392 59.048Z" stroke="#C7B299" stroke-width="1.64906" stroke-miterlimit="10"/>
<path d="M74.3384 58.2553C76.1024 58.2553 77.5323 56.8253 77.5323 55.0614C77.5323 53.2974 76.1024 51.8675 74.3384 51.8675C72.5745 51.8675 71.1445 53.2974 71.1445 55.0614C71.1445 56.8253 72.5745 58.2553 74.3384 58.2553Z" stroke="#998675" stroke-width="0.549686" stroke-miterlimit="10"/>
<path d="M70.8325 52.0602C70.1443 52.8681 69.7285 53.9154 69.7285 55.0604C69.7285 55.8872 69.9459 56.6636 70.3254 57.3345" stroke="#1D1D1B" stroke-width="0.366458" stroke-linecap="round" stroke-linejoin="round"/>
<path d="M76.0901 50.7661C75.5562 50.5504 74.9719 50.4323 74.3609 50.4323C73.575 50.4323 72.8348 50.6275 72.1875 50.9724" stroke="#1D1D1B" stroke-width="0.366458" stroke-linecap="round" stroke-linejoin="round"/>
<path d="M78.332 57.4334C78.7478 56.7389 78.9872 55.9263 78.9872 55.0585C78.9872 54.512 78.8927 53.9876 78.7195 53.5009" stroke="#1D1D1B" stroke-width="0.366458" stroke-linecap="round" stroke-linejoin="round"/>
<path d="M79.2996 57.9919H69.625V62.83H79.2996V57.9919Z" fill="#C7B299"/>
<path d="M72.6382 58.0433L70.7656 62.82H73.5406L74.7202 58.1126L72.6382 58.0433Z" fill="#DBCEBE"/>
<path d="M69.6582 61.9266V57.9736H79.2478" stroke="#1D1D1B" stroke-width="0.366458" stroke-linecap="round" stroke-linejoin="round"/>
<path d="M76.4701 58.0286L76.9772 58.5357L76.574 58.9389L77.0024 59.3673L76.4701 59.9012L76.8984 60.3296L76.4433 60.7847L76.8858 61.2272L76.3535 61.7596" stroke="#1D1D1B" stroke-width="0.366458" stroke-linecap="round" stroke-linejoin="round"/>
<path d="M77.7415 62.8647H72.1758" stroke="#1D1D1B" stroke-width="0.366458" stroke-linecap="round" stroke-linejoin="round"/>
</g>
</g>
<defs>
<clipPath id="clip0_3250_3558">
<rect width="80" height="80" fill="white" transform="translate(0.25)"/>
</clipPath>
<clipPath id="clip1_3250_3558">
<rect x="0.25" y="0.550781" width="78.0359" height="78.0359" rx="39.0179" fill="white"/>
</clipPath>
</defs>
</svg>
