<svg width="81" height="80" viewBox="0 0 81 80" fill="none" xmlns="http://www.w3.org/2000/svg">
<g clip-path="url(#clip0_3250_3828)">
<path d="M39.2679 78.5866C60.8169 78.5866 78.2859 61.1177 78.2859 39.5687C78.2859 18.0197 60.8169 0.550781 39.2679 0.550781C17.7189 0.550781 0.25 18.0197 0.25 39.5687C0.25 61.1177 17.7189 78.5866 39.2679 78.5866Z" fill="#F4AEBA"/>
<path d="M0.25 55.5938H78.25C78.25 56.8238 77.2527 57.8321 76.0116 57.8321H2.48839C1.2473 57.8321 0.25 56.8238 0.25 55.5938Z" fill="#2A2A2D"/>
<path d="M9.92501 20H68.5774C69.7076 20 70.6163 20.9197 70.6163 22.0389V55.5926H7.875V22.0389C7.875 20.9197 8.79473 20 9.92501 20Z" fill="#404044"/>
<path d="M68.6447 22.5371H9.85938V54.2845H68.6447V22.5371Z" fill="white"/>
<path d="M68.6447 21.918H9.85938V27.658H68.6447V21.918Z" fill="#C32E29"/>
<path d="M23.4401 31.7578H30.1553C30.4656 31.7578 30.7093 32.0016 30.7093 32.3119V34.0959H22.875V32.3119C22.8861 32.0016 23.1299 31.7578 23.4401 31.7578Z" fill="#B3B3B3"/>
<path d="M15.0651 31.8008H21.7803C22.0906 31.8008 22.3343 32.0446 22.3343 32.3548V34.1389H14.5V32.3548C14.5111 32.0446 14.7549 31.8008 15.0651 31.8008Z" fill="#B3B3B3"/>
<path d="M31.7409 31.7578H38.4561C38.7663 31.7578 39.0101 32.0016 39.0101 32.3119V34.0959H31.1758V32.3119C31.1869 32.0016 31.4306 31.7578 31.7409 31.7578Z" fill="#B3B3B3"/>
<path d="M40.0417 31.7578H46.7569C47.0671 31.7578 47.3109 32.0016 47.3109 32.3119V34.0959H39.4766V32.3119C39.4876 32.0016 39.7314 31.7578 40.0417 31.7578Z" fill="#B3B3B3"/>
<path d="M48.3431 31.7578H55.0583C55.3685 31.7578 55.6123 32.0016 55.6123 32.3119V34.0959H47.7891V32.3119C47.7891 32.0016 48.0329 31.7578 48.3431 31.7578Z" fill="#B3B3B3"/>
<path d="M56.6119 31.6914H63.3651C63.6771 31.6914 63.9223 31.9456 63.9223 32.2691V34.1293H56.0547V32.2691C56.0547 31.9456 56.2999 31.6914 56.6119 31.6914Z" fill="#B3B3B3"/>
<path d="M15.8428 39.7031H23.1009C23.2561 39.7031 23.389 39.8361 23.389 39.9912V40.1575C23.389 40.3126 23.2561 40.4456 23.1009 40.4456H15.8428C15.6877 40.4456 15.5547 40.3126 15.5547 40.1575V39.9912C15.5547 39.825 15.6877 39.7031 15.8428 39.7031Z" fill="#B3B3B3"/>
<path d="M24.2842 39.7031H34.8113C34.9664 39.7031 35.0994 39.8361 35.0994 39.9912V40.1575C35.0994 40.3126 34.9664 40.4456 34.8113 40.4456H24.2842C24.1291 40.4456 23.9961 40.3126 23.9961 40.1575V39.9912C23.9961 39.825 24.1291 39.7031 24.2842 39.7031Z" fill="#B3B3B3"/>
<path d="M15.8428 40.7559H23.1009C23.2561 40.7559 23.389 40.8888 23.389 41.044V41.2102C23.389 41.3653 23.2561 41.4983 23.1009 41.4983H15.8428C15.6877 41.4983 15.5547 41.3653 15.5547 41.2102V41.044C15.5547 40.8778 15.6877 40.7559 15.8428 40.7559Z" fill="#B3B3B3"/>
<path d="M24.2842 40.7559H34.8113C34.9664 40.7559 35.0994 40.8888 35.0994 41.044V41.2102C35.0994 41.3653 34.9664 41.4983 34.8113 41.4983H24.2842C24.1291 41.4983 23.9961 41.3653 23.9961 41.2102V41.044C23.9961 40.8778 24.1291 40.7559 24.2842 40.7559Z" fill="#B3B3B3"/>
<path d="M15.8428 41.8086H23.1009C23.2561 41.8086 23.389 41.9416 23.389 42.0967V42.2629C23.389 42.4181 23.2561 42.551 23.1009 42.551H15.8428C15.6877 42.551 15.5547 42.4181 15.5547 42.2629V42.0967C15.5547 41.9416 15.6877 41.8086 15.8428 41.8086Z" fill="#B3B3B3"/>
<path d="M24.2842 41.8086H34.8113C34.9664 41.8086 35.0994 41.9416 35.0994 42.0967V42.2629C35.0994 42.4181 34.9664 42.551 34.8113 42.551H24.2842C24.1291 42.551 23.9961 42.4181 23.9961 42.2629V42.0967C23.9961 41.9416 24.1291 41.8086 24.2842 41.8086Z" fill="#B3B3B3"/>
<path d="M24.2842 46.3965H34.8113C34.9664 46.3965 35.0994 46.5295 35.0994 46.6846V47.283C35.0994 47.4381 34.9664 47.5711 34.8113 47.5711H24.2842C24.1291 47.5711 23.9961 47.4381 23.9961 47.283V46.6846C23.9961 46.5295 24.1291 46.3965 24.2842 46.3965Z" fill="#B3B3B3"/>
<path d="M24.2842 49.7422H34.8113C34.9664 49.7422 35.0994 49.8752 35.0994 50.0303V50.6287C35.0994 50.7838 34.9664 50.9168 34.8113 50.9168H24.2842C24.1291 50.9168 23.9961 50.7838 23.9961 50.6287V50.0303C23.9961 49.8752 24.1291 49.7422 24.2842 49.7422Z" fill="#B3B3B3"/>
<path d="M15.6094 34.1289H63.9231" stroke="#EEEEEE" stroke-width="0.110811" stroke-miterlimit="10"/>
</g>
<defs>
<clipPath id="clip0_3250_3828">
<rect width="80" height="80" fill="white" transform="translate(0.25)"/>
</clipPath>
</defs>
</svg>
