<svg width="81" height="80" viewBox="0 0 81 80" fill="none" xmlns="http://www.w3.org/2000/svg">
<g clip-path="url(#clip0_3250_3516)">
<path d="M39.7679 78.5866C61.3169 78.5866 78.7859 61.1177 78.7859 39.5687C78.7859 18.0197 61.3169 0.550781 39.7679 0.550781C18.2189 0.550781 0.75 18.0197 0.75 39.5687C0.75 61.1177 18.2189 78.5866 39.7679 78.5866Z" fill="#F4AEBA"/>
<path d="M65.6478 21.4824H13.75V59.9028H65.6478V21.4824Z" fill="#E73439"/>
<path d="M39.7967 23.769C54.1301 23.769 65.7497 22.7014 65.7497 21.3845C65.7497 20.0676 54.1301 19 39.7967 19C25.4633 19 13.8438 20.0676 13.8438 21.3845C13.8438 22.7014 25.4633 23.769 39.7967 23.769Z" fill="#B70E13"/>
<path d="M41.7917 57.1263C50.3449 57.1263 57.2787 50.2035 57.2787 41.6637C57.2787 33.124 50.3449 26.2012 41.7917 26.2012C33.2384 26.2012 26.3047 33.124 26.3047 41.6637C26.3047 50.2035 33.2384 57.1263 41.7917 57.1263Z" fill="white"/>
<path d="M31.9841 39.4891C30.2222 39.4891 28.75 40.2391 28.75 42.4891C28.75 44.2828 29.7381 45.4098 32.0278 45.4098C34.7222 45.4098 34.8968 43.6359 34.8968 43.6359H33.5834C33.3135 44.2867 32.6429 44.6796 31.9445 44.5923C30.9603 44.6558 30.1071 43.9098 30.0397 42.9256C30.0397 42.882 30.0357 42.8383 30.0397 42.7947H35.0318V42.1359C35.0318 41.0963 34.377 39.4931 31.9841 39.4931M31.9405 40.3383C32.8254 40.2471 33.619 40.8939 33.7063 41.7788C33.7103 41.8383 33.7143 41.8939 33.7143 41.9534H30.0715C30.131 41.001 30.9484 40.2748 31.9008 40.3344C31.9127 40.3344 31.9246 40.3344 31.9405 40.3344" fill="#E53238"/>
<path d="M35.0357 37.3066V44.2748C35.0357 44.6717 35.0079 45.2272 35.0079 45.2272H36.254C36.254 45.2272 36.2976 44.8264 36.2976 44.4653C36.8532 45.1439 37.7103 45.505 38.5873 45.4296C40.1468 45.505 41.4722 44.2986 41.5476 42.7391C41.5516 42.6439 41.5516 42.5486 41.5476 42.4534C41.623 40.9018 40.4246 39.5844 38.873 39.509C38.7778 39.505 38.6865 39.505 38.5913 39.509C36.8532 39.509 36.3135 40.4455 36.3135 40.4455V37.3066H35.0357ZM38.2659 40.3701C39.3294 40.3502 40.2103 41.1955 40.2302 42.2629C40.2302 42.3264 40.2302 42.3899 40.2262 42.4534C40.3056 43.5407 39.4881 44.4852 38.4008 44.5645C38.3611 44.5645 38.3214 44.5685 38.2778 44.5685C37.1984 44.5764 36.3175 43.7113 36.3056 42.632C36.3056 42.5764 36.3056 42.5209 36.3095 42.4653C36.2222 41.3978 37.0199 40.4653 38.0873 40.378C38.1468 40.374 38.2063 40.3701 38.2698 40.3701" fill="#0064D2"/>
<path d="M44.6389 39.4891C41.9881 39.4891 41.8175 40.9415 41.8175 41.1756H43.1389C43.1389 41.1756 43.2064 40.3264 44.5516 40.3264C45.4246 40.3264 46.0992 40.7272 46.0992 41.4971V41.7709H44.5516C42.4961 41.7709 41.4127 42.374 41.4127 43.5923C41.4127 44.8105 42.4127 45.4455 43.7738 45.4455C45.623 45.4455 46.2183 44.4256 46.2183 44.4256C46.2183 44.8304 46.25 45.2312 46.25 45.2312H47.4246C47.4246 45.2312 47.377 44.7312 47.377 44.4177V41.6677C47.377 39.8701 45.9246 39.4891 44.6468 39.4891M46.1032 42.5844V42.9494C46.1032 43.4256 45.8095 44.6042 44.0833 44.6042C43.1389 44.6042 42.7341 44.132 42.7341 43.5844C42.7341 42.5883 44.0992 42.5844 46.1032 42.5844Z" fill="#F5AF02"/>
<path d="M48.1468 39.7193L50.2778 43.9891L52.4048 39.7193H53.75L49.873 47.3225H48.4603L49.5794 45.2034L46.6587 39.7193H48.1468Z" fill="#86B817"/>
<path d="M30.6953 31.3807C36.7462 25.3393 46.5491 25.3393 52.6 31.3807C58.651 37.422 58.651 47.2094 52.6 53.2508" stroke="#1D1D1B" stroke-width="1.63026" stroke-miterlimit="10" stroke-linecap="round" stroke-linejoin="round"/>
<g opacity="0.54">
<path d="M20.5541 25.6384V59.298H13.7969V24.5723C14.9706 25.1175 17.6524 25.4919 20.5541 25.6384Z" fill="#B70E13"/>
<path d="M58.8203 25.6384V59.298H65.5776V24.5723C64.412 25.1175 61.7302 25.4919 58.8203 25.6384Z" fill="#B70E13"/>
</g>
<path d="M14.2383 21.9785V41.2254" stroke="#1D1D1B" stroke-width="1.63026" stroke-miterlimit="10" stroke-linecap="round" stroke-linejoin="round"/>
<path d="M49.75 60H64.9969" stroke="#1D1D1B" stroke-width="1.451" stroke-miterlimit="10" stroke-linecap="round" stroke-linejoin="round"/>
<path d="M18.0347 23.5L22.792 28.2573L19.0098 32.0395L23.0284 36.058L18.0347 41.0665L22.0533 45.0851L17.7835 49.3548L21.9351 53.5063L16.9414 58.5" stroke="#1D1D1B" stroke-width="1.5" stroke-linecap="round" stroke-linejoin="round"/>
</g>
<defs>
<clipPath id="clip0_3250_3516">
<rect width="80" height="80" fill="white" transform="translate(0.75)"/>
</clipPath>
</defs>
</svg>
