<svg width="81" height="80" viewBox="0 0 81 80" fill="none" xmlns="http://www.w3.org/2000/svg">
<g clip-path="url(#clip0_3250_5077)">
<g clip-path="url(#clip1_3250_5077)">
<path d="M39.2679 78.0359C60.8169 78.0359 78.2859 60.5669 78.2859 39.0179C78.2859 17.4689 60.8169 0 39.2679 0C17.7189 0 0.25 17.4689 0.25 39.0179C0.25 60.5669 17.7189 78.0359 39.2679 78.0359Z" fill="#F4AEBA"/>
<path d="M16.5234 21.2173V72.9103C15.3543 71.5596 14.1675 70.1364 12.9631 68.6393C5.16557 58.941 -9.04656 67.0634 -18.7207 67.5201V21.2173H16.5234Z" fill="#E73439"/>
<path d="M37.9812 23.6182V91.3597C33.1763 88.79 27.9356 84.8261 22.2494 79.1062C20.3873 77.2344 18.4785 75.1729 16.5215 72.9103V21.2173L37.9812 23.6182Z" fill="#B70E13"/>
<path d="M36.385 49.4117C35.2224 50.2977 32.5899 52.0473 28.8238 52.4332C23.2358 53.0041 19.1835 50.1594 18.1816 49.4117C18.1816 40.9886 18.1816 32.5671 18.1816 24.1441L36.3834 26.6575V49.4117H36.385Z" fill="#B3B3B3"/>
<path d="M20.4282 31.1688L31.1235 32.0597C31.1235 32.0597 36.2564 35.4463 32.7637 46.9263L20.3574 47.5679L20.4282 31.1688Z" fill="#808080"/>
<path d="M34.8646 31.6336L20.4531 30.0256V24.0902L34.8646 25.6982V31.6336Z" fill="#B70E13"/>
<path opacity="0.3" d="M36.4 29.0302L18.1484 27.3337V24.0902L36.4 26.6583V29.0302Z" fill="black"/>
<path d="M20.5918 28.3143V47.8958" stroke="#161415" stroke-width="0.701163" stroke-miterlimit="10" stroke-linecap="round" stroke-linejoin="round"/>
<path d="M32.7298 48.5676L20.4297 49.1368" stroke="#161415" stroke-width="0.701163" stroke-miterlimit="10" stroke-linecap="round" stroke-linejoin="round"/>
<path d="M41.2471 23.6013C41.0895 22.4644 40.3289 21.5027 39.2628 21.0798C37.9779 20.57 35.725 19.803 32.1245 18.9539C25.7083 17.4424 2.19676 14.1973 -4.8096 15.4274C-21.4467 18.3493 1.25121 22.6461 1.25121 22.6461C1.25121 22.6461 37.6241 26.7547 37.986 26.7563C38.3992 26.7595 39.3625 26.4363 40.2533 26.2128C41.4304 25.9201 41.416 24.8186 41.2471 23.6013Z" fill="#B70E13"/>
<path opacity="0.3" d="M23.4052 41.4838L32.1965 37.8865C32.1965 37.8865 33.2707 40.133 32.1965 43.288L21.8711 43.7688C21.8711 42.767 22.4773 41.8633 23.4052 41.4838Z" fill="#F2F2F2"/>
<path d="M-22.4613 22.7005C-22.5256 21.1118 -21.7151 20.6117 -20.3129 19.8607C-17.8686 18.5501 -12.6826 16.4516 -4.76769 16.6397C6.67051 16.9099 14.5613 17.6946 18.173 19.2271C21.7864 20.7596 18.649 23.7651 15.8687 24.7943C13.0883 25.8234 6.10929 27.462 -2.09829 27.8222C-13.3098 28.3143 -18.3398 26.859 -20.6892 25.8556C-22.4436 25.1062 -22.4291 23.503 -22.4613 22.7005Z" fill="#B70E13"/>
<path d="M33.4925 33.4183L25 33.0255L24.9515 34.0744L33.444 34.4672L33.4925 33.4183Z" fill="#999999"/>
<path d="M34.9648 28.3143V47.8958" stroke="#161415" stroke-width="0.701163" stroke-miterlimit="10" stroke-linecap="round" stroke-linejoin="round"/>
<path d="M31.127 31.9156C31.127 31.9156 36.3677 37.4763 32.7318 46.9237" stroke="#161415" stroke-width="0.701163" stroke-miterlimit="10" stroke-linecap="round" stroke-linejoin="round"/>
<path d="M-22.5461 22.0659C-22.6104 20.4771 -18.7221 14.9743 -3.68665 15.0193C7.00702 15.0515 10.6429 15.9617 13.584 16.3347C14.4315 16.4425 16.6377 17.0793 17.0703 17.4073C18.0223 18.1277 18.45 20.6138 18.167 21.323C18.0175 21.6993 17.6476 22.1656 16.7471 22.6078C13.5036 24.2014 5.31854 25.8465 -1.33565 26.1665C-9.32454 26.5508 -19.428 25.7178 -21.496 24.2159C-22.247 23.6724 -22.5123 22.8683 -22.5461 22.0659Z" fill="#E73439"/>
<path d="M25.2254 32.9892C25.8445 33.1339 25.8445 34.0151 25.2254 34.1598L24.4471 34.3416L21.5847 35.0089C21.3676 35.0588 21.1602 34.8947 21.1602 34.6712V33.5745V32.4778C21.1602 32.2543 21.3676 32.0903 21.5847 32.1401L24.4471 32.8075L25.2254 32.9892Z" fill="#B3B3B3"/>
<path d="M20.5391 31.4246V30.0352L34.0179 31.3828V32.6998L20.5391 31.4246Z" fill="#161415"/>
<path d="M18.5488 18.1333C18.5488 18.1333 35.723 20.4537 37.984 21.216C39.5567 21.7466 40.8029 22.7002 39.8413 22.5394C37.5659 22.1599 26.8465 20.2929 19.147 19.9729C19.1454 18.7974 18.5488 18.1333 18.5488 18.1333Z" fill="#E73439"/>
<path d="M24.7054 60.5578L32.7281 59.9178V71.5216L24.5977 73.0171C24.5977 73.0187 24.7054 60.3986 24.7054 60.5578Z" fill="#F8E7E7"/>
<path d="M16.2578 37.5654V66.9239" stroke="#161415" stroke-width="0.701163" stroke-miterlimit="10" stroke-linecap="round" stroke-linejoin="round"/>
<path d="M68.2978 75.8342C64.3495 78.757 58.9575 80.7437 52.5842 80.4552C49.7068 80.3254 46.629 79.7321 43.3926 78.5516L50.1263 59.6343L67.4714 58.4526L68.2978 75.8342Z" fill="#E73439"/>
<path d="M50.3798 40.1225C48.4208 39.4171 37.4302 33.4216 37.2047 33.2314C36.9792 33.0399 38.6258 31.5709 38.9445 31.2396C39.262 30.9095 47.859 33.7907 49.7235 34.335C51.588 34.8792 60.7241 35.8304 63.2488 36.3683C69.1044 37.6143 65.1763 45.2386 61.0958 43.7269C57.4045 42.3587 51.6333 40.5748 50.3798 40.1225Z" fill="#925F36"/>
<path d="M70.7674 39.602C70.8493 41.5043 70.6855 46.3609 70.3895 48.7507C69.9561 52.2505 69.2922 53.3932 69.1246 56.3625C68.8412 61.3615 73.7393 69.0438 60.2681 65.5629C58.8824 65.2051 53.9023 64.3548 49.3519 59.9971C48.7472 59.4188 52.6942 45.3606 53.2195 44.1587C55.3587 39.2656 55.8198 33.3244 56.529 31.7332C57.2257 30.1698 58.7639 28.6051 60.2253 28.3783C63.1884 28.3254 70.3202 29.1216 70.7674 39.602Z" fill="#B1D6B1"/>
<path d="M60.7109 46.0413C60.7109 46.0413 61.0612 46.0249 61.6508 46.0476C63.4195 46.1143 67.3375 46.5276 70.3875 48.7511C70.1885 48.9741 68.6037 50.6799 66.0286 50.4116C63.7043 50.1684 61.5361 48.4148 60.7109 46.0413Z" fill="#068B38"/>
<path d="M33.5917 41.6872L31.3828 53.1011L56.1341 57.891L58.3429 46.4771L33.5917 41.6872Z" fill="#F6A83E"/>
<path d="M32.5547 53.3273L56.1295 57.8891L57.4171 51.2347" stroke="#1D1D1B" stroke-width="0.701163" stroke-miterlimit="10" stroke-linecap="round" stroke-linejoin="round"/>
<path d="M40.8564 45.01L36.0187 44.074C35.8045 44.0324 35.5979 44.1722 35.5576 44.3864L34.9604 47.4717C34.9189 47.6858 35.0587 47.8924 35.2729 47.9328L40.1106 48.8688C40.3247 48.9104 40.5313 48.7705 40.5716 48.5564L41.1688 45.4711C41.2091 45.2582 41.0693 45.0516 40.8564 45.01Z" fill="#F8BE6E"/>
<path d="M61.8856 46.0485C61.4107 46.5474 61.8378 46.3017 60.6624 48.7987L47.0803 53.2735C46.5953 53.4335 46.07 53.4108 45.6013 53.2093C44.9487 52.9296 44.2193 52.5214 43.8174 52.3161C42.9104 51.6131 41.3217 50.5208 40.8128 51.0537C40.6503 51.2238 40.7183 51.5073 40.9299 51.6106C41.1227 51.705 41.8458 52.3601 42.0839 52.597C42.4165 52.9296 42.3334 54.5106 41.8068 54.7601C40.9325 55.1065 39.2582 54.8004 37.7703 54.4414C36.5634 54.1503 36.3291 54.6203 37.3407 55.0927C38.8525 55.9393 41.0534 57.2444 42.0562 56.9786C42.4354 56.8778 45.4955 56.1119 45.7449 56.0904C47.0363 56.1723 57.659 57.2293 64.3624 53.9765C67.3003 52.5516 68.9091 47.8601 68.9091 47.8601C68.9091 47.8601 66.2975 46.0485 61.8856 46.0485Z" fill="#925F36"/>
<path d="M63.9009 29.5591C63.4587 27.3985 63.4335 25.0515 63.8745 22.9602C65.8423 23.3747 66.3626 19.5864 64.1529 20.0904C64.1529 20.0904 64.5296 18.7071 64.3053 18.0596C63.8808 16.8312 62.4987 15.4606 61.2717 15.0133C60.7539 14.8244 59.8771 14.8546 59.2409 14.7903C58.3678 14.7009 57.496 14.7022 57.0778 15.2603C56.4466 16.1043 56.589 18.0684 56.4126 19.1065C56.2879 21.5543 55.2271 22.6465 56.0158 24.317C56.4063 25.1435 57.3524 25.4584 57.5414 25.917C57.7505 26.426 57.8551 26.9626 57.8463 27.5132C57.8286 28.579 58.5782 32.5625 58.257 34.7848C58.0718 36.061 64.3431 31.7197 63.9009 29.5591Z" fill="#925F36"/>
<path d="M58.7946 18.9833C58.8248 19.5628 58.7101 19.9798 58.5917 20.2608C58.4128 20.6891 58.1432 21.0066 58.2755 21.2346C58.3587 21.3769 58.5489 21.3996 58.5829 21.4034C58.8361 21.4336 59.107 21.2535 59.2393 20.9423" stroke="#161415" stroke-width="0.701163" stroke-miterlimit="10" stroke-linecap="round" stroke-linejoin="round"/>
<path d="M57.8398 23.1747C57.9343 23.3057 58.1435 23.5501 58.4823 23.6396C59.0127 23.7794 59.6439 23.4758 60.0092 22.8648" stroke="#161415" stroke-width="0.701163" stroke-miterlimit="10" stroke-linecap="round" stroke-linejoin="round"/>
<path d="M57.4073 20.1487C57.5827 20.1487 57.7248 19.9027 57.7248 19.5994C57.7248 19.296 57.5827 19.0501 57.4073 19.0501C57.232 19.0501 57.0898 19.296 57.0898 19.5994C57.0898 19.9027 57.232 20.1487 57.4073 20.1487Z" fill="#161415"/>
<path d="M60.1573 20.1002C60.3326 20.1002 60.4748 19.8543 60.4748 19.5509C60.4748 19.2475 60.3326 19.0016 60.1573 19.0016C59.982 19.0016 59.8398 19.2475 59.8398 19.5509C59.8398 19.8543 59.982 20.1002 60.1573 20.1002Z" fill="#161415"/>
<path d="M57.0871 15.5442C57.6074 14.4961 59.1646 16.5747 60.0351 16.7725C60.9837 16.9892 61.2974 15.9348 62.9087 17.0358C63.3408 17.3306 62.6038 20.9916 62.9452 21.4074C63.2867 21.8231 63.3509 20.2433 64.1496 20.0909C64.7039 19.9851 65.0151 20.4285 65.0995 20.1954C65.3061 19.626 65.5631 18.8852 65.6904 18.2944C65.7949 17.8119 65.8718 17.3143 65.8012 16.8406C65.7068 16.2056 65.3565 15.679 64.9761 15.2167C64.4318 14.5565 63.7755 13.9644 62.9679 13.7792C62.7147 13.7213 62.435 13.6961 62.2511 13.5033C62.0634 13.3068 62.0256 12.9818 61.8706 12.7512C61.5532 12.2763 60.8918 12.3405 60.3828 12.1427C59.5312 11.8127 59.1457 12.0256 58.4754 11.378C58.3671 11.2735 58.2436 11.1765 58.0962 11.1588C57.8569 11.1311 57.6162 11.3314 57.489 11.5733C57.3618 11.8164 56.6512 12.9541 56.6147 13.2249C56.3942 14.8589 55.0362 15.6677 56.6588 17.4995C56.6601 17.4995 56.6689 16.387 57.0871 15.5442Z" fill="black"/>
<path d="M38.9419 31.2395C38.9419 31.2395 34.8525 27.9879 34.2491 28.3759C33.7678 28.6858 33.1077 28.6669 32.954 28.8672C32.0746 30.0124 31.3553 30.3173 31.383 30.6133C31.4145 30.9636 33.5562 30.5491 33.6633 31.0051C33.7704 31.4612 33.3911 31.6804 32.6894 31.6262C31.5279 31.5355 30.9811 31.5456 31.383 32.0281C31.7849 32.5106 33.2841 33.0662 34.0853 32.9188C34.8865 32.7714 36.4878 33.715 37.7262 33.2753C38.7113 32.9251 39.7998 33.6948 39.7998 33.6948C39.7998 33.6948 41.0332 31.8605 40.1878 31.5998C39.3438 31.3377 38.9419 31.2395 38.9419 31.2395Z" fill="#925F36"/>
<path d="M61.4706 40.8556L60.7109 45.7122" stroke="#068B38" stroke-width="0.701163" stroke-miterlimit="10" stroke-linecap="round" stroke-linejoin="round"/>
<path d="M53.7044 74.7737L52.4824 80.0599" stroke="#1D1D1B" stroke-width="0.701163" stroke-miterlimit="10" stroke-linecap="round" stroke-linejoin="round"/>
<path d="M4.17173 35.2985H-0.935547V48.3111H4.17173V35.2985Z" fill="white"/>
<path d="M9.23242 45.4365V41.4278H-5.98862V45.4365H9.23242Z" fill="#E73439" stroke="white" stroke-width="0.350581" stroke-miterlimit="10"/>
<path d="M1.52167 40.2227C2.35451 40.2227 3.02966 39.6304 3.02966 38.8999C3.02966 38.1693 2.35451 37.5771 1.52167 37.5771C0.688824 37.5771 0.0136719 38.1693 0.0136719 38.8999C0.0136719 39.6304 0.688824 40.2227 1.52167 40.2227Z" fill="#FDDA24" stroke="white" stroke-width="0.350581" stroke-miterlimit="10"/>
<path d="M37.3926 33.3481C37.3926 33.3481 43.7168 36.8428 47.1284 38.6745" stroke="#161415" stroke-width="0.701163" stroke-miterlimit="10" stroke-linecap="round" stroke-linejoin="round"/>
<path d="M63.9668 28.8545C63.9668 28.8545 70.1802 30.297 70.6791 38.5072" stroke="#161415" stroke-width="0.701163" stroke-miterlimit="10" stroke-linecap="round" stroke-linejoin="round"/>
<path d="M55.2012 63.8624C55.2012 63.8624 62.1503 67.0523 67.4062 66.2485C71.3935 65.6387 69.015 56.9838 69.015 56.9838" stroke="#161415" stroke-width="0.701163" stroke-miterlimit="10" stroke-linecap="round" stroke-linejoin="round"/>
<path d="M62.8027 67.1886C62.8027 67.1886 62.9136 70.2676 66.3529 71.2112" stroke="#B70E13" stroke-width="0.701163" stroke-miterlimit="10" stroke-linecap="round" stroke-linejoin="round"/>
<path d="M49.546 61.4752L46.8828 69.1311" stroke="#161415" stroke-width="0.701163" stroke-miterlimit="10" stroke-linecap="round" stroke-linejoin="round"/>
<path d="M67.7964 50.3233C67.7964 50.3233 66.6588 52.6262 65.1055 53.5131" stroke="#161415" stroke-width="0.701163" stroke-miterlimit="10" stroke-linecap="round" stroke-linejoin="round"/>
<path d="M39.1836 56.0657C39.1836 56.0657 40.5152 57.0232 41.4298 57.0232C42.3457 57.0232 43.5929 56.6075 43.5929 56.6075" stroke="#161415" stroke-width="0.701163" stroke-miterlimit="10" stroke-linecap="round" stroke-linejoin="round"/>
<path d="M41.9473 43.278L50.3238 44.8868" stroke="#161415" stroke-width="0.701163" stroke-miterlimit="10" stroke-linecap="round" stroke-linejoin="round"/>
</g>
</g>
<defs>
<clipPath id="clip0_3250_5077">
<rect width="80" height="80" fill="white" transform="translate(0.25)"/>
</clipPath>
<clipPath id="clip1_3250_5077">
<rect x="0.25" width="78.0359" height="78.0359" rx="39.0179" fill="white"/>
</clipPath>
</defs>
</svg>
