<svg width="81" height="80" viewBox="0 0 81 80" fill="none" xmlns="http://www.w3.org/2000/svg">
<g clip-path="url(#clip0_3259_1908)">
<g clip-path="url(#clip1_3259_1908)">
<path d="M39.7679 78.0359C61.3169 78.0359 78.7859 60.5669 78.7859 39.0179C78.7859 17.4689 61.3169 0 39.7679 0C18.2189 0 0.75 17.4689 0.75 39.0179C0.75 60.5669 18.2189 78.0359 39.7679 78.0359Z" fill="#F4AEBA"/>
</g>
<path d="M33.3833 4.30855C35.652 4.44391 35.5654 1.09232 32.4087 0.626675C27.7142 -0.0663837 24.054 2.90619 26.4689 8.32613C26.7234 8.89465 22.2022 10.5407 18.6285 8.21784C12.3909 4.16236 7.23081 11.8997 0.625 9.86385C4.04703 13.9464 12.2447 10.7627 15.5909 13.0747C19.4895 15.7657 23.767 16.3938 25.83 14.9048C27.2757 13.8652 33.3725 4.30855 33.3725 4.30855H33.3833Z" fill="#068B38"/>
<path d="M26.6377 8.75796L28.7873 9.44019L28.6682 8.27066L26.7514 7.80501C26.459 7.65881 26.1071 7.86998 26.1017 8.19485C26.0962 8.49807 26.3345 8.75255 26.6431 8.75796H26.6377Z" fill="#FFE200"/>
<path d="M35.8828 16.0042L35.9965 17.0276C36.1319 17.347 36.2672 17.6611 36.4026 17.9535C37.675 20.7798 40.1062 23.617 41.6548 25.2631C43.2033 26.9091 52.9767 28.3223 56.3716 27.9108C56.3716 27.9108 57.3463 25.772 55.4674 25.7991C54.7148 25.8099 50.3939 24.7378 48.7804 24.2235C46.9015 23.6225 45.5046 22.0252 44.2375 20.5145L39.8517 15.2949L35.8828 15.9988V16.0042Z" fill="#EABC95"/>
<path d="M54.9648 25.7662C54.9648 25.7662 56.7625 24.1093 58.793 24.9594C58.793 24.9594 59.6431 25.0785 59.1828 25.6579L59.329 25.7987C59.4752 25.9394 59.5456 26.1398 59.5239 26.3455L59.486 26.6542C59.486 26.6542 60.0492 27.4068 58.7821 27.6342C58.7821 27.6342 55.9936 28.0728 55.3764 27.9591L54.9648 25.7716V25.7662Z" fill="#EABC95"/>
<path d="M58.8887 27.2378C59.4788 27.4327 61.2061 28.2774 61.4768 28.8351C61.7909 29.4794 62.3161 30.6057 63.1824 32.5278C64.9801 36.5291 68.9815 37.9261 68.6512 41.4618C67.8877 49.5457 69.2522 50.726 66.8535 54.1263C64.4549 57.5267 58.8453 58.8478 55.2555 59.124C45.8557 59.8549 48.7904 54.4566 48.7904 51.457C48.7904 48.4573 46.8249 42.4039 47.3231 38.3917C48.4547 29.252 50.3932 29.0625 52.6998 28.0283C56.1922 26.4581 58.1414 26.9887 58.8941 27.2378H58.8887Z" fill="#B3B3B3"/>
<path d="M58.1315 27.4595L59.81 23.0791C59.81 23.0791 57.1135 23.3553 57.6387 22.6351C58.5159 21.4277 54.7148 22.2399 54.7148 22.2399L56.0685 27.3729L58.1369 27.4541L58.1315 27.4595Z" fill="#B3B3B3"/>
<path opacity="0.35" d="M49.3679 32.0684C49.3679 32.0684 50.8569 35.7881 52.2377 36.1022C53.6184 36.4162 53.9378 37.5912 54.0407 38.333C54.1436 39.0748 54.4631 46.1949 54.4631 46.1949C54.4631 46.1949 49.7903 39.822 49.2596 39.3996C48.729 38.9773 49.0485 35.4687 49.0485 35.4687L49.3679 32.0684Z" fill="#808080"/>
<path d="M29.0977 12.511C29.6825 13.8105 31.3827 14.9476 32.2165 14.3899C32.4981 14.2004 32.6551 14.0054 32.7418 13.8701C33.332 12.9604 32.758 12.2782 32.9313 10.3669C32.9475 10.1665 32.9908 9.9283 33.0991 9.64674C33.2237 9.31645 33.8842 9.0728 34.1387 8.48262C34.6531 7.28601 33.8788 6.5388 33.7326 4.81698C33.7272 4.50294 33.6622 3.56623 32.9583 2.73239C32.4061 2.08265 30.2348 2.74864 29.9099 4.16183C29.6121 5.44507 28.2206 5.56419 28.291 5.69414C26.7207 5.39092 27.1756 8.05487 28.5563 7.71376C28.6267 8.20106 28.7295 8.94827 28.8054 9.86332C28.957 11.6934 28.827 11.9317 29.0923 12.511H29.0977Z" fill="#EABC95"/>
<path d="M31.6465 4.91016C31.6844 5.32166 31.8089 5.60321 31.9172 5.78731C32.085 6.06886 32.307 6.26379 32.2367 6.43705C32.1933 6.54534 32.0634 6.57783 32.0363 6.58866C31.8631 6.63739 31.6519 6.53451 31.5273 6.32876" stroke="#161415" stroke-width="0.406092" stroke-linecap="round" stroke-linejoin="round"/>
<path d="M31.0399 5.06055C30.9857 5.29879 30.8016 5.47205 30.5796 5.49912C30.3522 5.5262 30.1356 5.39083 30.0273 5.16342" stroke="#161415" stroke-width="0.406092" stroke-linecap="round" stroke-linejoin="round"/>
<path d="M33.132 4.82227C33.0833 5.0605 32.9155 5.23377 32.7097 5.25543C32.4985 5.27709 32.2928 5.14172 32.1953 4.91431" stroke="#161415" stroke-width="0.406092" stroke-linecap="round" stroke-linejoin="round"/>
<path d="M30.6289 7.44336C30.6668 7.51916 30.8671 7.88735 31.3057 8.0173C31.923 8.20139 32.4157 7.74657 32.4374 7.73033" stroke="#161415" stroke-width="0.406092" stroke-linecap="round" stroke-linejoin="round"/>
<path d="M30.4619 77.6688C32.7795 77.6688 34.6583 77.3464 34.6583 76.9486C34.6583 76.5509 32.7795 76.2285 30.4619 76.2285C28.1444 76.2285 26.2656 76.5509 26.2656 76.9486C26.2656 77.3464 28.1444 77.6688 30.4619 77.6688Z" fill="#F5AFB1"/>
<path d="M74.5944 79.7059C77.9257 79.7059 80.6262 79.3835 80.6262 78.9858C80.6262 78.588 77.9257 78.2656 74.5944 78.2656C71.2631 78.2656 68.5625 78.588 68.5625 78.9858C68.5625 79.3835 71.2631 79.7059 74.5944 79.7059Z" fill="#F9CCD4"/>
<path d="M28.2513 69.1533C27.4446 68.8772 25.8743 69.2129 26.2479 70.4041C26.6216 71.5953 28.2243 73.5445 29.448 72.8461C30.6717 72.1476 29.5942 71.1513 29.5942 71.1513L28.2513 69.1533Z" fill="black"/>
<path d="M28.7812 68.627L27.8824 69.1305L27.1406 69.8615L28.3102 71.9082L31.5048 70.3704L28.7812 68.627Z" fill="#B70E13"/>
<path d="M27.8828 69.1309L26.7187 69.7806C26.7079 70.2083 26.6862 70.3979 27.1897 71.3508C27.6933 72.3038 28.5109 72.006 28.5109 72.006L28.6679 71.7028C28.6679 71.7028 28.0019 71.21 27.6067 70.4845C27.2114 69.7589 27.8828 69.1363 27.8828 69.1363V69.1309Z" fill="#F90029"/>
<path d="M27.1146 69.4351C26.6706 69.7383 26.7356 70.296 26.7897 70.4747C26.8439 70.6534 26.4865 70.5072 26.4865 70.4747C26.4865 70.4422 26.3241 69.7383 26.3457 69.7221C26.3674 69.7058 27.1146 69.4297 27.1146 69.4297V69.4351Z" fill="black"/>
<path d="M30.0413 72.0397C30.0413 72.0397 30.1009 73.2092 31.5304 73.4041L32.4292 75.061C32.4292 75.061 30.4528 77.0535 29.0505 76.707C27.8755 76.42 26.8955 74.4004 26.2349 72.4458C26.1049 72.0613 26.1916 71.6065 26.067 71.2492C25.8883 70.7023 26.0183 70.3016 26.0183 70.3016L26.3865 69.5273C26.3865 69.5273 26.4298 69.6573 26.446 69.6844L27.2203 71.8069C27.8809 72.9331 28.6173 72.2075 29.9114 72.0559L30.0413 72.0397Z" fill="black"/>
<path d="M29.8477 74.7137C29.8477 74.7137 30.6977 72.6941 32.1976 73.6416C32.1976 73.6416 32.9177 74.1398 33.2318 74.9898C33.5891 75.6721 30.1184 76.7442 30.1184 76.7442L29.8477 74.7191V74.7137Z" fill="black"/>
<path d="M33.3779 75.1738C33.3779 75.1738 32.9609 74.2804 32.6415 74.0909C32.322 73.9014 30.6327 73.7282 30.0858 74.7407C29.5389 75.7478 30.01 76.4083 30.01 76.4083C29.7826 76.5004 29.7013 76.5221 29.5064 76.4842C28.9974 76.365 28.7917 76.2892 28.3314 75.9048C27.9957 75.6287 27.8062 75.098 27.3677 74.4483C27.0861 74.0584 26.9074 73.5332 26.6313 72.9972C26.1277 72.0226 26.1764 71.0317 26.014 70.3008L25.8516 70.853C25.922 71.1454 26.2089 72.8077 26.8533 74.3671C27.2323 75.2767 27.5951 76.2297 28.4776 76.6574C29.122 76.9715 29.8746 76.939 29.8746 76.939C29.8746 76.939 31.4611 77.0202 33.1234 75.894C33.4645 75.6666 33.3941 75.2172 33.3724 75.1738H33.3779Z" fill="#333333"/>
<path d="M28.0927 72.2704C27.5946 70.9655 29.0132 71.1605 29.5167 71.2309C30.0203 71.3012 30.0528 71.2904 29.6846 71.7561C29.3164 72.2217 28.0927 72.2704 28.0927 72.2704Z" fill="black"/>
<path d="M68.4362 75.6827C68.0897 74.9463 68.3604 73.9446 69.0319 74.2208C69.7033 74.4969 69.465 74.8434 69.465 74.8434L68.4362 75.6827Z" fill="black"/>
<path d="M69.3793 69.1895L71.1661 71.1658L68.4967 74.3387L65.5078 71.0087L69.3793 69.1895Z" fill="#B70E13"/>
<path d="M70.3416 70.2246C70.3416 70.2246 69.4536 70.2084 68.349 70.9664C67.3365 71.6595 67.0712 72.3092 67.4177 72.8019C67.7642 73.2947 69.2912 75.4496 69.2912 75.4496L71.1646 71.1722L70.3416 70.23V70.2246Z" fill="#F90029"/>
<path d="M71.7622 70.5078C71.7622 70.5078 71.6323 69.7876 71.2207 69.9284C70.8092 70.0692 69.7805 70.6052 70.3219 71.0384C70.8634 71.4715 71.2965 71.8506 71.3074 71.8181C71.3182 71.7856 71.7622 70.5078 71.7622 70.5078Z" fill="#585856"/>
<path d="M77.5444 68.4972C75.9146 67.2572 74.6801 66.732 73.4347 68.1506C72.1893 69.5692 70.7653 71.4806 69.6445 73.3377C68.5237 75.1949 68.7294 74.9729 68.4587 75.509C68.188 76.045 69.8881 77.9238 70.4134 78.2649C70.9386 78.6061 75.7197 71.1828 75.7197 71.1828L77.5444 68.4972Z" fill="black"/>
<path d="M77.5456 68.4969C76.089 67.2841 73.9015 69.7639 71.7628 72.9802C69.624 76.1964 69.4561 77.5554 70.5445 78.3622C71.6328 79.169 73.2734 77.7125 75.645 74.5666C78.0166 71.4208 78.7963 69.5365 77.5456 68.4969Z" fill="#4E4D4D"/>
<path d="M68.4976 74.3387C68.4976 74.3387 69.1419 74.1871 69.2935 73.9218C69.4452 73.6565 69.6672 74.8315 69.6672 74.8315C69.6672 74.8315 69.1257 75.3892 69.0499 75.3567C68.9741 75.3242 68.5626 75.0914 68.5626 75.0914L68.4922 74.3387H68.4976Z" fill="black"/>
<path d="M66.893 68.2804C66.893 68.2804 66.6819 68.1613 66.5952 68.4104C66.5086 68.6594 66.7793 69.0114 66.7793 69.0114L66.8768 68.8327L66.7252 68.4808L66.8984 68.2804H66.893Z" fill="#808080"/>
<path d="M66.4976 68.7525C66.4976 68.7525 66.2756 68.6333 66.189 68.8878C66.1023 69.1423 66.3731 69.4888 66.3731 69.4888L66.4705 69.3102L66.3298 68.9636L66.4976 68.7579V68.7525Z" fill="#808080"/>
<mask id="mask0_3259_1908" style="mask-type:luminance" maskUnits="userSpaceOnUse" x="70" y="68" width="8" height="10">
<path d="M71.0353 77.9496C70.992 77.9333 70.9486 77.9117 70.9053 77.8792C70.5859 77.6409 70.4018 77.3486 70.5371 76.6934C70.6942 75.9354 71.2573 74.8254 72.2698 73.3093C73.3581 71.6741 74.2732 70.51 75.0692 69.7466C76.0817 68.7774 76.6502 68.707 76.9426 68.8153C77.0184 68.8423 77.0942 68.8911 77.17 68.9506C77.7656 69.4488 77.993 70.4613 75.172 74.2027C74.0512 75.6863 73.1578 76.7042 72.4431 77.3161C72.0911 77.6193 71.0407 77.955 71.0407 77.955L71.0353 77.9496Z" fill="white"/>
</mask>
<g mask="url(#mask0_3259_1908)">
<path d="M79.3321 70.8636L73.793 68.8711L74.2803 68.0859L79.8194 70.0839L79.3321 70.8636Z" fill="black"/>
<path d="M78.4298 72.1139L72.8906 70.1159L73.3671 69.3633L78.9062 71.3612L78.4298 72.1139Z" fill="black"/>
<path d="M77.522 73.3607L71.9883 71.3627L72.4539 70.6426L77.9877 72.6405L77.522 73.3607Z" fill="black"/>
<path d="M76.6158 74.6109L71.082 72.613L71.5314 71.9199L77.0706 73.9179L76.6158 74.6109Z" fill="black"/>
<path d="M75.711 75.8558L70.1719 73.8578L70.6159 73.1973L76.155 75.1952L75.711 75.8558Z" fill="black"/>
<path d="M74.8087 77.1007L69.2695 75.1027L69.7027 74.4746L75.2364 76.4726L74.8087 77.1007Z" fill="black"/>
<path d="M73.9024 78.3514L68.3633 76.3534L68.7802 75.7578L74.3193 77.7558L73.9024 78.3514Z" fill="black"/>
</g>
<path d="M77.2505 68.2657C76.617 67.8271 75.7615 67.8326 75.155 68.3036C75.1388 68.3144 75.1225 68.3307 75.1063 68.3415C74.3158 68.9967 72.0687 71.3141 71.1212 73.2904C70.1736 75.2613 69.3343 76.4471 69.5834 77.3188C69.8325 78.1905 70.8613 78.5262 70.8613 78.5262C70.8613 78.5262 69.7946 78.1418 69.9029 77.243C70.0112 76.3442 70.688 74.5845 71.9658 72.7489C73.2437 70.9134 74.9168 69.0779 75.6099 68.5527C76.2596 68.06 76.8985 68.2657 77.4616 68.504C77.7811 68.6339 77.5375 68.4498 77.2613 68.2549L77.2505 68.2657Z" fill="#333333"/>
<path d="M75.1523 68.3028C75.6126 67.9401 75.7155 67.9022 75.5476 67.5719C75.3798 67.2416 76.506 67.4473 77.4102 68.357L76.5331 68.0917L75.6234 68.227L75.1523 68.3028Z" fill="#333333"/>
<path d="M69.9333 77.9303C69.3702 77.4863 68.2656 76.1868 68.6013 76.1435C68.937 76.1002 69.5597 77.5621 69.576 77.064C69.5922 76.5659 69.7817 77.5946 69.7817 77.5946L69.9333 77.9303Z" fill="#333333"/>
<path d="M34.9513 36.0754C34.9513 36.0754 34.5398 36.8226 33.0778 36.5085L32.8125 34.4781L34.5127 34.0449L34.9513 36.0754Z" fill="#930914"/>
<path d="M43.4649 32.4913C43.4649 32.4913 62.6218 55.0698 69.7528 68.5141C69.7528 68.5141 70.4134 69.6565 70.1372 69.9381C70.1372 69.9381 68.7403 69.2613 67.5058 70.4958C66.2712 71.7303 66.5474 72.4883 66.5474 72.4883C66.5474 72.4883 66.3091 72.7699 65.4969 72.1526C65.4969 72.1526 54.4945 60.7172 42.1979 45.5078C42.1979 45.5078 35.0398 38.5284 32.6953 34.4513L37.7038 29.1992H41.5319L43.4704 32.5021L43.4649 32.4913Z" fill="#4D4D4D"/>
<path d="M46.9124 31.0559C46.9124 31.0559 45.5371 27.0871 36.4027 32.1063C36.4027 32.1063 34.291 33.6711 33.9336 34.5645L47.2589 37.0823C47.2589 37.0823 46.8637 34.4508 46.907 31.0559H46.9124Z" fill="#4D4D4D"/>
<path d="M38.5657 31.0566C38.5657 31.0566 39.6161 34.5003 37.3203 35.7456" stroke="#1D1D1B" stroke-width="1.08291" stroke-linecap="round" stroke-linejoin="round"/>
<path d="M44.8221 45.3611C44.8221 45.3611 35.444 66.3586 31.2368 70.8093C31.2368 70.8093 29.0818 71.0963 27.8906 69.2283C27.8906 69.2283 33.7763 55.2588 37.7452 37.418L44.8275 45.3611H44.8221Z" fill="#4D4D4D"/>
<path d="M26.2396 21.6943C26.0447 21.624 25.8498 21.559 25.6657 21.5048L26.4995 21.8351C27.929 26.5187 33.0783 36.5085 33.0783 36.5085C33.5602 33.0865 40.0631 32.61 40.0631 32.61C47.1183 32.3718 47.1237 35.3877 47.1237 35.3877C49.5062 32.4313 45.2449 26.3292 44.8496 25.8094L39.5595 13.6646C38.3358 10.9194 35.3145 11.6342 33.8634 11.4826C33.8201 10.7624 33.4952 9.3005 33.4952 9.3005L32.3094 9.92317C32.3744 10.5513 32.7371 13.3181 32.7371 13.3181L31.8925 10.0152C31.8925 10.0152 29.3584 9.15972 27.8423 8.72656L27.8965 11.5421C27.8965 11.5421 23.5865 10.5242 21.9296 14.2385L21.9675 14.2277C21.686 14.6067 21.5343 14.9695 21.4531 15.2673L26.2288 21.6998L26.2396 21.6943Z" fill="#D40918"/>
<path d="M40.2311 41.3867C40.2311 41.3867 35.4013 59.8502 29.5156 67.9341" stroke="#1D1D1B" stroke-width="1.08291" stroke-linecap="round" stroke-linejoin="round"/>
<path d="M21.3672 15.9873L21.6271 19.9182L25.6664 21.5047C25.8505 21.5588 26.04 21.6238 26.2403 21.6942L21.4647 15.2617C21.3401 15.6949 21.3726 15.9873 21.3726 15.9873H21.3672Z" fill="#D40918"/>
<path d="M66.6611 70.6914C66.6611 70.6914 49.3236 49.5206 40.043 36.1738" stroke="#1D1D1B" stroke-width="0.406092" stroke-linecap="round" stroke-linejoin="round"/>
<path d="M36.3759 14L35.2659 14.3195L35.672 15.2237L35.0547 15.5107L35.3525 16.1062L35.9427 15.8897L36.2351 16.5502L37.4425 16.1387L37.1447 15.4078L37.5833 15.2778L37.3396 14.6389L36.7874 14.7851L36.3759 14Z" fill="#FFE200"/>
<path d="M62.2161 38.9668L58.9781 39.8927L60.1639 42.5296L58.3555 43.3688L59.2218 45.1014L60.9491 44.4734L61.7992 46.4009L65.3186 45.2097L64.4523 43.0764L65.7356 42.6866L65.0154 40.8348L63.4073 41.2626L62.2161 38.9668Z" fill="#808080"/>
<path d="M39.1695 32.8007C39.1695 32.8007 39.3806 31.4741 39.5377 31.3604C39.6947 31.2467 40.2091 31.5824 40.1279 31.9398C40.0466 32.2971 39.7813 32.9306 39.7813 32.9306L39.1641 32.8007H39.1695Z" fill="#EABC95"/>
<path d="M43.1663 34.1631C43.6861 34.5043 44.2113 36.0311 44.482 36.5943C44.7961 37.2386 45.3213 38.3648 46.1876 40.287C47.9853 44.2883 51.9867 45.6852 51.6564 49.2209C50.8929 57.3048 52.2574 58.4852 49.8587 61.8855C47.4601 65.2858 41.8505 66.607 38.2607 66.8831C28.8609 67.6141 31.7956 62.2158 31.7956 59.2161C31.7956 56.2165 29.7273 50.1468 30.3283 46.1509C30.9293 42.1496 30.7939 38.0833 34.1943 35.885C37.4106 33.8058 38.7859 31.2718 43.1717 34.1631H43.1663Z" fill="#B3B3B3"/>
<path d="M41.8348 33.8121L44.6504 30.4118C44.6504 30.4118 42.5116 31.3702 42.3167 28.8308C42.2247 27.58 38.7539 29.4534 38.7539 29.4534L40.4541 33.4385L41.8348 33.8121Z" fill="#B3B3B3"/>
<path d="M43.1861 34.0236L37.1001 33.4551L36.4883 33.8774C36.4883 33.8774 36.6778 34.159 37.2409 34.3972C37.804 34.6354 41.0582 35.7887 42.4768 35.5776C44.3665 35.296 43.1861 34.0182 43.1861 34.0182V34.0236Z" fill="#808080"/>
<path opacity="0.35" d="M32.835 49.07C34.4431 49.5627 35.7101 50.8081 36.2299 52.4053C36.5981 53.537 35.5694 54.5603 35.6668 55.7569C35.878 58.5183 36.4086 61.0686 36.4086 61.0686L35.4502 59.7962C35.4502 59.7962 35.0279 57.4571 33.8583 54.6957C32.7971 52.1942 33.4847 50.0392 32.7538 49.1837C32.7104 49.1296 32.7646 49.0483 32.835 49.07Z" fill="#808080"/>
<path opacity="0.35" d="M43.2046 42.1602C43.2046 42.1602 43.9464 44.3909 45.3272 44.7104C46.7079 45.0299 47.0273 46.1994 47.1302 46.9412C47.2331 47.683 46.5996 49.172 46.5996 49.172C46.5996 49.172 44.8994 47.4718 44.3688 47.0495C43.8381 46.6271 43.5187 44.2881 43.5187 44.2881L43.1992 42.1656L43.2046 42.1602Z" fill="#808080"/>
<path opacity="0.35" d="M47.4546 56.3965C47.4546 56.3965 46.8157 59.6885 46.0739 59.7968C45.3321 59.9051 44.3737 64.0472 45.2238 63.5166C46.0306 63.013 47.877 60.3274 47.877 60.3274C47.877 60.3274 47.877 59.4774 48.1964 58.8384C48.5159 58.1995 47.4546 56.3965 47.4546 56.3965Z" fill="#808080"/>
<path d="M21.3609 20.6755V21.7042C21.4583 22.0399 21.5612 22.3594 21.6587 22.668C22.6117 25.6135 24.7179 28.7052 26.077 30.5137C27.474 32.3708 36.9928 34.7965 40.4149 34.7641C40.4149 34.7641 41.6169 32.7444 39.7489 32.5658C39.0016 32.4954 34.8216 30.9522 33.2784 30.2646C31.4753 29.4632 30.2625 27.7198 29.1687 26.0792L25.3785 20.4102L21.3555 20.6755H21.3609Z" fill="#EABC95"/>
<path d="M22.7627 26.2495C24.9935 30.5215 29.0653 33.4995 33.7543 34.6312C35.4978 35.0535 37.2521 35.3134 38.2592 35.021C40.1652 34.4687 38.5841 31.9834 38.8007 31.063C38.844 30.8789 25.941 19.346 26.136 19.4163L21.4578 15.2634L21.4361 15.2363C21.4361 15.2363 19.6493 20.2935 22.7627 26.2495Z" fill="#D40918"/>
<path d="M39.2539 32.475C39.2539 32.475 41.2248 31.0239 43.147 32.096C43.147 32.096 43.9809 32.3071 43.4556 32.8323L43.5856 32.9894C43.7155 33.1464 43.7643 33.3521 43.7155 33.5525L43.6451 33.8557C43.6451 33.8557 44.1216 34.6624 42.8384 34.7491C42.8384 34.7491 40.0174 34.879 39.4218 34.6949L39.2539 32.475Z" fill="#EABC95"/>
<path d="M59.7687 53.3916C59.7687 53.3916 48.149 37.8844 45.707 35.3125" stroke="#1D1D1B" stroke-width="0.406092" stroke-linecap="round" stroke-linejoin="round"/>
<path d="M25.5118 68.248C25.2627 68.3239 25.0028 68.3888 24.7862 68.5296C24.3043 68.8382 24.1365 69.5421 24.418 70.0403" stroke="#1D1D1B" stroke-width="0.406092" stroke-linecap="round" stroke-linejoin="round"/>
<path d="M24.8633 67.7344C24.6143 67.8102 24.3544 67.8752 24.1378 68.0159C23.6559 68.3246 23.488 69.0284 23.7696 69.5266" stroke="#1D1D1B" stroke-width="0.406092" stroke-linecap="round" stroke-linejoin="round"/>
<path d="M66.4734 76.4668C66.403 76.7159 66.3164 76.9703 66.3164 77.2302C66.3164 77.8042 66.8091 78.3294 67.3831 78.3619" stroke="#1D1D1B" stroke-width="0.406092" stroke-linecap="round" stroke-linejoin="round"/>
<path d="M65.6805 76.7322C65.6101 76.9813 65.5234 77.2358 65.5234 77.4957C65.5234 78.0696 66.0162 78.5948 66.5901 78.6273" stroke="#1D1D1B" stroke-width="0.406092" stroke-linecap="round" stroke-linejoin="round"/>
<path d="M57.8942 24.8244C57.7101 24.7865 57.3744 24.7811 57.3202 24.9543C57.2661 25.1276 57.1741 25.1168 57.0495 25.2738C56.925 25.4308 57.0766 25.5878 57.0603 25.864C57.0441 26.1726 57.0983 26.1022 57.1199 26.3892C57.1307 26.5679 57.2715 26.909 57.6289 26.9577C57.9429 27.001 59.3507 27.4288 59.3507 27.4288L58.9176 26.5354L59.2262 25.355C59.2424 25.1926 59.1341 25.0464 58.9771 25.0139C58.9771 25.0139 58.0783 24.8623 57.8942 24.8298V24.8244Z" fill="#EABC95"/>
<path d="M55.3438 25.4687C55.3438 25.4687 56.4808 24.7594 56.6757 24.8027C56.8707 24.846 56.9465 25.4578 56.627 25.6311C56.3075 25.8044 55.6524 26.021 55.6524 26.021L55.3492 25.4687H55.3438Z" fill="#EABC95"/>
<path d="M65.4219 35.9609C65.4219 35.9609 67.2737 37.8127 67.9397 38.7657C68.6057 39.7132 68.3674 41.0939 68.27 42.5179C68.1725 43.9419 68.1292 46.1294 68.1292 46.1294" stroke="#1D1D1B" stroke-width="0.406092" stroke-linecap="round" stroke-linejoin="round"/>
<path d="M31.1201 42.0801C31.1201 42.0801 30.0588 45.0147 30.27 47.2401" stroke="#1D1D1B" stroke-width="0.406092" stroke-linecap="round" stroke-linejoin="round"/>
<path d="M44.6245 51.3603L41.3974 50.3965L40.9751 53.2499L38.9987 52.9846L38.793 54.9068L40.5852 55.3129L40.2603 57.392L43.8664 58.2909L44.2942 56.0276L45.5775 56.3904L45.9727 54.4411L44.3917 53.9322L44.6245 51.3603Z" fill="#808080"/>
<path d="M39.0781 14.1402C39.0781 14.1402 46.4528 22.4352 46.9401 22.5977C47.4274 22.7601 53.6109 24.4982 53.7192 25.0396C53.8275 25.5811 54.4231 28.5103 53.7733 28.7269C53.1236 28.9435 45.424 27.9689 44.065 26.9888C42.7059 26.0088 39.0781 14.1348 39.0781 14.1348V14.1402Z" fill="#D40918"/>
<path d="M27.3633 20.2109C27.3633 20.2109 28.3379 22.9236 29.4804 23.9524" stroke="#161415" stroke-width="0.406092" stroke-linecap="round" stroke-linejoin="round"/>
<path d="M38.4297 15.332C38.4297 15.332 41.5214 18.153 40.8175 21.5154C40.5414 22.842 43.8551 25.1486 44.7756 26.2856" stroke="#161415" stroke-width="0.406092" stroke-linecap="round" stroke-linejoin="round"/>
<path d="M33.7109 28.457C33.7109 28.457 39.9215 29.8919 39.3529 31.5758C38.7844 33.2597 39.7861 33.1189 39.2447 34.2614" stroke="#161415" stroke-width="0.406092" stroke-linecap="round" stroke-linejoin="round"/>
<path d="M27.9082 11.5363C27.9082 11.5363 22.5586 10.3126 21.4648 15.2615" stroke="#161415" stroke-width="0.406092" stroke-linecap="round" stroke-linejoin="round"/>
<path d="M22.7656 26.248C22.7656 26.248 25.1914 31.6842 32.3224 34.2561" stroke="#161415" stroke-width="0.406092" stroke-linecap="round" stroke-linejoin="round"/>
<path d="M27.3086 5.24503C27.3086 5.24503 28.9276 6.32252 30.0213 3.86432C30.8876 1.90968 33.3026 2.04504 33.6004 3.75603" stroke="#161415" stroke-width="0.406092" stroke-linecap="round" stroke-linejoin="round"/>
<path d="M54.9453 27.319C54.9453 27.319 57.4685 26.4256 59.9051 27.7251" stroke="#161415" stroke-width="0.406092" stroke-linecap="round" stroke-linejoin="round"/>
<path d="M19.5985 64.2366C19.5985 64.2366 12.3971 62.3145 3.51172 62.3145" stroke="#1D1D1B" stroke-width="0.406092" stroke-linecap="round" stroke-linejoin="round"/>
<path d="M23.9208 61.8382C23.9208 61.8382 18.9773 59.916 12.875 59.916" stroke="#1D1D1B" stroke-width="0.406092" stroke-linecap="round" stroke-linejoin="round"/>
</g>
<defs>
<clipPath id="clip0_3259_1908">
<rect width="80" height="80" fill="white" transform="translate(0.75)"/>
</clipPath>
<clipPath id="clip1_3259_1908">
<rect x="0.75" width="78.0359" height="78.0359" rx="39.0179" fill="white"/>
</clipPath>
</defs>
</svg>
