<svg width="80" height="81" viewBox="0 0 80 81" fill="none" xmlns="http://www.w3.org/2000/svg">
<g clip-path="url(#clip0_43_28644)">
<g clip-path="url(#clip1_43_28644)">
<path d="M39.0179 78.6689C60.5669 78.6689 78.0359 61.2 78.0359 39.651C78.0359 18.102 60.5669 0.633057 39.0179 0.633057C17.4689 0.633057 0 18.102 0 39.651C0 61.2 17.4689 78.6689 39.0179 78.6689Z" fill="#F9CCD4"/>
</g>
<path d="M49.4454 13.6858C44.5811 9.72986 39.7169 5.77387 34.6306 2.12064C33.8435 1.5555 33.0563 1.01054 32.1278 0.748153C31.1994 0.50595 30.1095 0.627054 29.4434 1.29311C28.6765 2.06009 28.6159 3.33166 29.0196 4.32065C29.4232 5.30965 30.2104 6.11699 30.9774 6.90415C35.5792 11.5262 40.3224 16.0271 45.1866 20.3666" fill="#8C613E"/>
<path d="M34.5313 13.9287C32.1698 13.1415 30.6157 12.6369 29.0817 12.1324C27.5478 11.6278 26.4377 11.2443 25.3679 11.769C25.2065 11.8498 24.2175 12.314 24.0156 13.303C23.8542 14.0498 24.2377 14.6755 24.3588 14.8773C25.0046 15.9471 26.2358 16.2296 27.8909 16.6737C29.001 16.9562 30.7368 17.4205 32.9973 18.0663" fill="#8C613E"/>
<path d="M32.8378 17.1175C30.3754 16.7138 28.7809 16.4313 27.1864 16.1689C25.5919 15.8863 24.4414 15.6845 23.4524 16.3707C23.3111 16.4716 22.4029 17.0973 22.3423 18.0863C22.302 18.8533 22.7662 19.4184 22.9276 19.6001C23.735 20.5689 24.9864 20.6698 26.6818 20.8313C27.8323 20.9524 29.6084 21.134 31.9497 21.4368" fill="#8C613E"/>
<path d="M32.8379 21.7613C30.3755 21.4384 28.7608 21.2164 27.1663 20.9943C25.5516 20.7723 24.4011 20.6108 23.4525 21.3173C23.3112 21.4182 22.4231 22.0641 22.403 23.0732C22.3828 23.8402 22.8672 24.3852 23.0286 24.5668C23.8764 25.4953 25.1277 25.5558 26.8232 25.6769C27.9736 25.7577 29.77 25.8788 32.1113 26.1008" fill="#8C613E"/>
<path d="M29.5285 55.3048C30.134 53.5488 30.9817 51.0259 31.1835 50.2791C32.0716 47.0901 30.0532 45.1928 28.8019 40.8937C27.9541 38.0075 28.4789 33.345 29.5083 24.0404C30.0734 18.8734 30.5376 17.5211 31.7487 16.2293C33.7468 14.0495 37.1579 13.6458 39.9836 14.5339C42.8093 15.4018 45.1708 17.3394 47.3506 19.3174C48.4001 20.2661 49.4699 21.2954 49.9745 22.6074C50.5396 24.0606 50.4589 25.3523 50.4387 25.8569C49.7928 36.2111 51.347 41.035 48.0974 50.7029C46.0185 56.859 43.0919 63.1159 43.0919 63.1159C43.0919 63.1159 29.1652 61.4204 28.6 58.5746C28.4991 58.1305 28.6202 57.9085 29.5285 55.3048Z" fill="#8C613E"/>
<path d="M26.6829 16.3086C25.1893 15.9453 23.6553 15.9251 22.8883 16.8939C22.7269 17.0957 22.2021 17.6811 22.2627 18.448C22.3434 19.5581 23.5544 20.6077 25.3306 20.8499" stroke="#1D1D1B" stroke-width="0.452113" stroke-linecap="round" stroke-linejoin="round"/>
<path d="M28.7618 21.2751C26.2186 21.1137 24.059 20.1852 22.8883 21.6788C22.7269 21.8807 22.2021 22.466 22.2627 23.2329C22.2828 23.6164 22.4443 23.9797 22.7067 24.3229" stroke="#1D1D1B" stroke-width="0.452113" stroke-linecap="round" stroke-linejoin="round"/>
<path d="M26.5596 32.3358L31.1211 5.22925C31.3028 4.11915 32.3725 3.35217 33.4826 3.55401L48.5194 6.09714C49.6295 6.2788 50.3965 7.34853 50.1946 8.45863L45.6331 35.5652C45.4515 36.6753 44.3818 37.4423 43.2717 37.2405L28.2349 34.6973C27.1248 34.5157 26.3578 33.4661 26.5596 32.3358Z" fill="#294E65"/>
<path d="M40.1404 6.96539L41.1496 7.12686C41.3918 7.16723 41.5735 7.40943 41.5331 7.65163L41.5129 7.83328C41.4726 8.07549 41.2303 8.25714 40.9881 8.21677L39.979 8.05531C39.7368 8.01494 39.5551 7.77273 39.5955 7.53053L39.6157 7.34888C39.656 7.08649 39.8982 6.92502 40.1404 6.96539Z" fill="#638B9E"/>
<path d="M39.9217 8.29742L40.9309 8.45889C41.1731 8.49926 41.3547 8.74146 41.3144 8.98366L41.2942 9.16532C41.2538 9.40752 41.0116 9.58917 40.7694 9.5488L39.7602 9.38733C39.518 9.34697 39.3364 9.10476 39.3767 8.86256L39.3969 8.68091C39.4373 8.41852 39.6795 8.25705 39.9217 8.29742Z" fill="#638B9E"/>
<path d="M39.699 9.64865L40.7082 9.81012C40.9504 9.85049 41.1321 10.0927 41.0917 10.3349L41.0715 10.5165C41.0311 10.7588 40.7889 10.9404 40.5467 10.9L39.5376 10.7386C39.2954 10.6982 39.1137 10.456 39.1541 10.2138L39.1743 10.0321C39.2146 9.76975 39.4366 9.5881 39.699 9.64865Z" fill="#638B9E"/>
<path d="M39.4764 10.981L40.4855 11.1425C40.7278 11.1828 40.9094 11.4251 40.869 11.6673L40.8489 11.8489C40.8085 12.0911 40.5663 12.2728 40.3241 12.2324L39.3149 12.0709C39.0727 12.0306 38.891 11.7884 38.9314 11.5462L38.9516 11.3645C38.992 11.1021 39.214 10.9406 39.4764 10.981Z" fill="#638B9E"/>
<path d="M38.9334 14.1701L39.9426 14.3316C40.1848 14.372 40.3664 14.6142 40.3261 14.8564L40.3059 15.038C40.2655 15.2802 40.0233 15.4619 39.7811 15.4215L38.7719 15.2601C38.5297 15.2197 38.3481 14.9775 38.3884 14.7353L38.4086 14.5536C38.449 14.2912 38.6912 14.1096 38.9334 14.1701Z" fill="#638B9E"/>
<path d="M38.7107 15.5005L39.7199 15.662C39.9621 15.7024 40.1438 15.9446 40.1034 16.1868L40.0832 16.3684C40.0429 16.6106 39.8007 16.7923 39.5585 16.7519L38.5493 16.5905C38.3071 16.5501 38.1254 16.3079 38.1658 16.0657L38.186 15.884C38.2263 15.6216 38.4685 15.4602 38.7107 15.5005Z" fill="#638B9E"/>
<path d="M38.4881 16.836L39.4973 16.9974C39.7395 17.0378 39.9211 17.28 39.8808 17.5222L39.8606 17.7038C39.8202 17.9461 39.578 18.1277 39.3358 18.0873L38.3266 17.9259C38.0844 17.8855 37.9028 17.6433 37.9431 17.4011L37.9633 17.2194C38.0037 16.9772 38.2257 16.7956 38.4881 16.836Z" fill="#638B9E"/>
<path d="M38.2459 18.1861L39.2551 18.3476C39.4973 18.3879 39.6789 18.6301 39.6386 18.8723L39.6184 19.054C39.578 19.2962 39.3358 19.4778 39.0936 19.4375L38.0844 19.276C37.8422 19.2356 37.6606 18.9934 37.7009 18.7512L37.7211 18.5696C37.7615 18.3072 38.0037 18.1457 38.2459 18.1861Z" fill="#638B9E"/>
<path d="M37.7225 21.3772L38.7316 21.5386C38.9739 21.579 39.1555 21.8212 39.1151 22.0634L39.095 22.2451C39.0546 22.4873 38.8124 22.6689 38.5702 22.6285L37.561 22.4671C37.3188 22.4267 37.1371 22.1845 37.1775 21.9423L37.1977 21.7607C37.2381 21.4983 37.4803 21.3166 37.7225 21.3772Z" fill="#638B9E"/>
<path d="M37.4998 22.7095L38.509 22.871C38.7512 22.9114 38.9328 23.1536 38.8925 23.3958L38.8723 23.5774C38.8319 23.8196 38.5897 24.0013 38.3475 23.9609L37.3383 23.7994C37.0961 23.7591 36.9145 23.5169 36.9549 23.2747L36.975 23.093C37.0154 22.8306 37.2374 22.6692 37.4998 22.7095Z" fill="#638B9E"/>
<path d="M37.2537 24.0391L38.2629 24.2006C38.5051 24.2409 38.6867 24.4831 38.6464 24.7253L38.6262 24.907C38.5858 25.1492 38.3436 25.3308 38.1014 25.2905L37.0922 25.129C36.85 25.0886 36.6684 24.8464 36.7088 24.6042L36.7289 24.4226C36.7693 24.1804 37.0115 23.9987 37.2537 24.0391Z" fill="#638B9E"/>
<path d="M37.035 25.3931L38.0441 25.5546C38.2863 25.595 38.468 25.8372 38.4276 26.0794L38.4075 26.261C38.3671 26.5032 38.1249 26.6849 37.8827 26.6445L36.8735 26.483C36.6313 26.4427 36.4496 26.2005 36.49 25.9583L36.5102 25.7766C36.5506 25.5142 36.7928 25.3528 37.035 25.3931Z" fill="#638B9E"/>
<path d="M36.5115 28.5625L37.5207 28.724C37.7629 28.7644 37.9446 29.0066 37.9042 29.2488L37.884 29.4304C37.8436 29.6726 37.6014 29.8543 37.3592 29.8139L36.3501 29.6524C36.1079 29.6121 35.9262 29.3699 35.9666 29.1277L35.9868 28.946C36.0271 28.7038 36.2491 28.5221 36.5115 28.5625Z" fill="#638B9E"/>
<path d="M36.2693 29.9127L37.2785 30.0741C37.5207 30.1145 37.7024 30.3567 37.662 30.5989L37.6418 30.7806C37.6015 31.0228 37.3593 31.2044 37.1171 31.164L36.1079 31.0026C35.8657 30.9622 35.684 30.72 35.7244 30.4778L35.7446 30.2961C35.7849 30.0338 36.0271 29.8723 36.2693 29.9127Z" fill="#638B9E"/>
<path d="M36.0428 31.2461L37.052 31.4076C37.2942 31.4479 37.4758 31.6901 37.4354 31.9324L37.4153 32.114C37.3749 32.3562 37.1327 32.5379 36.8905 32.4975L35.8813 32.336C35.6391 32.2957 35.4575 32.0535 35.4978 31.8112L35.518 31.6296C35.5584 31.3874 35.8006 31.2057 36.0428 31.2461Z" fill="#638B9E"/>
<path d="M35.824 32.5982L36.8332 32.7597C37.0754 32.8 37.2571 33.0422 37.2167 33.2844L37.1965 33.4661C37.1561 33.7083 36.9139 33.8899 36.6717 33.8496L35.6626 33.6881C35.4204 33.6477 35.2387 33.4055 35.2791 33.1633L35.2993 32.9817C35.3396 32.7193 35.5818 32.5578 35.824 32.5982Z" fill="#638B9E"/>
<path d="M31.1014 23.9187H31.1619C31.4042 23.9591 31.5858 24.2013 31.5454 24.4435L31.1619 26.6839C31.1216 26.9261 30.8794 27.1077 30.6372 27.0673H30.5766C30.3344 27.027 30.1528 26.7848 30.1931 26.5426L30.5766 24.3022C30.617 24.0398 30.839 23.8783 31.1014 23.9187Z" fill="#638B9E"/>
<path d="M30.451 27.7349H30.5116C30.7538 27.7753 30.9354 28.0175 30.8951 28.2597L30.2088 32.2762C30.1685 32.5184 29.9262 32.7001 29.684 32.6597H29.6235C29.3813 32.6194 29.1996 32.3771 29.24 32.1349L29.9262 28.1184C29.9666 27.856 30.1886 27.6946 30.451 27.7349Z" fill="#638B9E"/>
<path d="M46.0184 9.04256L45.5138 12.0499C45.433 12.5949 44.9083 12.9582 44.3835 12.8573L43.1523 12.6554C42.6073 12.5747 42.244 12.0499 42.345 11.5251L42.8496 8.51778C42.9303 7.97283 43.4551 7.60952 43.9798 7.71044L45.211 7.91228C45.756 7.99301 46.1193 8.4976 46.0184 9.04256Z" stroke="#638B9E" stroke-width="0.201836" stroke-miterlimit="10"/>
<path d="M45.3506 10.1327L45.2295 10.7987C45.1689 11.1015 44.8864 11.3235 44.5836 11.263C44.2808 11.2024 44.0588 10.9198 44.1194 10.6171L44.2405 9.95103C44.301 9.64827 44.5836 9.42625 44.8864 9.4868C45.2093 9.52717 45.4111 9.82992 45.3506 10.1327Z" stroke="#638B9E" stroke-width="0.201836" stroke-miterlimit="10"/>
<path d="M44.2373 9.95299L44.1162 10.619C44.0556 10.9218 43.7731 11.1438 43.4703 11.0833C43.1676 11.0227 42.9455 10.7401 43.0061 10.4374L43.1272 9.77134C43.1877 9.46858 43.4703 9.24656 43.7731 9.30711C44.0758 9.34748 44.2777 9.63005 44.2373 9.95299Z" stroke="#638B9E" stroke-width="0.201836" stroke-miterlimit="10"/>
<path d="M45.3384 10.2159L45.2578 10.6936L45.7355 10.7742L45.816 10.2965L45.3384 10.2159Z" stroke="#638B9E" stroke-width="0.201836" stroke-miterlimit="10"/>
<path d="M42.6431 9.75889L42.5625 10.2366L43.0402 10.3171L43.1207 9.83945L42.6431 9.75889Z" stroke="#638B9E" stroke-width="0.201836" stroke-miterlimit="10"/>
<path d="M45.431 7.93384L45.1484 9.60908" stroke="#638B9E" stroke-width="0.201836" stroke-miterlimit="10"/>
<path d="M44.8685 7.85376L44.5859 9.50882" stroke="#638B9E" stroke-width="0.201836" stroke-miterlimit="10"/>
<path d="M44.8685 11.2639L44.5859 12.919" stroke="#638B9E" stroke-width="0.201836" stroke-miterlimit="10"/>
<path d="M44.3216 11.1624L44.0391 12.8376" stroke="#638B9E" stroke-width="0.201836" stroke-miterlimit="10"/>
<path d="M44.3021 7.7522L44.0195 9.42743" stroke="#638B9E" stroke-width="0.201836" stroke-miterlimit="10"/>
<path d="M43.7552 7.65063L43.4727 9.32587" stroke="#638B9E" stroke-width="0.201836" stroke-miterlimit="10"/>
<path d="M43.7552 11.0608L43.4727 12.736" stroke="#638B9E" stroke-width="0.201836" stroke-miterlimit="10"/>
<path d="M43.1888 10.9827L42.9062 12.6377" stroke="#638B9E" stroke-width="0.201836" stroke-miterlimit="10"/>
<path d="M48.0954 50.7014C49.0844 47.8354 49.6697 44.8078 49.8312 41.7803C49.9523 39.4995 52.3945 19.659 52.6166 16.7122C52.6771 15.8847 52.6973 14.9361 52.1725 14.2902C51.3652 13.3012 49.7101 13.5838 48.822 14.492C47.9541 15.4003 47.6514 16.7122 47.3688 17.9434C47.2679 21.0113 46.8642 23.7563 46.3596 26.6829C45.6734 28.782 45.0679 30.3765 43.4734 33.1619C41.5963 34.7362 39.4568 36.9564 38.811 39.6408C38.1651 42.3252 38.1651 45.2922 39.4568 47.7344C40.7486 50.1767 43.5339 51.9528 46.2587 51.4684" fill="#8C613E"/>
<path d="M52.6402 15.7436C52.5998 15.4812 52.4787 14.7142 51.8329 14.2097C51.0659 13.6041 50.0567 13.7454 49.7136 13.8463C47.8971 14.3509 47.3117 18.1253 47.1099 20.6079C46.6255 26.885 45.3539 29.9125 43.497 33.1822C42.1245 34.8171 39.4401 36.6538 39.1172 40.0043C39.1374 41.2153 39.2787 42.1841 39.3594 42.7089" stroke="#1D1D1B" stroke-width="0.452113" stroke-linecap="round" stroke-linejoin="round"/>
<path d="M24.1984 81.9067C24.2791 74.2974 18.3451 62.7928 24.5011 62.0258C24.6222 56.2129 24.7635 52.3982 24.925 51.9744C25.6718 50.0569 48.5398 49.3707 51.4261 50.7028C52.0921 51.0055 52.6573 54.6588 53.1215 60.2295C58.9142 59.4625 53.9894 74.1158 54.3123 82.6333" fill="#D44441"/>
<path d="M24.6641 61.9649C29.5485 60.8145 34.5742 60.2897 39.5999 60.431C42.244 60.5117 44.9082 60.7539 47.5119 60.4108" stroke="#A82D25" stroke-width="0.452113" stroke-linecap="round" stroke-linejoin="round"/>
<path d="M26.6992 61.4219C26.8405 59.3026 26.9616 57.2035 27.1029 55.0842" stroke="#A82D25" stroke-width="0.452113" stroke-linecap="round" stroke-linejoin="round"/>
<path d="M29.6458 51.1663C29.4844 53.2654 29.444 55.3644 29.5247 57.4635" stroke="#A82D25" stroke-width="0.452113" stroke-linecap="round" stroke-linejoin="round"/>
<path d="M44.5234 60.5927C44.5638 59.4019 44.6244 58.211 44.6647 57" stroke="#A82D25" stroke-width="0.452113" stroke-linecap="round" stroke-linejoin="round"/>
<path d="M46.4805 60.4734C46.7832 58.0715 46.8236 55.6293 46.5814 53.2073" stroke="#A82D25" stroke-width="0.452113" stroke-linecap="round" stroke-linejoin="round"/>
<path d="M43.7344 50.4807C43.8151 51.4293 43.9362 52.378 44.0775 53.3064" stroke="#A82D25" stroke-width="0.452113" stroke-linecap="round" stroke-linejoin="round"/>
<path d="M50.5811 60.1085C50.5003 59.1599 50.5407 58.1911 50.6618 57.2424" stroke="#A82D25" stroke-width="0.452113" stroke-linecap="round" stroke-linejoin="round"/>
</g>
<defs>
<clipPath id="clip0_43_28644">
<path d="M0 0.633057H80V40.6331C80 62.7244 62.0914 80.6331 40 80.6331C17.9086 80.6331 0 62.7244 0 40.6331V0.633057Z" fill="white"/>
</clipPath>
<clipPath id="clip1_43_28644">
<rect y="0.633057" width="78.0359" height="78.0359" rx="39.0179" fill="white"/>
</clipPath>
</defs>
</svg>
