<svg width="80" height="81" viewBox="0 0 80 81" fill="none" xmlns="http://www.w3.org/2000/svg">
<g clip-path="url(#clip0_43_28377)">
<g clip-path="url(#clip1_43_28377)">
<path d="M39.0179 78.6689C60.5669 78.6689 78.0359 61.2 78.0359 39.651C78.0359 18.102 60.5669 0.633057 39.0179 0.633057C17.4689 0.633057 0 18.102 0 39.651C0 61.2 17.4689 78.6689 39.0179 78.6689Z" fill="#F9CCD4"/>
</g>
<rect x="6" y="20.6331" width="66" height="37.7143" rx="18.8571" fill="#FAE427"/>
<path d="M16.6544 32.3336H26.0516V35.3162H19.9639V38.4009H25.643V41.3835H19.9639V46.6336H16.6544V32.3336ZM27.6867 32.3336H32.8551C33.9582 32.3336 34.9184 32.5311 35.7355 32.926C36.5527 33.321 37.1859 33.8657 37.6354 34.5603C38.0984 35.2549 38.3299 36.0516 38.3299 36.9505C38.3299 37.9174 38.0576 38.7754 37.5128 39.5245C36.9817 40.2599 36.253 40.791 35.3269 41.1179L39.1267 46.6336H35.3474L30.9961 40.0965V46.6336H27.6867V32.3336ZM34.9388 37.1956C34.9388 36.6236 34.7345 36.1674 34.3259 35.8269C33.931 35.4864 33.393 35.3162 32.7121 35.3162H30.9961V39.0955H32.8959C33.4952 39.0955 33.9855 38.9184 34.3668 38.5643C34.7481 38.2102 34.9388 37.754 34.9388 37.1956ZM40.3548 32.3336H49.854V35.3162H43.6642V37.9923H49.4455V40.934H43.6642V43.651H50.0583V46.6336H40.3548V32.3336ZM51.9057 32.3336H61.405V35.3162H55.2151V37.9923H60.9964V40.934H55.2151V43.651H61.6093V46.6336H51.9057V32.3336Z" fill="black"/>
</g>
<defs>
<clipPath id="clip0_43_28377">
<rect width="80" height="80" fill="white" transform="translate(0 0.633057)"/>
</clipPath>
<clipPath id="clip1_43_28377">
<rect y="0.633057" width="78.0359" height="78.0359" rx="39.0179" fill="white"/>
</clipPath>
</defs>
</svg>
