<svg width="100" height="34" viewBox="0 0 100 34" fill="none" xmlns="http://www.w3.org/2000/svg">
<path d="M59.6129 8.43415H63.9529C65.1531 8.43415 66.1872 8.66454 67.0552 9.12533C67.9339 9.58612 68.6145 10.2398 69.0967 11.0863C69.579 11.9222 69.8202 12.9134 69.8203 14.06C69.8203 15.1959 69.5793 16.1871 69.0971 17.0337C68.615 17.8803 67.9346 18.5339 67.0559 18.9947C66.1879 19.4555 65.1539 19.6859 63.9537 19.6859H59.6137L59.6129 8.43415ZM67.152 14.06C67.1519 13.0313 66.8518 12.2276 66.2517 11.6489C65.6516 11.0703 64.821 10.7809 63.7602 10.7809H62.2492L62.2497 17.3391H63.7606C64.8215 17.3391 65.652 17.0498 66.252 16.4711C66.8521 15.8925 67.1521 15.0888 67.152 14.06ZM71.1801 11.3275H73.6555L73.6556 12.8223C73.8484 12.2758 74.1163 11.8579 74.4592 11.5686C74.8021 11.2685 75.2146 11.1185 75.6968 11.1185C76.3934 11.1185 76.956 11.4078 77.3847 11.9865C77.8133 12.5652 78.0492 13.3581 78.0921 14.3654H75.6167C75.5738 13.9904 75.4827 13.7225 75.3434 13.5617C75.2148 13.401 75.0165 13.3206 74.7486 13.3206C74.3736 13.3206 74.095 13.4653 73.9128 13.7546C73.7414 14.044 73.6557 14.4458 73.6557 14.9602L73.6561 19.6859H71.1807L71.1801 11.3275ZM78.6566 15.5067C78.6566 14.6601 78.8548 13.91 79.2512 13.2563C79.6584 12.5919 80.1995 12.0722 80.8746 11.6972C81.5604 11.3114 82.3212 11.1185 83.157 11.1185C84.0036 11.1185 84.7644 11.3114 85.4396 11.6972C86.1147 12.0722 86.6505 12.5919 87.0471 13.2563C87.4543 13.91 87.658 14.6601 87.658 15.5067C87.6581 16.3532 87.4546 17.1087 87.0474 17.7731C86.651 18.4375 86.1152 18.9572 85.4401 19.3323C84.765 19.7073 84.0042 19.8949 83.1576 19.8949C82.3218 19.8949 81.561 19.7073 80.8751 19.3323C80.2 18.9572 79.6588 18.4375 79.2515 17.7731C78.855 17.1087 78.6567 16.3532 78.6566 15.5067ZM81.1642 15.5067C81.1642 16.1496 81.3571 16.6694 81.7429 17.0659C82.1287 17.4516 82.6003 17.6445 83.1575 17.6445C83.7254 17.6445 84.1969 17.4516 84.572 17.0659C84.9577 16.6694 85.1506 16.1496 85.1505 15.5067C85.1505 14.8637 84.9575 14.3494 84.5717 13.9636C84.1967 13.5671 83.7251 13.3688 83.1572 13.3688C82.6 13.3688 82.1285 13.5671 81.7427 13.9636C81.357 14.3494 81.1641 14.8637 81.1642 15.5067ZM88.9493 11.3275H91.4247L91.4248 13.1438C91.6391 12.4794 91.9873 11.9758 92.4695 11.6329C92.9517 11.29 93.4875 11.1185 94.0769 11.1185C94.7734 11.1185 95.3896 11.3114 95.9254 11.6972C96.472 12.0722 96.9007 12.5919 97.2115 13.2563C97.5223 13.9207 97.6777 14.6708 97.6778 15.5067C97.6778 16.3425 97.5225 17.0926 97.2118 17.757C96.9011 18.4107 96.4725 18.9304 95.926 19.3162C95.3902 19.702 94.774 19.8949 94.0775 19.8949C93.4881 19.8949 92.9523 19.7234 92.4701 19.3805C91.9878 19.0376 91.6395 18.5339 91.4252 17.8696L91.4255 22.74H88.9501L88.9493 11.3275ZM95.1702 15.5067C95.1702 14.8744 94.9719 14.3601 94.5754 13.9636C94.1789 13.5671 93.702 13.3688 93.1448 13.3688C92.5875 13.3688 92.1268 13.5671 91.7624 13.9636C91.4088 14.3601 91.2321 14.8744 91.2321 15.5067C91.2322 16.1389 91.409 16.6533 91.7627 17.0498C92.127 17.4463 92.5878 17.6445 93.1451 17.6445C93.7023 17.6445 94.1791 17.4463 94.5756 17.0498C94.9721 16.6533 95.1703 16.1389 95.1702 15.5067Z" fill="black"/>
<path d="M90.2135 25.8926L92.4194 22.8414H88.0071L90.2135 25.8926Z" fill="white"/>
<path d="M0.970941 14.0583C0.970884 13.2332 1.11014 12.467 1.3887 11.7597C1.67799 11.0417 2.07979 10.4149 2.59412 9.87906C3.10845 9.34326 3.71387 8.92534 4.41039 8.62529C5.11762 8.32524 5.88916 8.17522 6.725 8.17522C7.593 8.17522 8.39135 8.34668 9.12006 8.68959C9.85948 9.02178 10.481 9.49864 10.9847 10.1202C11.4884 10.7417 11.8367 11.4757 12.0297 12.3223H9.29712C9.08276 11.7436 8.75054 11.3096 8.30045 11.0203C7.86107 10.731 7.3467 10.5863 6.75732 10.5863C6.12508 10.5863 5.57322 10.7417 5.10174 11.0525C4.64097 11.3525 4.28201 11.7651 4.02487 12.2901C3.76772 12.8045 3.63917 13.3885 3.63921 14.0422C3.63926 14.7066 3.76789 15.3013 4.02511 15.8264C4.28233 16.3515 4.64135 16.7694 5.10215 17.0802C5.57368 17.3802 6.12556 17.5303 6.7578 17.5303C7.39004 17.5303 7.94726 17.3642 8.42946 17.032C8.92237 16.6998 9.25453 16.2229 9.42594 15.6014H12.1585C12.0085 16.4908 11.6818 17.2624 11.1782 17.916C10.6746 18.559 10.0424 19.0573 9.28154 19.4109C8.52073 19.7645 7.67418 19.9413 6.7419 19.9413C5.89533 19.9413 5.11842 19.7913 4.41114 19.4913C3.71458 19.1912 3.1091 18.7733 2.5947 18.2375C2.0803 17.7017 1.67841 17.0802 1.38902 16.3729C1.11036 15.655 0.970999 14.8834 0.970941 14.0583ZM13.4278 8.11092H15.9032L15.904 19.6842H13.4286L13.4278 8.11092ZM17.6663 11.3257H20.1417L20.1423 19.6842H17.6669L17.6663 11.3257ZM17.4894 9.44506C17.4893 9.03785 17.6233 8.71638 17.8911 8.48062C18.159 8.23416 18.4966 8.11092 18.9038 8.11092C19.311 8.11092 19.6485 8.23416 19.9165 8.48062C20.1844 8.71638 20.3183 9.03785 20.3184 9.44506C20.3184 9.84155 20.1845 10.1684 19.9166 10.4256C19.6487 10.6828 19.3112 10.8113 18.904 10.8113C18.5075 10.8113 18.1699 10.6828 17.8913 10.4256C17.6234 10.1684 17.4894 9.84155 17.4894 9.44506ZM21.4226 15.5049C21.4226 14.6584 21.61 13.9083 21.9851 13.2546C22.3708 12.5902 22.8905 12.0705 23.5441 11.6954C24.2085 11.3096 24.9586 11.1168 25.7944 11.1168C26.5124 11.1168 27.1607 11.2561 27.7394 11.5347C28.3288 11.8026 28.8164 12.183 29.2022 12.6759C29.588 13.1581 29.8292 13.7207 29.9257 14.3637H27.3056C27.1984 14.0529 27.0109 13.8118 26.743 13.6404C26.4858 13.4582 26.1804 13.3671 25.8267 13.3671C25.2695 13.3671 24.8141 13.5653 24.4605 13.9618C24.1069 14.3583 23.9301 14.8727 23.9302 15.5049C23.9302 16.1265 24.1124 16.6408 24.4768 17.048C24.8411 17.4445 25.3073 17.6428 25.8752 17.6428C26.2503 17.6428 26.5718 17.5517 26.8397 17.3695C27.1183 17.1766 27.3004 16.9141 27.3861 16.5819H30.0062C29.8991 17.2356 29.6526 17.8142 29.2669 18.3179C28.8812 18.8108 28.3936 19.1966 27.8042 19.4752C27.2256 19.7538 26.5827 19.8931 25.8754 19.8931C24.986 19.8931 24.2037 19.711 23.5286 19.3466C22.8642 18.9823 22.3444 18.4733 21.9693 17.8196C21.6049 17.1552 21.4227 16.3836 21.4226 15.5049ZM33.7047 19.6842H31.2293L31.2285 8.11092H33.7039L33.7043 14.4441H34.0579C34.6794 14.4441 35.1938 14.1601 35.601 13.5921C36.0188 13.0242 36.2492 12.2687 36.292 11.3257H38.7674C38.5639 13.4796 37.846 14.8995 36.6138 15.5853L39.218 19.6842H36.3086L33.7043 15.1513L33.7047 19.6842Z" fill="black"/>
<path d="M71.4523 30.2788H69.7707L72.5795 23.3546H73.905L76.7147 30.2788H75.0133L74.5384 29.0324H71.9171L71.4523 30.2788ZM73.2325 25.5704L72.4314 27.6674H74.0141L73.2325 25.5704ZM77.3469 23.3546H79.9088C80.443 23.3546 80.9079 23.4536 81.3036 23.6514C81.7058 23.8426 82.0158 24.1163 82.2334 24.4724C82.4511 24.8219 82.5599 25.234 82.5599 25.7088C82.56 26.1836 82.4512 26.5991 82.2336 26.9552C82.016 27.3047 81.7094 27.5784 81.3137 27.7762C80.9247 27.974 80.4664 28.073 79.9388 28.073H78.9496L78.9498 30.2788H77.3474L77.3469 23.3546ZM80.9179 25.7088C80.9179 25.4385 80.8256 25.2209 80.6409 25.056C80.4563 24.8845 80.2123 24.7988 79.9089 24.7988H78.9494L78.9495 26.6288H79.909C80.2124 26.6288 80.4564 26.5463 80.641 26.3815C80.8256 26.21 80.9179 25.9858 80.9179 25.7088ZM83.336 23.3546H84.9384L84.9389 30.2788H83.3364L83.336 23.3546Z" fill="#DA202A"/>
<path d="M43.032 23.5075C42.4039 23.5075 41.9104 23.0265 41.9104 22.4143L41.9093 6.67208C41.9092 6.05988 42.4027 5.57887 43.0308 5.57887H54.6954C55.3235 5.57887 55.817 6.05988 55.8171 6.67208L55.8181 22.4143C55.8182 23.0265 55.3247 23.5075 54.6966 23.5075H43.032Z" fill="#DA202A"/>
<path d="M45.0223 16.354C45.0222 15.4003 45.4347 14.6501 46.2598 14.1036L46.2277 14.0554C45.8204 13.616 45.4936 13.241 45.2471 12.9302C45.0006 12.6087 44.8237 12.3087 44.7166 12.0301C44.6201 11.7515 44.5719 11.4568 44.5718 11.146C44.5718 10.5459 44.7218 10.0208 45.0218 9.57077C45.3325 9.1207 45.7611 8.76707 46.3076 8.50989C46.8648 8.25271 47.5024 8.12412 48.2204 8.12412C48.9277 8.12412 49.5546 8.24199 50.1011 8.47774C50.6476 8.70278 51.0763 9.02426 51.3871 9.44218C51.6979 9.84939 51.8533 10.3262 51.8533 10.8728C51.8533 11.3657 51.6873 11.8158 51.3551 12.223C51.0337 12.6195 50.5729 12.957 49.9728 13.2356C50.2836 12.9892 50.5086 12.673 50.6479 12.2873C50.7871 11.8908 50.8568 11.5157 50.8567 11.1621C50.8567 10.4977 50.6102 9.95655 50.1172 9.53862C49.6243 9.10998 48.992 8.89567 48.2205 8.89567C47.4382 8.89567 46.8006 9.08855 46.3077 9.47433C45.8255 9.8601 45.5844 10.3584 45.5845 10.9692C45.5845 11.2478 45.6381 11.5211 45.7453 11.789C45.8632 12.0569 46.0507 12.3569 46.3079 12.6891C46.5759 13.0213 46.9295 13.4285 47.3689 13.9107L50.7929 17.5434C50.3643 17.9078 49.9035 18.1864 49.4106 18.3793C48.9177 18.5615 48.3872 18.6525 47.8193 18.6525C46.9727 18.6525 46.2923 18.4436 45.7779 18.0257C45.2742 17.6077 45.0223 17.0505 45.0223 16.354ZM46.0024 10.9371C46.0024 10.4548 46.2059 10.0583 46.6131 9.74758C47.031 9.43682 47.5668 9.28144 48.2205 9.28144C48.8634 9.28144 49.3939 9.45825 49.8118 9.81188C50.2298 10.1548 50.4388 10.6263 50.4388 11.2264C50.4388 11.4407 50.4014 11.6925 50.3264 11.9819C50.2621 12.2605 50.1174 12.5444 49.8924 12.8338C49.6674 13.1124 49.3245 13.3696 48.8637 13.6053L51.0017 15.8718C51.291 15.2717 51.4517 14.6287 51.4838 13.9429H52.4804C52.4269 15.2609 51.9609 16.37 51.0822 17.2702L47.7386 13.7178C47.3099 13.2463 46.967 12.8552 46.7098 12.5444C46.4526 12.223 46.2704 11.939 46.1632 11.6925C46.056 11.4461 46.0024 11.1942 46.0024 10.9371ZM44.6043 16.354C44.6044 17.1684 44.8938 17.8221 45.4725 18.315C46.0619 18.7972 46.8442 19.0383 47.8193 19.0383C48.4301 19.0383 48.9874 18.9419 49.491 18.749C50.0053 18.5561 50.525 18.2453 51.0501 17.8167L52.7058 19.6331H51.5646L50.9537 19.0062C49.9893 19.5956 48.907 19.8902 47.7069 19.8902C46.8924 19.8902 46.1745 19.7616 45.5529 19.5045C44.9314 19.2473 44.4438 18.8883 44.0901 18.4275C43.7472 17.9667 43.5757 17.4363 43.5756 16.8362C43.5756 16.2361 43.7363 15.711 44.0578 15.2609C44.3899 14.8109 44.915 14.4412 45.6329 14.1518C45.3115 14.3876 45.0597 14.6984 44.8775 15.0841C44.6954 15.4699 44.6043 15.8932 44.6043 16.354ZM52.8983 13.9429H53.8949C53.82 15.2931 53.3861 16.4826 52.5932 17.5113L54.6026 19.6331H53.2845L51.3555 17.5434C52.2984 16.579 52.8127 15.3788 52.8983 13.9429ZM46.1796 16.2415C46.1796 16.7344 46.335 17.1202 46.6458 17.3988C46.9673 17.6667 47.4227 17.8006 48.0121 17.8006C48.5479 17.8006 49.0355 17.6881 49.4748 17.4631L46.9671 14.8269C46.4421 15.1913 46.1795 15.6628 46.1796 16.2415ZM47.0794 11.1139C47.0794 11.3496 47.1544 11.5961 47.3045 11.8533C47.4652 12.0997 47.7599 12.4534 48.1886 12.9142C48.5744 12.6998 48.8637 12.4534 49.0565 12.1747C49.2494 11.8961 49.3458 11.5693 49.3458 11.1942C49.3458 10.8192 49.244 10.5352 49.0403 10.3423C48.8474 10.1494 48.5795 10.053 48.2366 10.053C47.8937 10.053 47.6151 10.1494 47.4008 10.3423C47.1865 10.5352 47.0793 10.7924 47.0794 11.1139Z" fill="white"/>
</svg>
