<svg width="90" height="33" viewBox="0 0 90 33" fill="none" xmlns="http://www.w3.org/2000/svg">
<g clip-path="url(#clip0_43_28741)">
<path d="M27.9346 27.1972C26.6938 27.1972 25.6489 28.2421 25.6489 29.4829C25.6489 30.7237 26.6938 31.7686 27.9346 31.7686C29.1755 31.7686 30.2204 30.7237 30.2204 29.4829C30.2204 28.2421 29.1755 27.1972 27.9346 27.1972Z" fill="#285EB9"/>
<path d="M14.4815 27.1972C13.2407 27.1972 12.1958 28.2421 12.1958 29.4829C12.1958 30.7237 13.2407 31.7686 14.4815 31.7686C15.7223 31.7686 16.7672 30.7237 16.7672 29.4829C16.7672 28.2421 15.7876 27.1972 14.4815 27.1972Z" fill="#285EB9"/>
<path d="M34.6608 8.7155C34.6608 8.58488 34.7261 8.45427 34.7261 8.32366C34.7261 7.08284 33.6812 6.03795 32.4404 6.03795H12.0649L11.2159 1.79305C11.0853 0.74815 10.3016 -0.10083 9.32201 -0.10083H5.14241C4.09751 -0.10083 3.24854 0.878762 3.24854 2.11958C3.24854 3.36039 4.09751 4.40529 5.14241 4.40529H7.23221L9.90976 17.6624L11.0853 23.54C11.0853 23.54 11.0853 23.54 11.0853 23.6053L11.1506 23.8012C11.3465 24.7155 12.0649 25.4339 12.8485 25.4339H29.1098C31.8526 25.4339 32.1791 20.7971 32.1791 20.7971H15.0036L14.4812 18.1196L31.1343 18.0543C31.9179 18.0543 32.571 17.4012 32.8322 16.4869V16.4216L34.5955 8.97672C34.6608 8.91141 34.6608 8.7808 34.6608 8.7155ZM29.1751 13.4828H13.5669L12.9791 10.5441H29.7628L29.1751 13.4828Z" fill="#285EB9"/>
<path d="M87.2325 10.0869V8.97669V8.65016V8.38893C87.2325 7.14812 86.1876 6.10322 84.9468 6.10322C84.555 6.10322 84.2285 6.16853 83.9019 6.36444C83.7713 6.42975 83.706 6.49506 83.6407 6.56036L76.457 10.9359L76.2611 10.8053L69.1427 6.42975L69.0774 6.36444L69.0121 6.29914C68.9468 6.29914 68.9468 6.23383 68.8815 6.23383C68.8162 6.23383 68.8162 6.23383 68.7509 6.16853C68.6856 6.16853 68.6856 6.16853 68.6203 6.10322C68.555 6.10322 68.555 6.10322 68.4897 6.03791C68.4244 6.03791 68.4244 6.03791 68.3591 6.03791C68.2938 6.03791 68.2938 6.03791 68.2285 6.03791C68.1631 6.03791 68.1632 6.03791 68.0978 6.03791H68.0325C67.9019 6.03791 67.706 6.03791 67.5754 6.03791C67.5101 6.03791 67.5101 6.03791 67.4448 6.03791C67.3795 6.03791 67.3795 6.03791 67.3142 6.03791C67.2489 6.03791 67.2489 6.03791 67.1836 6.03791C67.1183 6.03791 67.1183 6.03791 67.1183 6.03791C67.0529 6.03791 67.0529 6.03791 66.9876 6.10322C66.9876 6.10322 66.9223 6.10322 66.9223 6.16853C66.857 6.16853 66.857 6.23383 66.7917 6.23383C66.7917 6.23383 66.7264 6.23383 66.7264 6.29914C66.6611 6.29914 66.6611 6.36444 66.5958 6.36444C66.5958 6.36444 66.5305 6.36445 66.5305 6.42975C66.4652 6.49506 66.3999 6.49506 66.3999 6.56036C66.3999 6.56036 66.3999 6.56036 66.3346 6.56036C66.204 6.69098 66.0734 6.75628 66.008 6.88689C66.008 6.9522 65.9427 7.01751 65.9427 7.08281C65.9427 7.08281 65.9427 7.14812 65.8774 7.14812C65.8774 7.21342 65.8121 7.21342 65.8121 7.27873V7.34404C65.8121 7.40934 65.7468 7.40934 65.7468 7.47465V7.53996C65.7468 7.60526 65.6815 7.67057 65.6815 7.67057V7.73587C65.6815 7.80118 65.6815 7.86649 65.6162 7.86649V7.93179C65.6162 7.9971 65.6162 8.0624 65.6162 8.12771V8.19302C65.6162 8.25832 65.6162 8.32363 65.6162 8.32363V8.58485V8.91138V22.4298V23.0175V23.0828C65.6162 24.3236 66.6611 25.3685 67.9019 25.3685C69.1427 25.3685 70.1876 24.3889 70.1876 23.0828V23.0175V22.4298V18.2502V13.6134V12.6991L75.2162 15.6379C75.5427 15.8338 75.9999 15.9644 76.3917 15.9644C76.8489 15.9644 77.2407 15.8338 77.5672 15.6379L82.5958 12.6991V22.4298V23.0175V23.0828C82.5958 24.3236 83.6407 25.3685 84.8815 25.3685C86.1223 25.3685 87.1672 24.3889 87.1672 23.0828V23.0175V22.4298V18.2502V13.6134L87.2325 10.0869Z" fill="#285EB9"/>
<path d="M60.2608 21.5155C60.1954 21.4502 60.1301 21.3849 59.9995 21.3195L51.575 14.3971L59.4771 10.4134C59.6077 10.3481 59.673 10.3481 59.8036 10.2828C60.4567 9.89098 60.8485 9.17261 60.8485 8.38893C60.8485 7.14812 59.8689 6.10322 58.5628 6.10322C58.171 6.10322 57.7791 6.23383 57.4526 6.36444L43.9342 13.2216V8.91138V8.58485V8.32363C43.9342 7.08281 42.8893 6.03791 41.6485 6.03791C40.4077 6.03791 39.3628 7.08281 39.3628 8.32363V8.58485V8.91138V22.4298V23.0175V23.0828C39.3628 24.3236 40.4077 25.3685 41.6485 25.3685C42.8893 25.3685 43.9342 24.3889 43.9342 23.0828V23.0175V22.4298V18.2502L47.5914 16.3563L57.0608 24.7155C57.1261 24.8461 57.2567 24.9114 57.3873 24.9767C57.7791 25.2379 58.2363 25.3685 58.6934 25.3685C59.9342 25.3685 60.9791 24.3236 60.9791 23.0828C60.9791 22.4951 60.7179 21.9073 60.2608 21.5155Z" fill="#285EB9"/>
</g>
<defs>
<clipPath id="clip0_43_28741">
<rect width="89" height="32" fill="white" transform="translate(0.749512 0.633057)"/>
</clipPath>
</defs>
</svg>
