<svg width="92" height="33" viewBox="0 0 92 33" fill="none" xmlns="http://www.w3.org/2000/svg">
<path d="M3.45095 17.3491L8.58011 12.1651C8.92754 11.8085 9.39381 11.6165 9.88753 11.6165C10.3812 11.6165 10.8475 11.8085 11.195 12.1651L11.5972 12.5674L12.3927 11.7628L11.9904 11.3605C11.4327 10.7936 10.683 10.4828 9.88753 10.4828C9.0921 10.4828 8.34237 10.7936 7.78465 11.3605L2.65552 16.5445L3.45095 17.3491Z" fill="black"/>
<path d="M10.3081 13.8839L9.5035 13.0794L4.35607 18.2634C3.63378 18.9948 2.45436 18.9948 1.73207 18.2634C1.00979 17.5319 1.00979 16.3525 1.73207 15.6211L6.17552 11.1502L5.37094 10.3456L0.927498 14.8165C-0.233645 15.9868 -0.233645 17.8976 0.927498 19.0679C1.49435 19.6348 2.24409 19.9456 3.03952 19.9456C3.83495 19.9456 4.59381 19.6348 5.15152 19.0679L10.2989 13.8839H10.3081Z" fill="black"/>
<path d="M15.4007 14.8531C14.8338 14.2862 14.0841 13.9754 13.2887 13.9754C12.4932 13.9754 11.7344 14.2862 11.1767 14.8531L6.02924 20.0371L6.83382 20.8416L11.9812 15.6576C12.7035 14.9262 13.883 14.9262 14.6052 15.6576C14.9527 16.0051 15.1447 16.4805 15.1447 16.9742C15.1447 17.4679 14.9527 17.9434 14.6052 18.2908L10.1618 22.7616L10.9664 23.5662L15.4098 19.0954C16.5801 17.9251 16.5801 16.0142 15.4098 14.8439" fill="black"/>
<path d="M12.8864 16.5719L7.75723 21.7559C7.03494 22.4874 5.86468 22.4874 5.15153 21.7559L4.74925 21.3536L3.95382 22.1582L4.35608 22.5605C4.9138 23.1274 5.66353 23.4382 6.45896 23.4382C7.25438 23.4382 8.00409 23.1274 8.5618 22.5605L13.691 17.3765L12.8955 16.5719H12.8864Z" fill="black"/>
<path d="M21.0144 18.3091C21.0784 18.6382 21.2338 18.9034 21.4807 19.0862C21.7275 19.2691 22.0475 19.3696 22.4407 19.3696C22.8338 19.3696 23.1355 19.2782 23.3458 19.0954C23.5561 18.9125 23.6658 18.6656 23.6658 18.3731C23.6658 18.2268 23.6384 18.0988 23.5835 17.9982C23.5287 17.8976 23.4464 17.8154 23.3458 17.7422C23.2452 17.6691 23.1172 17.6142 22.971 17.5594C22.8247 17.5136 22.651 17.4588 22.4681 17.4039L21.9835 17.2668C21.691 17.1845 21.435 17.0931 21.2064 16.9742C20.9778 16.8645 20.7858 16.7274 20.6212 16.5719C20.4567 16.4165 20.3378 16.2428 20.2555 16.0416C20.1732 15.8405 20.1275 15.6119 20.1275 15.3468C20.1275 15.0816 20.1824 14.8165 20.2921 14.5879C20.4018 14.3594 20.5572 14.1582 20.7492 13.9936C20.9412 13.8291 21.1881 13.7011 21.4715 13.6005C21.7549 13.5091 22.0749 13.4542 22.4224 13.4542C23.0898 13.4542 23.6201 13.6188 24.0132 13.9388C24.4064 14.2588 24.6349 14.6885 24.6989 15.2279L23.6201 15.3194C23.5561 15.0451 23.419 14.8256 23.227 14.6794C23.035 14.5331 22.7515 14.4508 22.3949 14.4508C22.0658 14.4508 21.8098 14.5331 21.6178 14.6885C21.4349 14.8439 21.3344 15.0451 21.3344 15.2919C21.3344 15.4291 21.3618 15.5479 21.4167 15.6485C21.4715 15.7399 21.5447 15.8222 21.6544 15.8954C21.755 15.9685 21.883 16.0325 22.0292 16.0874C22.1755 16.1422 22.3401 16.1971 22.5321 16.2611L22.9892 16.4074C23.2818 16.4988 23.5378 16.5994 23.7664 16.6999C23.9949 16.8005 24.1961 16.9194 24.3607 17.0656C24.5252 17.2028 24.6441 17.3765 24.7355 17.5685C24.8269 17.7605 24.8635 18.0074 24.8635 18.2908C24.8635 18.6016 24.7995 18.8759 24.6807 19.1319C24.5618 19.3879 24.3881 19.5982 24.1778 19.7811C23.9584 19.9548 23.7024 20.1011 23.4098 20.1925C23.1081 20.2931 22.7789 20.3388 22.4224 20.3388C21.7549 20.3388 21.1972 20.1834 20.7584 19.8634C20.3104 19.5434 20.0361 19.0679 19.9355 18.4188L21.0327 18.3182L21.0144 18.3091Z" fill="black"/>
<path d="M29.4989 14.5696C29.1789 14.5696 28.8864 14.6336 28.6304 14.7525C28.3744 14.8714 28.155 15.0451 27.9813 15.2554C27.8075 15.4748 27.6704 15.7308 27.579 16.0234C27.4875 16.3159 27.4418 16.6359 27.4418 16.9834C27.4418 17.3308 27.4875 17.6508 27.5881 17.9525C27.6795 18.2542 27.8167 18.5102 27.9995 18.7296C28.1732 18.9491 28.3927 19.1228 28.6487 19.2416C28.9047 19.3696 29.1972 19.4245 29.5172 19.4245C29.8372 19.4245 30.1298 19.3696 30.3858 19.2508C30.6418 19.1319 30.8612 18.9674 31.035 18.7571C31.2087 18.5468 31.3458 18.2908 31.4464 17.9891C31.5469 17.6874 31.5927 17.3582 31.5927 17.0016C31.5927 16.6451 31.5469 16.3251 31.4464 16.0234C31.3458 15.7216 31.2178 15.4656 31.035 15.2554C30.8612 15.0451 30.6418 14.8714 30.3858 14.7525C30.1298 14.6336 29.8372 14.5696 29.5081 14.5696M29.5081 13.5822C29.9927 13.5822 30.4407 13.6645 30.8429 13.8382C31.2452 14.0028 31.5835 14.2405 31.867 14.5422C32.1504 14.8439 32.3698 15.2096 32.5252 15.6302C32.6807 16.0508 32.7629 16.5079 32.7629 17.0108C32.7629 17.5136 32.6807 17.9982 32.5161 18.4188C32.3515 18.8394 32.1138 19.1959 31.8121 19.5068L32.6807 20.5399V20.8599H31.5835L30.9801 20.1102C30.7698 20.2108 30.5412 20.2839 30.3035 20.3388C30.0658 20.3936 29.8007 20.4211 29.5264 20.4211C29.0235 20.4211 28.5755 20.3388 28.1824 20.1651C27.7801 20.0005 27.4418 19.7628 27.1675 19.4611C26.8841 19.1594 26.6738 18.8028 26.5184 18.3822C26.363 17.9616 26.2898 17.5045 26.2898 17.0108C26.2898 16.5171 26.363 16.0508 26.5184 15.6302C26.6738 15.2096 26.8932 14.8531 27.1675 14.5514C27.451 14.2496 27.7892 14.0119 28.1915 13.8382C28.5938 13.6645 29.0327 13.5822 29.5172 13.5822" fill="black"/>
<path d="M37.1698 19.3879C37.627 19.3879 37.9927 19.2416 38.2487 18.9491C38.5047 18.6565 38.6327 18.2085 38.6327 17.6142V13.5914H39.7664V17.6416C39.7664 18.1171 39.7024 18.5285 39.5835 18.8668C39.4647 19.2051 39.2909 19.4885 39.0715 19.7079C38.8521 19.9274 38.5778 20.0828 38.2578 20.1834C37.9378 20.2839 37.5721 20.3388 37.1698 20.3388C36.7675 20.3388 36.4018 20.2839 36.0818 20.1834C35.7618 20.0828 35.4875 19.9274 35.2681 19.7079C35.0487 19.4885 34.8749 19.2142 34.7561 18.8668C34.6372 18.5285 34.5732 18.1171 34.5732 17.6416V13.5914H35.7069V17.6142C35.7069 18.2176 35.835 18.6565 36.091 18.9491C36.347 19.2416 36.7035 19.3879 37.1698 19.3879Z" fill="black"/>
<path d="M43.003 17.3765H45.1698L44.8132 16.3434C44.6761 15.9411 44.5572 15.6119 44.4749 15.3559C44.3927 15.0999 44.3104 14.8805 44.2464 14.6885H43.9629C43.9264 14.7891 43.8898 14.8896 43.8532 14.9994C43.8167 15.0999 43.7801 15.2188 43.7344 15.3468C43.6887 15.4748 43.6429 15.6211 43.5881 15.7765C43.5332 15.9411 43.4692 16.1331 43.3869 16.3434L43.0121 17.3765H43.003ZM40.9275 19.8908L43.259 13.7194H44.9869L47.291 19.8908V20.2108H46.1572L45.4989 18.3548H42.6555L41.9972 20.2108H40.9275V19.8908Z" fill="black"/>
<path d="M50.8292 16.6725C51.2681 16.6725 51.6064 16.5902 51.8532 16.4348C52.1001 16.2794 52.2281 16.0142 52.2281 15.6576C52.2281 15.3011 52.1001 15.0359 51.8441 14.8988C51.5881 14.7525 51.2498 14.6885 50.8201 14.6885H49.8326V16.6725H50.8292ZM53.6544 20.1925H52.5573L50.5732 17.6416H49.8418V20.1925H48.7172V13.7011H50.8292C51.1584 13.7011 51.4784 13.7194 51.7709 13.7651C52.0726 13.8108 52.3378 13.9114 52.5847 14.0759C53.0967 14.4142 53.3527 14.9262 53.3527 15.6028C53.3527 15.8954 53.3069 16.1514 53.2247 16.3799C53.1332 16.5994 53.0235 16.7822 52.8772 16.9376C52.7309 17.0931 52.5664 17.2119 52.3744 17.3125C52.1824 17.4131 51.9904 17.4771 51.7801 17.5319L53.6544 19.8725V20.1925Z" fill="black"/>
<path d="M55.0715 13.7102H59.2955V14.7068H56.1869V16.4074H59.0761V17.3856H56.1869V19.2051H59.3595V20.2016H55.0715V13.7102Z" fill="black"/>
<path d="M61.883 18.3091C61.947 18.6382 62.1024 18.9034 62.3492 19.0862C62.5961 19.2691 62.9161 19.3696 63.3093 19.3696C63.7024 19.3696 64.0041 19.2782 64.2144 19.0954C64.4247 18.9125 64.5344 18.6656 64.5344 18.3731C64.5344 18.2268 64.507 18.0988 64.4521 17.9982C64.3973 17.8976 64.315 17.8154 64.2144 17.7422C64.1138 17.6691 63.9858 17.6142 63.8395 17.5594C63.6932 17.5136 63.5195 17.4588 63.3367 17.4039L62.8521 17.2668C62.5596 17.1845 62.3035 17.0931 62.0749 16.9742C61.8464 16.8645 61.6544 16.7274 61.4898 16.5719C61.3252 16.4165 61.2064 16.2428 61.1241 16.0416C61.0418 15.8405 60.9961 15.6119 60.9961 15.3468C60.9961 15.0816 61.0509 14.8165 61.1607 14.5879C61.2704 14.3594 61.4258 14.1582 61.6178 13.9936C61.8189 13.8291 62.0567 13.7011 62.3401 13.6005C62.6236 13.5091 62.9435 13.4542 63.291 13.4542C63.9584 13.4542 64.4887 13.6188 64.8818 13.9388C65.2749 14.2588 65.5035 14.6885 65.5675 15.2279L64.4887 15.3194C64.4247 15.0451 64.2875 14.8256 64.0955 14.6794C63.8944 14.5239 63.6201 14.4508 63.2635 14.4508C62.9344 14.4508 62.6784 14.5331 62.4864 14.6885C62.3035 14.8439 62.203 15.0451 62.203 15.2919C62.203 15.4291 62.2304 15.5479 62.2852 15.6485C62.3401 15.7399 62.4132 15.8222 62.5229 15.8954C62.6235 15.9685 62.7515 16.0325 62.8978 16.0874C63.0441 16.1422 63.2087 16.1971 63.4007 16.2611L63.8578 16.4074C64.1504 16.4988 64.4064 16.5994 64.6349 16.6999C64.8635 16.8005 65.0647 16.9194 65.2292 17.0656C65.3938 17.2028 65.5126 17.3765 65.6041 17.5685C65.6955 17.7605 65.7321 18.0074 65.7321 18.2908C65.7321 18.6016 65.6681 18.8759 65.5492 19.1319C65.4304 19.3879 65.2567 19.5982 65.0464 19.7811C64.8269 19.9548 64.571 20.1011 64.2784 20.1925C63.9767 20.2931 63.6475 20.3388 63.291 20.3388C62.6235 20.3388 62.0658 20.1834 61.627 19.8634C61.179 19.5434 60.9046 19.0679 60.8041 18.4188L61.9012 18.3182L61.883 18.3091Z" fill="black"/>
<path d="M68.5481 16.7274H69.6544C69.8556 16.7274 70.0384 16.7091 70.2121 16.6816C70.3767 16.6451 70.5321 16.5902 70.6509 16.5171C70.7789 16.4439 70.8704 16.3342 70.9435 16.2062C71.0167 16.0782 71.0532 15.9136 71.0532 15.7216C71.0532 15.5296 71.0167 15.3559 70.9435 15.2279C70.8704 15.0908 70.7789 14.9902 70.6509 14.9079C70.5321 14.8256 70.3858 14.7708 70.2121 14.7434C70.0475 14.7068 69.8646 14.6976 69.6635 14.6976H68.5389V16.7365L68.5481 16.7274ZM67.3961 13.7102H69.8098C70.2578 13.7102 70.6327 13.7651 70.9344 13.8656C71.2361 13.9662 71.4829 14.1125 71.6658 14.2862C71.8486 14.4691 71.9858 14.6794 72.0681 14.9262C72.1504 15.1731 72.1961 15.4291 72.1961 15.7125C72.1961 16.0508 72.1412 16.3434 72.0224 16.5902C71.9035 16.8371 71.7481 17.0474 71.5287 17.2119C71.3184 17.3765 71.0532 17.4954 70.7424 17.5776C70.4315 17.6599 70.0933 17.6965 69.7001 17.6965H68.5298V20.1925H67.3778V13.7011L67.3961 13.7102Z" fill="black"/>
<path d="M74.5367 17.3765H76.7035L76.3469 16.3434C76.2098 15.9411 76.0909 15.6119 76.0087 15.3559C75.9264 15.0999 75.8441 14.8805 75.7801 14.6885H75.4967C75.4601 14.7891 75.4235 14.8896 75.3869 14.9994C75.3504 15.0999 75.3138 15.2188 75.2681 15.3468C75.2224 15.4748 75.1767 15.6211 75.1218 15.7765C75.067 15.9411 75.0029 16.1331 74.9206 16.3434L74.5458 17.3765H74.5367ZM72.4612 19.8908L74.7927 13.7194H76.5206L78.8247 19.8908V20.2108H77.691L77.0326 18.3548H74.1892L73.531 20.2108H72.4612V19.8908Z" fill="black"/>
<path d="M85.7001 18.4828C85.5995 18.7388 85.4624 18.9765 85.2978 19.1959C85.1333 19.4154 84.9321 19.6165 84.6944 19.7811C84.4566 19.9456 84.1824 20.0828 83.8715 20.1742C83.5607 20.2656 83.2132 20.3205 82.8292 20.3205C82.3447 20.3205 81.9058 20.2382 81.5035 20.0645C81.1104 19.8999 80.763 19.6622 80.4887 19.3605C80.2052 19.0588 79.9949 18.7022 79.8395 18.2908C79.6841 17.8794 79.6109 17.4314 79.6109 16.9468C79.6109 16.4622 79.6841 16.0142 79.8395 15.6028C79.9949 15.1914 80.2144 14.8348 80.4978 14.5331C80.7812 14.2314 81.1195 13.9936 81.5218 13.8199C81.915 13.6462 82.3629 13.5639 82.8566 13.5639C83.5698 13.5639 84.1732 13.7285 84.6578 14.0576C85.1424 14.3868 85.4807 14.8256 85.6818 15.3742L84.5298 15.6028C84.3744 15.2736 84.155 15.0085 83.8715 14.8165C83.5881 14.6245 83.2498 14.5331 82.8475 14.5331C82.5275 14.5331 82.235 14.5971 81.9881 14.7159C81.7413 14.8348 81.5218 15.0085 81.3481 15.2279C81.1744 15.4474 81.0464 15.7034 80.955 15.9959C80.8635 16.2885 80.8178 16.6085 80.8178 16.9376C80.8178 17.2668 80.8635 17.5959 80.955 17.8885C81.0464 18.1811 81.1835 18.4279 81.3664 18.6474C81.5493 18.8576 81.7595 19.0314 82.0155 19.1502C82.2715 19.2691 82.5641 19.3331 82.8932 19.3331C83.3138 19.3331 83.6704 19.2325 83.9446 19.0222C84.2189 18.8211 84.4384 18.5651 84.5847 18.2725L85.7184 18.4645L85.7001 18.4828Z" fill="black"/>
<path d="M87.1813 13.6371H91.4235V14.6428H88.3058V16.3525H91.2041V17.3399H88.3058V19.1776H91.4875V20.1834H87.1813V13.6371Z" fill="black"/>
</svg>
