<svg width="73" height="33" viewBox="0 0 73 33" fill="none" xmlns="http://www.w3.org/2000/svg">
<path d="M45.6309 25.9916C41.4409 28.8076 35.3809 30.3162 30.1609 30.3162C23.1809 30.3528 16.4409 27.9939 11.2609 23.7242C10.8709 23.4042 11.2209 22.9562 11.6909 23.2122C17.4509 26.2202 23.9709 27.8019 30.6009 27.7928C35.5509 27.7745 40.4609 26.8511 45.0209 25.0956C45.7309 24.8213 46.3209 25.5162 45.6309 25.9916Z" fill="#FF9900"/>
<path d="M47.3709 24.1722C46.8409 23.5505 43.8309 23.8796 42.4909 24.0259C42.0809 24.0716 42.0209 23.7425 42.3909 23.5048C44.7809 21.9688 48.7109 22.4076 49.1609 22.9288C49.6209 23.4499 49.0409 27.0431 46.7909 28.7619C46.4409 29.0271 46.1109 28.8808 46.2709 28.5333C46.7709 27.3813 47.9109 24.8031 47.3709 24.1722Z" fill="#FF9900"/>
<path d="M42.5809 12.6431V11.1436C42.5809 10.9425 42.7509 10.7688 42.9709 10.7688H50.3209C50.5409 10.7688 50.7309 10.9242 50.7409 11.1253V12.4236C50.6509 12.7711 50.4609 13.1002 50.1909 13.3653L46.3909 18.3208C47.8409 18.2476 49.2809 18.5311 50.5709 19.1436C50.8009 19.2625 50.9509 19.4819 50.9609 19.7288V21.3288C50.9609 21.5482 50.7009 21.8042 50.4209 21.6671C47.9909 20.5242 45.1109 20.5333 42.6809 21.6762C42.4309 21.8042 42.1609 21.5482 42.1609 21.3288V19.8111C42.1409 19.4545 42.2309 19.0979 42.4309 18.7871L46.8209 13.0179H42.9909C42.7709 13.0179 42.5809 12.8716 42.5709 12.6613V12.6431" fill="#0C0D0E"/>
<path d="M15.8609 21.9779H13.6309C13.4209 21.9688 13.2509 21.8225 13.2309 21.6305V11.1711C13.2309 10.9608 13.4309 10.7871 13.6609 10.7962H15.7409C15.9509 10.7962 16.1309 10.9516 16.1409 11.1436V12.5151H16.1809C16.7209 11.1893 17.7409 10.5768 19.1109 10.5768C20.4809 10.5768 21.3809 11.1893 22.0009 12.5151C22.6509 10.9608 24.5509 10.1836 26.2509 10.7779C26.8009 10.9699 27.2909 11.2991 27.6609 11.7196C28.3709 12.5973 28.2209 13.8773 28.2209 15.0019V21.6031C28.2209 21.8133 28.0209 21.9871 27.7909 21.9779H25.5609C25.3409 21.9688 25.1609 21.8042 25.1609 21.6031V16.0625C25.1909 15.4133 25.1709 14.7551 25.1009 14.1059C24.9309 13.4019 24.4409 13.2099 23.7909 13.2099C23.2009 13.2282 22.6709 13.5665 22.4609 14.0693C22.2809 14.7185 22.2109 15.3951 22.2509 16.0716V21.6122C22.2509 21.8225 22.0509 21.9962 21.8209 21.9871H19.5909C19.3709 21.9779 19.1909 21.8133 19.1909 21.6122V16.0716C19.1909 14.9013 19.4009 13.1916 17.8109 13.1916C16.2209 13.1916 16.2709 14.8648 16.2709 16.0716V21.6122C16.2709 21.8225 16.0809 21.9962 15.8509 21.9871" fill="#0C0D0E"/>
<path d="M57.0509 20.0396C55.3009 20.0396 55.3209 17.3059 55.3209 16.0351C55.3209 14.7642 55.4209 12.7162 57.0709 12.7162C57.7609 12.6705 58.3809 13.1093 58.5309 13.7311C58.7909 14.6362 58.9009 15.5688 58.8609 16.5013C58.8609 17.8453 58.7809 20.0396 57.0509 20.0396ZM57.0509 10.5768C53.8309 10.5768 52.0409 13.1093 52.0409 16.3642C52.0409 19.6191 53.8109 22.1973 57.0509 22.1973C60.2909 22.1973 62.1509 19.6648 62.1509 16.4831C62.1509 13.3013 60.3609 10.5859 57.0509 10.5859" fill="#0C0D0E"/>
<path d="M66.4309 21.9779H64.2109C63.9909 21.9688 63.8109 21.8042 63.8109 21.6031V11.1436C63.8309 10.9425 64.0209 10.7962 64.2409 10.8053H66.3109C66.5009 10.8053 66.6609 10.9333 66.7109 11.0979V12.6979H66.7509C67.3709 11.2716 68.2509 10.5859 69.7909 10.5859C70.8409 10.5402 71.8309 11.0065 72.3909 11.8202C72.9709 12.6613 72.9709 14.0602 72.9709 15.0751V21.6579C72.9409 21.8499 72.7509 21.9871 72.5409 21.9871H70.3009C70.1009 21.9779 69.9309 21.8408 69.9109 21.6579V15.9802C69.9109 14.8373 70.0509 13.1642 68.5209 13.1642C67.9509 13.1825 67.4409 13.5116 67.2309 14.0053C66.9509 14.6362 66.8309 15.3128 66.8709 15.9893V21.6213C66.8709 21.8316 66.6709 22.0053 66.4309 21.9962" fill="#0C0D0E"/>
<path d="M36.3209 19.1436C36.0309 19.6831 35.4409 20.0396 34.7809 20.0671C33.9209 20.0671 33.4209 19.4728 33.4209 18.5859C33.4209 16.8488 35.1209 16.5379 36.7409 16.5379V16.9768C36.7409 17.7722 36.7609 18.4305 36.3209 19.1345M40.7109 20.0488C40.3009 19.5368 39.8709 19.1162 39.8709 18.1653V14.9928C39.8709 13.6488 39.9709 12.4145 38.8909 11.4911C38.0309 10.7413 36.6209 10.4762 35.5309 10.4762C33.4109 10.4762 31.0409 11.1985 30.5409 13.5939C30.5409 13.5939 30.5409 13.6122 30.5409 13.6213C30.5109 13.8133 30.6609 13.9962 30.8809 14.0236L33.0409 14.2339C33.2509 14.2065 33.4109 14.0511 33.4309 13.8591C33.6109 13.1002 34.3709 12.5699 35.2209 12.6339C35.7109 12.6156 36.1709 12.8076 36.4709 13.1642C36.7809 13.5848 36.7409 14.1516 36.7409 14.6362V14.9013C35.4509 15.0385 33.7609 15.1208 32.5509 15.6053C31.0709 16.1448 30.1209 17.4796 30.1709 18.9333C30.1709 21.0545 31.6309 22.1059 33.5109 22.1059C35.0909 22.1059 35.9609 21.7676 37.1809 20.6248C37.5109 21.1459 37.9509 21.6031 38.4609 21.9871C38.6309 22.0693 38.8409 22.0511 38.9909 21.9413C39.4309 21.5848 40.2409 20.9356 40.7009 20.5882C40.8609 20.4419 40.8709 20.1951 40.7009 20.0488" fill="#0C0D0E"/>
<path d="M7.11089 19.1436C6.82089 19.6831 6.23091 20.0396 5.57091 20.0671C4.71091 20.0671 4.22088 19.4728 4.22088 18.5859C4.22088 16.8488 5.92087 16.5379 7.53087 16.5379V16.9768C7.53087 17.7722 7.55089 18.4305 7.11089 19.1345M11.5009 20.0488C11.0909 19.5368 10.6609 19.1162 10.6609 18.1653V14.9928C10.6609 13.6488 10.7609 12.4145 9.6809 11.4911C8.8209 10.7413 7.41091 10.4762 6.32091 10.4762C4.20091 10.4762 1.83086 11.1985 1.33086 13.5939C1.33086 13.5939 1.33086 13.6031 1.33086 13.6122C1.30086 13.8133 1.45089 13.9962 1.67089 14.0236L3.83086 14.2339C4.03086 14.2065 4.19088 14.0511 4.22088 13.8591C4.40088 13.1002 5.16085 12.5699 6.01085 12.6339C6.50085 12.6156 6.96085 12.8076 7.26085 13.1642C7.57085 13.5848 7.53087 14.1516 7.53087 14.6362V14.9013C6.24087 15.0385 4.55087 15.1208 3.34087 15.6053C1.86087 16.1448 0.910867 17.4796 0.960867 18.9333C0.960867 21.0545 2.42089 22.1059 4.30089 22.1059C5.89089 22.1059 6.75088 21.7676 7.97088 20.6248C8.30088 21.1459 8.74091 21.6031 9.25091 21.9871C9.42091 22.0693 9.62086 22.0511 9.77086 21.9413C10.2109 21.5848 11.0209 20.9356 11.4809 20.5882C11.6409 20.4419 11.6509 20.1951 11.4809 20.0488" fill="#0C0D0E"/>
</svg>
