<svg width="83" height="33" viewBox="0 0 83 33" fill="none" xmlns="http://www.w3.org/2000/svg">
<path d="M17.7059 22.7395C17.7059 22.8035 17.6602 22.8584 17.5962 22.8584H16.4076C16.3436 22.8584 16.2887 22.8127 16.2887 22.7487V16.2481C16.2887 16.1841 16.3344 16.1293 16.3984 16.1293H17.587C17.651 16.1293 17.7059 16.175 17.7059 16.239V22.7395ZM22.6247 16.0195C23.6487 15.983 24.627 16.4584 25.2304 17.2904V7.27897C25.2304 7.15097 25.1207 7.04126 24.9927 7.04126C24.947 7.04126 24.8921 7.05955 24.8556 7.08697L12.5036 16.1201H12.8327C13.7836 16.0104 14.6521 16.6961 14.7619 17.6561C14.7619 17.7201 14.771 17.775 14.771 17.839C14.7984 18.4515 14.4602 19.0184 13.9116 19.2744C13.8567 19.2927 13.8293 19.3567 13.8567 19.4024C13.8659 19.4298 13.8842 19.4481 13.9116 19.4573C14.515 19.7315 14.899 20.3441 14.8899 21.0207C14.9356 21.999 14.1767 22.8218 13.1984 22.8675C13.107 22.8675 13.0247 22.8675 12.9424 22.8675H9.43157C9.35843 22.8675 9.29444 22.8127 9.29444 22.7304V18.4698L0.0875725 25.2081C-0.00385608 25.2721 -0.0312874 25.4001 0.0418554 25.5007C0.0784268 25.5555 0.142434 25.5921 0.206434 25.5921H25.0293C25.139 25.5921 25.2304 25.5098 25.2396 25.4001V21.9715C24.5356 22.6298 23.603 22.9955 22.6339 22.9864C20.7139 23.0504 19.0956 21.551 19.0316 19.6218C18.9676 17.7018 20.467 16.0835 22.387 16.0195C22.4693 16.0195 22.5607 16.0195 22.643 16.0195H22.6247Z" fill="#0C0D0E"/>
<path d="M10.8579 18.799H12.5219C12.915 18.8447 13.2624 18.5704 13.3081 18.1773C13.3539 17.7841 13.0796 17.4367 12.6864 17.391C12.6316 17.391 12.5767 17.391 12.5219 17.391H10.7939C10.7939 17.391 10.7299 17.4275 10.7299 17.4641V18.6801C10.7299 18.7533 10.7939 18.799 10.867 18.799" fill="#0C0D0E"/>
<path d="M10.8579 21.615H12.5859C12.9973 21.6698 13.3813 21.3864 13.4361 20.9658C13.4361 20.9201 13.4361 20.8835 13.4361 20.8378C13.4361 20.4173 13.0979 20.0607 12.6773 20.0607C12.6499 20.0607 12.6133 20.0607 12.5859 20.0607H10.8579C10.7847 20.0607 10.7207 20.1155 10.7207 20.1978V21.4687C10.7207 21.5418 10.7847 21.6058 10.8579 21.6058" fill="#0C0D0E"/>
<path d="M24.1516 18.0584C23.7859 17.583 23.2282 17.2995 22.6247 17.2904C21.3996 17.3453 20.4579 18.3784 20.5127 19.5944C20.5584 20.7373 21.4819 21.6607 22.6247 21.7064C23.1276 21.7064 23.6121 21.5327 24.0144 21.2218C24.0327 21.1944 24.051 21.167 24.051 21.1395V20.4904C24.051 20.4355 24.0053 20.3898 23.9504 20.3898H22.4236C22.3504 20.3898 22.2864 20.335 22.2864 20.2527V19.2835C22.2864 19.2104 22.3413 19.1464 22.4236 19.1464H25.2579V17.6195L24.3527 18.1133C24.2796 18.1315 24.2064 18.1041 24.1607 18.0493" fill="#0C0D0E"/>
<path d="M26.3001 19.503C26.2179 17.6653 27.6441 16.111 29.4819 16.0287C29.555 16.0287 29.6373 16.0287 29.7104 16.0287C30.7527 16.0013 31.7219 16.5407 32.2521 17.4367C32.2887 17.4824 32.2704 17.5464 32.2247 17.5738C32.2247 17.5738 32.2064 17.583 32.1973 17.5921L31.4293 18.0035C31.4293 18.0035 31.3379 18.031 31.3013 17.9853C31.3013 17.9853 31.3013 17.9761 31.2921 17.967C30.9539 17.4275 30.3596 17.0893 29.7196 17.0801C28.3756 17.1898 27.3699 18.3601 27.4796 19.7041C27.571 20.9018 28.5219 21.8527 29.7196 21.9441C30.3596 21.935 30.9539 21.5967 31.2921 21.0573C31.3196 21.0115 31.3744 20.9933 31.4201 21.0115C31.4201 21.0115 31.4201 21.0115 31.4293 21.0115L32.1973 21.4047C32.2522 21.4321 32.2796 21.5053 32.2521 21.5601C32.2521 21.5601 32.2521 21.5693 32.2521 21.5784C31.7219 22.4744 30.7527 23.0138 29.7104 22.9955C27.8544 23.023 26.3276 21.5418 26.3001 19.6767C26.3001 19.6127 26.3001 19.5578 26.3001 19.4938" fill="#0C0D0E"/>
<path d="M38.3779 19.503C38.3779 18.1133 37.5184 17.071 36.2201 17.071C34.9218 17.071 34.0624 18.1133 34.0624 19.503C34.0624 20.8927 34.9036 21.935 36.2201 21.935C37.5367 21.935 38.3779 20.8744 38.3779 19.503ZM32.9104 19.503C32.8281 17.9578 33.8247 16.5681 35.3058 16.1475C37.7561 15.4984 40.0053 17.7933 39.4659 20.3441C39.1916 21.9075 37.811 23.0321 36.2293 22.9955C34.4007 23.0138 32.9104 21.5418 32.9013 19.7133C32.9013 19.6401 32.9013 19.567 32.9013 19.4938" fill="#0C0D0E"/>
<path d="M46.5333 22.7761V17.647L44.4944 22.8127C44.4944 22.8127 44.4579 22.8493 44.4396 22.8493H44.0099C44.0099 22.8493 43.955 22.831 43.955 22.8127L41.8979 17.6561V22.7853C41.8979 22.7853 41.8704 22.8675 41.8247 22.8675H40.7824C40.7824 22.8675 40.7002 22.8401 40.7002 22.7944V16.2024C40.7002 16.2024 40.7276 16.1201 40.7733 16.1201H42.2544C42.3184 16.1201 42.3824 16.1658 42.4099 16.2207L44.211 20.847L45.9938 16.2207C46.0121 16.1567 46.0761 16.111 46.1493 16.1201H47.6213C47.6213 16.1201 47.7036 16.1475 47.7036 16.1933V22.7853C47.7036 22.7853 47.6761 22.8675 47.6304 22.8675H46.5882C46.5882 22.8675 46.5241 22.8218 46.515 22.7853" fill="#0C0D0E"/>
<path d="M58.1904 22.7395V16.2481C58.1904 16.1841 58.2362 16.1293 58.3002 16.1293H62.6796C62.7436 16.1293 62.7984 16.175 62.7984 16.239V17.0344C62.7984 17.0984 62.7527 17.1533 62.6887 17.1533H59.4887C59.4247 17.1533 59.3699 17.199 59.3699 17.263V18.7624C59.3699 18.8264 59.4156 18.8813 59.4796 18.8813H62.6064C62.6704 18.8813 62.7253 18.927 62.7253 18.991V19.7864C62.7253 19.8504 62.6796 19.9053 62.6156 19.9053H59.4887C59.4247 19.9053 59.3699 19.951 59.3699 20.015V21.6515C59.3699 21.7155 59.4156 21.7704 59.4796 21.7704H62.6796C62.7436 21.7704 62.7984 21.8161 62.7984 21.8801V22.6755C62.7984 22.7395 62.7527 22.7944 62.6887 22.7944H58.3093C58.2361 22.8493 58.1904 22.7944 58.1904 22.7304" fill="#0C0D0E"/>
<path d="M68.4396 18.2138C68.4396 17.6378 67.9824 17.1533 67.4064 17.1441C67.3699 17.1441 67.3333 17.1441 67.2876 17.1441H65.779C65.715 17.1441 65.6601 17.1898 65.6601 17.2538V19.1647C65.6601 19.2287 65.7058 19.2835 65.7699 19.2835H67.2876C67.8636 19.3384 68.3756 18.9087 68.4304 18.3327C68.4304 18.287 68.4304 18.2504 68.4304 18.2047L68.4396 18.2138ZM68.2841 22.7944L66.867 20.399C66.867 20.399 66.803 20.3441 66.7664 20.3441H65.7699C65.7058 20.3441 65.651 20.3898 65.651 20.4538V22.7395C65.651 22.8035 65.6053 22.8584 65.5413 22.8584H64.6087C64.5447 22.8584 64.4899 22.8127 64.4899 22.7487V16.2481C64.4899 16.1841 64.5356 16.1293 64.5996 16.1293H67.4521C68.5767 16.0378 69.5641 16.8698 69.6556 17.9944C69.6556 18.0767 69.6556 18.159 69.6556 18.2321C69.7104 19.1373 69.0979 19.9601 68.211 20.1704C68.1379 20.1887 68.1013 20.2527 68.1104 20.3258C68.1104 20.335 68.1104 20.3441 68.1196 20.3624C68.3939 20.8104 69.2533 22.1818 69.5733 22.6755C69.6099 22.7304 69.6007 22.8035 69.5459 22.8401C69.5276 22.8584 69.5002 22.8675 69.4727 22.8584H68.3938C68.339 22.8584 68.2933 22.831 68.275 22.7853" fill="#0C0D0E"/>
<path d="M77.6464 22.7395V16.2481C77.6464 16.1841 77.6922 16.1293 77.7561 16.1293H82.1447C82.2087 16.1293 82.2636 16.175 82.2636 16.239V17.0527C82.2636 17.1167 82.2179 17.1715 82.1539 17.1715H78.9447C78.8807 17.1715 78.8259 17.2173 78.8259 17.2813V18.799C78.8259 18.863 78.8716 18.9178 78.9356 18.9178H82.0624C82.1264 18.9178 82.1813 18.9635 82.1813 19.0275V19.8413C82.1813 19.9053 82.1356 19.9601 82.0716 19.9601H78.9447C78.8807 19.9601 78.8259 20.0058 78.8259 20.0698V21.7247C78.8259 21.7887 78.8716 21.8435 78.9356 21.8435H82.1447C82.2087 21.8435 82.2636 21.8893 82.2636 21.9533V22.767C82.2636 22.831 82.2179 22.8858 82.1539 22.8858H77.7561C77.6922 22.8584 77.6464 22.8035 77.6373 22.7395" fill="#0C0D0E"/>
<path d="M70.515 19.4664C70.4327 17.6287 71.859 16.0744 73.6967 15.9921C73.7699 15.9921 73.8522 15.9921 73.9253 15.9921C74.9676 15.9647 75.9367 16.5041 76.467 17.4001C76.5036 17.4458 76.4853 17.5098 76.4396 17.5373C76.4396 17.5373 76.4213 17.5464 76.4122 17.5555L75.6442 17.967C75.6442 17.967 75.5527 17.9944 75.5162 17.9487C75.5162 17.9487 75.5161 17.9395 75.507 17.9304C75.1687 17.391 74.5744 17.0527 73.9344 17.0435C72.5904 17.1533 71.5847 18.3235 71.6945 19.6675C71.7859 20.8653 72.7367 21.8161 73.9344 21.9075C74.5744 21.8984 75.1687 21.5601 75.507 21.0207C75.5344 20.975 75.5893 20.9567 75.635 20.975C75.635 20.975 75.635 20.975 75.6442 20.975L76.4122 21.3681C76.467 21.3955 76.4944 21.4687 76.467 21.5235C76.467 21.5235 76.467 21.5327 76.467 21.5418C75.9367 22.4378 74.9676 22.9773 73.9253 22.959C72.0693 22.9864 70.5424 21.5144 70.515 19.6584C70.515 19.5944 70.515 19.5304 70.515 19.4664Z" fill="#0C0D0E"/>
<path d="M55.283 22.7761V17.647L53.2442 22.8127C53.2442 22.8127 53.2076 22.8493 53.1893 22.8493H52.7596C52.7596 22.8493 52.7047 22.831 52.7047 22.8127L50.6476 17.6561V22.7853C50.6476 22.7853 50.6201 22.8675 50.5744 22.8675H49.5322C49.5322 22.8675 49.4498 22.8401 49.4498 22.7944V16.2024C49.4498 16.2024 49.4773 16.1201 49.523 16.1201H51.0041C51.0681 16.1201 51.1322 16.1658 51.1596 16.2207L52.9607 20.847L54.7436 16.2207C54.7619 16.1567 54.8259 16.111 54.899 16.1201H56.371C56.371 16.1201 56.4533 16.1475 56.4533 16.1933V22.7853C56.4533 22.7853 56.4259 22.8675 56.3801 22.8675H55.3378C55.3378 22.8675 55.2647 22.8218 55.2647 22.7853L55.283 22.7761Z" fill="#0C0D0E"/>
</svg>
