<svg width="54" height="33" viewBox="0 0 54 33" fill="none" xmlns="http://www.w3.org/2000/svg">
<path d="M7.75163 10.3927C4.05749 10.3927 0.970703 11.9652 0.970703 16.6827C0.970703 20.4434 3.04242 22.8064 7.84314 22.8064C13.4925 22.8064 13.8586 19.0873 13.8586 19.0873H11.1047C10.5389 20.4518 9.13279 21.2754 7.66845 21.0924C5.60505 21.2255 3.81619 19.6613 3.67474 17.5979C3.67474 17.5064 3.66642 17.4149 3.67474 17.3234H14.1415V15.9422C14.1415 13.7624 12.7687 10.401 7.75163 10.401M7.66012 12.1732C9.51551 11.9819 11.1795 13.338 11.3625 15.1934C11.3709 15.3182 11.3792 15.4347 11.3792 15.5595H3.74137C3.86617 13.5627 5.58011 12.0401 7.57694 12.1649C7.6019 12.1649 7.62684 12.1649 7.66012 12.1649" fill="#E53238"/>
<path d="M14.1499 5.81665V20.4268C14.1499 21.2588 14.0916 22.4236 14.0916 22.4236H16.7041C16.7041 22.4236 16.7956 21.5833 16.7956 20.8262C17.9604 22.2489 19.7576 23.006 21.5963 22.8479C24.8661 23.006 27.645 20.4767 27.8031 17.2069C27.8114 17.0072 27.8114 16.8075 27.8031 16.6079C27.9612 13.3547 25.4485 10.5924 22.1954 10.4343C21.9957 10.426 21.8043 10.426 21.6047 10.4343C17.9604 10.4343 16.8289 12.3979 16.8289 12.3979V5.81665H14.1499ZM20.9224 12.2398C23.1521 12.1982 24.9993 13.9704 25.0409 16.2085C25.0409 16.3416 25.0409 16.4747 25.0325 16.6079C25.1989 18.8876 23.485 20.8678 21.2053 21.0342C21.1221 21.0342 21.0389 21.0425 20.9473 21.0425C18.6843 21.0591 16.8372 19.2453 16.8123 16.9823C16.8123 16.8658 16.8123 16.7493 16.8206 16.6328C16.6375 14.3947 18.3099 12.4395 20.548 12.2564C20.6728 12.2481 20.7976 12.2398 20.9307 12.2398" fill="#0064D2"/>
<path d="M34.2845 10.3927C28.7267 10.3927 28.3689 13.4379 28.3689 13.9288H31.1395C31.1395 13.9288 31.281 12.1483 34.1015 12.1483C35.9319 12.1483 37.3463 12.9886 37.3463 14.6027V15.1768H34.1015C29.7917 15.1768 27.5203 16.4415 27.5203 18.9957C27.5203 21.55 29.6169 22.8812 32.4707 22.8812C36.3479 22.8812 37.5959 20.743 37.5959 20.743C37.5959 21.5916 37.6624 22.4319 37.6624 22.4319H40.1253C40.1253 22.4319 40.0254 21.3836 40.0254 20.7263V14.9605C40.0254 11.1915 36.9803 10.3927 34.3012 10.3927M37.3546 16.8824V17.6479C37.3546 18.6463 36.7389 21.1174 33.1197 21.1174C31.1395 21.1174 30.2908 20.1273 30.2908 18.9791C30.2908 16.8907 33.1529 16.8824 37.3546 16.8824Z" fill="#F5AF02"/>
<path d="M41.6395 10.8753L46.1074 19.8277L50.567 10.8753H53.3875L45.2587 26.8167H42.2968L44.643 22.3737L38.5194 10.8753H41.6395Z" fill="#86B817"/>
</svg>
