<svg width="81" height="80" viewBox="0 0 81 80" fill="none" xmlns="http://www.w3.org/2000/svg">
<g clip-path="url(#clip0_3250_4399)">
<g clip-path="url(#clip1_3250_4399)">
<path d="M39.7679 78.0359C61.3169 78.0359 78.7859 60.5669 78.7859 39.0179C78.7859 17.4689 61.3169 0 39.7679 0C18.2189 0 0.75 17.4689 0.75 39.0179C0.75 60.5669 18.2189 78.0359 39.7679 78.0359Z" fill="#F4AEBA"/>
</g>
<g clip-path="url(#clip2_3250_4399)">
<path d="M47.9746 25.15C43.5366 21.3908 39.0962 17.6303 34.4421 14.1657C33.7301 13.6352 32.994 13.1036 32.1475 12.8677C31.301 12.6318 30.3115 12.7491 29.6895 13.3894C28.9859 14.1133 28.9355 15.3189 29.3053 16.2737C29.6763 17.2285 30.3872 17.9885 31.0848 18.7187C35.2862 23.1157 39.6174 27.3778 44.0709 31.4965" fill="#F5A12D"/>
<path d="M35.6285 27.6468C33.4708 26.9092 32.0503 26.4224 30.6574 25.9407C29.2538 25.4552 28.2463 25.1045 27.2629 25.5925C27.1152 25.6661 26.2087 26.1154 26.0201 27.054C25.8785 27.7604 26.2207 28.3607 26.3347 28.5542C26.9339 29.5701 28.0458 29.8447 29.56 30.2516C30.5818 30.5261 32.1668 30.9617 34.2285 31.572" fill="#F5A12D"/>
<path d="M34.0769 30.6617C31.8363 30.2698 30.4098 30.2211 28.9617 29.9627C27.504 29.7031 26.4101 29.3012 25.5084 29.9378C25.3727 30.0339 24.4325 30.7016 24.3821 31.6589C24.3437 32.3803 24.6643 32.7547 24.8047 32.9282C25.5444 33.8393 26.7139 34.1775 28.2701 34.3422C29.3196 34.4533 31.2696 34.8053 33.3961 35.0873" fill="#F5A12D"/>
<path d="M33.8976 35.0731C31.645 34.7623 30.1644 34.5564 28.7079 34.3504C27.2418 34.1432 26.19 33.991 25.3098 34.6587C25.1777 34.7598 24.366 35.3751 24.348 36.3336C24.3336 37.055 24.7779 37.5792 24.9244 37.7477C25.694 38.6313 26.8348 38.6888 28.3957 38.7973C29.4488 38.871 31.083 38.9945 33.2179 39.2005" fill="#F5A12D"/>
<path d="M31.045 66.9305C31.5985 65.2656 32.3742 62.8618 32.5651 62.1529C33.3768 59.1337 31.5289 57.319 30.3929 53.2428C29.6281 50.497 30.0952 46.0788 31.0293 37.2424C31.5481 32.3362 31.9779 31.0532 33.0694 29.8239C34.9018 27.7608 38.0105 27.3764 40.5909 28.2076C43.1713 29.0376 45.3303 30.8722 47.3319 32.7581C48.2925 33.6642 49.2627 34.6352 49.7346 35.8908C50.2534 37.2749 50.1825 38.498 50.1537 38.9723C49.5581 48.8096 50.9906 53.3926 48.0152 62.5722C46.1192 68.422 43.4319 74.3528 43.4319 74.3528C43.4319 74.3528 30.7039 72.7416 30.1828 70.0494C30.0988 69.6126 30.2224 69.4017 31.045 66.9305Z" fill="#F5A12D"/>
<path d="M28.4543 29.8934C27.0915 29.5402 25.6902 29.5265 24.9902 30.4563C24.8509 30.641 24.3634 31.1939 24.4138 31.9315C24.4858 32.9862 25.5977 33.9859 27.2224 34.2168" stroke="#1D1D1B" stroke-width="0.574109" stroke-miterlimit="10" stroke-linecap="round" stroke-linejoin="round"/>
<path d="M30.3395 34.6064C28.0232 34.4591 26.0408 33.568 24.9745 34.9845C24.8352 35.1693 24.3477 35.7222 24.3982 36.4598C24.4234 36.818 24.5675 37.1712 24.8124 37.4894" stroke="#1D1D1B" stroke-width="0.574109" stroke-miterlimit="10" stroke-linecap="round" stroke-linejoin="round"/>
<path d="M34.5685 12.186C34.1206 12.1149 33.1408 11.9464 32.2883 12.5006C31.1992 13.2082 30.9158 14.681 30.845 15.3562C29.0811 32.1853 29.2612 33.301 28.3606 42.2797C28.0917 44.9594 27.304 47.6989 28.6416 48.7373C29.1183 49.1067 30.199 49.5136 36.5233 50.2375C37.9474 50.401 38.6811 50.4834 39.7402 50.5707C43.5934 50.8877 45.5206 51.045 46.2878 50.5532C47.7167 49.6372 47.7624 47.7139 48.3051 41.9715C48.3327 41.6757 48.8286 36.4549 49.2525 33.0801C49.8877 28.0329 50.1314 22.9395 50.6622 17.8785C50.7246 17.282 50.8867 15.7655 50.0174 14.6335C49.417 13.851 48.5933 13.5003 48.125 13.4441C42.3602 12.7539 39.0569 12.8987 34.5685 12.186Z" fill="#1B4F67"/>
<path d="M49.1665 16.83C50.0226 18.8045 46.1983 43.9695 45.7432 45.6182C45.6327 46.0189 45.2689 47.1197 44.9891 47.418C44.4091 48.037 43.4966 47.9334 43.0607 47.9035C38.9121 47.6226 32.4749 46.6154 31.3978 46.5668C30.5837 46.5306 30.041 46.5281 29.7084 46.1274C29.4502 45.8242 29.5787 45.0391 29.6771 44.0594C29.6771 44.0594 31.7881 19.6632 32.1387 16.4918C32.1795 16.1261 32.2984 15.044 33.0476 14.5248C33.4943 14.2153 33.9878 14.2278 34.1956 14.2328C34.4141 14.2378 34.5234 14.2415 46.8791 15.3635C47.1877 15.391 48.0606 15.4571 48.6958 16.1124C48.6958 16.1124 48.9828 16.4094 49.1665 16.83Z" fill="#8DCAA4"/>
<path d="M47.9545 31.4499C47.9545 31.4499 47.2196 44.1466 46.7646 45.7953C46.6541 46.1959 45.1087 47.2705 44.8289 47.5688C44.249 48.1879 43.3364 48.0843 42.9005 48.0543C38.7519 47.7735 32.3147 46.7663 31.2377 46.7176C30.4235 46.6814 29.8808 46.679 29.5482 46.2783C29.29 45.975 29.4185 45.19 29.517 44.2103L30.9423 29.5952L47.9545 31.4499Z" fill="white"/>
<path d="M47.9096 62.6245C48.8066 59.895 52.8363 52.2118 52.9876 49.3325C53.1005 47.1733 52.045 33.1648 52.2311 30.3691C52.284 29.5741 52.1075 28.6805 51.6212 28.0639C50.8899 27.1354 49.3637 27.3962 48.5652 28.2636C47.7667 29.131 47.6587 30.333 47.4005 31.5024C47.3057 34.4154 46.7101 37.0276 46.2502 39.7946C45.6306 41.7916 45.25 43.283 43.7959 45.9215C42.0812 47.4266 40.3029 49.6033 39.7181 52.1581C39.1334 54.7129 38.844 57.4911 40.0219 59.8138C41.1998 62.1365 43.743 63.8139 46.2322 63.3659" fill="#F5A12D"/>
<path d="M52.1568 29.3624C52.1256 29.1215 52.0019 28.3901 51.4123 27.9021C50.7051 27.3168 49.7901 27.464 49.4791 27.5551C47.8185 28.0444 47.2745 31.6164 47.098 33.9827C46.6526 39.9398 45.501 42.8117 43.7972 45.9219C42.5448 47.4707 40.0953 49.2243 39.7891 52.3994C39.8143 53.5451 39.9284 54.4625 40.0016 54.9754" stroke="#1D1D1B" stroke-width="0.574109" stroke-miterlimit="10" stroke-linecap="round" stroke-linejoin="round"/>
<path d="M26.1713 92.2025C26.2481 84.9836 20.8219 74.0517 26.4378 73.3278C26.5507 67.8038 26.6804 64.1881 26.8305 63.7825C27.5041 61.9665 48.4068 61.315 51.046 62.5781C51.6608 62.8714 52.1663 66.3311 52.5878 71.6279C57.8759 70.9053 53.3839 84.8089 53.6721 92.9027" fill="#E53339"/>
<path d="M26.6074 73.2526C31.067 72.1543 35.6659 71.6638 40.2467 71.7961C42.6615 71.866 45.0894 72.1068 47.4825 71.7686" stroke="#B61C1A" stroke-width="0.574109" stroke-miterlimit="10" stroke-linecap="round" stroke-linejoin="round"/>
<path d="M28.4668 72.7346C28.5881 70.7277 28.7094 68.7208 28.8294 66.7126" stroke="#B61C1A" stroke-width="0.574109" stroke-miterlimit="10" stroke-linecap="round" stroke-linejoin="round"/>
<path d="M31.1602 63.0034C31.0149 64.9916 30.9777 66.9897 31.0485 68.9829" stroke="#B61C1A" stroke-width="0.574109" stroke-miterlimit="10" stroke-linecap="round" stroke-linejoin="round"/>
<path d="M44.752 71.9572C44.7964 70.8227 44.8396 69.6894 44.884 68.5549" stroke="#B61C1A" stroke-width="0.574109" stroke-miterlimit="10" stroke-linecap="round" stroke-linejoin="round"/>
<path d="M46.5332 71.8337C46.8154 69.5485 46.8466 67.2308 46.6233 64.9394" stroke="#B61C1A" stroke-width="0.574109" stroke-miterlimit="10" stroke-linecap="round" stroke-linejoin="round"/>
<path d="M44.0352 62.3478C44.1108 63.2477 44.2177 64.145 44.3558 65.0374" stroke="#B61C1A" stroke-width="0.574109" stroke-miterlimit="10" stroke-linecap="round" stroke-linejoin="round"/>
<path d="M50.2761 71.4913C50.21 70.5877 50.2353 69.6766 50.3517 68.778" stroke="#B61C1A" stroke-width="0.574109" stroke-miterlimit="10" stroke-linecap="round" stroke-linejoin="round"/>
<path d="M41.1569 14.8465L41.0416 15.9935C41.0104 16.3005 41.4126 16.595 41.9386 16.6524L44.1083 16.8871C44.6343 16.9445 45.0365 17.239 45.0053 17.5461L44.9152 18.4459C44.884 18.753 44.4325 18.9551 43.9066 18.8977L36.8558 18.1327C36.3299 18.0752 35.8784 18.2787 35.8472 18.5845L35.6574 20.3031C35.6574 20.9358 36.4055 20.9046 36.9314 20.9621L44.6799 21.8432C45.2058 21.9006 45.5768 22.0079 45.5768 22.5022L45.3739 24.6988C45.3427 25.0058 44.8912 25.208 44.3653 25.1506L41.7477 24.8673C41.2217 24.8099 40.7702 25.0133 40.739 25.3191L40.5169 27.5269C40.4857 27.8365 40.027 28.0399 39.4962 27.9775L35.7535 27.6181C35.2456 27.5694 34.8746 27.0976 34.9298 26.5697L35.1279 24.6751C35.182 24.1559 34.8229 23.6891 34.3234 23.6292L31.498 23.3247" stroke="white" stroke-width="1.72233" stroke-miterlimit="10"/>
<path d="M42.6646 4.75573C40.1478 4.52109 37.924 6.45187 37.6971 9.06784C37.4701 11.6838 41.3617 19.84 41.3617 19.84C41.3617 19.84 46.5874 12.535 46.8131 9.91778C47.0401 7.30056 45.1813 4.99037 42.6646 4.75573ZM42.0246 12.1656C40.6053 12.0333 39.557 10.729 39.6843 9.25381C39.8116 7.77858 41.0664 6.68901 42.4856 6.8213C43.9049 6.9536 44.9532 8.25784 44.8259 9.73307C44.6986 11.2083 43.445 12.2979 42.0246 12.1656Z" fill="#D40918"/>
<path d="M43.2012 2.6377C43.2012 2.6377 47.8325 2.6377 48.2323 7.11955" stroke="#1D1D1B" stroke-width="0.574109" stroke-miterlimit="10" stroke-linecap="round" stroke-linejoin="round"/>
<path d="M45.3574 0.977783C45.3574 0.977783 49.9887 0.977783 50.3886 5.45963" stroke="#1D1D1B" stroke-width="0.574109" stroke-miterlimit="10" stroke-linecap="round" stroke-linejoin="round"/>
<path d="M33.0056 46.9204L32.918 46.9104L34.2736 34.019L34.3613 34.029L33.0056 46.9204Z" fill="#62A531"/>
<path d="M34.2783 33.9067C34.5076 33.9067 34.7215 34.1046 34.7217 34.3842C34.7217 34.6641 34.5078 34.8627 34.2783 34.8627C34.0489 34.8627 33.835 34.664 33.835 34.3842C33.8352 34.1046 34.049 33.9067 34.2783 33.9067Z" fill="white" stroke="#62A531" stroke-width="0.861163"/>
<path d="M33.7823 39.9003C34.1205 39.9003 34.3947 39.6153 34.3947 39.2637C34.3947 38.9122 34.1205 38.6272 33.7823 38.6272C33.4441 38.6272 33.1699 38.9122 33.1699 39.2637C33.1699 39.6153 33.4441 39.9003 33.7823 39.9003Z" fill="#62A531"/>
<path d="M33.3389 44.2359C33.6772 44.2359 33.9513 43.9509 33.9513 43.5994C33.9513 43.2479 33.6772 42.9629 33.3389 42.9629C33.0007 42.9629 32.7266 43.2479 32.7266 43.5994C32.7266 43.9509 33.0007 44.2359 33.3389 44.2359Z" fill="#62A531"/>
<path d="M34.1741 32.1218L34.084 32.1118L33.9844 31.338L34.0792 31.348L34.1501 31.9545L34.3698 31.3792L34.4587 31.3892L34.5607 32.0032L34.7529 31.4216L34.8477 31.4316L34.5944 32.1667L34.5031 32.1567L34.3974 31.5527L34.1741 32.1218Z" fill="black"/>
<path d="M35.2218 32.153C35.1786 32.2154 35.1197 32.2341 35.0285 32.2241C34.888 32.2092 34.8135 32.1043 34.8279 31.9521L34.8351 31.8797C34.8508 31.7249 34.9312 31.6425 35.0681 31.6575C35.2074 31.6725 35.2674 31.7686 35.2518 31.9258L35.2458 31.9833L34.9132 31.9471L34.912 31.962C34.9024 32.0556 34.9384 32.1355 35.0297 32.1455C35.0981 32.153 35.1353 32.1355 35.1605 32.0981L35.2218 32.153ZM34.9216 31.8709L35.169 31.8984C35.1738 31.806 35.1413 31.7474 35.0609 31.7386C34.9792 31.7286 34.936 31.7811 34.9216 31.8709Z" fill="black"/>
<path d="M35.7479 31.5326L35.8319 31.5413L35.7551 32.2964L35.671 32.2877L35.6758 32.239C35.6434 32.274 35.5966 32.2877 35.5269 32.2802C35.3841 32.264 35.3276 32.1516 35.342 32.0094L35.3492 31.937C35.3648 31.781 35.4537 31.7011 35.5846 31.7148C35.6542 31.7223 35.6974 31.751 35.7215 31.7934L35.7479 31.5326ZM35.695 32.0568L35.7035 31.9769C35.7143 31.8746 35.6722 31.8059 35.5858 31.7959C35.4993 31.786 35.4453 31.8434 35.4345 31.947L35.4273 32.0193C35.4177 32.1117 35.4549 32.1928 35.545 32.2028C35.6374 32.2128 35.6854 32.1466 35.695 32.0568Z" fill="black"/>
<path d="M35.9478 31.7648L36.0319 31.7736L36.0259 31.8272C36.0559 31.7885 36.0955 31.7723 36.1736 31.7798C36.2864 31.7923 36.3585 31.8622 36.3429 32.0157L36.308 32.3564L36.224 32.3477L36.2588 32.0082C36.2696 31.8984 36.2144 31.8672 36.1531 31.8609C36.0739 31.8522 36.0187 31.9046 36.0115 31.9807L35.9766 32.3215L35.8926 32.3127L35.9478 31.7648Z" fill="black"/>
<path d="M36.8351 32.3314C36.7918 32.3938 36.733 32.4125 36.6417 32.4025C36.5013 32.3876 36.4268 32.2827 36.4412 32.1305L36.4484 32.0581C36.464 31.9033 36.5445 31.8209 36.6814 31.8359C36.8207 31.8509 36.8807 31.947 36.8651 32.1042L36.8591 32.1617L36.5265 32.1255L36.5253 32.1404C36.5157 32.234 36.5517 32.3139 36.6429 32.3239C36.7114 32.3314 36.7486 32.3139 36.7738 32.2765L36.8351 32.3314ZM36.5361 32.0481L36.7834 32.0755C36.7882 31.9832 36.7558 31.9245 36.6754 31.9158C36.5937 31.907 36.5505 31.9582 36.5361 32.0481Z" fill="black"/>
<path d="M37.2968 32.0431C37.2728 32.002 37.2452 31.9807 37.1719 31.9733C37.1095 31.967 37.0675 31.987 37.0627 32.0357C37.0567 32.0981 37.1071 32.1218 37.1756 32.1355C37.274 32.1542 37.3617 32.1929 37.3485 32.319C37.3389 32.4138 37.2704 32.4725 37.1347 32.4575C37.0279 32.4463 36.975 32.4051 36.9414 32.3439L37.0086 32.3052C37.0327 32.3477 37.0687 32.3689 37.1455 32.3764C37.2164 32.3839 37.2608 32.3602 37.2656 32.3115C37.2716 32.2528 37.2404 32.2279 37.1383 32.2091C37.0507 32.1929 36.9666 32.1455 36.9798 32.0269C36.9894 31.9358 37.0591 31.8784 37.184 31.8921C37.2692 31.9021 37.3316 31.9321 37.3665 32.0045L37.2968 32.0431Z" fill="black"/>
<path d="M37.8533 31.7648L37.9374 31.7736L37.8606 32.5287L37.7765 32.5199L37.7813 32.4712C37.7489 32.5062 37.7021 32.5199 37.6324 32.5124C37.4895 32.4962 37.4331 32.3839 37.4475 32.2416L37.4547 32.1692C37.4703 32.0132 37.5592 31.9333 37.69 31.9471C37.7597 31.9545 37.8029 31.9832 37.8269 32.0257L37.8533 31.7648ZM37.8005 32.2878L37.8089 32.2079C37.8197 32.1056 37.7777 32.0369 37.6912 32.0269C37.6048 32.0169 37.5508 32.0744 37.5399 32.1779L37.5327 32.2503C37.5231 32.3427 37.5604 32.4238 37.6504 32.4338C37.7429 32.445 37.7909 32.3789 37.8005 32.2878Z" fill="black"/>
<path d="M38.1993 32.2465L38.3242 32.2603L38.3302 32.1966C38.3386 32.1192 38.305 32.098 38.2234 32.088C38.1597 32.0806 38.1261 32.0831 38.0913 32.1305L38.0324 32.0781C38.0757 32.0181 38.1321 31.9969 38.2318 32.0082C38.3651 32.0231 38.4275 32.0756 38.4143 32.2066L38.3759 32.586L38.2918 32.5773L38.2978 32.5236C38.263 32.571 38.2258 32.5785 38.1573 32.571C38.0348 32.5573 37.9748 32.4874 37.9856 32.3813C37.9988 32.2628 38.0841 32.2328 38.1993 32.2465ZM38.317 32.3339L38.1921 32.3202C38.1093 32.3114 38.0769 32.3377 38.0709 32.3926C38.0649 32.4537 38.1045 32.4824 38.1669 32.4899C38.245 32.4987 38.3026 32.4899 38.3146 32.3664L38.317 32.3339Z" fill="black"/>
<path d="M38.658 32.6211L38.508 32.0457L38.598 32.0557L38.7121 32.4975L38.8934 32.0881L38.9823 32.0981L38.7397 32.6423C38.6833 32.7684 38.6484 32.8245 38.502 32.8083L38.5104 32.7234C38.58 32.7309 38.6136 32.7222 38.6557 32.6286L38.658 32.6211Z" fill="black"/>
<path d="M39.6665 32.7271L39.2402 32.6796L39.2486 32.601L39.5368 32.3152C39.5921 32.2603 39.6305 32.2128 39.6365 32.1554C39.6449 32.0768 39.5909 32.0306 39.5308 32.0244C39.466 32.0169 39.4095 32.0518 39.3999 32.1292L39.3111 32.1192C39.3243 31.9944 39.4264 31.927 39.5404 31.9395C39.6557 31.952 39.7409 32.0406 39.7277 32.1692C39.7181 32.259 39.6485 32.3239 39.5957 32.3764L39.3699 32.606L39.6773 32.6397L39.6665 32.7271Z" fill="black"/>
<path d="M39.9205 32.3888L39.8377 32.3801L39.8773 31.9869L40.2459 32.0269L40.2363 32.1205L39.9553 32.0893L39.9349 32.2877C39.9614 32.2628 39.9998 32.2453 40.0562 32.2515C40.1907 32.2665 40.2411 32.3801 40.2243 32.5498C40.2087 32.6983 40.1259 32.7857 39.9866 32.7707C39.8737 32.7583 39.7993 32.6671 39.8029 32.5623L39.8917 32.5723C39.8989 32.6372 39.9373 32.6796 39.9962 32.6859C40.0706 32.6946 40.1223 32.6547 40.1343 32.5411C40.1463 32.4225 40.1175 32.3551 40.031 32.3451C39.9794 32.3389 39.9433 32.3614 39.9205 32.3888Z" fill="black"/>
<path d="M40.8299 32.8643C40.669 32.8469 40.5766 32.7345 40.6018 32.4912L40.6102 32.4075C40.6354 32.1642 40.7471 32.0743 40.908 32.0918C41.0689 32.1092 41.1601 32.2216 41.1361 32.4649L41.1277 32.5486C41.1037 32.7919 40.9908 32.8818 40.8299 32.8643ZM40.693 32.5011C40.6738 32.6884 40.7279 32.767 40.8395 32.7795C40.9512 32.7919 41.0196 32.7258 41.0388 32.5398L41.0473 32.4562C41.0665 32.269 41.0124 32.1904 40.9008 32.1779C40.7891 32.1654 40.7206 32.2316 40.7014 32.4175L40.693 32.5011Z" fill="black"/>
<path d="M41.6076 32.8568C41.568 32.9167 41.5019 32.9379 41.4167 32.9292C41.2726 32.913 41.1993 32.8081 41.215 32.6571L41.2222 32.5847C41.2378 32.4299 41.3326 32.3488 41.4743 32.365C41.5536 32.3738 41.616 32.41 41.6472 32.4699L41.5764 32.5111C41.5572 32.4736 41.5151 32.4487 41.4659 32.4437C41.3759 32.4337 41.3158 32.4911 41.3062 32.5947L41.299 32.6671C41.2894 32.7607 41.3242 32.8406 41.4251 32.8518C41.4743 32.8568 41.5211 32.8443 41.5476 32.8031L41.6076 32.8568Z" fill="black"/>
<path d="M41.6912 32.3975L41.7585 32.405L41.7705 32.2852L41.8545 32.294L41.8425 32.4138L41.9638 32.4275L41.9554 32.5061L41.8341 32.4924L41.8053 32.7707C41.7981 32.8456 41.8029 32.8793 41.8738 32.8868L41.9158 32.8918L41.9074 32.9754L41.8618 32.9704C41.7381 32.9567 41.7069 32.898 41.7189 32.7844L41.7489 32.4849L41.6816 32.4774L41.6912 32.3975Z" fill="black"/>
<path d="M42.449 32.792C42.4346 32.9343 42.3565 33.0316 42.2052 33.0154C42.066 33.0004 41.9963 32.8956 42.0119 32.7446L42.0191 32.6722C42.0347 32.5174 42.1248 32.4363 42.2629 32.4513C42.4022 32.4663 42.473 32.5636 42.4562 32.7209L42.449 32.792ZM42.3649 32.7833L42.3721 32.7109C42.383 32.6073 42.3409 32.5399 42.2545 32.5299C42.168 32.5199 42.1128 32.5786 42.1032 32.6809L42.096 32.7533C42.0864 32.8469 42.1164 32.9256 42.2136 32.9368C42.3025 32.9468 42.3553 32.8756 42.3649 32.7833Z" fill="black"/>
<path d="M42.6704 32.5598C42.7028 32.5224 42.7508 32.5049 42.8205 32.5124C42.9514 32.5274 43.0222 32.6247 43.0054 32.7807L42.9982 32.8531C42.9838 32.9954 42.9057 33.0927 42.7629 33.0765C42.692 33.069 42.65 33.0453 42.626 33.0041L42.6212 33.0528L42.5371 33.0441L42.614 32.289L42.698 32.2977L42.6704 32.5598ZM42.9141 32.8431L42.9214 32.7707C42.9322 32.6671 42.8901 32.5997 42.8037 32.5898C42.7196 32.581 42.6632 32.6347 42.6524 32.7333L42.644 32.8132C42.6344 32.9068 42.6644 32.9854 42.7616 32.9966C42.8517 33.0066 42.9045 32.9367 42.9141 32.8431Z" fill="black"/>
<path d="M43.4757 33.0629C43.4325 33.1253 43.3736 33.144 43.2824 33.134C43.1419 33.119 43.0674 33.0142 43.0818 32.8619L43.089 32.7895C43.1047 32.6348 43.1839 32.5524 43.322 32.5674C43.4613 32.5824 43.5213 32.6785 43.5057 32.8357L43.4997 32.8931L43.1671 32.8569L43.1659 32.8719C43.1563 32.9655 43.1923 33.0454 43.2836 33.0554C43.352 33.0629 43.3892 33.0454 43.4144 33.008L43.4757 33.0629ZM43.1755 32.7796L43.4229 32.807C43.4277 32.7147 43.3952 32.656 43.3148 32.6473C43.2343 32.6373 43.1899 32.6897 43.1755 32.7796Z" fill="black"/>
<path d="M43.9286 32.7634C43.9094 32.7297 43.8842 32.7122 43.8446 32.7072C43.7809 32.6997 43.7269 32.7446 43.7185 32.827L43.6837 33.169L43.5996 33.1602L43.6548 32.6136L43.7389 32.6223L43.7329 32.676C43.7593 32.6398 43.7965 32.6198 43.8614 32.6273C43.9334 32.6348 43.9754 32.6648 44.0043 32.7184L43.9286 32.7634Z" fill="black"/>
<path d="M36.4454 35.0228L36.2977 35.0066L36.3578 34.4113L36.2461 34.4712L36.2617 34.3239L36.389 34.254L36.5211 34.269L36.4454 35.0228Z" fill="black"/>
<path d="M37.0157 35.0851L36.868 35.0689L36.9281 34.4735L36.8164 34.5334L36.832 34.3862L36.9593 34.3163L37.0914 34.3313L37.0157 35.0851Z" fill="black"/>
<path d="M37.4474 34.7319L37.3045 34.7157L37.3201 34.5659L37.463 34.5821L37.4474 34.7319ZM37.4066 35.1288L37.2637 35.1126L37.2793 34.9641L37.4222 34.9803L37.4066 35.1288Z" fill="black"/>
<path d="M37.8419 35.1763L37.6942 35.1601L37.7542 34.5647L37.6426 34.6246L37.6582 34.4774L37.7855 34.4075L37.9175 34.4224L37.8419 35.1763Z" fill="black"/>
<path d="M38.5784 35.0242C38.5615 35.1939 38.4403 35.2525 38.3094 35.2376C38.1785 35.2226 38.0728 35.139 38.0897 34.9705L38.1197 34.6772C38.1377 34.5 38.2578 34.4488 38.3886 34.4638C38.5195 34.4787 38.6264 34.5536 38.6084 34.7296L38.5784 35.0242ZM38.3754 34.5936C38.3094 34.5861 38.2734 34.626 38.265 34.7071L38.2373 34.9742C38.2289 35.0554 38.2566 35.1028 38.3226 35.1103C38.3874 35.1178 38.4235 35.0766 38.4319 34.9967L38.4595 34.7296C38.4679 34.6472 38.4403 34.5998 38.3754 34.5936Z" fill="black"/>
<path d="M39.114 34.9852L39.2185 34.9965L39.2221 34.9652C39.2281 34.9041 39.2125 34.8829 39.1368 34.8741C39.0852 34.8679 39.0588 34.8729 39.0336 34.9066L38.9459 34.8267C38.9915 34.7643 39.0528 34.7468 39.1609 34.7581C39.2965 34.773 39.3686 34.823 39.353 34.979L39.317 35.3372L39.1849 35.3222L39.1897 35.2735C39.1645 35.3085 39.1308 35.3259 39.0696 35.3185C38.9603 35.306 38.8907 35.2373 38.9015 35.1263C38.9147 35.0139 39.0048 34.9727 39.114 34.9852ZM39.2077 35.0988L39.1188 35.0888C39.0636 35.0826 39.0384 35.0988 39.0336 35.1412C39.0288 35.1824 39.0576 35.2061 39.1044 35.2111C39.1657 35.2174 39.1981 35.1936 39.2053 35.12L39.2077 35.0988Z" fill="black"/>
<path d="M39.8549 35.3983L39.7216 35.3833L39.754 35.0626C39.7624 34.9752 39.7336 34.9428 39.6856 34.9378C39.6376 34.9328 39.5991 34.9652 39.5907 35.0439L39.5583 35.3659L39.4238 35.3509L39.4791 34.8042L39.6111 34.8192L39.6063 34.8654C39.6292 34.8392 39.67 34.8155 39.7288 34.823C39.7925 34.8304 39.8405 34.8604 39.8681 34.9128C39.9065 34.8741 39.9606 34.8492 40.0266 34.8567C40.1419 34.8691 40.2007 34.949 40.1863 35.0913L40.1515 35.4333L40.017 35.4183L40.0494 35.0975C40.0578 35.0152 40.0338 34.979 39.9798 34.9727C39.9317 34.9677 39.8933 35.0014 39.8861 35.0788L39.8549 35.3983Z" fill="black"/>
<path d="M35.5547 39.3894L35.5799 39.1423L36.0242 39.1909L36.0134 39.2983L35.7384 39.9223L35.5859 39.9061L35.8597 39.3045L35.6928 39.2858L35.6808 39.4031L35.5547 39.3894Z" fill="black"/>
<path d="M36.2482 39.5779L36.1053 39.5616L36.1209 39.4119L36.2638 39.4281L36.2482 39.5779ZM36.2073 39.9748L36.0645 39.9585L36.0801 39.81L36.223 39.8262L36.2073 39.9748Z" fill="black"/>
<path d="M36.7575 39.2719L36.4789 39.7637L36.6182 39.7786L36.6374 39.5864L36.7851 39.6027L36.7659 39.7949L36.8319 39.8024L36.8187 39.9322L36.7527 39.9247L36.7419 40.032L36.5942 40.0158L36.605 39.9084L36.2832 39.8735L36.294 39.7674L36.5978 39.2532L36.7575 39.2719Z" fill="black"/>
<path d="M37.1338 39.6279C37.1566 39.6192 37.1794 39.6179 37.2058 39.6217C37.3175 39.6342 37.3956 39.739 37.3811 39.8688C37.3643 40.036 37.2479 40.0997 37.1134 40.0847C36.9777 40.0697 36.8756 39.9836 36.8924 39.8164C36.8984 39.7577 36.9309 39.6903 36.9801 39.6079L37.1578 39.3171L37.3151 39.3346L37.1338 39.6279ZM37.1266 39.9549C37.1902 39.9624 37.2263 39.9212 37.2335 39.8588C37.2395 39.7964 37.2118 39.749 37.1482 39.7427C37.0834 39.7352 37.0461 39.7752 37.0401 39.8376C37.0329 39.9012 37.0617 39.9487 37.1266 39.9549Z" fill="black"/>
<path d="M37.9168 39.8314L38.0212 39.8426L38.0248 39.8114C38.0308 39.7503 38.0152 39.7291 37.9396 39.7203C37.8879 39.7141 37.8615 39.7191 37.8363 39.7528L37.7487 39.6729C37.7943 39.6105 37.8555 39.593 37.9636 39.6043C38.0993 39.6192 38.1713 39.6692 38.1557 39.8252L38.1197 40.1834L37.9876 40.1684L37.9924 40.1197C37.9672 40.1547 37.9336 40.1721 37.8723 40.1646C37.7631 40.1522 37.6934 40.0835 37.7042 39.9724C37.7162 39.8601 37.8063 39.8189 37.9168 39.8314ZM38.0104 39.945L37.9216 39.935C37.8663 39.9288 37.8411 39.945 37.8363 39.9874C37.8315 40.0286 37.8603 40.0523 37.9072 40.0573C37.9684 40.0636 38.0008 40.0398 38.008 39.9662L38.0104 39.945Z" fill="black"/>
<path d="M38.6576 40.2445L38.5244 40.2296L38.5568 39.9088C38.5652 39.8214 38.5364 39.789 38.4883 39.784C38.4403 39.779 38.4019 39.8115 38.3935 39.8901L38.361 40.2121L38.2266 40.1971L38.2818 39.6505L38.4139 39.6654L38.4091 39.7116C38.4319 39.6854 38.4727 39.6617 38.5316 39.6692C38.5952 39.6767 38.6432 39.7066 38.6708 39.759C38.7093 39.7203 38.7633 39.6954 38.8293 39.7029C38.9434 39.7153 39.0035 39.7952 38.989 39.9375L38.9542 40.2795L38.8197 40.2645L38.8522 39.9438C38.8606 39.8614 38.8365 39.8252 38.7825 39.8189C38.7345 39.814 38.6973 39.8476 38.6889 39.925L38.6576 40.2445Z" fill="black"/>
<path d="M35.5026 44.1907L35.0547 44.1408L35.0643 44.0422L35.3381 43.7713C35.3885 43.7214 35.4161 43.6777 35.4209 43.629C35.4269 43.5679 35.3873 43.5329 35.3393 43.5267C35.29 43.5217 35.2492 43.5492 35.2396 43.6091L35.1087 43.5941C35.1219 43.4643 35.2336 43.3869 35.3597 43.4006C35.4906 43.4156 35.5794 43.5205 35.5662 43.644C35.5566 43.7439 35.4846 43.8138 35.4329 43.8662L35.2648 44.0322L35.5158 44.0596L35.5026 44.1907Z" fill="black"/>
<path d="M35.8165 43.8239L35.6736 43.8076L35.6892 43.6579L35.8321 43.6741L35.8165 43.8239ZM35.7757 44.2208L35.6328 44.2045L35.6484 44.056L35.7913 44.0722L35.7757 44.2208Z" fill="black"/>
<path d="M36.0705 43.9172L35.9384 43.9023L35.9816 43.4804L36.3947 43.5253L36.3803 43.6639L36.1113 43.6339L36.0981 43.7625C36.1197 43.745 36.1545 43.7288 36.2098 43.735C36.3214 43.7475 36.3899 43.8448 36.3719 44.0246C36.3539 44.203 36.2674 44.2829 36.1173 44.2667C35.9948 44.253 35.9 44.1706 35.9024 44.0358L36.0477 44.052C36.0549 44.1019 36.0789 44.1319 36.1257 44.1369C36.1786 44.1431 36.2146 44.1044 36.223 44.0158C36.2326 43.9235 36.2122 43.8736 36.1533 43.8673C36.1149 43.8661 36.0897 43.8848 36.0705 43.9172Z" fill="black"/>
<path d="M36.6477 43.8574L36.7017 43.8637C36.7617 43.8699 36.8062 43.8425 36.8122 43.7788C36.817 43.7289 36.7845 43.6877 36.7305 43.6815C36.6789 43.6752 36.6429 43.7064 36.632 43.7526L36.5012 43.7376C36.5192 43.6141 36.6248 43.5417 36.7509 43.5554C36.883 43.5704 36.9707 43.6752 36.9587 43.7888C36.9502 43.8737 36.8938 43.9211 36.8434 43.9436C36.9022 43.9822 36.943 44.0459 36.9346 44.1358C36.9226 44.2581 36.8302 44.3479 36.6801 44.3317C36.5264 44.3142 36.4483 44.2156 36.4555 44.0921L36.5852 44.1058C36.5876 44.1545 36.6188 44.1932 36.6837 44.2007C36.7425 44.2069 36.7833 44.167 36.7881 44.112C36.7954 44.0459 36.7617 44.0022 36.6873 43.9935L36.6333 43.9872L36.6477 43.8574Z" fill="black"/>
<path d="M37.4832 44.0772L37.5876 44.0884L37.5912 44.0572C37.5972 43.996 37.5816 43.9748 37.506 43.9661C37.4543 43.9598 37.4279 43.9648 37.4027 43.9985L37.3151 43.9187C37.3607 43.8563 37.4219 43.8388 37.53 43.85C37.6657 43.865 37.7377 43.9149 37.7221 44.0709L37.6861 44.4291L37.554 44.4141L37.5588 44.3655C37.5336 44.4004 37.5 44.4179 37.4387 44.4104C37.3295 44.3979 37.2598 44.3293 37.2706 44.2182C37.2838 44.1059 37.3727 44.0647 37.4832 44.0772ZM37.5768 44.1907L37.488 44.1808C37.4327 44.1745 37.4075 44.1907 37.4027 44.2332C37.3979 44.2744 37.4267 44.2981 37.4736 44.3031C37.5348 44.3093 37.5672 44.2856 37.5744 44.212L37.5768 44.1907Z" fill="black"/>
<path d="M38.224 44.4903L38.0908 44.4753L38.1232 44.1546C38.1316 44.0672 38.1028 44.0347 38.0547 44.0298C38.0067 44.0248 37.9683 44.0572 37.9599 44.1358L37.9275 44.4578L37.793 44.4429L37.8482 43.8962L37.9803 43.9112L37.9755 43.9574C37.9983 43.9312 38.0391 43.9074 38.098 43.9149C38.1616 43.9224 38.2096 43.9524 38.2372 44.0048C38.2757 43.9661 38.3297 43.9411 38.3957 43.9486C38.5098 43.9611 38.5699 44.041 38.5554 44.1833L38.5206 44.5252L38.3861 44.5103L38.4186 44.1895C38.427 44.1071 38.403 44.0709 38.3489 44.0647C38.3009 44.0597 38.2637 44.0934 38.2553 44.1708L38.224 44.4903Z" fill="black"/>
<path d="M36.0156 36.3442L36.0925 35.5891L36.3242 35.6141C36.4851 35.6315 36.5776 35.7376 36.5524 35.981L36.544 36.0596C36.5187 36.303 36.4071 36.3866 36.2462 36.3692L36.0156 36.3442ZM36.4539 36.0509L36.4623 35.9723C36.4815 35.7851 36.4275 35.7127 36.3158 35.7002L36.1753 35.6852L36.1153 36.2693L36.2558 36.2843C36.3674 36.2968 36.4347 36.2381 36.4539 36.0509Z" fill="#666666"/>
<path d="M37.0226 36.3717C36.9793 36.4341 36.9205 36.4528 36.8292 36.4428C36.6888 36.4278 36.6143 36.323 36.6287 36.1707L36.6359 36.0983C36.6515 35.9436 36.7308 35.8612 36.8689 35.8762C37.0082 35.8912 37.0682 35.9873 37.0526 36.1445L37.0466 36.2019L36.714 36.1657L36.7128 36.1807C36.7032 36.2743 36.7392 36.3542 36.8304 36.3642C36.8989 36.3717 36.9361 36.3542 36.9613 36.3168L37.0226 36.3717ZM36.7224 36.0884L36.9697 36.1158C36.9745 36.0235 36.9421 35.9648 36.8617 35.9561C36.78 35.9473 36.7368 35.9985 36.7224 36.0884Z" fill="#666666"/>
<path d="M37.2224 35.7139L37.3064 35.7227L37.2488 36.2868C37.2428 36.3455 37.2404 36.3966 37.3268 36.4054L37.3184 36.4865C37.1863 36.4715 37.1503 36.4129 37.1623 36.2993L37.2224 35.7139Z" fill="#666666"/>
<path d="M37.5213 35.7475L37.6161 35.7575L37.6065 35.8561L37.5117 35.8461L37.5213 35.7475ZM37.5044 35.956L37.5885 35.9647L37.5333 36.5114L37.4492 36.5026L37.5044 35.956Z" fill="#666666"/>
<path d="M38.1927 36.0309L37.9261 36.5551L37.8421 36.5464L37.6836 35.976L37.7785 35.986L37.8937 36.439L38.0979 36.0209L38.1927 36.0309Z" fill="#666666"/>
<path d="M38.6085 36.5466C38.5653 36.609 38.5064 36.6277 38.4152 36.6177C38.2747 36.6027 38.2002 36.4979 38.2147 36.3456L38.2219 36.2732C38.2375 36.1185 38.3179 36.0361 38.4548 36.0511C38.5941 36.0661 38.6541 36.1622 38.6385 36.3194L38.6325 36.3768L38.2999 36.3406L38.2987 36.3556C38.2891 36.4492 38.3251 36.5291 38.4164 36.5391C38.4848 36.5466 38.522 36.5291 38.5473 36.4917L38.6085 36.5466ZM38.3083 36.2633L38.5557 36.2907C38.5605 36.1984 38.5281 36.1397 38.4476 36.131C38.3672 36.121 38.3227 36.1734 38.3083 36.2633Z" fill="#666666"/>
<path d="M39.0595 36.2457C39.0403 36.212 39.015 36.1945 38.9754 36.1895C38.9118 36.182 38.8577 36.2269 38.8493 36.3093L38.8145 36.6513L38.7305 36.6425L38.7857 36.0959L38.8698 36.1046L38.8638 36.1583C38.8902 36.1221 38.9274 36.1021 38.9922 36.1096C39.0643 36.1171 39.1063 36.1471 39.1351 36.2007L39.0595 36.2457Z" fill="#666666"/>
<path d="M39.5362 36.6486C39.493 36.711 39.4342 36.7297 39.3429 36.7197C39.2024 36.7047 39.128 36.5999 39.1424 36.4476L39.1496 36.3752C39.1652 36.2205 39.2457 36.1381 39.3825 36.1531C39.5218 36.1681 39.5819 36.2642 39.5663 36.4214L39.5602 36.4788L39.2276 36.4426L39.2264 36.4576C39.2168 36.5512 39.2529 36.6311 39.3441 36.6411C39.4126 36.6486 39.4498 36.6311 39.475 36.5936L39.5362 36.6486ZM39.2361 36.3652L39.4834 36.3927C39.4882 36.3003 39.4558 36.2417 39.3753 36.233C39.2949 36.223 39.2505 36.2754 39.2361 36.3652Z" fill="#666666"/>
<path d="M40.0623 36.0273L40.1464 36.036L40.0695 36.7911L39.9855 36.7823L39.9903 36.7337C39.9579 36.7686 39.911 36.7823 39.8414 36.7749C39.6985 36.7586 39.6421 36.6463 39.6565 36.504L39.6637 36.4316C39.6793 36.2756 39.7681 36.1957 39.899 36.2095C39.9687 36.217 40.0119 36.2457 40.0359 36.2881L40.0623 36.0273ZM40.0095 36.5514L40.0179 36.4716C40.0287 36.3692 39.9867 36.3006 39.9002 36.2906C39.8138 36.2806 39.7597 36.338 39.7489 36.4416L39.7417 36.514C39.7321 36.6064 39.7693 36.6875 39.8594 36.6975C39.9519 36.7075 39.9999 36.6413 40.0095 36.5514Z" fill="#666666"/>
<path d="M35.7166 41.5278C35.5557 41.5103 35.4633 41.3979 35.4885 41.1546L35.4969 41.071C35.5221 40.8276 35.6338 40.7377 35.7947 40.7552C35.9556 40.7727 36.0468 40.885 36.0228 41.1284L36.0144 41.212C35.9892 41.4566 35.8775 41.5452 35.7166 41.5278ZM35.5785 41.1646C35.5593 41.3518 35.6134 41.4304 35.725 41.4429C35.8367 41.4554 35.9052 41.3892 35.9244 41.2033L35.9328 41.1196C35.952 40.9324 35.8979 40.8538 35.7863 40.8413C35.6746 40.8288 35.6062 40.895 35.587 41.0809L35.5785 41.1646Z" fill="#666666"/>
<path d="M36.5183 41.6077L36.4342 41.599L36.4402 41.5453C36.4102 41.584 36.3706 41.6002 36.2925 41.5927C36.1796 41.5802 36.1076 41.5104 36.1232 41.3568L36.158 41.0161L36.2421 41.0249L36.2073 41.3643C36.1965 41.4742 36.2517 41.5054 36.3129 41.5116C36.3922 41.5203 36.4474 41.4679 36.4546 41.3918L36.4894 41.0511L36.5735 41.0598L36.5183 41.6077Z" fill="#666666"/>
<path d="M36.6639 41.0711L36.7311 41.0786L36.7432 40.9587L36.8272 40.9675L36.8152 41.0873L36.9365 41.101L36.9281 41.1796L36.8068 41.1659L36.778 41.4442C36.7708 41.5191 36.7756 41.5528 36.8464 41.5603L36.8884 41.5653L36.88 41.6489L36.8344 41.6439C36.7107 41.6302 36.6795 41.5715 36.6915 41.458L36.7215 41.1584L36.6543 41.1509L36.6639 41.0711Z" fill="#666666"/>
<path d="M37.3268 41.1432L37.3304 41.1032C37.3425 40.9897 37.3833 40.9385 37.507 40.9522L37.531 40.9547L37.5226 41.0383L37.501 41.0358C37.4301 41.0284 37.4193 41.0583 37.4109 41.1344L37.4097 41.1519L37.5094 41.1631L37.501 41.2418L37.4013 41.2305L37.3533 41.6986L37.2692 41.6898L37.3172 41.2218L37.25 41.2143L37.2584 41.1357L37.3268 41.1432Z" fill="#666666"/>
<path d="M37.9842 41.5278C37.9697 41.6701 37.8917 41.7675 37.7404 41.7512C37.6011 41.7362 37.5315 41.6314 37.5471 41.4804L37.5543 41.408C37.5699 41.2532 37.66 41.1721 37.798 41.1871C37.9373 41.2021 38.0082 41.2994 37.9914 41.4567L37.9842 41.5278ZM37.9001 41.5191L37.9073 41.4467C37.9181 41.3431 37.8761 41.2757 37.7896 41.2657C37.7032 41.2557 37.6479 41.3144 37.6383 41.4167L37.6311 41.4891C37.6215 41.5827 37.6515 41.6614 37.7488 41.6726C37.8377 41.6826 37.8905 41.6114 37.9001 41.5191Z" fill="#666666"/>
<path d="M38.4013 41.3804C38.3821 41.3468 38.3568 41.3293 38.3172 41.3243C38.2536 41.3168 38.1995 41.3617 38.1911 41.4441L38.1563 41.7861L38.0723 41.7773L38.1275 41.2307L38.2115 41.2394L38.2055 41.2931C38.232 41.2569 38.2692 41.2369 38.334 41.2444C38.4061 41.2519 38.4481 41.2819 38.4769 41.3355L38.4013 41.3804Z" fill="#666666"/>
<path d="M39.1541 41.1346L39.2382 41.1433L39.1613 41.8984L39.0773 41.8896L39.0821 41.841C39.0497 41.8759 39.0028 41.8896 38.9332 41.8822C38.7903 41.8659 38.7339 41.7536 38.7483 41.6113L38.7555 41.5389C38.7711 41.3829 38.8599 41.303 38.9908 41.3168C39.0605 41.3243 39.1037 41.353 39.1277 41.3954L39.1541 41.1346ZM39.1013 41.6587L39.1097 41.5789C39.1205 41.4765 39.0785 41.4079 38.992 41.3979C38.9056 41.3879 38.8515 41.4453 38.8407 41.5489L38.8335 41.6213C38.8239 41.7137 38.8611 41.7948 38.9512 41.8048C39.0437 41.8148 39.0917 41.7486 39.1013 41.6587Z" fill="#666666"/>
<path d="M39.6886 41.8723C39.6453 41.9347 39.5865 41.9534 39.4953 41.9434C39.3548 41.9284 39.2803 41.8236 39.2947 41.6713L39.3019 41.5989C39.3175 41.4442 39.3968 41.3618 39.5349 41.3768C39.6742 41.3917 39.7342 41.4879 39.7186 41.6451L39.7126 41.7025L39.38 41.6663L39.3788 41.6813C39.3692 41.7749 39.4052 41.8548 39.4965 41.8648C39.5649 41.8723 39.6021 41.8548 39.6273 41.8173L39.6886 41.8723ZM39.3884 41.5889L39.6357 41.6164C39.6405 41.524 39.6081 41.4654 39.5277 41.4566C39.446 41.4479 39.4028 41.4991 39.3884 41.5889Z" fill="#666666"/>
<path d="M39.8884 41.2159L39.9724 41.2246L39.9148 41.7887C39.9088 41.8474 39.9064 41.8986 39.9928 41.9073L39.9844 41.9884C39.8524 41.9735 39.8163 41.9148 39.8283 41.8012L39.8884 41.2159Z" fill="#666666"/>
<path d="M40.188 41.2481L40.2829 41.2581L40.2733 41.3567L40.1784 41.3467L40.188 41.2481ZM40.1724 41.4565L40.2565 41.4652L40.2012 42.0119L40.1172 42.0032L40.1724 41.4565Z" fill="#666666"/>
<path d="M40.8587 41.5326L40.5922 42.0568L40.5081 42.0481L40.3496 41.4777L40.4445 41.4877L40.5597 41.9408L40.7639 41.5227L40.8587 41.5326Z" fill="#666666"/>
<path d="M41.2745 42.0469C41.2313 42.1093 41.1725 42.128 41.0812 42.118C40.9407 42.103 40.8663 41.9982 40.8807 41.8459L40.8879 41.7735C40.9035 41.6188 40.9827 41.5364 41.1208 41.5514C41.2601 41.5664 41.3201 41.6625 41.3045 41.8197L41.2985 41.8771L40.9659 41.8409L40.9647 41.8559C40.9551 41.9495 40.9911 42.0294 41.0824 42.0394C41.1508 42.0469 41.1881 42.0294 41.2133 41.992L41.2745 42.0469ZM40.9743 41.7636L41.2217 41.791C41.2265 41.6987 41.1941 41.64 41.1136 41.6313C41.032 41.6225 40.9887 41.6737 40.9743 41.7636Z" fill="#666666"/>
<path d="M41.7255 41.7474C41.7063 41.7137 41.6811 41.6962 41.6414 41.6912C41.5778 41.6837 41.5238 41.7286 41.5154 41.811L41.4805 42.153L41.3965 42.1443L41.4517 41.5976L41.5358 41.6063L41.5298 41.66C41.5562 41.6238 41.5934 41.6038 41.6582 41.6113C41.7303 41.6188 41.7723 41.6488 41.8011 41.7024L41.7255 41.7474Z" fill="#666666"/>
<path d="M41.9549 42.2117L41.8048 41.6364L41.8949 41.6464L42.009 42.0882L42.1903 41.6788L42.2791 41.6888L42.0366 42.233C41.9801 42.359 41.9453 42.4152 41.7988 42.399L41.8072 42.3141C41.8769 42.3216 41.9105 42.3128 41.9525 42.2192L41.9549 42.2117Z" fill="#666666"/>
<path d="M35.1604 45.7512L35.0703 45.7412L35.1472 44.9861L35.2372 44.9961L35.1604 45.7512Z" fill="#666666"/>
<path d="M35.3377 45.2181L35.405 45.2256L35.417 45.1058L35.501 45.1145L35.489 45.2343L35.6103 45.2481L35.6019 45.3267L35.4806 45.313L35.4518 45.5913C35.4446 45.6662 35.4494 45.6999 35.5202 45.7073L35.5623 45.7123L35.5539 45.796L35.5082 45.791C35.3846 45.7772 35.3533 45.7186 35.3653 45.605L35.3954 45.3055L35.3281 45.298L35.3377 45.2181Z" fill="#666666"/>
<path d="M36.0519 45.765C36.0086 45.8274 35.9498 45.8461 35.8585 45.8361C35.7181 45.8211 35.6436 45.7163 35.658 45.564L35.6652 45.4916C35.6808 45.3369 35.7613 45.2545 35.8982 45.2695C36.0375 45.2844 36.0975 45.3805 36.0819 45.5378L36.0759 45.5952L35.7433 45.559L35.7421 45.574C35.7325 45.6676 35.7685 45.7475 35.8597 45.7575C35.9282 45.765 35.9654 45.7475 35.9906 45.71L36.0519 45.765ZM35.7517 45.4829L35.999 45.5103C36.0038 45.418 35.9714 45.3593 35.891 45.3506C35.8105 45.3406 35.7661 45.3918 35.7517 45.4829Z" fill="#666666"/>
<path d="M36.2298 45.3155L36.3139 45.3242L36.3079 45.3779C36.3343 45.3429 36.3775 45.323 36.4447 45.3304C36.5156 45.3379 36.566 45.3741 36.59 45.434C36.6321 45.3804 36.6921 45.3579 36.7569 45.3654C36.8698 45.3779 36.9311 45.4577 36.9166 45.6L36.8818 45.9407L36.7978 45.932L36.8326 45.5925C36.8422 45.4927 36.799 45.4528 36.7365 45.4465C36.6693 45.439 36.6129 45.4889 36.6056 45.5663L36.5708 45.9071L36.4868 45.8983L36.5216 45.5588C36.5312 45.459 36.488 45.4191 36.4255 45.4128C36.3571 45.4053 36.3019 45.4577 36.2947 45.5326L36.2598 45.8734L36.1758 45.8646L36.2298 45.3155Z" fill="#666666"/>
<path d="M37.6103 45.5877C37.591 45.554 37.5658 45.5365 37.5262 45.5315C37.4626 45.524 37.4085 45.5689 37.4001 45.6513L37.3653 45.9933L37.2812 45.9846L37.3365 45.4379L37.4205 45.4466L37.4145 45.5003C37.4409 45.4641 37.4782 45.4441 37.543 45.4516C37.6151 45.4591 37.6571 45.4891 37.6859 45.5427L37.6103 45.5877Z" fill="#666666"/>
<path d="M38.087 45.9897C38.0438 46.0521 37.985 46.0708 37.8937 46.0608C37.7532 46.0458 37.6788 45.941 37.6932 45.7887L37.7004 45.7163C37.716 45.5616 37.7964 45.4792 37.9333 45.4942C38.0726 45.5091 38.1326 45.6052 38.117 45.7625L38.111 45.8199L37.7784 45.7837L37.7772 45.7987C37.7676 45.8923 37.8036 45.9722 37.8949 45.9822C37.9633 45.9897 38.0006 45.9722 38.0258 45.9347L38.087 45.9897ZM37.7868 45.7063L38.0342 45.7338C38.039 45.6414 38.0066 45.5828 37.9261 45.574C37.8445 45.5653 37.8012 45.6165 37.7868 45.7063Z" fill="#666666"/>
<path d="M38.5998 46.0457C38.5602 46.1056 38.4941 46.1268 38.4089 46.1181C38.2648 46.1019 38.1915 45.997 38.2071 45.846L38.2144 45.7736C38.23 45.6189 38.3248 45.5377 38.4665 45.554C38.5458 45.5627 38.6082 45.5989 38.6394 45.6588L38.5686 45.7C38.5494 45.6625 38.5073 45.6376 38.4581 45.6326C38.368 45.6226 38.308 45.68 38.2984 45.7836L38.2912 45.856C38.2816 45.9496 38.3164 46.0295 38.4173 46.0407C38.4665 46.0457 38.5133 46.0332 38.5398 45.992L38.5998 46.0457Z" fill="#666666"/>
<path d="M39.0694 46.0968C39.0262 46.1592 38.9674 46.178 38.8761 46.168C38.7356 46.153 38.6612 46.0482 38.6756 45.8959L38.6828 45.8235C38.6984 45.6687 38.7777 45.5864 38.9157 45.6013C39.055 45.6163 39.1151 45.7124 39.0995 45.8697L39.0935 45.9271L38.7608 45.8909L38.7596 45.9059C38.75 45.9995 38.7861 46.0794 38.8773 46.0893C38.9458 46.0968 38.983 46.0794 39.0082 46.0419L39.0694 46.0968ZM38.7693 45.8148L39.0166 45.8422C39.0214 45.7499 38.989 45.6912 38.9085 45.6825C38.8269 45.6725 38.7837 45.7237 38.7693 45.8148Z" fill="#666666"/>
<path d="M39.2779 45.4419L39.3727 45.4519L39.3631 45.5505L39.2683 45.5405L39.2779 45.4419ZM39.2623 45.6503L39.3463 45.6591L39.2911 46.2057L39.207 46.197L39.2623 45.6503Z" fill="#666666"/>
<path d="M39.9505 45.7262L39.684 46.2504L39.5999 46.2417L39.4414 45.6713L39.5363 45.6813L39.6515 46.1343L39.8557 45.7162L39.9505 45.7262Z" fill="#666666"/>
<path d="M40.3663 46.2405C40.3231 46.3029 40.2642 46.3216 40.173 46.3116C40.0325 46.2966 39.9581 46.1918 39.9725 46.0395L39.9797 45.9671C39.9953 45.8124 40.0745 45.73 40.2126 45.745C40.3519 45.7599 40.4119 45.856 40.3963 46.0133L40.3903 46.0707L40.0577 46.0345L40.0565 46.0495C40.0469 46.1431 40.0829 46.223 40.1742 46.233C40.2426 46.2405 40.2799 46.223 40.3051 46.1855L40.3663 46.2405ZM40.0661 45.9571L40.3135 45.9846C40.3183 45.8922 40.2859 45.8336 40.2054 45.8248C40.1238 45.8161 40.0805 45.8673 40.0661 45.9571Z" fill="#666666"/>
<path d="M40.8905 45.6191L40.9745 45.6279L40.8977 46.383L40.8136 46.3742L40.8184 46.3256C40.786 46.3605 40.7392 46.3742 40.6695 46.3667C40.5266 46.3505 40.4702 46.2382 40.4846 46.0959L40.4918 46.0235C40.5074 45.8675 40.5963 45.7876 40.7272 45.8014C40.7968 45.8088 40.84 45.8376 40.864 45.88L40.8905 45.6191ZM40.8364 46.1433L40.8448 46.0635C40.8556 45.9611 40.8136 45.8925 40.7272 45.8825C40.6407 45.8725 40.5867 45.9299 40.5759 46.0335L40.5687 46.1059C40.5591 46.1982 40.5963 46.2794 40.6863 46.2894C40.78 46.2993 40.828 46.2344 40.8364 46.1433Z" fill="#666666"/>
</g>
</g>
<defs>
<clipPath id="clip0_3250_4399">
<rect width="80" height="80" fill="white" transform="translate(0.75)"/>
</clipPath>
<clipPath id="clip1_3250_4399">
<rect x="0.75" width="78.0359" height="78.0359" rx="39.0179" fill="white"/>
</clipPath>
<clipPath id="clip2_3250_4399">
<rect width="64" height="84" fill="white" transform="translate(0.75)"/>
</clipPath>
</defs>
</svg>
