<svg width="81" height="80" viewBox="0 0 81 80" fill="none" xmlns="http://www.w3.org/2000/svg">
<g clip-path="url(#clip0_3250_4563)">
<g clip-path="url(#clip1_3250_4563)">
<path d="M39.2679 78.0359C60.8169 78.0359 78.2859 60.5669 78.2859 39.0179C78.2859 17.4689 60.8169 0 39.2679 0C17.7189 0 0.25 17.4689 0.25 39.0179C0.25 60.5669 17.7189 78.0359 39.2679 78.0359Z" fill="#F4AEBA"/>
</g>
<rect x="6.25" y="20" width="66" height="37.7143" rx="18.8571" fill="#FAE427"/>
<path d="M16.9034 31.7005H26.3006V34.6831H20.2129V37.7678H25.892V40.7504H20.2129V46.0005H16.9034V31.7005ZM27.9357 31.7005H33.1041C34.2072 31.7005 35.1674 31.898 35.9845 32.293C36.8017 32.6879 37.435 33.2327 37.8844 33.9273C38.3474 34.6218 38.579 35.4185 38.579 36.3174C38.579 37.2844 38.3066 38.1424 37.7618 38.8914C37.2307 39.6268 36.5021 40.158 35.576 40.4848L39.3757 46.0005H35.5964L31.2451 39.4634V46.0005H27.9357V31.7005ZM35.1878 36.5625C35.1878 35.9905 34.9835 35.5343 34.575 35.1938C34.18 34.8534 33.6421 34.6831 32.9611 34.6831H31.2451V38.4624H33.145C33.7442 38.4624 34.2345 38.2854 34.6158 37.9313C34.9972 37.5772 35.1878 37.1209 35.1878 36.5625ZM40.6038 31.7005H50.1031V34.6831H43.9132V37.3593H49.6945V40.301H43.9132V43.018H50.3074V46.0005H40.6038V31.7005ZM52.1547 31.7005H61.654V34.6831H55.4641V37.3593H61.2454V40.301H55.4641V43.018H61.8583V46.0005H52.1547V31.7005Z" fill="black"/>
</g>
<defs>
<clipPath id="clip0_3250_4563">
<rect width="80" height="80" fill="white" transform="translate(0.25)"/>
</clipPath>
<clipPath id="clip1_3250_4563">
<rect x="0.25" width="78.0359" height="78.0359" rx="39.0179" fill="white"/>
</clipPath>
</defs>
</svg>
