<svg width="81" height="80" viewBox="0 0 81 80" fill="none" xmlns="http://www.w3.org/2000/svg">
<g clip-path="url(#clip0_3250_3664)">
<path d="M39.7679 78.5866C61.3169 78.5866 78.7859 61.1177 78.7859 39.5687C78.7859 18.0197 61.3169 0.550781 39.7679 0.550781C18.2189 0.550781 0.75 18.0197 0.75 39.5687C0.75 61.1177 18.2189 78.5866 39.7679 78.5866Z" fill="#F4AEBA"/>
<path d="M25.253 43.1602C25.253 43.1602 17.7367 50.1363 19.2894 70.2677L26.3914 69.7663L32.3672 44.582L25.253 43.1602Z" fill="#B3B3B3"/>
<path d="M55.9306 43.1602C55.9306 43.1602 63.4469 50.1363 61.8942 70.2677L54.7921 69.7663L48.8164 44.582L55.9306 43.1602Z" fill="#B3B3B3"/>
<path d="M57.2268 76.1698H24.3252C21.1884 76.1698 18.7952 73.3648 19.2869 70.2667L23.429 44.1887C23.8214 41.7107 25.9578 39.8867 28.4673 39.8867H53.2398C55.7589 39.8867 57.9026 41.7276 58.2829 44.2177L62.2724 70.2958C62.7447 73.3842 60.354 76.1698 57.2292 76.1698H57.2268Z" fill="#4D4D4D"/>
<path d="M54.8772 57.3887H26.2194C24.8642 57.3887 23.7656 58.4872 23.7656 59.8424V59.8448C23.7656 61.2 24.8642 62.2986 26.2194 62.2986H54.8772C56.2323 62.2986 57.3309 61.2 57.3309 59.8448V59.8424C57.3309 58.4872 56.2323 57.3887 54.8772 57.3887Z" fill="#B3B3B3"/>
<path d="M41.1882 69.9095C42.1313 69.9095 42.8959 69.145 42.8959 68.2018C42.8959 67.2587 42.1313 66.4941 41.1882 66.4941C40.245 66.4941 39.4805 67.2587 39.4805 68.2018C39.4805 69.145 40.245 69.9095 41.1882 69.9095Z" fill="#333333"/>
<path d="M35.36 69.9095C36.3032 69.9095 37.0677 69.145 37.0677 68.2018C37.0677 67.2587 36.3032 66.4941 35.36 66.4941C34.4169 66.4941 33.6523 67.2587 33.6523 68.2018C33.6523 69.145 34.4169 69.9095 35.36 69.9095Z" fill="#333333"/>
<path d="M47.1725 69.9095C48.1157 69.9095 48.8802 69.145 48.8802 68.2018C48.8802 67.2587 48.1157 66.4941 47.1725 66.4941C46.2294 66.4941 45.4648 67.2587 45.4648 68.2018C45.4648 69.145 46.2294 69.9095 47.1725 69.9095Z" fill="#333333"/>
<path d="M54.6879 58.4551H26.609C26.2425 58.4551 25.9453 58.7522 25.9453 59.1188C25.9453 59.4853 26.2425 59.7825 26.609 59.7825H54.6879C55.0544 59.7825 55.3516 59.4853 55.3516 59.1188C55.3516 58.7522 55.0544 58.4551 54.6879 58.4551Z" fill="#161415"/>
<path d="M20.8438 70.4792L24.2591 45.2949" stroke="#1D1D1B" stroke-width="0.484453" stroke-linecap="round" stroke-linejoin="round"/>
<path d="M60.7552 70.4792L57.3398 45.2949" stroke="#1D1D1B" stroke-width="0.484453" stroke-linecap="round" stroke-linejoin="round"/>
<path d="M27.6719 62.2969H54.1375" stroke="#1D1D1B" stroke-width="0.484453" stroke-linecap="round" stroke-linejoin="round"/>
<path d="M24.3281 76.1699H57.2297" stroke="#1D1D1B" stroke-width="0.484453" stroke-linecap="round" stroke-linejoin="round"/>
<path d="M53.354 58.883C53.3492 59.0671 27.1016 59.2415 27.1016 58.883C27.1016 40.4666 33.3994 26.2285 33.3994 26.2285H59.6519C59.6519 26.2285 53.7731 40.2534 53.354 58.883Z" fill="#F2F2F2"/>
<g style="mix-blend-mode:multiply" opacity="0.42">
<path d="M53.2749 58.989C53.2701 59.1707 27.0781 59.3451 27.0781 58.989C27.0781 50.4384 28.4394 42.7913 29.8928 37.0554C31.5642 30.4645 55.765 35.4567 54.0621 48.675C53.6479 51.8894 53.3573 55.3508 53.2749 58.9866V58.989Z" fill="#CCCCCC"/>
</g>
<path d="M41.2134 68.9717C41.6549 68.9717 42.0128 68.6139 42.0128 68.1724C42.0128 67.7309 41.6549 67.373 41.2134 67.373C40.7719 67.373 40.4141 67.7309 40.4141 68.1724C40.4141 68.6139 40.7719 68.9717 41.2134 68.9717Z" fill="#068B38"/>
<path d="M31.2305 39.959H51.1512" stroke="#1D1D1B" stroke-width="0.484453" stroke-linecap="round" stroke-linejoin="round"/>
<path d="M35.4848 30.8213C35.2935 30.7752 35.3419 30.3513 35.0876 30.4167C35.0682 30.5015 35.153 30.8285 34.9931 30.8213C34.7993 30.8528 34.9374 29.9759 34.8986 29.896C35.1651 29.5302 35.9402 30.0704 35.4146 30.3804C35.463 30.5064 35.7125 30.7752 35.4848 30.8213ZM35.3831 30.0825C35.3952 29.9468 35.1772 29.9832 35.0876 29.9783V30.2423C35.2111 30.2472 35.4218 30.2617 35.3831 30.0825Z" fill="#B3B3B3"/>
<path d="M35.9901 30.8186C35.571 30.8356 35.571 30.0677 35.9901 30.0822C36.4091 30.0677 36.4091 30.8331 35.9901 30.8186ZM36.1015 30.3802C36.0506 30.0968 35.8108 30.3342 35.8811 30.5255C35.9319 30.8089 36.1717 30.5715 36.1015 30.3802Z" fill="#B3B3B3"/>
<path d="M36.799 30.707C36.7942 31.0679 36.145 31.1696 36.426 30.8814C36.8644 30.8281 36.128 30.162 36.4623 30.082C36.6125 30.1402 36.581 30.3727 36.6755 30.5495C36.9007 29.6945 37.0848 30.1935 36.799 30.707Z" fill="#B3B3B3"/>
<path d="M37.5848 30.8181C37.5412 30.8181 37.4952 30.7987 37.471 30.76C36.9817 31.0458 36.8412 30.261 37.4274 30.3821C37.5219 30.0842 36.8509 30.4015 37.161 30.1132C37.5461 29.9606 37.6624 30.2828 37.6139 30.6098C37.6357 30.697 37.7496 30.806 37.5848 30.8181ZM37.4274 30.5178C37.3523 30.5153 37.1949 30.5081 37.2167 30.6074C37.2385 30.7648 37.4831 30.6776 37.4274 30.5178Z" fill="#B3B3B3"/>
<path d="M37.9639 30.8174C37.7145 30.8223 37.7387 29.863 37.8985 29.8073C38.0851 29.7807 37.9567 30.5267 37.993 30.6067C38.0172 30.6939 38.1359 30.8029 37.9664 30.815L37.9639 30.8174Z" fill="#B3B3B3"/>
<path d="M39.4425 30.8211C39.273 30.8381 39.3844 30.2858 39.3529 30.2083C39.1518 30.7557 39.0065 30.7557 38.8055 30.2083C38.774 30.2858 38.8854 30.8381 38.7183 30.8211C38.5414 30.855 38.6674 29.9491 38.6311 29.8764C38.774 29.5107 39.0138 30.3246 39.0792 30.3875C39.6339 28.9269 39.6339 30.4965 39.4401 30.8211H39.4425Z" fill="#B3B3B3"/>
<path d="M40.2411 30.8181C40.1975 30.8181 40.1515 30.7987 40.1273 30.76C39.638 31.0458 39.4975 30.261 40.0837 30.3821C40.1781 30.0842 39.5072 30.4015 39.8172 30.1132C40.2023 29.9606 40.3186 30.2828 40.2702 30.6098C40.292 30.697 40.4058 30.806 40.2411 30.8181ZM40.0837 30.5178C40.0086 30.5153 39.8511 30.5081 39.8729 30.6074C39.8947 30.7648 40.1394 30.6776 40.0837 30.5178Z" fill="#B3B3B3"/>
<path d="M40.5619 29.9881C40.4238 29.9881 40.4262 29.7749 40.5619 29.7774C40.6999 29.7749 40.6999 29.9905 40.5619 29.9881ZM40.5619 30.8141C40.4117 30.8117 40.4117 30.0826 40.5619 30.0777C40.7145 30.0777 40.7145 30.8117 40.5619 30.8141Z" fill="#B3B3B3"/>
<path d="M40.9913 30.8174C40.7418 30.8223 40.766 29.8606 40.9259 29.8073C41.1124 29.7807 40.984 30.5267 41.0204 30.6067C41.0446 30.6939 41.1633 30.8029 40.9937 30.815L40.9913 30.8174Z" fill="#B3B3B3"/>
<path d="M42.985 30.8098C39.8845 31.161 44.4771 28.7 42.0887 29.2692C41.2676 28.4626 44.7121 28.5425 42.3116 30.4464C42.5369 30.4052 43.6269 30.444 42.9826 30.8098H42.985Z" fill="#B3B3B3"/>
<path d="M44.6137 30.4761H44.541C44.6452 30.9315 44.0662 30.9315 44.1704 30.4761C43.9936 30.4398 43.2499 30.6166 43.4195 30.2097C43.5503 30.0861 43.9015 28.5892 44.2261 28.7805C44.5749 28.8871 43.8652 29.9432 43.8603 30.1225H44.1704C44.0541 29.6017 44.6573 29.6017 44.541 30.1225C44.7978 30.0547 44.8825 30.4592 44.6137 30.4761Z" fill="#B3B3B3"/>
<path d="M52.1263 28.2865L54.0883 28.2695L53.6984 29.3499L55.1081 29.3038L54.4178 30.7572L53.2502 30.7863L52.8893 31.7915L51.092 31.8206L51.4069 30.5779L50.2539 30.5465L50.4937 29.2287H51.8114L52.1263 28.2865Z" fill="#B3B3B3"/>
<path d="M32.6289 33.082H53.6687" stroke="#CCCCCC" stroke-width="0.242226" stroke-miterlimit="10"/>
<path d="M30.8633 40.0391H51.9031" stroke="#CCCCCC" stroke-width="0.242226" stroke-miterlimit="10"/>
<path d="M29.9844 50.1191H51.0241" stroke="#CCCCCC" stroke-width="0.242226" stroke-miterlimit="10"/>
<path d="M33.5033 34.0664L32.4375 38.6517L37.9845 38.7608L38.8371 34.2796L33.5033 34.0664Z" fill="#B3B3B3"/>
<path d="M42.2533 34.1719L41.1875 38.7596L42.1201 38.7064L42.7596 34.2252L42.2533 34.1719Z" fill="#B3B3B3"/>
<path d="M46.388 34.2383L45.7461 38.7994L46.6811 38.7461L47.3206 34.2649L46.388 34.2383Z" fill="#B3B3B3"/>
<path d="M46.5067 34.2383L45.8672 38.7994L46.7998 38.7461L47.4392 34.2649L46.5067 34.2383Z" fill="#B3B3B3"/>
<path d="M43.1473 34.1992L42.5078 38.7991H43.0674L43.5881 34.1992H43.1473Z" fill="#B3B3B3"/>
<path d="M43.9442 34.1602L43.3047 38.7625H43.622L44.1428 34.1602H43.9442Z" fill="#B3B3B3"/>
<path d="M44.5028 34.1992L43.8633 38.7991H44.1806L44.7014 34.1992H44.5028Z" fill="#B3B3B3"/>
<path d="M45.3074 34.2383L44.668 38.8406H44.9853L45.5037 34.2383H45.3074Z" fill="#B3B3B3"/>
<path d="M45.827 34.1992L45.1875 38.7991H45.5048L46.0256 34.1992H45.827Z" fill="#B3B3B3"/>
<path d="M47.7449 34.1992L47.1055 38.7991H47.665L48.1858 34.1992H47.7449Z" fill="#B3B3B3"/>
<path d="M48.5457 34.1602L47.9062 38.7625H48.2236L48.7444 34.1602H48.5457Z" fill="#B3B3B3"/>
<path d="M49.1067 34.1992L48.4648 38.7991H48.7822L49.3029 34.1992H49.1067Z" fill="#B3B3B3"/>
<path d="M49.9051 34.2383L49.2656 38.8406H49.5829L50.1013 34.2383H49.9051Z" fill="#B3B3B3"/>
<path d="M50.4285 34.1992L49.7891 38.7991H50.1064L50.6272 34.1992H50.4285Z" fill="#B3B3B3"/>
<path d="M31.2656 41.2381L31.3456 42.1198L37.2656 42.0399L37.0258 41.1582L31.2656 41.2381Z" fill="#B3B3B3"/>
<path d="M31.1854 42.6797H39.0263L38.9463 43.479L31.1055 43.2392L31.1854 42.6797Z" fill="#B3B3B3"/>
<path d="M31.3438 43.8789L36.7842 44.0388L36.5443 44.8405L31.3438 44.6007V43.8789Z" fill="#B3B3B3"/>
<path d="M31.5033 45.2402L37.5856 45.3202L37.4258 46.0396L31.1836 45.7998L31.5033 45.2402Z" fill="#B3B3B3"/>
<path d="M31.3429 46.5195H34.6251L34.5451 47.4812L30.8633 47.2389L31.3429 46.5195Z" fill="#B3B3B3"/>
<path d="M51.748 42.4411L51.2684 48.2013H50.6289L51.1085 42.2812L51.748 42.4411Z" fill="#B3B3B3"/>
<path d="M30.226 51.6406L36.5457 51.7206V52.44L29.9062 52.2801L30.226 51.6406Z" fill="#B3B3B3"/>
<path d="M30.3047 35.0264C30.3047 35.0264 32.6519 27.028 33.3979 26.2263L43.85 26.0664" stroke="#1D1D1B" stroke-width="0.542587" stroke-linecap="round" stroke-linejoin="round"/>
<path d="M60.0664 25C60.0664 25 61.6675 25.7461 60.7059 27.9866" stroke="#1D1D1B" stroke-width="0.542587" stroke-linecap="round" stroke-linejoin="round"/>
<path d="M11.8794 32.0883C11.9208 32.1967 27.5512 26.6254 27.4738 26.4124C23.492 15.4727 16.6725 8.37491 16.6725 8.37491L1.07812 14.0508C1.07812 14.0508 7.60353 21.1106 11.8794 32.0883Z" fill="#F2F2F2"/>
<g style="mix-blend-mode:multiply" opacity="0.42">
<path d="M11.8786 32.088C11.9201 32.1964 27.5505 26.625 27.473 26.4121C25.6207 21.323 23.1537 17.0654 21.0451 13.9652C18.6216 10.4034 5.29816 18.6185 9.17659 26.1183C10.1192 27.9433 11.042 29.9401 11.878 32.0862L11.8786 32.088Z" fill="#CCCCCC"/>
</g>
<path d="M5.88059 15.8841C5.74651 15.9035 5.59173 15.6776 5.46712 15.7661C5.49168 15.812 5.68514 15.9612 5.58632 15.9912C5.4842 16.05 5.18457 15.5768 5.12774 15.5446C5.12752 15.3016 5.82961 15.4048 5.64823 15.6766C5.73182 15.7285 5.99922 15.8116 5.88231 15.8835L5.88059 15.8841ZM5.49805 15.5333C5.44657 15.4619 5.33123 15.5274 5.27694 15.5452L5.39186 15.6778C5.46693 15.6524 5.60226 15.615 5.49978 15.5327L5.49805 15.5333Z" fill="#B3B3B3"/>
<path d="M6.18449 15.7692C5.93838 15.8686 5.6073 15.4814 5.86491 15.3974C6.10929 15.2987 6.44383 15.6846 6.18449 15.7692ZM6.05946 15.5226C5.90551 15.3905 5.86417 15.5623 5.98994 15.644C6.1439 15.7761 6.18523 15.6043 6.05946 15.5226Z" fill="#B3B3B3"/>
<path d="M6.62266 15.5368C6.77742 15.7196 6.4325 15.9138 6.47462 15.7064C6.716 15.5832 5.98225 15.4092 6.14982 15.2933C6.26455 15.2908 6.34721 15.4156 6.48132 15.4824C6.24558 15.0017 6.57126 15.2125 6.62376 15.5345L6.62266 15.5368Z" fill="#B3B3B3"/>
<path d="M7.14276 15.4204C7.1168 15.4298 7.0795 15.4297 7.04881 15.4154C6.8797 15.6671 6.45483 15.3022 6.85911 15.2335C6.78509 15.0625 6.52252 15.3697 6.58195 15.156C6.74652 14.9942 6.95713 15.1312 7.07034 15.3076C7.1215 15.3458 7.23655 15.3765 7.1445 15.4198L7.14276 15.4204ZM6.91752 15.3024C6.87189 15.3171 6.77369 15.3489 6.8291 15.3934C6.91096 15.4675 7.01905 15.3713 6.91752 15.3024Z" fill="#B3B3B3"/>
<path d="M7.36949 15.3371C7.22125 15.393 6.81806 14.9047 6.89154 14.8426C6.99146 14.7886 7.23913 15.1944 7.29595 15.2267C7.34884 15.2643 7.46563 15.2943 7.37012 15.3389L7.36949 15.3371Z" fill="#B3B3B3"/>
<path d="M8.26202 15.016C8.16713 15.0623 7.99392 14.7588 7.94229 14.7246C8.05948 15.0466 7.9723 15.0764 7.61341 14.8444C7.62979 14.8894 7.93628 15.1444 7.82755 15.1742C7.73581 15.2291 7.41839 14.7448 7.36519 14.7171C7.29226 14.5006 7.7892 14.8588 7.85673 14.8773C7.55588 14.0184 8.23662 14.8116 8.26202 15.016Z" fill="#B3B3B3"/>
<path d="M8.74042 14.8384C8.71446 14.8478 8.67716 14.8477 8.64646 14.8334C8.47736 15.0851 8.05249 14.7202 8.45677 14.6515C8.38275 14.4804 8.12018 14.7877 8.17961 14.574C8.34418 14.4121 8.55479 14.5492 8.66799 14.7255C8.71915 14.7638 8.83421 14.7944 8.74215 14.8377L8.74042 14.8384ZM8.51518 14.7204C8.46954 14.735 8.37134 14.7669 8.42675 14.8114C8.50861 14.8855 8.61671 14.7893 8.51518 14.7204Z" fill="#B3B3B3"/>
<path d="M8.57203 14.3519C8.49068 14.3816 8.39858 14.2739 8.47994 14.2443C8.56129 14.2147 8.65685 14.3211 8.57203 14.3519ZM8.93192 14.7698C8.84191 14.8026 8.52468 14.4319 8.61233 14.398C8.70407 14.3646 9.02366 14.7364 8.93192 14.7698Z" fill="#B3B3B3"/>
<path d="M9.1898 14.6731C9.04156 14.729 8.63838 14.2406 8.71185 14.1786C8.81177 14.1246 9.05945 14.5304 9.11627 14.5626C9.16916 14.6002 9.28594 14.6302 9.19043 14.6748L9.1898 14.6731Z" fill="#B3B3B3"/>
<path d="M10.3851 14.234C8.67545 15.0896 10.3646 12.8419 9.17753 13.6522C8.33219 13.4248 10.4361 12.71 9.82357 14.1993C9.94111 14.129 10.6123 13.9102 10.3851 14.234Z" fill="#B3B3B3"/>
<path d="M11.2169 13.7108L11.1737 13.7265C11.4334 13.9339 11.0872 14.0599 10.9504 13.8078C10.8279 13.8269 10.4579 14.0812 10.383 13.8379C10.4085 13.7463 9.96791 12.9128 10.246 12.939C10.5024 12.9162 10.5351 13.6041 10.6099 13.6965L10.7951 13.6291C10.4984 13.3901 10.8626 13.2595 11.0184 13.5478C11.1442 13.457 11.3707 13.6431 11.2152 13.7114L11.2169 13.7108Z" fill="#B3B3B3"/>
<path d="M14.7752 10.9581L15.9473 10.5217L16.1825 11.1516L17.0085 10.8196L17.225 11.7053L16.5372 11.9752L16.7566 12.5619L15.6903 12.9715L15.3402 12.2736L14.6329 12.5115L14.2048 11.793L14.9958 11.5051L14.7752 10.9581Z" fill="#B3B3B3"/>
<path d="M5.14768 17.6483L18.8499 12.5905" stroke="#CCCCCC" stroke-width="0.184206" stroke-miterlimit="10"/>
<path d="M7.36328 21.6953L21.3985 16.6261" stroke="#CCCCCC" stroke-width="0.184206" stroke-miterlimit="10"/>
<path d="M10.9679 26.8335L24.3673 21.9349" stroke="#CCCCCC" stroke-width="0.184206" stroke-miterlimit="10"/>
<path d="M6.10547 17.9551L7.45715 20.5055L10.8356 19.3444L9.40097 16.8948L6.10547 17.9551Z" fill="#B3B3B3"/>
<path d="M11.4062 16.0938L12.7579 18.6441L13.2947 18.4115L11.732 16.0085L11.4062 16.0938Z" fill="#B3B3B3"/>
<path d="M13.918 15.2207L15.515 17.6642L16.0524 17.4333L14.4897 15.0303L13.918 15.2207Z" fill="#B3B3B3"/>
<path d="M13.9883 15.1953L15.5853 17.6388L16.1244 17.4073L14.5617 15.0042L13.9883 15.1953Z" fill="#B3B3B3"/>
<path d="M11.9531 15.9102L13.5676 18.3747L13.9051 18.2518L12.218 15.8138L11.9531 15.9102Z" fill="#B3B3B3"/>
<path d="M12.418 15.7168L14.0318 18.1796L14.2222 18.1103L12.5357 15.674L12.418 15.7168Z" fill="#B3B3B3"/>
<path d="M12.7695 15.6133L14.384 18.0778L14.5761 18.0079L12.889 15.5698L12.7695 15.6133Z" fill="#B3B3B3"/>
<path d="M13.2695 15.459L14.8834 17.9218L15.0738 17.8525L13.389 15.4155L13.2695 15.459Z" fill="#B3B3B3"/>
<path d="M13.5625 15.3242L15.1787 17.7881L15.3691 17.7188L13.6819 15.2807L13.5625 15.3242Z" fill="#B3B3B3"/>
<path d="M14.7148 14.9043L16.3287 17.3671L16.6645 17.2449L14.9779 14.8085L14.7148 14.9043Z" fill="#B3B3B3"/>
<path d="M15.1797 14.709L16.7942 17.1735L16.9863 17.1036L15.2991 14.6655L15.1797 14.709Z" fill="#B3B3B3"/>
<path d="M15.5358 14.6072L17.1496 17.07L17.34 17.0007L15.6529 14.5626L15.5358 14.6072Z" fill="#B3B3B3"/>
<path d="M16.0312 14.4512L17.6468 16.9133L17.8372 16.844L16.1507 14.4077L16.0312 14.4512Z" fill="#B3B3B3"/>
<path d="M16.3281 14.3164L17.9426 16.7809L18.133 16.7116L16.4458 14.2736L16.3281 14.3164Z" fill="#B3B3B3"/>
<path d="M7.87702 22.068L8.3071 22.4956L11.8276 21.1594L11.3023 20.7664L7.87702 22.068Z" fill="#B3B3B3"/>
<path d="M8.45376 22.8123L13.1631 21.0963L13.4637 21.5181L8.64962 23.1134L8.45376 22.8123Z" fill="#B3B3B3"/>
<path d="M9.07031 23.3828L12.4088 22.2736L12.6124 22.7307L9.38329 23.7472L9.07031 23.3828Z" fill="#B3B3B3"/>
<path d="M9.76064 24.0373L13.4467 22.7467L13.6638 23.144L9.81048 24.3897L9.76064 24.0373Z" fill="#B3B3B3"/>
<path d="M10.2203 24.718L12.1895 23.9993L12.5587 24.502L10.2436 25.1859L10.2203 24.718Z" fill="#B3B3B3"/>
<path d="M20.7007 18.1904L22.9153 21.2049L22.531 21.3448L20.2461 18.25L20.7007 18.1904Z" fill="#B3B3B3"/>
<path d="M11.7729 27.5481L15.6043 26.2046L15.9173 26.569L11.8594 27.942L11.7729 27.5481Z" fill="#B3B3B3"/>
<path d="M20.1076 29.0953L27.4729 26.4146C27.4729 26.4146 26.087 21.5675 22.8482 16.7028" stroke="#1D1D1B" stroke-width="0.412622" stroke-linecap="round" stroke-linejoin="round"/>
<path d="M10.6658 31.8417C10.6658 31.8417 10.7568 33.2768 12.2664 33.1586" stroke="#1D1D1B" stroke-width="0.412622" stroke-linecap="round" stroke-linejoin="round"/>
<path d="M70.3642 22.5484C70.3623 22.6693 53.0781 22.7844 53.0781 22.5484C53.0781 10.4219 57.2246 1.04492 57.2246 1.04492H74.5106C74.5106 1.04492 70.6386 10.2799 70.3642 22.5484Z" fill="#F2F2F2"/>
<g style="mix-blend-mode:multiply" opacity="0.42">
<path d="M70.2955 22.5491C70.2936 22.67 53.1016 22.7832 53.1016 22.5491C53.1016 16.9367 53.9938 11.9173 54.9493 8.15266C56.0469 3.82586 71.9303 7.1031 70.8117 15.7797C70.5392 17.8903 70.3493 20.1622 70.2955 22.5491Z" fill="#CCCCCC"/>
</g>
<path d="M58.6658 5.11055C58.543 5.08177 58.5737 4.80931 58.4106 4.85152C58.3971 4.90524 58.4528 5.11631 58.3492 5.11055C58.2264 5.12974 58.3127 4.56946 58.2878 4.51765C58.4585 4.28357 58.9555 4.63086 58.6197 4.82849C58.6523 4.90908 58.8116 5.08177 58.6658 5.11055ZM58.6005 4.63662C58.6082 4.55027 58.4701 4.5733 58.4125 4.56946V4.73831C58.4912 4.74023 58.6274 4.75174 58.6005 4.6347V4.63662Z" fill="#B3B3B3"/>
<path d="M58.9866 5.10692C58.718 5.11651 58.718 4.62531 58.9866 4.6349C59.2553 4.62531 59.2553 5.11651 58.9866 5.10692ZM59.0576 4.82486C59.025 4.64258 58.8715 4.79416 58.9175 4.91696C58.9502 5.09924 59.1037 4.94574 59.0576 4.82486Z" fill="#B3B3B3"/>
<path d="M59.5069 5.03582C59.505 5.26799 59.0887 5.33323 59.2671 5.14903C59.5492 5.11449 59.0752 4.68853 59.2901 4.63672C59.3861 4.67318 59.365 4.82476 59.4264 4.93605C59.5722 4.3892 59.6892 4.70771 59.505 5.03774L59.5069 5.03582Z" fill="#B3B3B3"/>
<path d="M60.0112 5.10689C59.9844 5.10689 59.9537 5.09345 59.9383 5.07043C59.6236 5.25463 59.5354 4.75191 59.9114 4.82866C59.9709 4.63679 59.543 4.84018 59.7407 4.65598C59.9882 4.55812 60.063 4.76343 60.0323 4.97449C60.0458 5.03014 60.1187 5.10113 60.0131 5.1088L60.0112 5.10689ZM59.9095 4.91309C59.8616 4.91117 59.7599 4.90733 59.7733 4.97065C59.7867 5.07235 59.9441 5.01478 59.9095 4.91309Z" fill="#B3B3B3"/>
<path d="M60.2559 5.10606C60.0967 5.10798 60.112 4.49398 60.2137 4.45944C60.3327 4.44217 60.2521 4.92186 60.2732 4.97367C60.2886 5.02931 60.3634 5.10031 60.2559 5.10798V5.10606Z" fill="#B3B3B3"/>
<path d="M61.2023 5.1122C61.093 5.12371 61.1659 4.76875 61.1448 4.71886C61.0143 5.06999 60.9222 5.06999 60.7936 4.71886C60.7745 4.76875 60.8454 5.12371 60.738 5.1122C60.6248 5.13331 60.7054 4.55193 60.6823 4.50588C60.7744 4.27179 60.9279 4.79177 60.9702 4.83398C61.3251 3.89763 61.3251 4.90306 61.2023 5.1122Z" fill="#B3B3B3"/>
<path d="M61.7143 5.10689C61.6875 5.10689 61.6568 5.09345 61.6414 5.07043C61.3268 5.25463 61.2385 4.75191 61.6146 4.82866C61.6741 4.63679 61.2462 4.84018 61.4438 4.65598C61.6913 4.55812 61.7662 4.76343 61.7355 4.97449C61.7489 5.03014 61.8218 5.10113 61.7163 5.1088L61.7143 5.10689ZM61.6127 4.91309C61.5647 4.91117 61.463 4.90733 61.4764 4.97065C61.4899 5.07235 61.6472 5.01478 61.6127 4.91309Z" fill="#B3B3B3"/>
<path d="M61.9196 4.57764C61.8313 4.57764 61.8333 4.44141 61.9196 4.44141C62.0079 4.44141 62.0079 4.57956 61.9196 4.57764ZM61.9196 5.10722C61.8237 5.10722 61.8237 4.63712 61.9196 4.6352C62.0175 4.6352 62.0175 5.10722 61.9196 5.10722Z" fill="#B3B3B3"/>
<path d="M62.1981 5.10606C62.0388 5.10798 62.0523 4.49398 62.1559 4.45944C62.2749 4.44217 62.1943 4.92186 62.2154 4.97367C62.2307 5.02931 62.3075 5.10031 62.1981 5.10798V5.10606Z" fill="#B3B3B3"/>
<path d="M63.4755 5.09972C61.4857 5.32421 64.431 3.74699 62.9018 4.11155C62.3741 3.59349 64.5845 3.6453 63.0457 4.86755C63.1896 4.84068 63.888 4.86755 63.4774 5.09972H63.4755Z" fill="#B3B3B3"/>
<path d="M64.52 4.88977H64.474C64.5411 5.18334 64.1708 5.18142 64.236 4.88977C64.1228 4.86675 63.6451 4.97995 63.7544 4.719C63.8389 4.64033 64.0634 3.67904 64.2725 3.80184C64.497 3.87091 64.0422 4.54823 64.0384 4.66144H64.236C64.1612 4.32757 64.5488 4.32757 64.474 4.66144C64.639 4.61923 64.6927 4.87826 64.52 4.88785V4.88977Z" fill="#B3B3B3"/>
<path d="M69.334 3.4842L70.5927 3.47461L70.3432 4.16728L71.245 4.1385L70.8037 5.0691L70.0554 5.08828L69.8232 5.73299L68.672 5.75218L68.8734 4.95397L68.1328 4.93478L68.2863 4.09053H69.1325L69.334 3.4842Z" fill="#B3B3B3"/>
<path d="M56.832 6.55859H70.3247" stroke="#CCCCCC" stroke-width="0.191876" stroke-miterlimit="10"/>
<path d="M55.7031 11.0215H70.065" stroke="#CCCCCC" stroke-width="0.191876" stroke-miterlimit="10"/>
<path d="M55.1406 17.4844H68.6333" stroke="#CCCCCC" stroke-width="0.191876" stroke-miterlimit="10"/>
<path d="M57.394 7.19141L56.7109 10.1329L60.2683 10.2L60.8152 7.32764L57.394 7.19141Z" fill="#B3B3B3"/>
<path d="M63.0053 7.25977L62.3203 10.1993L62.919 10.1667L63.3296 7.29238L63.0053 7.25977Z" fill="#B3B3B3"/>
<path d="M65.6567 7.30273L65.2461 10.2269L65.8447 10.1924L66.2554 7.32001L65.6567 7.30273Z" fill="#B3B3B3"/>
<path d="M65.7309 7.30273L65.3203 10.2269L65.919 10.1924L66.3296 7.32001L65.7309 7.30273Z" fill="#B3B3B3"/>
<path d="M63.5786 7.27539L63.168 10.2264H63.5268L63.8606 7.27539H63.5786Z" fill="#B3B3B3"/>
<path d="M64.0903 7.25L63.6797 10.1991H63.8831L64.2169 7.25H64.0903Z" fill="#B3B3B3"/>
<path d="M64.4497 7.27539L64.0391 10.2264H64.2425L64.5763 7.27539H64.4497Z" fill="#B3B3B3"/>
<path d="M64.9614 7.30273L64.5508 10.2519H64.7542L65.088 7.30273H64.9614Z" fill="#B3B3B3"/>
<path d="M65.2973 7.27539L64.8867 10.2264H65.0901L65.424 7.27539H65.2973Z" fill="#B3B3B3"/>
<path d="M66.5278 7.27539L66.1172 10.2264H66.476L66.8099 7.27539H66.5278Z" fill="#B3B3B3"/>
<path d="M67.0395 7.25L66.6289 10.1991H66.8323L67.1662 7.25H67.0395Z" fill="#B3B3B3"/>
<path d="M67.3989 7.27539L66.9883 10.2264H67.1917L67.5255 7.27539H67.3989Z" fill="#B3B3B3"/>
<path d="M67.9126 7.30273L67.5039 10.2519H67.7073L68.0412 7.30273H67.9126Z" fill="#B3B3B3"/>
<path d="M68.2465 7.27539L67.8359 10.2264H68.0412L68.3732 7.27539H68.2465Z" fill="#B3B3B3"/>
<path d="M55.9609 11.7901L56.0127 12.3542L59.808 12.3043L59.6545 11.7402L55.9609 11.7901Z" fill="#B3B3B3"/>
<path d="M55.9073 12.7148H60.9344L60.8845 13.2272L55.8555 13.0737L55.9073 12.7148Z" fill="#B3B3B3"/>
<path d="M56.0117 13.4844L59.5 13.5861L59.3446 14.0984L56.0117 13.9449V13.4844Z" fill="#B3B3B3"/>
<path d="M56.1155 14.3555L60.0144 14.4073L59.9127 14.8678L55.9102 14.7143L56.1155 14.3555Z" fill="#B3B3B3"/>
<path d="M56.012 15.1758H58.115L58.0632 15.7917L55.7031 15.6382L56.012 15.1758Z" fill="#B3B3B3"/>
<path d="M69.0926 12.5587L68.7856 16.2523H68.375L68.682 12.457L69.0926 12.5587Z" fill="#B3B3B3"/>
<path d="M55.2952 18.459L59.3476 18.5108V18.9713L55.0898 18.8696L55.2952 18.459Z" fill="#B3B3B3"/>
<path d="M54.0977 12.072C54.0977 12.072 55.2029 5.48109 57.2271 1.04492L68.7992 1.17156" stroke="#1D1D1B" stroke-width="0.429802" stroke-linecap="round" stroke-linejoin="round"/>
</g>
<defs>
<clipPath id="clip0_3250_3664">
<rect width="80" height="80" fill="white" transform="translate(0.75)"/>
</clipPath>
</defs>
</svg>
