<svg width="81" height="80" viewBox="0 0 81 80" fill="none" xmlns="http://www.w3.org/2000/svg">
<g clip-path="url(#clip0_3250_5161)">
<g clip-path="url(#clip1_3250_5161)">
<path d="M39.7679 78.0359C61.3169 78.0359 78.7859 60.5669 78.7859 39.0179C78.7859 17.4689 61.3169 0 39.7679 0C18.2189 0 0.75 17.4689 0.75 39.0179C0.75 60.5669 18.2189 78.0359 39.7679 78.0359Z" fill="#F4AEBA"/>
<path d="M53.2115 29.6416C50.3216 23.889 32.5992 16.6027 22.2036 23.9431C19.7062 25.7068 34.635 43.6082 34.635 43.6082L30.5634 50.699L58.8543 45.8049L53.2115 29.6416Z" fill="#D40918"/>
<path d="M23.8641 49.9327C23.8641 49.9327 17.2786 49.4516 14.1647 40.6632C10.5216 30.3743 23.0868 20.6493 39.1884 21.9093L37.9555 32.6267C37.9555 32.6267 32.7472 30.666 25.8458 32.9484C12.8776 37.2351 24.1664 47.1481 24.1664 47.1481L23.8641 49.9327Z" fill="#EAAE86"/>
<path d="M23.2227 23.7844C23.2227 23.7844 28.2295 28.2139 28.3137 33.0539C28.3964 37.8954 30.9389 35.8941 30.9389 35.8941L39.5122 30.4287L31.7959 20.248L23.2227 23.7844Z" fill="#D40918"/>
<path d="M15.5092 65.1992H9.80469V67.1569H15.5092V65.1992Z" fill="#333333"/>
<path d="M49.8125 82.0709C51.707 79.9224 53.9022 77.461 55.9531 75.2222C57.2792 73.7728 58.5452 72.4166 59.6308 71.2994C60.5389 70.3657 61.3192 69.6004 61.9026 69.0862C62.0274 68.9764 62.1447 68.8787 62.25 68.793C62.256 68.787 62.2635 68.7839 62.2695 68.7779L61.9643 68.6471L61.3914 68.402L53.7744 65.1303L42.3458 60.2227L42.1233 60.8963L39.5116 68.793L38.6817 71.3009L37.1014 76.0838L36.0685 79.2036C35.0295 80.9508 34.5619 82.9205 34.5664 84.8646C39.4801 84.5323 44.084 83.6316 48.0744 82.5581L49.8125 82.0709Z" fill="#333333"/>
<path d="M43.5254 42.0063C43.5811 44.597 21.0292 67.4677 22.0952 70.2959L57.6754 69.4915C62.0162 66.9189 63.8911 35.4117 61.4794 33L54.7435 41.8019L43.5254 42.0063Z" fill="#D40918"/>
<path d="M24.1602 31.584V40.228V53.3345H48.2081V31.584H24.1602Z" fill="#F3930D"/>
<path d="M24.2579 42.2352L24.1602 31.584H32.0373" stroke="#1D1D1B" stroke-width="0.679313" stroke-miterlimit="10" stroke-linecap="round" stroke-linejoin="round"/>
<path d="M38.5156 31.584H48.2046V51.431" stroke="#1D1D1B" stroke-width="0.679313" stroke-miterlimit="10" stroke-linecap="round" stroke-linejoin="round"/>
<path d="M38.0316 33.7871H28.9711C28.7847 33.7871 28.6328 33.939 28.6328 34.1254V37.9354C28.6328 38.1219 28.7847 38.2737 28.9711 38.2737H38.0316C38.218 38.2737 38.3699 38.1219 38.3699 37.9354V34.1254C38.3683 33.9375 38.218 33.7871 38.0316 33.7871Z" fill="#FBDDB4"/>
<path d="M51.6648 38.7036C48.0607 32.9239 48.0292 28.8041 48.602 27.8012C52.3173 21.2998 56.7874 19.5903 63.4632 21.2276C70.8862 23.05 74.0467 29.5423 74.0467 29.5423L73.3596 30.9978L68.876 35.731C66.8342 37.8195 60.4305 48.0978 58.3887 50.1863C57.1768 47.1175 56.846 46.6108 55.4778 44.5314C54.2223 41.8926 53.2585 41.2596 51.6648 38.7036Z" fill="#D40918"/>
<path d="M63.5731 32.8401C63.5731 32.8401 70.3241 33.7513 65.1804 36.4832C60.0367 39.2167 42.803 31.9801 42.803 31.9801L40.7461 34.9286C40.7461 34.9286 65.3413 53.0931 77.0766 43.4493C85.1943 36.7779 71.4503 29.7849 71.4503 29.7849C71.4503 29.7849 67.753 28.8211 63.5731 32.8401Z" fill="#EAAE86"/>
<path d="M55.6282 32.5698L56.8566 31.8887L57.2851 33.0148L58.0655 32.7307L58.3211 33.4975L57.6279 33.8223L57.9467 34.6417L56.5544 35.3288L56.18 34.4432L55.6869 34.7063L55.3516 33.9471L55.953 33.5997L55.6282 32.5698Z" fill="#FFE200"/>
<path d="M40.4753 53.1973H24.4609" stroke="#1D1D1B" stroke-width="0.679313" stroke-miterlimit="10" stroke-linecap="round" stroke-linejoin="round"/>
<path d="M24.8153 44.5295C24.8153 44.5295 23.2817 41.8997 22.6758 43.0981C22.6758 43.0981 22.8472 43.7581 23.2862 44.2468C23.2862 44.2468 23.6546 44.8347 23.5057 45.1264L24.8153 44.5295Z" fill="#EAAE86"/>
<path d="M22.6789 46.4014C22.745 45.4512 23.6291 44.0137 24.5388 44.3009C25.7732 44.6904 26.8768 44.9234 26.5581 45.8827C26.4122 46.3217 26.6513 46.9758 26.6062 47.299C26.525 47.8839 26.2889 48.3981 26.4348 48.6913C26.6197 49.0627 26.6783 49.595 25.8003 49.7904C24.9207 49.9859 24.4831 50.0491 23.1375 49.7664C22.6744 49.6687 22.5826 47.7952 22.6789 46.4014Z" fill="#EAAE86"/>
<path d="M43.4501 59.2285H7.83984V65.7059H43.4501V59.2285Z" fill="#808080"/>
<path d="M43.4501 61.4703L7.83984 63.3904V59.2285H43.4501V61.4703Z" fill="#666666"/>
<path d="M43.1407 59.4227H8.14687C7.54094 59.4227 7.05078 58.931 7.05078 58.3266V57.7191C7.05078 57.1132 7.54244 56.623 8.14687 56.623H43.1407C43.7466 56.623 44.2368 57.1147 44.2368 57.7191V58.3266C44.2368 58.931 43.7466 59.4227 43.1407 59.4227Z" fill="#B3B3B3"/>
<path d="M74.1973 68.7891C73.3163 69.6341 72.372 70.4731 71.3601 71.297C69.9137 72.4758 68.329 73.6275 66.5923 74.7342H66.5878C65.2091 75.6137 63.7386 76.4648 62.1644 77.2797C61.9509 77.3909 61.4366 77.6526 60.6608 78.0149C58.6235 78.9652 54.7789 80.6131 49.8126 82.0685C49.2488 82.2339 48.6684 82.3963 48.0745 82.5542C44.0841 83.6277 39.4802 84.5284 34.5666 84.8607C31.9203 85.0411 29.1868 85.0561 26.4082 84.8441C24.598 84.7043 22.7651 84.4697 20.9323 84.1209C18.5386 83.6653 13.3784 82.6294 8.54297 79.8733V68.7906H74.1973V68.7891Z" fill="#B70E13"/>
<path d="M85.3269 67.1055H2.75V71.3215H85.3269V67.1055Z" fill="#4D4D4D"/>
<path d="M49.4708 64.0102C51.1914 64.0102 52.5862 62.6154 52.5862 60.8948C52.5862 59.1742 51.1914 57.7794 49.4708 57.7794C47.7503 57.7794 46.3555 59.1742 46.3555 60.8948C46.3555 62.6154 47.7503 64.0102 49.4708 64.0102Z" stroke="#C7B299" stroke-width="3.05691" stroke-miterlimit="10"/>
<path d="M49.4725 63.3904C50.8509 63.3904 51.9684 62.2729 51.9684 60.8945C51.9684 59.516 50.8509 58.3986 49.4725 58.3986C48.094 58.3986 46.9766 59.516 46.9766 60.8945C46.9766 62.2729 48.094 63.3904 49.4725 63.3904Z" stroke="#998675" stroke-width="1.01897" stroke-miterlimit="10"/>
<path d="M50.8329 57.5394C50.4149 57.371 49.9593 57.2793 49.4827 57.2793C48.8692 57.2793 48.2904 57.4327 47.7852 57.7018" stroke="#1D1D1B" stroke-width="0.679313" stroke-miterlimit="10" stroke-linecap="round" stroke-linejoin="round"/>
<path d="M52.5898 62.7515C52.9146 62.2087 53.1011 61.5742 53.1011 60.8961C53.1011 60.4691 53.0274 60.0601 52.8906 59.6797" stroke="#1D1D1B" stroke-width="0.679313" stroke-miterlimit="10" stroke-linecap="round" stroke-linejoin="round"/>
<path d="M53.3435 63.1836H45.7852V66.9636H53.3435V63.1836Z" fill="#C7B299"/>
<path d="M48.1426 63.2246L46.6797 66.9565H48.8478L49.768 63.2787L48.1426 63.2246Z" fill="#DBCEBE"/>
<path d="M45.8125 66.2582V63.1699H53.3047" stroke="#1D1D1B" stroke-width="0.679313" stroke-miterlimit="10" stroke-linecap="round" stroke-linejoin="round"/>
<path d="M51.1308 63.2109L51.5262 63.6064L51.212 63.9221L51.5473 64.2574L51.1308 64.6739L51.4661 65.0092L51.1097 65.364L51.4555 65.7099L51.0391 66.1264" stroke="#1D1D1B" stroke-width="0.679313" stroke-miterlimit="10" stroke-linecap="round" stroke-linejoin="round"/>
<path d="M52.1256 66.9902H47.7773" stroke="#1D1D1B" stroke-width="0.679313" stroke-miterlimit="10" stroke-linecap="round" stroke-linejoin="round"/>
<path d="M10.6094 56.4297L35.7248 56.6221" stroke="#1D1D1B" stroke-width="0.679313" stroke-miterlimit="10" stroke-linecap="round" stroke-linejoin="round"/>
<path d="M71.3541 71.2969C69.9077 72.4757 68.3229 73.6274 66.5863 74.734H66.5818L61.0743 74.9851L55.9456 75.2197L47.849 75.5881L37.094 76.0797L8.5625 77.3803V71.2969H71.3541Z" fill="#70070F"/>
<path d="M40.6125 13.1372C36.4566 14.125 34.7381 9.64892 40.0065 6.79817C44.3263 4.46163 52.3658 2.8047 53.8287 12.4636C54.4798 16.7653 51.2471 16.9126 52.4936 19.2176C52.889 19.9498 51.6125 20.6039 50.5615 20.1889C47.395 18.9364 40.6125 13.1372 40.6125 13.1372Z" fill="#925F36"/>
<path d="M53.3511 24.4273C52.6339 23.1117 52.0309 21.7119 51.5829 20.2925C51.2732 19.3107 51.0341 18.3168 50.8777 17.3365C53.5886 16.9065 52.4204 11.8395 49.8583 13.5054C49.8478 13.5114 49.8388 13.519 49.8282 13.525C49.8282 13.525 48.9126 12.6589 48.3096 11.9417C48.2315 11.8485 48.1638 11.7733 48.1037 11.7117C47.2827 10.9028 47.9067 13.0483 43.7223 12.9807C40.9798 12.9371 39.6507 10.7539 39.6507 10.7539C39.6507 10.7539 39.5138 10.8276 39.2507 11.7463C39.1124 12.2379 39.0582 12.7446 39.0628 13.2543C39.0688 14.188 39.2567 15.1383 39.4417 16.0525C40.4806 19.246 39.6552 21.1661 41.4835 22.9162C42.3871 23.7838 43.7524 23.7237 44.2185 24.2183C44.7372 24.7671 45.1311 25.4031 45.3882 26.1128C45.483 26.3684 45.6273 26.6511 45.8092 26.9593C46.0738 27.4089 46.4091 27.9141 46.761 28.4779C47.4466 29.583 48.1924 30.9227 48.5532 32.536C48.6314 32.8849 48.9757 32.9195 49.4599 32.73C51.3619 31.9872 55.435 27.8013 54.1404 25.77C53.8638 25.3355 53.6007 24.8859 53.3511 24.4273Z" fill="#EAAE86"/>
<path d="M48.0781 11.5664L48.8028 16.0846C48.863 16.459 49.3607 16.5492 49.5486 16.2214L49.6403 16.0606C49.9831 15.4636 50.0989 14.763 49.9681 14.0879L49.6057 12.2205L48.0781 11.5664Z" fill="#925F36"/>
<path d="M43.2703 14.4336C43.4522 15.226 43.395 15.8289 43.3018 16.2454C43.159 16.8799 42.8628 17.3821 43.1019 17.6648C43.2507 17.8407 43.5183 17.8256 43.5665 17.8226C43.9228 17.8031 44.2521 17.4888 44.3603 17.0272" stroke="#161415" stroke-width="0.679313" stroke-miterlimit="10" stroke-linecap="round" stroke-linejoin="round"/>
<path d="M42.9688 20.4513C43.1311 20.6077 43.48 20.8964 43.9671 20.937C44.7324 21.0001 45.5293 20.4288 45.8857 19.498" stroke="#161415" stroke-width="0.679313" stroke-miterlimit="10" stroke-linecap="round" stroke-linejoin="round"/>
<path d="M45.5214 15.286C45.7013 15.2544 45.8025 14.9748 45.7474 14.6616C45.6923 14.3483 45.5018 14.1201 45.3219 14.1517C45.142 14.1833 45.0407 14.4629 45.0958 14.7762C45.1509 15.0894 45.3414 15.3177 45.5214 15.286Z" fill="black"/>
<path d="M41.3495 16.0204C41.5294 15.9888 41.6306 15.7092 41.5755 15.3959C41.5204 15.0827 41.3299 14.8544 41.15 14.8861C40.9701 14.9177 40.8689 15.1973 40.924 15.5105C40.979 15.8238 41.1696 16.052 41.3495 16.0204Z" fill="black"/>
<path d="M41.7148 9.33789C41.7148 9.33789 43.2425 11.7496 47.0194 9.90323" stroke="#C69C6D" stroke-width="0.679313" stroke-miterlimit="10" stroke-linecap="round" stroke-linejoin="round"/>
<path d="M44.2734 7.88672C44.2734 7.88672 45.0222 9.06852 46.8716 8.16337" stroke="#C69C6D" stroke-width="0.679313" stroke-miterlimit="10" stroke-linecap="round" stroke-linejoin="round"/>
<path d="M23.9043 49.8742C23.9043 49.8742 21.691 50.3418 22.1586 47.3633" stroke="#1D1D1B" stroke-width="0.679313" stroke-miterlimit="10" stroke-linecap="round" stroke-linejoin="round"/>
<path d="M81.5193 58.059H53.6464C53.3968 58.059 53.1953 57.8575 53.1953 57.6079V38.6991C53.1953 38.451 53.3983 38.248 53.6464 38.248H81.5208C81.7704 38.248 81.9719 38.4495 81.9719 38.6991V57.6079C81.9719 57.8575 81.7689 58.059 81.5193 58.059Z" fill="#333333"/>
<path d="M75.5113 57.9884H69.3708C69.0521 57.9884 68.7934 57.7298 68.7934 57.411L67.3906 47.3371C67.3906 47.0199 67.6507 46.7598 67.968 46.7598H68.7333C69.0521 46.7598 69.3107 47.0184 69.3107 47.3371L75.5113 57.9884Z" fill="#1A1A1A"/>
<path d="M72.5736 66.5742H62.593C62.2742 66.5742 62.0156 66.3156 62.0156 65.9968L65.8557 47.3391C65.8557 47.0218 66.1158 46.7617 66.4331 46.7617H68.7335C69.0523 46.7617 69.3109 47.0203 69.3109 47.3391L73.151 65.9968C73.151 66.3156 72.8924 66.5742 72.5736 66.5742Z" fill="#4D4D4D"/>
<path d="M55.2587 65.3574H79.9035C80.111 65.3574 80.2794 65.5258 80.2794 65.7333V66.8084C80.2794 67.0159 80.111 67.1843 79.9035 67.1843H55.2587C55.0512 67.1843 54.8828 67.0159 54.8828 66.8084V65.7333C54.8813 65.5258 55.0497 65.3574 55.2587 65.3574Z" fill="#333333"/>
<path d="M65.4149 49.0234L63.8828 57.069" stroke="black" stroke-width="0.679313" stroke-miterlimit="10" stroke-linecap="round" stroke-linejoin="round"/>
<path d="M40.6811 20.8843L29.7617 19.0508L27.9501 29.8397L38.8695 31.6733L40.6811 20.8843Z" fill="#FACD90"/>
<path d="M40.5664 21.5527L38.9727 31.0402" stroke="#1D1D1B" stroke-width="0.679313" stroke-miterlimit="10" stroke-linecap="round" stroke-linejoin="round"/>
<path d="M28.9922 23.2527L29.6823 19.1465L38.3563 20.6034" stroke="#1D1D1B" stroke-width="0.679313" stroke-miterlimit="10" stroke-linecap="round" stroke-linejoin="round"/>
<path d="M38.6028 22.4386L32.0338 21.335C31.8503 21.3034 31.6759 21.4282 31.6444 21.6116L31.1963 24.2789C31.1647 24.4624 31.2895 24.6368 31.4729 24.6684L38.042 25.772C38.2254 25.8036 38.3998 25.6788 38.4314 25.4953L38.8795 22.828C38.9111 22.6446 38.7878 22.4702 38.6028 22.4386Z" fill="#F5A73B"/>
<path d="M42.8452 32.1758C42.8452 32.1758 41.7521 29.3176 39.5133 28.2831L39.2457 29.7295C39.2457 29.7295 36.1108 27.6606 34.1907 27.2246C34.1907 27.2246 33.0766 27.2186 33.8344 27.9298L35.4417 29.0018C35.4417 29.0018 32.7548 28.2079 33.9517 29.4409L34.7967 29.9476C34.7967 29.9476 32.5218 30.2783 34.7185 31.2842C34.7185 31.2842 32.8691 31.3384 34.6388 32.678C34.6388 32.678 35.5244 33.6448 37.9075 34.3395C37.9075 34.3395 39.0863 34.5004 41.1763 35.2506L42.8452 32.1758Z" fill="#EAAE86"/>
<path d="M34.1016 32.125C34.8158 33.1249 36.3795 34.1789 41.0946 35.1968" stroke="#1D1D1B" stroke-width="0.679313" stroke-miterlimit="10" stroke-linecap="round" stroke-linejoin="round"/>
<path d="M26.4375 17.6665C26.4375 17.6665 27.1306 15.6503 29.4717 16.0352" stroke="#1D1D1B" stroke-width="0.679313" stroke-miterlimit="10" stroke-linecap="round" stroke-linejoin="round"/>
<path d="M25.8711 16.5025C25.8711 16.5025 26.5642 14.4862 28.9053 14.8711" stroke="#1D1D1B" stroke-width="0.679313" stroke-miterlimit="10" stroke-linecap="round" stroke-linejoin="round"/>
<path d="M19.3574 51.8779C19.3574 51.8779 17.2584 52.2523 16.457 50.0195" stroke="#1D1D1B" stroke-width="0.679313" stroke-miterlimit="10" stroke-linecap="round" stroke-linejoin="round"/>
<path d="M18.6152 52.9385C18.6152 52.9385 16.5162 53.3129 15.7148 51.0801" stroke="#1D1D1B" stroke-width="0.679313" stroke-miterlimit="10" stroke-linecap="round" stroke-linejoin="round"/>
<path d="M65.0019 33.3747C65.0019 33.3747 64.3945 33.1251 63.787 32.8394C64.7493 31.7103 67.3505 30.1105 69.678 29.909C70.5079 29.8368 71.3424 29.9782 72.1167 30.2834L73.3963 30.9269C73.3963 30.9269 75.2532 30.0158 73.2534 28.9091C71.9333 28.1784 66.3852 29.0249 63.7509 31.6952C61.2159 34.2678 63.1796 34.4828 65.0019 33.3747Z" fill="#68070E"/>
<path d="M41.5326 65.7031H35.8281V67.1571H41.5326V65.7031Z" fill="#333333"/>
<path d="M21.5234 25.48C22.7834 24.7838 23.7382 24.3718 23.7382 24.3718C23.7382 24.3718 23.027 23.4817 22.176 23.9433C21.6497 24.2305 21.6317 24.9718 21.5234 25.48Z" fill="#68070E"/>
<path d="M39.1679 67.127H2.81641V71.2001" stroke="#1D1D1B" stroke-width="0.679313" stroke-miterlimit="10" stroke-linecap="round" stroke-linejoin="round"/>
</g>
</g>
<defs>
<clipPath id="clip0_3250_5161">
<rect width="80" height="80" fill="white" transform="translate(0.75)"/>
</clipPath>
<clipPath id="clip1_3250_5161">
<rect x="0.75" width="78.0359" height="78.0359" rx="39.0179" fill="white"/>
</clipPath>
</defs>
</svg>
