<svg width="81" height="80" viewBox="0 0 81 80" fill="none" xmlns="http://www.w3.org/2000/svg">
<g clip-path="url(#clip0_3250_5260)">
<g clip-path="url(#clip1_3250_5260)">
<path d="M39.2679 78.0359C60.8169 78.0359 78.2859 60.5669 78.2859 39.0179C78.2859 17.4689 60.8169 0 39.2679 0C17.7189 0 0.25 17.4689 0.25 39.0179C0.25 60.5669 17.7189 78.0359 39.2679 78.0359Z" fill="#F4AEBA"/>
</g>
<path d="M49.6954 13.0528C44.8311 9.0968 39.9669 5.14082 34.8806 1.48758C34.0935 0.922442 33.3063 0.377483 32.3778 0.115097C31.4494 -0.127107 30.3595 -0.00600262 29.6934 0.660057C28.9265 1.42703 28.8659 2.6986 29.2696 3.6876C29.6732 4.6766 30.4604 5.48394 31.2274 6.2711C35.8292 10.8931 40.5724 15.3941 45.4366 19.7336" fill="#8C613E"/>
<path d="M34.7813 13.2956C32.4198 12.5085 30.8657 12.0039 29.3317 11.4993C27.7978 10.9947 26.6877 10.6112 25.6179 11.136C25.4565 11.2167 24.4675 11.681 24.2656 12.6699C24.1042 13.4167 24.4877 14.0424 24.6088 14.2443C25.2546 15.314 26.4858 15.5966 28.1409 16.0406C29.251 16.3232 30.9868 16.7874 33.2473 17.4333" fill="#8C613E"/>
<path d="M33.0878 16.4845C30.6254 16.0808 29.0309 15.7982 27.4364 15.5358C25.8419 15.2533 24.6914 15.0514 23.7024 15.7377C23.5611 15.8386 22.6529 16.4643 22.5923 17.4533C22.552 18.2202 23.0162 18.7854 23.1776 18.967C23.985 19.9359 25.2364 20.0368 26.9318 20.1982C28.0823 20.3193 29.8584 20.501 32.1997 20.8037" fill="#8C613E"/>
<path d="M33.0879 21.1283C30.6255 20.8053 29.0108 20.5833 27.4163 20.3613C25.8016 20.1393 24.6511 19.9778 23.7025 20.6842C23.5612 20.7851 22.6731 21.431 22.653 22.4402C22.6328 23.2072 23.1172 23.7521 23.2786 23.9338C24.1264 24.8622 25.3777 24.9228 27.0732 25.0439C28.2236 25.1246 30.02 25.2457 32.3613 25.4677" fill="#8C613E"/>
<path d="M29.7785 54.6718C30.384 52.9158 31.2317 50.3928 31.4335 49.646C32.3216 46.457 30.3032 44.5598 29.0519 40.2607C28.2041 37.3744 28.7289 32.712 29.7583 23.4073C30.3234 18.2403 30.7876 16.888 31.9987 15.5963C33.9968 13.4165 37.4079 13.0128 40.2336 13.9009C43.0593 14.7688 45.4208 16.7064 47.6006 18.6844C48.6501 19.633 49.7199 20.6624 50.2245 21.9743C50.7896 23.4275 50.7089 24.7193 50.6887 25.2239C50.0428 35.5781 51.597 40.4019 48.3474 50.0699C46.2685 56.2259 43.3419 62.4828 43.3419 62.4828C43.3419 62.4828 29.4152 60.7874 28.85 57.9415C28.7491 57.4975 28.8702 57.2754 29.7785 54.6718Z" fill="#8C613E"/>
<path d="M26.9329 15.6755C25.4393 15.3122 23.9053 15.292 23.1383 16.2608C22.9769 16.4627 22.4521 17.048 22.5127 17.815C22.5934 18.9251 23.8044 19.9746 25.5806 20.2168" stroke="#1D1D1B" stroke-width="0.452113" stroke-linecap="round" stroke-linejoin="round"/>
<path d="M29.0118 20.6421C26.4686 20.4806 24.309 19.5522 23.1383 21.0458C22.9769 21.2476 22.4521 21.8329 22.5127 22.5999C22.5328 22.9834 22.6943 23.3467 22.9567 23.6898" stroke="#1D1D1B" stroke-width="0.452113" stroke-linecap="round" stroke-linejoin="round"/>
<path d="M26.8096 31.7028L31.3711 4.59619C31.5528 3.4861 32.6225 2.71912 33.7326 2.92095L48.7694 5.46409C49.8795 5.64574 50.6465 6.71547 50.4446 7.82557L45.8831 34.9322C45.7015 36.0423 44.6318 36.8092 43.5217 36.6074L28.4849 34.0643C27.3748 33.8826 26.6078 32.8331 26.8096 31.7028Z" fill="#294E65"/>
<path d="M40.3904 6.33233L41.3996 6.4938C41.6418 6.53417 41.8235 6.77637 41.7831 7.01858L41.7629 7.20023C41.7226 7.44243 41.4803 7.62408 41.2381 7.58371L40.229 7.42225C39.9868 7.38188 39.8051 7.13968 39.8455 6.89747L39.8657 6.71582C39.906 6.45344 40.1482 6.29196 40.3904 6.33233Z" fill="#638B9E"/>
<path d="M40.1717 7.66436L41.1809 7.82583C41.4231 7.8662 41.6047 8.1084 41.5644 8.3506L41.5442 8.53226C41.5038 8.77446 41.2616 8.95611 41.0194 8.91575L40.0102 8.75428C39.768 8.71391 39.5864 8.47171 39.6267 8.2295L39.6469 8.04785C39.6873 7.78546 39.9295 7.624 40.1717 7.66436Z" fill="#638B9E"/>
<path d="M39.949 9.0156L40.9582 9.17707C41.2004 9.21743 41.3821 9.45963 41.3417 9.70184L41.3215 9.88349C41.2811 10.1257 41.0389 10.3073 40.7967 10.267L39.7876 10.1055C39.5454 10.0651 39.3637 9.82294 39.4041 9.58074L39.4243 9.39908C39.4646 9.1367 39.6866 8.95505 39.949 9.0156Z" fill="#638B9E"/>
<path d="M39.7264 10.348L40.7355 10.5094C40.9778 10.5498 41.1594 10.792 41.119 11.0342L41.0989 11.2158C41.0585 11.4581 40.8163 11.6397 40.5741 11.5993L39.5649 11.4379C39.3227 11.3975 39.141 11.1553 39.1814 10.9131L39.2016 10.7314C39.242 10.4691 39.464 10.3076 39.7264 10.348Z" fill="#638B9E"/>
<path d="M39.1834 13.5371L40.1926 13.6986C40.4348 13.7389 40.6164 13.9811 40.5761 14.2233L40.5559 14.405C40.5155 14.6472 40.2733 14.8288 40.0311 14.7885L39.0219 14.627C38.7797 14.5866 38.5981 14.3444 38.6384 14.1022L38.6586 13.9206C38.699 13.6582 38.9412 13.4765 39.1834 13.5371Z" fill="#638B9E"/>
<path d="M38.9607 14.8675L39.9699 15.029C40.2121 15.0693 40.3938 15.3115 40.3534 15.5537L40.3332 15.7354C40.2929 15.9776 40.0507 16.1592 39.8085 16.1189L38.7993 15.9574C38.5571 15.917 38.3754 15.6748 38.4158 15.4326L38.436 15.251C38.4763 14.9886 38.7185 14.8271 38.9607 14.8675Z" fill="#638B9E"/>
<path d="M38.7381 16.2029L39.7473 16.3644C39.9895 16.4047 40.1711 16.6469 40.1308 16.8891L40.1106 17.0708C40.0702 17.313 39.828 17.4946 39.5858 17.4543L38.5766 17.2928C38.3344 17.2524 38.1528 17.0102 38.1931 16.768L38.2133 16.5864C38.2537 16.3442 38.4757 16.1625 38.7381 16.2029Z" fill="#638B9E"/>
<path d="M38.4959 17.553L39.5051 17.7145C39.7473 17.7549 39.9289 17.9971 39.8886 18.2393L39.8684 18.4209C39.828 18.6631 39.5858 18.8448 39.3436 18.8044L38.3344 18.6429C38.0922 18.6026 37.9106 18.3604 37.9509 18.1182L37.9711 17.9365C38.0115 17.6741 38.2537 17.5127 38.4959 17.553Z" fill="#638B9E"/>
<path d="M37.9725 20.7441L38.9816 20.9056C39.2239 20.9459 39.4055 21.1882 39.3651 21.4304L39.345 21.612C39.3046 21.8542 39.0624 22.0359 38.8202 21.9955L37.811 21.834C37.5688 21.7937 37.3871 21.5515 37.4275 21.3093L37.4477 21.1276C37.4881 20.8652 37.7303 20.6836 37.9725 20.7441Z" fill="#638B9E"/>
<path d="M37.7498 22.0765L38.759 22.2379C39.0012 22.2783 39.1828 22.5205 39.1425 22.7627L39.1223 22.9444C39.0819 23.1866 38.8397 23.3682 38.5975 23.3279L37.5883 23.1664C37.3461 23.126 37.1645 22.8838 37.2049 22.6416L37.225 22.46C37.2654 22.1976 37.4874 22.0361 37.7498 22.0765Z" fill="#638B9E"/>
<path d="M37.5037 23.406L38.5129 23.5675C38.7551 23.6079 38.9367 23.8501 38.8964 24.0923L38.8762 24.2739C38.8358 24.5161 38.5936 24.6978 38.3514 24.6574L37.3422 24.4959C37.1 24.4556 36.9184 24.2134 36.9588 23.9712L36.9789 23.7895C37.0193 23.5473 37.2615 23.3657 37.5037 23.406Z" fill="#638B9E"/>
<path d="M37.285 24.7601L38.2941 24.9215C38.5363 24.9619 38.718 25.2041 38.6776 25.4463L38.6575 25.628C38.6171 25.8702 38.3749 26.0518 38.1327 26.0115L37.1235 25.85C36.8813 25.8096 36.6996 25.5674 36.74 25.3252L36.7602 25.1436C36.8006 24.8812 37.0428 24.7197 37.285 24.7601Z" fill="#638B9E"/>
<path d="M36.7615 27.9295L37.7707 28.0909C38.0129 28.1313 38.1946 28.3735 38.1542 28.6157L38.134 28.7974C38.0936 29.0396 37.8514 29.2212 37.6092 29.1808L36.6001 29.0194C36.3579 28.979 36.1762 28.7368 36.2166 28.4946L36.2368 28.3129C36.2771 28.0707 36.4991 27.8891 36.7615 27.9295Z" fill="#638B9E"/>
<path d="M36.5193 29.2796L37.5285 29.4411C37.7707 29.4814 37.9524 29.7236 37.912 29.9658L37.8918 30.1475C37.8515 30.3897 37.6093 30.5714 37.3671 30.531L36.3579 30.3695C36.1157 30.3291 35.934 30.0869 35.9744 29.8447L35.9946 29.6631C36.0349 29.4007 36.2771 29.2392 36.5193 29.2796Z" fill="#638B9E"/>
<path d="M36.2928 30.6131L37.302 30.7745C37.5442 30.8149 37.7258 31.0571 37.6854 31.2993L37.6653 31.4809C37.6249 31.7232 37.3827 31.9048 37.1405 31.8644L36.1313 31.703C35.8891 31.6626 35.7075 31.4204 35.7478 31.1782L35.768 30.9965C35.8084 30.7543 36.0506 30.5727 36.2928 30.6131Z" fill="#638B9E"/>
<path d="M36.074 31.9651L37.0832 32.1266C37.3254 32.167 37.5071 32.4092 37.4667 32.6514L37.4465 32.833C37.4061 33.0752 37.1639 33.2569 36.9217 33.2165L35.9126 33.0551C35.6704 33.0147 35.4887 32.7725 35.5291 32.5303L35.5493 32.3486C35.5896 32.0862 35.8318 31.9248 36.074 31.9651Z" fill="#638B9E"/>
<path d="M31.3514 23.2857H31.4119C31.6542 23.326 31.8358 23.5682 31.7954 23.8104L31.4119 26.0508C31.3716 26.293 31.1294 26.4747 30.8872 26.4343H30.8266C30.5844 26.3939 30.4028 26.1517 30.4431 25.9095L30.8266 23.6691C30.867 23.4068 31.089 23.2453 31.3514 23.2857Z" fill="#638B9E"/>
<path d="M30.701 27.1019H30.7616C31.0038 27.1422 31.1854 27.3844 31.1451 27.6266L30.4588 31.6432C30.4185 31.8854 30.1762 32.067 29.934 32.0267H29.8735C29.6313 31.9863 29.4496 31.7441 29.49 31.5019L30.1762 27.4854C30.2166 27.223 30.4386 27.0615 30.701 27.1019Z" fill="#638B9E"/>
<path d="M46.2684 8.4095L45.7638 11.4169C45.683 11.9618 45.1583 12.3251 44.6335 12.2242L43.4023 12.0224C42.8573 11.9416 42.494 11.4169 42.595 10.8921L43.0996 7.88473C43.1803 7.33977 43.7051 6.97647 44.2298 7.07738L45.461 7.27922C46.006 7.35995 46.3693 7.86455 46.2684 8.4095Z" stroke="#638B9E" stroke-width="0.201836" stroke-miterlimit="10"/>
<path d="M45.6006 9.49962L45.4795 10.1657C45.4189 10.4684 45.1364 10.6905 44.8336 10.6299C44.5308 10.5694 44.3088 10.2868 44.3694 9.98403L44.4905 9.31797C44.551 9.01521 44.8336 8.79319 45.1364 8.85375C45.4593 8.89411 45.6611 9.19687 45.6006 9.49962Z" stroke="#638B9E" stroke-width="0.201836" stroke-miterlimit="10"/>
<path d="M44.4873 9.31993L44.3662 9.98599C44.3056 10.2887 44.0231 10.5108 43.7203 10.4502C43.4176 10.3897 43.1955 10.1071 43.2561 9.80434L43.3772 9.13828C43.4377 8.83553 43.7203 8.61351 44.0231 8.67406C44.3258 8.71442 44.5277 8.99699 44.4873 9.31993Z" stroke="#638B9E" stroke-width="0.201836" stroke-miterlimit="10"/>
<path d="M45.5884 9.58287L45.5078 10.0605L45.9855 10.1411L46.066 9.66343L45.5884 9.58287Z" stroke="#638B9E" stroke-width="0.201836" stroke-miterlimit="10"/>
<path d="M42.8931 9.12584L42.8125 9.60352L43.2902 9.68407L43.3707 9.20639L42.8931 9.12584Z" stroke="#638B9E" stroke-width="0.201836" stroke-miterlimit="10"/>
<path d="M45.681 7.30078L45.3984 8.97602" stroke="#638B9E" stroke-width="0.201836" stroke-miterlimit="10"/>
<path d="M45.1185 7.2207L44.8359 8.87576" stroke="#638B9E" stroke-width="0.201836" stroke-miterlimit="10"/>
<path d="M45.1185 10.6309L44.8359 12.2859" stroke="#638B9E" stroke-width="0.201836" stroke-miterlimit="10"/>
<path d="M44.5716 10.5293L44.2891 12.2045" stroke="#638B9E" stroke-width="0.201836" stroke-miterlimit="10"/>
<path d="M44.5521 7.11914L44.2695 8.79438" stroke="#638B9E" stroke-width="0.201836" stroke-miterlimit="10"/>
<path d="M44.0052 7.01758L43.7227 8.69282" stroke="#638B9E" stroke-width="0.201836" stroke-miterlimit="10"/>
<path d="M44.0052 10.4277L43.7227 12.103" stroke="#638B9E" stroke-width="0.201836" stroke-miterlimit="10"/>
<path d="M43.4388 10.3496L43.1562 12.0047" stroke="#638B9E" stroke-width="0.201836" stroke-miterlimit="10"/>
<path d="M48.3454 50.0684C49.3344 47.2023 49.9197 44.1748 50.0812 41.1472C50.2023 38.8665 52.6445 19.026 52.8666 16.0792C52.9271 15.2516 52.9473 14.303 52.4225 13.6571C51.6152 12.6681 49.9601 12.9507 49.072 13.859C48.2041 14.7672 47.9014 16.0792 47.6188 17.3104C47.5179 20.3783 47.1142 23.1233 46.6096 26.0499C45.9234 28.149 45.3179 29.7435 43.7234 32.5288C41.8463 34.1031 39.7068 36.3233 39.061 39.0078C38.4151 41.6922 38.4151 44.6592 39.7068 47.1014C40.9986 49.5436 43.7839 51.3198 46.5087 50.8354" fill="#8C613E"/>
<path d="M52.8902 15.1105C52.8498 14.8482 52.7287 14.0812 52.0829 13.5766C51.3159 12.9711 50.3067 13.1124 49.9636 13.2133C48.1471 13.7179 47.5617 17.4922 47.3599 19.9748C46.8755 26.2519 45.6039 29.2794 43.747 32.5492C42.3745 34.1841 39.6901 36.0208 39.3672 39.3712C39.3874 40.5823 39.5287 41.5511 39.6094 42.0758" stroke="#1D1D1B" stroke-width="0.452113" stroke-linecap="round" stroke-linejoin="round"/>
<path d="M24.4484 81.2736C24.5291 73.6644 18.5951 62.1597 24.7511 61.3927C24.8722 55.5799 25.0135 51.7652 25.175 51.3413C25.9218 49.4239 48.7898 48.7376 51.6761 50.0697C52.3421 50.3725 52.9073 54.0257 53.3715 59.5964C59.1642 58.8294 54.2394 73.4827 54.5623 82.0002" fill="#D44441"/>
<path d="M24.9141 61.3319C29.7985 60.1814 34.8242 59.6566 39.8499 59.7979C42.494 59.8787 45.1582 60.1209 47.7619 59.7777" stroke="#A82D25" stroke-width="0.452113" stroke-linecap="round" stroke-linejoin="round"/>
<path d="M26.9492 60.7888C27.0905 58.6695 27.2116 56.5705 27.3529 54.4512" stroke="#A82D25" stroke-width="0.452113" stroke-linecap="round" stroke-linejoin="round"/>
<path d="M29.8958 50.5332C29.7344 52.6323 29.694 54.7314 29.7747 56.8305" stroke="#A82D25" stroke-width="0.452113" stroke-linecap="round" stroke-linejoin="round"/>
<path d="M44.7734 59.9597C44.8138 58.7688 44.8744 57.578 44.9147 56.367" stroke="#A82D25" stroke-width="0.452113" stroke-linecap="round" stroke-linejoin="round"/>
<path d="M46.7305 59.8403C47.0332 57.4385 47.0736 54.9963 46.8314 52.5742" stroke="#A82D25" stroke-width="0.452113" stroke-linecap="round" stroke-linejoin="round"/>
<path d="M43.9844 49.8477C44.0651 50.7963 44.1862 51.7449 44.3275 52.6734" stroke="#A82D25" stroke-width="0.452113" stroke-linecap="round" stroke-linejoin="round"/>
<path d="M50.8311 59.4755C50.7503 58.5268 50.7907 57.558 50.9118 56.6094" stroke="#A82D25" stroke-width="0.452113" stroke-linecap="round" stroke-linejoin="round"/>
</g>
<defs>
<clipPath id="clip0_3250_5260">
<path d="M0.25 0H80.25V40C80.25 62.0914 62.3414 80 40.25 80C18.1586 80 0.25 62.0914 0.25 40V0Z" fill="white"/>
</clipPath>
<clipPath id="clip1_3250_5260">
<rect x="0.25" width="78.0359" height="78.0359" rx="39.0179" fill="white"/>
</clipPath>
</defs>
</svg>
