<svg width="81" height="80" viewBox="0 0 81 80" fill="none" xmlns="http://www.w3.org/2000/svg">
<g clip-path="url(#clip0_3250_4295)">
<path d="M39.2679 78.5876C60.8169 78.5876 78.2859 61.1187 78.2859 39.5697C78.2859 18.0206 60.8169 0.551727 39.2679 0.551727C17.7189 0.551727 0.25 18.0206 0.25 39.5697C0.25 61.1187 17.7189 78.5876 39.2679 78.5876Z" fill="#F4AEBA"/>
<path d="M60.4417 20.1015H38.1079C37.4863 20.1015 36.9824 20.6054 36.9824 21.227V35.3677C36.9824 35.9893 37.4863 36.4932 38.1079 36.4932H60.4417C61.0633 36.4932 61.5672 35.9893 61.5672 35.3677V21.227C61.5672 20.6054 61.0633 20.1015 60.4417 20.1015Z" fill="#666666"/>
<path d="M44.4025 40.5432H54.146C54.7694 40.5432 55.277 41.0508 55.277 41.6743H43.2715C43.2715 41.0508 43.7791 40.5432 44.4025 40.5432Z" fill="#666666"/>
<path d="M59.995 21.6295H38.5605V34.9536H59.995V21.6295Z" fill="#D40918"/>
<path d="M50.3133 36.123H47.8691V40.8954H50.3133V36.123Z" fill="#666666"/>
<path d="M38.3906 20.007H50.7161" stroke="#1D1D1B" stroke-width="0.551724" stroke-linecap="round" stroke-linejoin="round"/>
<path d="M61.6172 35.3171V26.3185" stroke="#1D1D1B" stroke-width="0.551724" stroke-linecap="round" stroke-linejoin="round"/>
<path d="M67.589 41.501H23.1035V44.5576H67.589V41.501Z" fill="#F3930D"/>
<path d="M28.3945 41.4741H59.8649" stroke="#1D1D1B" stroke-width="0.551724" stroke-linecap="round" stroke-linejoin="round"/>
<path d="M40.1367 44.6842H67.3974" stroke="#1D1D1B" stroke-width="0.551724" stroke-linecap="round" stroke-linejoin="round"/>
<path d="M63.1169 43.8846H60.6562V73.788H63.1169V43.8846Z" fill="#F3930D"/>
<path d="M60.6738 63.002V73.4572" stroke="#1D1D1B" stroke-width="0.551724" stroke-linecap="round" stroke-linejoin="round"/>
<path d="M63.2383 48.9331V59.3938" stroke="#1D1D1B" stroke-width="0.551724" stroke-linecap="round" stroke-linejoin="round"/>
<path d="M21.3435 54.4062H18.8828V69.7165H21.3435V54.4062Z" fill="#F3930D"/>
<path d="M27.8987 52.0227H12.329C11.5368 52.0227 10.8945 52.6649 10.8945 53.4572V53.9813C10.8945 54.7735 11.5368 55.4158 12.329 55.4158H27.8987C28.6909 55.4158 29.3332 54.7735 29.3332 53.9813V53.4572C29.3332 52.6649 28.6909 52.0227 27.8987 52.0227Z" fill="#666666"/>
<path d="M25.5491 29.5069C25.3891 24.7952 24.9311 23.8683 24.6387 23.3772C24.3573 22.8972 23.6677 21.7607 22.2829 21.0765C20.8153 20.3538 18.7904 20.249 17.2842 21.1924C17.2732 21.2034 17.2346 21.2255 17.1518 21.2807C15.7946 22.1855 14.9008 23.2448 14.338 24.0503C14.338 24.0503 12.2691 27.6421 11.7891 30.8034L11.9435 35.2172L19.7284 35.6365C21.7973 36.2545 23.8718 36.8724 25.9408 37.4903C25.8635 36.8172 25.7642 35.8076 25.687 34.5662C25.5491 32.409 25.6208 31.7414 25.5435 29.5124L25.5491 29.5069Z" fill="#D40918"/>
<path d="M37.1345 66.5158V70.4937L34.1993 70.5765L34.0117 66.5158H37.1345Z" fill="#925F36"/>
<path d="M36.7439 70.505L36.4736 70.516L36.457 70.505H36.7439Z" fill="#808080"/>
<path d="M42.9012 73.0816H38.9839L34.6805 72.9878C34.217 73.1533 33.7039 72.9767 33.4557 72.585C33.2405 72.2429 33.2515 71.7905 33.4943 71.4429L33.6874 70.6429L36.4736 70.516L36.7439 70.505H37.566L38.7688 70.9905C39.1219 71.1395 39.4694 71.3105 39.8005 71.4981C40.1591 71.7078 40.4736 71.8236 40.7053 71.8898C41.6708 72.1657 42.3605 71.9726 42.7191 72.425C42.8901 72.6457 42.9067 72.9105 42.9012 73.0816Z" fill="#808080"/>
<path d="M36.8379 70.5051H36.7441L36.8324 70.4996L36.8379 70.5051Z" fill="#808080"/>
<path d="M33.3622 72.4145C33.2905 72.5414 33.1967 72.74 33.136 72.9938C33.0698 73.2862 33.0202 73.5014 33.125 73.7055C33.2905 74.02 33.7043 74.0697 33.7705 74.0807C36.7278 74.0807 39.6905 74.0807 42.6478 74.0807C42.6478 74.0807 42.9236 73.5566 42.896 73.0821H42.4602C39.674 73.0435 36.8878 73.0048 34.1016 72.9717C34.0022 72.9552 33.8147 72.9 33.6326 72.751C33.4836 72.6297 33.4009 72.4972 33.3567 72.4145H33.3622Z" fill="#D9D9D9"/>
<path d="M37.572 70.5055C37.572 70.5055 34.3003 70.4889 33.6934 70.6489" stroke="#1D1D1B" stroke-width="0.551724" stroke-linecap="round" stroke-linejoin="round"/>
<path d="M33.4669 71.5815C33.3676 71.8629 33.2738 72.2712 33.4614 72.5856C33.7483 73.0656 34.5097 73.016 36.6118 72.9994C36.6118 72.9994 37.6876 72.9939 40.1152 73.016C41.1138 73.027 41.9359 73.0546 42.4766 73.0767" stroke="#1D1D1B" stroke-width="0.551724" stroke-linecap="round" stroke-linejoin="round"/>
<path d="M33.7754 74.0798C34.3823 74.0356 35.3257 73.9805 36.4899 73.986C37.5602 73.986 38.1119 74.0467 39.1988 74.0798C40.0099 74.1074 41.1906 74.1239 42.6526 74.0798" stroke="#1D1D1B" stroke-width="0.551724" stroke-linecap="round" stroke-linejoin="round"/>
<path d="M20.7754 46.3341C20.7754 46.3341 18.9382 52.6624 24.7203 53.1203C30.5023 53.5783 34.6292 53.5783 34.6292 53.5783L33.7134 68.3479L37.3823 68.2541C37.3823 68.2541 39.9313 49.9535 38.3037 47.6141C36.1961 44.5852 20.781 46.3286 20.781 46.3286L20.7754 46.3341Z" fill="#941B1A"/>
<path d="M34.0505 66.5161V70.494L31.1153 70.5768L30.9277 66.5161H34.0505Z" fill="#925F36"/>
<path d="M43.0171 33.2858L39.8281 37.2968L34.9895 43.3823L23.8281 34.4996L31.8557 24.4085L43.0171 33.2858Z" fill="#F3930D"/>
<path d="M39.0391 38.1908L43.017 33.2859L39.3591 30.3784" stroke="#1D1D1B" stroke-width="0.551724" stroke-linecap="round" stroke-linejoin="round"/>
<path d="M36.3527 27.9837L31.8562 24.4085L24.5293 33.6168" stroke="#1D1D1B" stroke-width="0.551724" stroke-linecap="round" stroke-linejoin="round"/>
<path d="M31.5267 31.5644L33.4672 29.1248C33.9243 28.5501 33.829 27.7136 33.2543 27.2565C32.6796 26.7993 31.8431 26.8946 31.386 27.4693L29.4455 29.9089C28.9883 30.4836 29.0836 31.3201 29.6583 31.7772C30.233 32.2344 31.0695 32.1391 31.5267 31.5644Z" fill="#F8BE6E"/>
<path d="M34.8398 70.5053L36.1364 71.035C36.5226 71.1895 36.8922 71.3771 37.2509 71.5812C37.6371 71.8019 37.9736 71.9288 38.2274 72.0005C39.2646 72.2984 40.0095 72.0888 40.3957 72.5798C40.5777 72.8115 40.5998 73.104 40.5943 73.286H36.3681L36.026 72.2102L33.6426 70.5053H34.8453H34.8398Z" fill="#B1B1B1"/>
<path d="M30.4475 71.5206L30.6571 70.6544L34.0502 70.4999L36.373 72.3868V73.2861L31.733 73.1868C31.2309 73.3634 30.6792 73.1758 30.4089 72.751C30.1771 72.3813 30.1937 71.8958 30.453 71.5206H30.4475Z" fill="#B1B1B1"/>
<path d="M30.2992 72.5634C30.222 72.7013 30.1227 72.9165 30.0565 73.1924C29.9847 73.5068 29.9296 73.7386 30.0454 73.9648C30.222 74.3013 30.6689 74.3565 30.7461 74.3675C33.9406 74.3675 37.1296 74.3675 40.3241 74.3675C40.3241 74.3675 40.622 73.7992 40.5944 73.2861H40.1199C37.113 73.242 34.1061 73.2034 31.0992 73.1648C30.9944 73.1427 30.7903 73.0875 30.5916 72.9275C30.4316 72.8006 30.3434 72.6517 30.2937 72.5634H30.2992Z" fill="#D9D9D9"/>
<path d="M34.8403 70.5058C34.8403 70.5058 31.3092 70.4892 30.6582 70.6603" stroke="#1D1D1B" stroke-width="0.551724" stroke-linecap="round" stroke-linejoin="round"/>
<path d="M30.4109 71.6691C30.3006 71.9726 30.2013 72.414 30.4054 72.7505C30.7144 73.2691 31.5364 73.214 33.804 73.1974C33.804 73.1974 34.9682 73.1864 37.5833 73.214C38.6647 73.225 39.5475 73.2526 40.1268 73.2802" stroke="#1D1D1B" stroke-width="0.551724" stroke-linecap="round" stroke-linejoin="round"/>
<path d="M30.7461 74.3678C31.4026 74.3182 32.4233 74.2575 33.6757 74.2685C34.8289 74.274 35.4302 74.3292 36.5999 74.3678C37.4716 74.3954 38.7516 74.4175 40.324 74.3678" stroke="#1D1D1B" stroke-width="0.551724" stroke-linecap="round" stroke-linejoin="round"/>
<path d="M14.8165 46.3342C14.8165 46.3342 12.9792 52.6625 18.7613 53.1204C24.5434 53.5783 29.6799 53.5783 29.6799 53.5783L30.5075 68.5301L34.1765 68.4363C34.1765 68.4363 36.5599 49.628 34.5461 47.6142C32.5323 45.6004 14.822 46.3287 14.822 46.3287L14.8165 46.3342Z" fill="#B70E13"/>
<path d="M28.1914 36.0609C28.1914 36.0609 29.168 33.5396 30.0562 34.2954C30.0562 34.2954 29.8962 34.7809 29.5707 35.2499C29.5707 35.2499 29.328 35.9892 29.5486 36.1713" fill="#925F36"/>
<path d="M25.9442 37.4844C25.9056 39.3989 26.0932 43.7189 26.3415 46.0913C26.6173 48.6568 14.7773 51.9009 14.7773 51.9009C13.9277 45.7106 13.4863 39.2113 14.1815 32.9989H20.587L25.9442 37.4844Z" fill="#D40918"/>
<path d="M18.5137 29.3803L19.3523 34.7265" stroke="black" stroke-width="0.551724" stroke-linecap="round" stroke-linejoin="round"/>
<path d="M26.5295 12.2103C29.1226 12.3647 28.9792 6.91922 26.9488 8.6406C24.6647 10.5772 21.8564 7.06819 19.5447 11.4875C18.1764 14.0972 19.1254 16.4365 21.095 16.9385C23.0647 17.4406 26.5295 12.2103 26.5295 12.2103Z" fill="#3A312A"/>
<path d="M23.4301 25.0655C23.5073 23.4765 24.5611 20.8117 24.6935 20.0669C24.7597 19.6807 24.9032 19.322 25.1183 18.9965C25.3114 18.7041 26.0121 18.6103 26.3928 18.0917C27.1652 17.0379 26.5749 16.1331 26.8176 14.4172C26.8342 13.6724 26.8563 12.8834 26.5307 12.2103C26.3156 11.7689 25.6976 11.7524 25.0797 11.6972C24.6273 11.6586 24.2025 11.5096 23.8163 11.5703C22.9059 11.7138 22.4038 12.3207 21.9404 13.1207C21.6976 13.54 21.3114 14.0641 21.3114 14.0641C19.8438 13.4186 19.6949 16.1165 21.1183 16.0945C21.1459 17.6062 20.8094 19.2338 20.2135 20.6738C19.6176 22.1138 23.3914 25.9758 23.4356 25.0655H23.4301Z" fill="#925F36"/>
<path d="M22.0839 12.8836L21.8301 15.3001L21.2012 15.245L21.2343 13.4408L22.0839 12.8836Z" fill="#3A312A"/>
<path d="M26.7959 16.3039C26.7959 16.3039 25.6484 19.1949 22.9615 17.1039C22.3215 16.6239 21.8249 15.2997 21.8249 15.2997L21.1959 15.2446C21.1959 15.2446 20.7435 17.0432 20.9366 17.8653C21.1297 18.6873 23.8497 21.5894 25.7201 20.4528C27.5904 19.3163 27.5739 16.7784 26.7904 16.3039H26.7959Z" fill="#3A312A"/>
<path d="M21.3828 9.4406C22.7401 8.29301 27.667 7.12335 26.3925 9.77163C25.118 12.4199 21.3828 9.4406 21.3828 9.4406Z" fill="#3A312A"/>
<path d="M24.8264 11.1674C24.8264 11.1674 24.7933 11.1508 24.7877 11.1288C24.7712 11.0956 24.7877 11.057 24.8208 11.0405C25.1574 10.8915 25.4608 10.6653 25.6981 10.3839C26.0346 9.98117 26.1615 9.55634 26.2167 9.26393C26.2222 9.22531 26.2553 9.20324 26.294 9.20876C26.3326 9.21427 26.3546 9.24738 26.3491 9.286C26.294 9.58944 26.1615 10.0419 25.8029 10.4667C25.5546 10.7646 25.2346 11.0019 24.8815 11.1563C24.865 11.1619 24.8484 11.1619 24.8319 11.1563L24.8264 11.1674Z" fill="#60564F"/>
<path d="M25.5384 11.3717C25.5384 11.3717 25.5108 11.3551 25.4998 11.3386C25.4832 11.3055 25.4943 11.2669 25.5274 11.2503C25.7977 11.1013 26.1784 10.82 26.4543 10.34C26.6308 10.0255 26.7412 9.66686 26.7632 9.30273C26.7632 9.26411 26.7963 9.23652 26.835 9.24204C26.8736 9.24204 26.9012 9.27514 26.8957 9.31376C26.8736 9.69997 26.7577 10.0751 26.5701 10.4062C26.2832 10.9138 25.8805 11.2062 25.5936 11.3662C25.577 11.3772 25.555 11.3772 25.5384 11.3662V11.3717Z" fill="#60564F"/>
<path d="M21.6914 15.3328C21.6914 15.3328 23.1369 15.1231 24.7038 16.0886C24.7038 16.0886 25.7907 15.5755 26.7949 16.3038L26.1383 17.7383L25.5149 18.0141C25.5149 18.0141 26.2211 16.8224 25.6418 16.5355C25.6418 16.5355 25.0569 16.2817 24.6652 16.5134C24.6652 16.5134 23.3852 15.8624 23.1976 16.3866C23.1976 16.3866 22.7011 17.17 23.7493 17.8541L22.8169 17.7052L21.719 16.6017L21.6914 15.3438V15.3328Z" fill="#3A312A"/>
<path d="M18.8403 35.2337C18.8403 35.2337 18.6085 35.1509 18.2058 35.0461C17.003 34.7316 14.3106 34.2185 11.9492 35.2116C12.054 35.4158 12.8816 36.9937 14.6527 37.3303C16.2527 37.6337 17.9575 36.8006 18.8403 35.2392V35.2337Z" fill="#941B1A"/>
<path d="M18.0554 34.996L18.1492 39.8512L26.9603 37.1201L28.483 39.305L17.8458 44.2153C17.8458 44.2153 14.4582 45.6719 13.5589 41.385L12.6816 35.007C12.6816 35.007 14.8168 33.8153 18.0554 34.996Z" fill="#925F36"/>
<path d="M26.834 37.1817C26.834 37.1817 28.2188 36.2769 28.5609 35.4162L29.4326 35.6479C29.4326 35.6479 31.8161 33.8438 33.2395 33.5182C33.2395 33.5182 34.0616 33.5183 33.5043 34.0424L32.3126 34.8369C32.3126 34.8369 34.3043 34.252 33.4161 35.1624L32.7926 35.5376C32.7926 35.5376 34.4312 35.6038 32.8092 36.3486C32.8092 36.3486 33.9733 36.4314 32.5829 37.2258C32.5829 37.2258 31.6505 38.0424 29.885 38.5555C29.885 38.5555 28.7154 39.1293 27.7554 39.7086" fill="#925F36"/>
<path d="M18.7618 35.1457C18.1108 34.8478 17.0128 34.5002 15.4901 34.4781C13.868 34.4561 12.7535 34.8919 12.0859 35.1899" stroke="black" stroke-width="0.551724" stroke-linecap="round" stroke-linejoin="round"/>
<path d="M24.7263 13.9374C24.7042 14.3567 24.7869 14.6602 24.8752 14.8643C25.0021 15.1733 25.2007 15.405 25.1014 15.5705C25.0407 15.6754 24.9028 15.6919 24.8807 15.6919C24.6987 15.714 24.5 15.5816 24.4062 15.3609" stroke="#161415" stroke-width="0.413793" stroke-linecap="round" stroke-linejoin="round"/>
<path d="M24.0923 14.0031C24.004 14.2348 23.7943 14.3838 23.5681 14.3783C23.3364 14.3728 23.1323 14.2017 23.0605 13.959" stroke="#161415" stroke-width="0.413793" stroke-linecap="round" stroke-linejoin="round"/>
<path d="M26.2377 14.0646C26.1549 14.2963 25.9618 14.4452 25.7522 14.4397C25.537 14.4342 25.3494 14.2632 25.2832 14.0204" stroke="#161415" stroke-width="0.413793" stroke-linecap="round" stroke-linejoin="round"/>
<path d="M25.4322 16.9279C25.3604 17.0272 25.2004 17.2148 24.9411 17.281C24.5329 17.3858 24.0529 17.1541 23.7715 16.6907" stroke="#161415" stroke-width="0.413793" stroke-linecap="round" stroke-linejoin="round"/>
<path d="M26.8342 71.5592H13.168C13.168 70.682 13.7252 69.9151 14.5528 69.6448C18.0673 68.5027 21.8466 68.4972 25.3666 69.6227L25.4438 69.6503C26.2714 69.9151 26.8342 70.6875 26.8342 71.5592Z" fill="#666666"/>
<path d="M13.7796 73.9146C14.4378 73.9146 14.9713 73.3811 14.9713 72.7229C14.9713 72.0647 14.4378 71.5312 13.7796 71.5312C13.1214 71.5312 12.5879 72.0647 12.5879 72.7229C12.5879 73.3811 13.1214 73.9146 13.7796 73.9146Z" fill="#333333"/>
<path d="M26.5198 73.9146C27.178 73.9146 27.7116 73.3811 27.7116 72.7229C27.7116 72.0647 27.178 71.5312 26.5198 71.5312C25.8617 71.5312 25.3281 72.0647 25.3281 72.7229C25.3281 73.3811 25.8617 73.9146 26.5198 73.9146Z" fill="#333333"/>
<path d="M18.9004 57.4353V67.8905" stroke="#1D1D1B" stroke-width="0.551724" stroke-linecap="round" stroke-linejoin="round"/>
<path d="M22.248 55.4159H27.9032" stroke="#1D1D1B" stroke-width="0.551724" stroke-linecap="round" stroke-linejoin="round"/>
<path d="M47.6352 30.0357L47.3594 28.5847L48.7001 29.7102L48.027 30.1957C47.878 30.3006 47.6739 30.2178 47.6408 30.0412L47.6352 30.0357Z" fill="#B2B2B2"/>
<path d="M45.8417 26.9184L52.7824 25.6163C52.959 25.5832 53.0914 25.7708 53.0086 25.9253L50.432 30.7253C50.3714 30.8412 50.2169 30.8743 50.112 30.7915L45.7479 27.2936C45.6045 27.1777 45.6652 26.9515 45.8417 26.9184Z" fill="white"/>
<path d="M50.0578 30.8637L45.6936 27.3658C45.5998 27.2885 45.5612 27.1727 45.5888 27.0568C45.6164 26.9409 45.7102 26.8582 45.826 26.8361L52.7667 25.534C52.8826 25.512 52.9985 25.5561 53.0647 25.6499C53.1309 25.7437 53.1419 25.8651 53.0867 25.9699L50.5047 30.7699C50.4605 30.8471 50.3888 30.9023 50.3005 30.9244C50.2123 30.9409 50.124 30.9244 50.0578 30.8637ZM45.7654 27.1009C45.7543 27.1506 45.7654 27.1947 45.8095 27.2278L50.1736 30.7258C50.2012 30.7478 50.2398 30.7589 50.2729 30.7478C50.3116 30.7423 50.3391 30.7202 50.3557 30.6871L52.9378 25.8871C52.9598 25.843 52.9598 25.7933 52.9267 25.7547C52.8991 25.7161 52.855 25.6996 52.8054 25.7051L45.8647 27.0071C45.8205 27.0182 45.7819 27.0513 45.7654 27.0954V27.1009Z" fill="#D40918"/>
<path d="M47.3757 28.6733C47.3757 28.6733 47.3923 28.6733 47.3978 28.6623L53.4226 25.4954C53.4668 25.4733 46.7578 27.9726 46.7578 27.9726C46.824 28.1712 47.2544 28.5795 47.2819 28.6237C47.2985 28.6568 47.3426 28.6788 47.3757 28.6678V28.6733Z" fill="#D40918"/>
<path d="M21.7056 27.5539L20.5745 27.8794L20.9883 28.8008L20.3594 29.0932L20.6628 29.7001L21.2642 29.4794L21.5621 30.1525L22.7925 29.7332L22.489 28.9884L22.9359 28.8504L22.6876 28.2049L22.1249 28.3539L21.7056 27.5539Z" fill="#FFE200"/>
<path d="M32.2486 22.4393C31.9065 22.2738 31.5645 22.0807 31.1948 22.0145C30.3727 21.8655 29.49 22.4393 29.2969 23.2504" stroke="#1D1D1B" stroke-width="0.413793" stroke-linecap="round" stroke-linejoin="round"/>
<path d="M32.0728 21.2367C31.7307 21.0712 31.3887 20.8781 31.019 20.8119C30.197 20.663 29.3142 21.2367 29.1211 22.0478" stroke="#1D1D1B" stroke-width="0.413793" stroke-linecap="round" stroke-linejoin="round"/>
</g>
<defs>
<clipPath id="clip0_3250_4295">
<rect width="80" height="80" fill="white" transform="translate(0.25)"/>
</clipPath>
</defs>
</svg>
