<svg width="34" height="34" viewBox="0 0 34 34" fill="none" xmlns="http://www.w3.org/2000/svg">
<g clip-path="url(#clip0_165_176)">
<g clip-path="url(#clip1_165_176)">
<path d="M0 0H33.9999V33.9974H0V0Z" fill="#FF6600"/>
<path d="M30.6146 22.1066C30.7389 18.7276 28.9833 16.8469 25.806 16.8469C22.8613 16.8469 21.1504 18.9851 21.1504 22.1721C21.1504 25.5331 22.8613 27.5203 25.8062 27.5203H30.7845V25.5792H29.3196C30.0425 24.8669 30.5579 23.6317 30.6151 22.1065H30.6147L30.6146 22.1066ZM24.6134 22.1721C24.6134 20.3894 24.9914 19.5333 25.8062 19.5333C26.6206 19.5333 27 20.3894 27 22.1721C27 23.9548 26.6205 24.81 25.8063 24.81C24.9918 24.81 24.6136 23.9548 24.6136 22.1721H24.6134ZM10.1509 22.083C11.3255 21.4675 11.6575 20.7279 11.6427 19.5676C11.6238 18.0753 10.5588 16.9991 8.38623 16.9991H3.4585V27.5307H8.47515C10.3007 27.5307 11.8967 26.53 11.8967 24.5779C11.8967 23.2838 11.2697 22.4364 10.1507 22.0829L10.1509 22.083ZM6.84462 19.3849H7.28059C7.88517 19.3849 8.20826 19.6567 8.20826 20.2034C8.20826 20.7491 7.88493 21.0646 7.28059 21.0646H6.84486V19.3849H6.84462ZM7.42243 25.1431H6.84462V23.2666H7.42243C8.0348 23.2666 8.40338 23.5705 8.40338 24.1826C8.40338 24.795 8.0348 25.1431 7.42268 25.1431H7.42243ZM20.8793 27.5405C20.7869 26.9128 20.467 26.1872 19.9641 25.3964C20.1749 25.184 20.3803 24.9663 20.5801 24.7435L19.294 23.2536C19.1067 23.4197 18.9222 23.5906 18.7381 23.7597C18.4742 23.4458 18.1883 23.1271 17.883 22.8041C18.774 22.2013 19.3768 21.425 19.3768 20.4357C19.3768 19.3409 18.4069 18.2351 16.6327 18.2351C14.7749 18.2351 13.7144 19.3066 13.7144 20.5447C13.7144 21.2464 14.1408 21.9351 14.5882 22.4785C13.7136 23.0804 12.9545 23.9073 12.8906 24.9333C12.7765 26.756 14.1776 27.7307 15.8925 27.6574C16.5773 27.6297 17.3262 27.4154 18.1884 26.8679C18.3266 27.1218 18.4226 27.3529 18.4577 27.5404H20.8792V27.5406L20.8793 27.5405ZM16.6108 19.9128C16.938 19.9128 17.1606 20.2299 17.1606 20.5453C17.1606 20.7631 17.0248 21.0741 16.5232 21.412C16.2189 21.0756 16.0378 20.7992 16.0378 20.5234C16.0376 20.2323 16.2671 19.9128 16.6108 19.9128ZM15.6376 25.3902C15.3566 25.1591 15.1489 24.4515 15.9393 23.9268C16.3156 24.3437 16.6801 24.771 17.0324 25.2081C16.4881 25.5657 16.011 25.6995 15.6378 25.3902H15.6376Z" fill="white"/>
</g>
</g>
<defs>
<clipPath id="clip0_165_176">
<rect width="34" height="34" fill="white"/>
</clipPath>
<clipPath id="clip1_165_176">
<rect width="34" height="33.9974" fill="white"/>
</clipPath>
</defs>
</svg>
