<svg width="92" height="34" viewBox="0 0 92 34" fill="none" xmlns="http://www.w3.org/2000/svg">
<rect width="92" height="34" fill="#214232"/>
<g clip-path="url(#clip0_165_137)">
<path d="M20.4143 12H10V21.6848C10.0027 22.0337 10.1533 22.3674 10.419 22.6137C10.6848 22.8599 11.0443 22.9987 11.4194 23H20.4143C20.7885 22.9975 21.1467 22.8581 21.4114 22.612C21.676 22.3659 21.8259 22.0328 21.8286 21.6848V13.32C21.8272 12.9711 21.678 12.6368 21.4132 12.3897C21.1484 12.1425 20.7894 12.0025 20.4143 12ZM15.9503 12.8465L16.6857 16.7491L15.8937 17.4043L15.1429 16.7491L15.9503 12.8465ZM10.6943 17.4761L15.076 16.8304L15.8063 17.4809L15.076 18.1791L10.6943 17.4761ZM15.8937 22.1583L15.1429 18.2557L15.8731 17.5622L16.6857 18.2557L15.8937 22.1583ZM16.7629 18.1791L15.9811 17.4809L16.7629 16.8257L21.1446 17.4761L16.7629 18.1791Z" fill="white"/>
<path d="M30.5355 16.51H29.3938V13.4013L27.1309 15.9122L24.8886 13.4013V16.51H23.7212V12.1339H25.0532L27.1103 14.4535L29.1675 12.1339H30.5046L30.5355 16.51Z" fill="white"/>
<path d="M37.7201 14.3148C37.7273 14.6221 37.6577 14.9268 37.5167 15.2048C37.3757 15.4829 37.1671 15.7266 36.9075 15.9169C36.2281 16.4145 35.3802 16.6705 34.5161 16.6391C33.648 16.6758 32.795 16.4193 32.1144 15.9169C31.856 15.7259 31.6487 15.4819 31.5086 15.2039C31.3685 14.926 31.2995 14.6217 31.3069 14.3148C31.3003 14.0101 31.3698 13.7081 31.5099 13.4326C31.65 13.1571 31.8569 12.9155 32.1144 12.7269C32.7956 12.2217 33.6508 11.9635 34.5212 12C35.3847 11.9681 36.2317 12.2261 36.9075 12.7269C37.1659 12.915 37.3738 13.1563 37.5148 13.4319C37.6558 13.7074 37.7261 14.0097 37.7201 14.3148ZM36.5424 14.3148C36.5472 14.1088 36.4994 13.9047 36.4028 13.7193C36.3063 13.5339 36.1637 13.3724 35.9869 13.2483C35.5505 12.9802 35.0391 12.8374 34.5161 12.8374C33.9931 12.8374 33.4816 12.9802 33.0452 13.2483C32.8694 13.3729 32.7278 13.5346 32.6322 13.72C32.5365 13.9054 32.4895 14.1092 32.4949 14.3148C32.4881 14.5214 32.5339 14.7266 32.6287 14.9137C32.7234 15.1007 32.8644 15.2642 33.0401 15.3909C33.4655 15.6797 33.985 15.8233 34.5109 15.7974C35.0402 15.824 35.5632 15.6804 35.9921 15.3909C36.169 15.265 36.3112 15.1017 36.4069 14.9146C36.5026 14.7275 36.549 14.5219 36.5424 14.3148Z" fill="white"/>
<path d="M44.1846 15.037C44.1814 15.2739 44.1095 15.5056 43.9765 15.7076C43.8434 15.9097 43.6541 16.0745 43.4286 16.1848C42.7915 16.5136 42.0685 16.6709 41.3406 16.6391C40.6127 16.6712 39.8896 16.5138 39.2526 16.1848C39.0261 16.0752 38.8358 15.9106 38.7018 15.7085C38.5678 15.5064 38.4951 15.2744 38.4915 15.037V12.1339H39.6332V14.8935C39.6349 15.0318 39.6782 15.1669 39.7581 15.2836C39.8381 15.4002 39.9516 15.4937 40.0857 15.5535C40.4814 15.7177 40.9099 15.8025 41.3432 15.8025C41.7765 15.8025 42.2049 15.7177 42.6006 15.5535C42.732 15.494 42.843 15.4016 42.9211 15.2867C42.9992 15.1718 43.0414 15.039 43.0429 14.903V12.1339H44.1897L44.1846 15.037Z" fill="white"/>
<path d="M50.9834 16.51H49.6412L46.4526 13.387V16.51H45.2852V12.1339H46.6223L49.8109 15.2665V12.1339H50.9577L50.9834 16.51Z" fill="white"/>
<path d="M57.345 12.9565H55.1028V16.4957H53.9611V12.9565H51.7136V12.1339H57.345V12.9565Z" fill="white"/>
<path d="M63.177 16.51H62.0199L61.5056 15.5535H58.461L57.9468 16.51H56.769L59.2685 12.1339H60.6828L63.177 16.51ZM60.9965 14.7261L59.9679 12.9278L58.9393 14.7261H60.9965Z" fill="white"/>
<path d="M64.9154 16.51H63.7686V12.1339H64.9154V16.51Z" fill="white"/>
<path d="M71.6321 16.51H70.2898L67.0858 13.387V16.51H65.939V12.1339H67.2761L70.4647 15.2665V12.1339H71.6115L71.6321 16.51Z" fill="white"/>
<path d="M31.0548 18.5092L29.44 22.8757H28.1028L27.0743 19.5757H27.0434L26.0508 22.8757H24.7343L23.1143 18.5092H24.364L25.3925 21.7039L26.3543 18.5092H27.7943L28.7457 21.7039L29.7743 18.5092H31.0548Z" fill="white"/>
<path d="M37.0154 22.8757H35.8634L35.3491 21.9192H32.3148L31.8005 22.8757H30.6228L33.1428 18.5092H34.5519L37.0154 22.8757ZM34.8399 21.087L33.8114 19.2935L32.7828 21.087H34.8399Z" fill="white"/>
<path d="M43.3412 22.8757H42.0555L40.9035 21.3309H38.7435V22.8757H37.6069V18.5091H41.4538C41.9206 18.488 42.379 18.6296 42.7395 18.9061C42.8988 19.0333 43.0255 19.1922 43.11 19.371C43.1946 19.5498 43.2349 19.7439 43.2281 19.9391C43.2545 20.2423 43.16 20.5438 42.9628 20.7863C42.7655 21.0289 42.4792 21.1955 42.1584 21.2544L43.3412 22.8757ZM41.3252 20.4844C41.528 20.496 41.7286 20.4401 41.8909 20.3265C41.9576 20.2739 42.0103 20.2077 42.0451 20.133C42.0799 20.0584 42.0958 19.9773 42.0915 19.8961C42.0956 19.8179 42.079 19.7399 42.0432 19.669C42.0073 19.5981 41.9533 19.5365 41.8858 19.4896C41.7216 19.3799 41.5219 19.3259 41.3201 19.3365H38.7486V20.4796L41.3252 20.4844Z" fill="white"/>
<path d="M49.3789 22.8757H44.1074V18.5092H49.1989V19.3461H45.2491V20.2405H47.9903V21.087H45.2491V22.0435H49.3634L49.3789 22.8757Z" fill="white"/>
<path d="M55.8384 22.8757H54.6966V21.0009H51.3024V22.8757H50.1606V18.5139H51.3024V20.1304H54.6915V18.5139H55.8332L55.8384 22.8757Z" fill="white"/>
<path d="M62.9972 20.6852C63.0041 20.9918 62.9342 21.2956 62.7932 21.5729C62.6522 21.8501 62.4439 22.093 62.1847 22.2826C61.4918 22.7486 60.6586 22.9995 59.8035 22.9995C58.9485 22.9995 58.1152 22.7486 57.4224 22.2826C57.1693 22.0892 56.9655 21.8461 56.8256 21.5707C56.6856 21.2953 56.613 20.9945 56.613 20.69C56.613 20.3854 56.6856 20.0846 56.8256 19.8092C56.9655 19.5338 57.1693 19.2907 57.4224 19.0974C58.1125 18.6275 58.9456 18.3743 59.801 18.3743C60.6563 18.3743 61.4894 18.6275 62.1795 19.0974C62.4392 19.2847 62.6483 19.5257 62.7902 19.8014C62.9322 20.077 63.0031 20.3796 62.9972 20.6852ZM61.8247 20.6852C61.8297 20.4804 61.7825 20.2773 61.6868 20.0928C61.5912 19.9082 61.4498 19.7474 61.2744 19.6234C60.8395 19.3563 60.3298 19.2138 59.8087 19.2138C59.2875 19.2138 58.7778 19.3563 58.343 19.6234C58.1722 19.7521 58.0344 19.9147 57.9398 20.0992C57.8452 20.2837 57.7961 20.4855 57.7961 20.69C57.7961 20.8944 57.8452 21.0962 57.9398 21.2807C58.0344 21.4653 58.1722 21.6278 58.343 21.7565C58.7664 22.0454 59.2843 22.189 59.8087 22.163C60.3362 22.1889 60.8573 22.0454 61.2847 21.7565C61.4593 21.6303 61.5993 21.4675 61.6932 21.2812C61.7871 21.095 61.8321 20.8907 61.8247 20.6852Z" fill="white"/>
<path d="M69.4565 21.4026C69.4529 21.64 69.3802 21.8721 69.2462 22.0742C69.1122 22.2763 68.9218 22.4408 68.6954 22.5505C68.0485 22.8477 67.3367 23.0024 66.6151 23.0024C65.8935 23.0024 65.1817 22.8477 64.5348 22.5505C64.3093 22.4402 64.12 22.2753 63.9869 22.0733C63.8539 21.8713 63.782 21.6395 63.7788 21.4026V18.5092H64.9205V21.2639C64.9226 21.4016 64.9661 21.5359 65.0461 21.6517C65.1261 21.7675 65.2394 21.8602 65.3731 21.9192C65.7674 22.082 66.194 22.1661 66.6254 22.1661C67.0568 22.1661 67.4834 22.082 67.8777 21.9192C68.0087 21.8604 68.1195 21.7689 68.1976 21.6549C68.2757 21.5408 68.3181 21.4087 68.32 21.2735V18.5092H69.4617L69.4565 21.4026Z" fill="white"/>
<path d="M75.0829 19.7383C74.4511 19.4211 73.7437 19.2566 73.0257 19.26C72.0349 19.26 71.5394 19.4195 71.5394 19.7383C71.5394 19.8866 71.6783 19.9918 71.9509 20.0492C72.2099 20.0981 72.4734 20.1238 72.7377 20.1257L73.7303 20.1783C74.3009 20.1951 74.8608 20.3273 75.3709 20.5657C75.5394 20.6621 75.6764 20.7994 75.767 20.963C75.8577 21.1265 75.8985 21.31 75.8851 21.4935C75.89 21.7217 75.8267 21.9466 75.7023 22.1434C75.578 22.3401 75.3973 22.5009 75.1806 22.6079C74.5446 22.9066 73.8345 23.042 73.1234 23C72.042 23.0274 70.9781 22.7416 70.0789 22.1822L70.7011 21.4696C71.4428 21.9066 72.302 22.1404 73.18 22.144C73.5536 22.1589 73.9266 22.1019 74.2754 21.9766C74.5326 21.8666 74.6611 21.7183 74.6611 21.5366C74.6611 21.3548 74.5171 21.2496 74.2343 21.1922C73.8423 21.1408 73.4472 21.112 73.0514 21.1061C72.3483 21.1155 71.6498 20.9985 70.9943 20.7618C70.7884 20.6875 70.6125 20.5555 70.4909 20.3842C70.3693 20.2128 70.3079 20.0105 70.3154 19.8053C70.3157 19.593 70.3794 19.3849 70.4992 19.2042C70.619 19.0235 70.7904 18.8773 70.9943 18.7818C71.5945 18.5022 72.2629 18.3736 72.9331 18.4087C73.9014 18.3659 74.8618 18.5887 75.6949 19.0496L75.0829 19.7383Z" fill="white"/>
<path d="M81.9999 22.8757H76.7285V18.5092H81.8199V19.3461H77.8857V20.2405H80.6268V21.087H77.8857V22.0435H81.9999V22.8757Z" fill="white"/>
</g>
<defs>
<clipPath id="clip0_165_137">
<rect width="72" height="11" fill="white" transform="translate(10 12)"/>
</clipPath>
</defs>
</svg>
