<svg class="halfords-header-brand-logo css-ru9mfk icon_icon icon_xsmall icon_brandLogo css-yp0dqw"
    data-testid="brand-logo-svg" xmlns="http://www.w3.org/2000/svg" viewBox="0 0 295.8 61.2" aria-hidden="true"
    width="300" height="62">
    <g>
        <g>
            <path fill="#FF9718"
                d="M0,0.4h13.5v22.2h0.2c2.1-4.4,7.6-7.2,12.5-7.2C39.9,15.4,41,25.9,41,32.2v27.7H27.5V39 c0-5.9,0.6-11.9-6.7-11.9c-5.1,0-7.3,4.5-7.3,9.2v23.5H0V0.4z">
            </path>
            <path fill="#FF9718"
                d="M48.1,29.9c0.2-5.7,2.8-9.3,6.4-11.6c3.6-2.2,8.4-3,13.1-3c9.8,0,19.2,2.2,19.2,14.5v18.9 c0,3.7,0,7.7,1.6,11.1H74.8c-0.5-1.3-0.6-2.7-0.8-4.1c-3.5,3.8-8.6,5.3-13.6,5.3c-7.9,0-14-4.2-14-13.1c0-14.1,14.6-13,24-15 c2.3-0.5,3.6-1.3,3.6-4c0-3.2-3.7-4.5-6.5-4.5c-3.7,0-6.1,1.8-6.7,5.4H48.1z M65.5,52.4c6.4,0,8.6-3.8,8.2-12.7 c-1.9,1.3-5.4,1.5-8.3,2.3c-3,0.7-5.6,2.1-5.6,5.5C59.9,50.9,62.5,52.4,65.5,52.4">
            </path>
            <rect x="93.4" y="0.7" fill="#FF9718" width="13.5" height="59.1"></rect>
            <path fill="#FF9718"
                d="M163.7,15.5c11.3,0,18.7,6.6,17.5,18.8c-1.6,15.2-12,26.3-27,26.3c-11.4,0-19.1-6-17.8-18.6 C138,27,148.8,15.5,163.7,15.5 M155.6,50.4c7.7,0,11.3-8.9,12-15.5c0.6-5.3-0.8-9.1-5.9-9.1c-7.3,0-11.2,10-11.8,15.8 C149.4,46.5,150.8,50.4,155.6,50.4">
            </path>
            <path fill="#FF9718"
                d="M138.9,16.5h-8.3v-1.9c0-4,1.9-4.4,5-4.4c1.2,0,2.4,0.1,3.6,0.2V0.3c-2.1-0.1-4.4-0.3-6.5-0.3 c-11.5,0-15.6,3.9-15.6,16.5h-6.5v9.3h6.5v34.1h13.5V25.8h4.9L138.9,16.5z">
            </path>
            <path fill="#FF9718" d="M215.4,28.4c0,0,0.1,0,0.1,0V28L215.4,28.4z"></path>
            <path fill="#FF9718"
                d="M185.9,51V16.5H199v7h0.2c2-5.2,6.6-8,12.4-8c0.9,0,1.9,0.1,2.9,0.3l-0.6,1.8l-3.6,9.8c-0.2,0-0.4,0-0.6,0 c-6.7,0-10.2,4.6-10.2,9.8v22.7h-13.5V51z">
            </path>
            <path fill="#FF9718"
                d="M255.4,59.8h-12.9v-4.9h-0.2c-2.6,4.1-6.6,6.3-11.3,6.3c-12.9,0-18.4-11.7-18.4-24c0-11.3,5.7-22,17.4-22 c5.1,0,9,2,11.7,6h0.2v-21h13.5V59.8z M226.2,37.7c0,6,2.1,12.6,8.2,12.6c6.6,0,8-6.6,8-12.1c0-6.3-2.1-12.1-8-12.1 C228.2,26.1,226.2,32.2,226.2,37.7">
            </path>
            <path fill="#FF9718"
                d="M277.5,60.7c-6.9,0-12.3-1.9-17.4-5.3l3.9-11c4.2,3.1,9.6,5.3,13.6,5.3c3.4,0,4.8-1.2,4.8-2.9 c0-5.4-20.3-2.1-20.3-16.7c0-8.8,7.5-14.7,17.7-14.7c5.2,0,11.4,2,15.6,4.3l-3.9,10.5c-4.2-2.4-8.8-3.9-12.4-3.9 c-2.8,0-4.3,1.2-4.3,2.7c0,5.5,21.1,2.1,21.1,17.7C295.8,55.3,287.8,60.7,277.5,60.7">
            </path>
        </g>
    </g>
</svg>