<svg version="1.1" id="Layer_1" x="0px" y="0px" xml:space="preserve" xmlns="http://www.w3.org/2000/svg"
   xmlns:svg="http://www.w3.org/2000/svg" viewBox="-2477631.25 -1513774.63 1920 620.13">
   <defs id="defs1" />
   <style type="text/css" id="style1">
      .st0 {
         fill: #1434CB;
      }
   </style>

   <path class="st0"
      d="m -2476902,-1513763.5 -251.4,599.8 h -164 l -123.7,-478.7 c -7.5,-29.4 -14,-40.2 -36.9,-52.7 -37.3,-20.2 -98.8,-39.2 -153,-51 l 3.7,-17.4 h 264 c 33.6,0 63.9,22.4 71.5,61.2 l 65.3,347 161.5,-408.2 h 163 z m 642.6,403.9 c 0.6,-158.2 -218.9,-167 -217.4,-237.7 0.5,-21.5 21,-44.4 65.8,-50.2 22.2,-2.9 83.5,-5.1 153,26.8 l 27.2,-127.2 c -37.3,-13.5 -85.4,-26.5 -145.1,-26.5 -153.4,0 -261.3,81.5 -262.2,198.2 -1,86.3 77,134.5 135.8,163.2 60.5,29.4 80.8,48.3 80.5,74.6 -0.4,40.2 -48.2,57.9 -92.9,58.6 -77.9,1.2 -123.2,-21.1 -159.3,-37.8 l -28.1,131.4 c 36.3,16.6 103.2,31.1 172.6,31.8 162.9,0 269.6,-80.5 270.1,-205.2 m 404.9,195.9 h 143.5 l -125.3,-599.8 h -132.4 c -29.8,0 -54.9,17.4 -66,44 l -232.8,555.8 h 162.9 l 32.3,-89.6 h 199.1 z m -173.1,-212.5 81.7,-225.2 47,225.2 z m -652.7,-387.3 -128.3,599.8 h -155.2 l 128.4,-599.8 z"
      id="path1" />

</svg>