<svg width="24" height="24" viewBox="0 0 24 24" fill="none" xmlns="http://www.w3.org/2000/svg">
<path d="M12.001 1.00001C9.70326 0.997169 7.46245 1.71518 5.5938 3.05302C3.72514 4.39087 2.32269 6.28123 1.58372 8.45817C0.844756 10.6351 0.806468 12.9891 1.47425 15.1889C2.14202 17.3888 3.48226 19.3238 5.30641 20.7218C5.34231 20.7541 5.38101 20.7833 5.42205 20.8088C6.81669 21.8525 8.43919 22.5497 10.1559 22.843C11.8726 23.1364 13.6344 23.0174 15.2962 22.496C16.9579 21.9745 18.4721 21.0655 19.7139 19.8438C20.9558 18.6221 21.8898 17.1226 22.439 15.469C22.9882 13.8153 23.137 12.0547 22.8729 10.3323C22.6089 8.60986 21.9396 6.97484 20.9203 5.5619C19.901 4.14897 18.5608 2.99855 17.0101 2.20542C15.4594 1.4123 13.7426 0.999146 12.001 1.00001ZM6.66436 19.8228C6.75108 18.4664 7.35136 17.1941 8.3429 16.2652C9.33444 15.3362 10.6426 14.8204 12.001 14.823C13.3571 14.8285 14.6609 15.3473 15.6505 16.2752C16.64 17.203 17.242 18.4711 17.3356 19.8248C15.7648 20.9027 13.9047 21.4796 12 21.4796C10.0953 21.4796 8.23517 20.9027 6.66436 19.8248V19.8228ZM8.67519 9.95933C8.67519 9.30116 8.87025 8.65778 9.23569 8.11053C9.60113 7.56329 10.1206 7.13676 10.7283 6.88489C11.336 6.63302 12.0047 6.56712 12.6498 6.69552C13.295 6.82392 13.8876 7.14086 14.3527 7.60625C14.8178 8.07165 15.1346 8.6646 15.2629 9.31012C15.3912 9.95564 15.3254 10.6247 15.0736 11.2328C14.8219 11.8409 14.3956 12.3606 13.8487 12.7262C13.3018 13.0919 12.6588 13.2871 12.001 13.2871C11.1193 13.286 10.274 12.935 9.65049 12.3112C9.02702 11.6874 8.67628 10.8416 8.67519 9.95933ZM18.7283 18.6627C18.4873 17.6225 18.0099 16.652 17.3332 15.8264C16.6565 15.0008 15.7987 14.3425 14.8264 13.9025C15.6637 13.303 16.2891 12.4531 16.6126 11.4752C16.936 10.4972 16.9408 9.44174 16.6262 8.4609C16.3117 7.48005 15.694 6.62447 14.8622 6.01747C14.0304 5.41047 13.0274 5.08341 11.9979 5.08341C10.9684 5.08341 9.96548 5.41047 9.13369 6.01747C8.3019 6.62447 7.6842 7.48005 7.36962 8.4609C7.05504 9.44174 7.05983 10.4972 7.38329 11.4752C7.70676 12.4531 8.33219 13.303 9.16946 13.9025C8.19625 14.3409 7.33777 14.999 6.66133 15.825C5.98489 16.6511 5.50887 17.6227 5.27059 18.6637C3.95688 17.3351 3.06537 15.6474 2.70829 13.8129C2.35122 11.9784 2.54454 10.0792 3.26394 8.35446C3.98333 6.6297 5.19662 5.15644 6.75106 4.12018C8.30551 3.08392 10.1316 2.53099 11.9995 2.53099C13.8673 2.53099 15.6934 3.08392 17.2479 4.12018C18.8023 5.15644 20.0156 6.6297 20.735 8.35446C21.4544 10.0792 21.6477 11.9784 21.2906 13.8129C20.9336 15.6474 20.042 17.3341 18.7283 18.6627Z" fill="#DA202A" stroke="#DA202A" stroke-width="0.5"/>
</svg>
