<svg width="104" height="104" viewBox="0 0 104 104" fill="none" xmlns="http://www.w3.org/2000/svg">
<g clip-path="url(#clip0_3376_6626)">
<g style="mix-blend-mode:multiply" opacity="0.3">
<path d="M69.9235 104.467C69.9235 104.467 80.3927 104.658 81.0831 102.43C81.7735 100.202 78.8768 99.9317 78.8768 99.9317C78.8768 99.9317 71.2574 98.4608 69.4548 97.6478C69.4548 97.6478 67.5658 101.882 69.9217 104.467H69.9235Z" fill="black"/>
</g>
<g style="mix-blend-mode:multiply" opacity="0.3">
<path d="M35.1549 104.218C34.9043 103.964 33.1036 103.741 33.0441 102.661C32.9846 101.581 33.4965 100.876 34.98 100.819C36.4635 100.761 36.541 102.965 36.541 102.965L35.1549 104.218Z" fill="black"/>
</g>
<path d="M34.839 100.795V104.467H69.9238V100.48L34.839 100.795Z" fill="black"/>
<path d="M34.3219 35.5644V101.511L54.2851 102.069L70.4414 101.511V32.1539L34.3219 35.5644Z" fill="#BC1822"/>
<path d="M54.2851 32.7256V102.07L70.4414 101.511V33.2357L54.2851 32.7256Z" fill="#A0141D"/>
<path d="M44.1388 83.6367C43.8937 83.5105 42.0244 83.5772 42.0244 83.5772L42.12 88.8803L44.2344 88.9272L44.1388 83.6367Z" fill="white" stroke="white" stroke-width="0.0540728" stroke-miterlimit="10"/>
<path d="M45.9678 85.9078C46.0057 86.043 45.9696 87.8347 46.0057 87.9357C46.0417 88.0366 40.4701 87.8654 40.4701 87.8654L40.434 85.8051L45.9678 85.9078Z" fill="#DA202A" stroke="white" stroke-width="0.0540728" stroke-miterlimit="10"/>
<path d="M64.1138 47.299C64.0092 47.2792 61.5073 46.7384 61.5073 46.7384L61.464 53.6079C61.464 53.6079 64.2814 54.3488 64.1768 54.1271C64.0723 53.9053 64.1138 47.299 64.1138 47.299Z" fill="white"/>
<path d="M66.0638 50.4823C66.0295 50.6102 66.1683 52.9698 66.0638 53.0509C65.9592 53.132 59.4286 51.9171 59.4286 51.9171V49.2133L66.0638 50.4823Z" fill="#DA202A" stroke="white" stroke-width="0.0540728" stroke-miterlimit="10"/>
<path d="M50.7363 36.3395V53.5791L39.5317 53.9396V37.3669L50.7363 36.3395Z" fill="#B70E13"/>
<path d="M36.5397 37.641L36.7091 53.9396L50.7348 53.5791V36.3395L52.7969 36.1503V54.1199C52.7969 54.1199 49.2477 55.8215 43.164 55.8215C37.0804 55.8215 35.1535 54.4804 35.1535 54.4804V37.769L36.5397 37.641Z" fill="#C1C6C8"/>
<path d="M36.5408 37.6412L39.5312 37.3672V53.6352L36.7103 53.9398L36.5408 37.6412Z" fill="#2A2A2D"/>
<path d="M50.7363 52.3281V53.5791L36.7107 53.9396L38.0734 52.6886L50.7363 52.3281Z" fill="#404044"/>
<path d="M38.6968 38.4989C38.6139 38.5169 38.5039 38.4592 38.4481 38.5529C38.3922 38.6467 38.2967 38.4232 38.2714 38.4178C38.1939 38.3276 38.147 38.5241 38.1759 38.5115C38.0984 38.4917 38.0118 38.3006 37.9163 38.3943C37.8965 38.5818 37.4296 37.9797 37.4459 38.187L37.3611 38.2808C37.2422 38.4376 37.006 37.9887 36.8744 38.133C36.8744 38.133 36.8781 38.1474 36.8853 38.1618L36.541 37.5597L36.9231 37.2227L37.125 36.6404L37.8154 36.7017L38.3381 36.4349L39.5332 36.3971V38.4628C39.2772 38.5493 38.96 38.47 38.6878 38.5584L38.6968 38.5007V38.4989Z" fill="#2A2A2D"/>
<path d="M37.3308 47.9479C37.3308 45.2765 38.0536 43.1296 39.5317 41.3055L50.7363 40.6133V52.3299L38.0734 52.6904C37.5687 51.4142 37.3308 49.4386 37.3308 47.9497V47.9479Z" fill="#C1C6C8"/>
<path d="M39.5551 36.4512V38.4539C39.5551 38.4539 45.9848 38.9153 50.5705 36.572C50.5705 36.572 51.8323 35.6906 50.0694 35.6906C48.3065 35.6906 41.0368 36.1304 39.5551 36.4512Z" fill="#9B0E13"/>
<path d="M54.2852 34.3332L34.4715 37.9653C34.4715 37.9653 31.1656 37.1794 31.0322 35.6076C30.9169 34.2431 31.0322 33.2354 32.6545 32.7235C33.2278 32.5433 41.7286 28.4605 54.2852 27.5358V34.3314V34.3332Z" fill="#BC1822"/>
<path d="M52.7969 36.1502L36.5397 37.6409L36.5811 36.015L47.6145 34.573L51.6937 35.1588L52.7969 36.1502Z" fill="#BC1822"/>
<path d="M74.0285 36.1989L73.823 37.6824C73.7509 38.2033 73.394 38.6305 72.9109 38.7838C72.0511 39.056 70.3279 39.7427 67.3032 39.3227C62.1317 38.6053 48.8397 32.3595 49.1425 30.1766C49.4453 27.9937 52.6845 26.7085 62.2993 28.0424C71.9141 29.3763 74.198 34.9768 74.0285 36.1989Z" fill="#A0141D"/>
<path d="M39.2763 69.9192L47.2129 70.0057L47.2111 62.8712L39.2763 63.0659V69.9192Z" fill="white"/>
<path d="M67.6484 60.5045L57.5469 59.4121" stroke="white" stroke-width="0.360485" stroke-linecap="round" stroke-linejoin="round"/>
<path d="M66.5469 65.1947L58.4624 64.6161" stroke="white" stroke-width="0.360485" stroke-linecap="round" stroke-linejoin="round"/>
<path d="M66.0742 66.8531L58.6477 66.4025" stroke="white" stroke-width="0.360485" stroke-linecap="round" stroke-linejoin="round"/>
<path d="M65.2559 69.6561L59.4679 69.3658" stroke="white" stroke-width="0.360485" stroke-linecap="round" stroke-linejoin="round"/>
<path d="M47.873 75.5179L39.0664 75.4639" stroke="white" stroke-width="0.360485" stroke-linecap="round" stroke-linejoin="round"/>
<path d="M46.9727 77.5746L39.4524 77.3961" stroke="white" stroke-width="0.360485" stroke-linecap="round" stroke-linejoin="round"/>
<path d="M45.9336 79.8008L40.1388 79.707" stroke="white" stroke-width="0.360485" stroke-linecap="round" stroke-linejoin="round"/>
<path d="M48.4581 63.1885L48.5176 71.5397L39.2344 71.4207" stroke="#9B0E13" stroke-width="0.360485" stroke-linecap="round" stroke-linejoin="round"/>
<path d="M48.1875 61.5067L39.3863 61.5968" stroke="#9B0E13" stroke-width="0.360485" stroke-linecap="round" stroke-linejoin="round"/>
<path d="M52.7227 57.2708L35.2379 57.57" stroke="#F5AEBA" stroke-width="0.270364" stroke-linecap="round" stroke-linejoin="round"/>
<path d="M52.9336 57.7213V101.462" stroke="#9B0E13" stroke-width="0.270364" stroke-linecap="round" stroke-linejoin="round"/>
<path d="M35.0277 58.0205L35.1484 101.222" stroke="#9B0E13" stroke-width="0.270364" stroke-linecap="round" stroke-linejoin="round"/>
<path d="M50.7109 36.4512L50.6515 53.5448L36.4113 53.8746" stroke="white" stroke-width="0.360485" stroke-linecap="round" stroke-linejoin="round"/>
<path d="M47.125 30.6221C47.125 30.6221 37.9122 32.1038 33.5464 34.2272" stroke="white" stroke-width="0.360485" stroke-linecap="round" stroke-linejoin="round"/>
<path d="M69.2368 39.0739C69.2368 39.0739 69.6983 39.0937 69.637 39.4741C69.5757 39.8544 69.7163 40.3159 68.916 40.1158C68.1156 39.9157 62.1456 38.0735 56.6586 35.75C56.6586 35.75 55.8583 35.1894 57.0984 35.5103C58.3386 35.8311 66.2716 38.5944 69.235 39.0757L69.2368 39.0739Z" fill="#9B0E13"/>
<path d="M46.4043 66.6332C46.4043 66.6332 44.6415 66.7125 44.2017 66.6332" stroke="#C1C6C8" stroke-width="0.0901213" stroke-linecap="round" stroke-linejoin="round"/>
<path d="M46.1289 68.3257C46.1289 68.3257 43.6648 68.3257 42.6446 68.205" stroke="#C1C6C8" stroke-width="0.0901213" stroke-linecap="round" stroke-linejoin="round"/>
<path d="M46.084 68.6715C46.084 68.6715 43.7857 68.6571 43.0954 68.5508" stroke="#C1C6C8" stroke-width="0.0901213" stroke-linecap="round" stroke-linejoin="round"/>
<path d="M46.4599 64.8415C46.5067 64.8794 45.9948 64.1512 45.8596 63.7906C45.8596 63.7906 45.7244 64.5567 45.3639 64.4666C45.0034 64.3765 44.6429 63.9114 44.6429 63.9114C44.6429 63.9114 44.5077 64.5279 43.9669 64.5423C43.4262 64.5567 43.0206 64.5117 42.8403 64.5279C42.6601 64.5441 42.615 64.618 42.4654 64.618C42.3158 64.618 42.1572 64.4882 42.0454 64.6036C41.9337 64.719 41.9102 64.7694 42.2113 64.7839C42.5123 64.7983 43.4586 64.8596 43.8029 64.8433C44.1472 64.8271 44.5996 64.618 44.7186 64.4973C44.7186 64.4973 44.9439 64.7821 45.3044 64.7983C45.6649 64.8145 45.8903 64.6487 45.966 64.4684C45.966 64.4684 46.2508 64.6793 46.4617 64.8433L46.4599 64.8415Z" fill="#C1C6C8"/>
<path d="M49.169 46.3653C49.2321 46.3725 50.0306 46.4446 49.9693 46.9259C49.908 47.4072 49.5691 47.6072 49.0085 47.6667C48.4479 47.7262 44.0623 47.6667 43.0006 47.7677C41.9389 47.8686 39.9165 48.0074 39.4352 47.9479C38.9539 47.8884 38.0707 47.9371 38.0941 47.7478C38.195 46.9259 41.0178 46.6663 42.7609 46.4662C44.504 46.2662 48.4083 46.286 49.1708 46.3653H49.169Z" fill="white"/>
<path d="M39.6545 41.318C39.6545 41.318 38.8739 41.8985 38.9533 42.56C39.0326 43.2215 39.0542 43.3405 39.595 43.382C40.1357 43.4234 42.5998 44.1426 49.089 42.9421C49.089 42.9421 50.5905 41.3 50.4914 40.9792C50.3923 40.6583 50.1309 40.6187 50.1309 40.6187L39.6563 41.3198L39.6545 41.318Z" fill="#AAACAD"/>
<path d="M45.123 87.1459C45.123 87.1459 44.777 86.6646 44.7409 86.515C44.7049 86.3654 44.6183 87.2576 44.6057 87.2288C44.5156 87.0179 44.3588 86.7259 44.2975 86.6808C44.2362 86.6357 44.2001 87.108 43.982 87.108C43.7639 87.108 43.5674 87.0071 43.5098 86.9205C43.5098 86.9205 43.4575 87.2126 43.1276 87.2811" stroke="#FDDA24" stroke-width="0.225303" stroke-miterlimit="10" stroke-linecap="round"/>
<path d="M42.3359 86.9822C42.3287 86.9515 42.1413 86.5099 42.1485 86.5315C42.1557 86.5532 42.1485 86.847 41.9754 86.892C41.8024 86.9371 41.7195 86.7875 41.7123 86.7496C41.705 86.7118 41.6077 86.8542 41.5104 86.8326C41.413 86.8109 41.3301 86.8019 41.2706 86.7731" stroke="#FDDA24" stroke-width="0.225303" stroke-miterlimit="10" stroke-linecap="round"/>
<path d="M43.5312 85.1561C43.5312 85.1561 42.9382 85.2228 42.6895 85.194" stroke="#9B0E13" stroke-width="0.0901213" stroke-miterlimit="10" stroke-linecap="round"/>
<path d="M42.5393 85.0209C42.5393 85.0209 42.6204 84.7289 42.5771 84.646" stroke="#9B0E13" stroke-width="0.0901213" stroke-miterlimit="10" stroke-linecap="round"/>
<path d="M43.5 84.774C43.5 84.774 43.0188 84.6532 42.7033 84.7434" stroke="#9B0E13" stroke-width="0.0901213" stroke-miterlimit="10" stroke-linecap="round"/>
<path d="M43.6211 85.1418C43.6211 85.1418 43.5832 84.8569 43.5995 84.7506C43.6157 84.6442 43.6445 84.4874 43.6445 84.4874" stroke="#9B0E13" stroke-width="0.0901213" stroke-miterlimit="10" stroke-linecap="round"/>
<path d="M43.5898 84.4276C43.5898 84.4276 43.087 84.2474 42.6129 84.4348" stroke="#9B0E13" stroke-width="0.0901213" stroke-miterlimit="10" stroke-linecap="round"/>
<path d="M43.7266 84.3827C43.7266 84.3827 43.3841 84.051 43.065 84.0744C42.746 84.0979 42.5315 84.2691 42.4576 84.4043" stroke="#9B0E13" stroke-width="0.0901213" stroke-miterlimit="10" stroke-linecap="round"/>
<path d="M43.0806 84.4278C43.0752 84.4007 43.0733 83.9393 43.0879 83.7969" stroke="#9B0E13" stroke-width="0.0901213" stroke-miterlimit="10" stroke-linecap="round"/>
<path d="M43.2754 83.9395C43.2447 83.9305 42.8554 83.9323 42.8554 83.9323" stroke="#9B0E13" stroke-width="0.0901213" stroke-miterlimit="10" stroke-linecap="round"/>
<path d="M65.1699 51.8413C65.1699 51.8413 64.7986 51.4213 64.7698 51.3114C64.7409 51.2014 64.6796 51.4808 64.4795 51.5709C64.2795 51.6611 64.0091 51.5313 63.928 51.4303C63.8469 51.3294 63.827 51.36 63.827 51.36C63.827 51.36 63.6864 51.6106 63.4773 51.6412C63.2682 51.6719 63.1871 51.6016 63.0069 51.6016" stroke="#FDDA24" stroke-width="0.270364" stroke-miterlimit="10" stroke-linecap="round"/>
<path d="M62.0352 51.2216C62.0153 51.1819 61.8549 50.9116 61.6638 50.9008C61.4728 50.8899 61.4331 51.0918 61.3033 51.081C61.1735 51.0702 61.0257 50.9278 60.923 50.8503C60.8202 50.7728 60.7427 50.7097 60.7427 50.7403C60.7427 50.771 60.7427 50.9801 60.5517 51.0215" stroke="#FDDA24" stroke-width="0.270364" stroke-miterlimit="10" stroke-linecap="round"/>
<path d="M63.248 49.168C63.248 49.168 62.774 49.0743 62.628 49.0184C62.482 48.9625 62.3684 48.9679 62.3684 48.9679" stroke="#9B0E13" stroke-width="0.0901213" stroke-miterlimit="10" stroke-linecap="round"/>
<path d="M62.2373 48.7878C62.2605 48.7644 62.3194 48.6004 62.3069 48.4868" stroke="#9B0E13" stroke-width="0.0901213" stroke-miterlimit="10" stroke-linecap="round"/>
<path d="M63.2285 48.7681C63.1762 48.7303 62.6986 48.5573 62.4372 48.5573" stroke="#9B0E13" stroke-width="0.0901213" stroke-miterlimit="10" stroke-linecap="round"/>
<path d="M63.3672 49.1378C63.3563 49.1108 63.3272 48.9071 63.3363 48.7971C63.3454 48.6872 63.3672 48.5664 63.3672 48.5664" stroke="#9B0E13" stroke-width="0.0901213" stroke-miterlimit="10" stroke-linecap="round"/>
<path d="M62.8164 48.3261C62.8073 48.2901 62.8055 47.8755 62.8164 47.7061" stroke="#9B0E13" stroke-width="0.0901213" stroke-miterlimit="10" stroke-linecap="round"/>
<path d="M63.0254 47.8974L62.5856 47.7856" stroke="#9B0E13" stroke-width="0.0901213" stroke-miterlimit="10" stroke-linecap="round"/>
<path d="M63.4473 48.4166C63.4473 48.4166 63.1679 48.0813 62.856 48.0164C62.5442 47.9516 62.3044 47.966 62.1548 48.1661" stroke="#9B0E13" stroke-width="0.0901213" stroke-miterlimit="10" stroke-linecap="round"/>
<path d="M63.3477 48.4581C63.3477 48.4581 62.9475 48.157 62.3256 48.2183" stroke="#9B0E13" stroke-width="0.0901213" stroke-miterlimit="10" stroke-linecap="round"/>
</g>
<defs>
<clipPath id="clip0_3376_6626">
<rect width="104" height="104" fill="white" transform="matrix(-1 0 0 1 104 0)"/>
</clipPath>
</defs>
</svg>
