<svg width="104" height="104" viewBox="0 0 104 104" fill="none" xmlns="http://www.w3.org/2000/svg">
<path d="M58.5879 80.0835C58.5879 80.0835 56.5322 80.5195 52.1094 80.5195" stroke="#B70E13" stroke-width="0.415284" stroke-linecap="round" stroke-linejoin="round"/>
<path opacity="0.3" d="M51.9628 103.879C49.7203 104.066 47.4362 103.963 45.2144 103.568C44.7992 103.485 44.3839 103.402 44.0101 103.173C43.6364 102.945 43.3872 102.53 43.4287 102.115C43.5118 101.45 44.2385 101.118 44.8822 100.931C53.0633 98.4185 61.722 97.401 70.2561 97.9824C71.8965 98.0863 73.6407 98.2939 74.928 99.3529C75.4056 99.7474 75.8001 100.266 75.9455 100.848C76.0908 101.429 75.9455 102.135 75.5094 102.551C75.1772 102.862 74.7204 103.007 74.2636 103.132C72.1456 103.693 70.4637 103.796 68.1797 103.963L51.942 103.859L51.9628 103.879Z" fill="black"/>
<path d="M67.8682 86.085L68.1797 103.984H45.1106L45.2975 86.085H67.8682Z" fill="black"/>
<path d="M66.373 94.8472L64.7534 97.1935" stroke="#C1C6C8" stroke-width="0.207642" stroke-linecap="round" stroke-linejoin="round"/>
<path d="M66.373 93.3108L64.7534 95.7194" stroke="#C1C6C8" stroke-width="0.207642" stroke-linecap="round" stroke-linejoin="round"/>
<path d="M45.8594 86.7699L45.631 103.319" stroke="#404044" stroke-width="0.207642" stroke-linecap="round" stroke-linejoin="round"/>
<path d="M56.6364 36.5825C49.9851 36.5825 44.5932 34.7233 44.5932 32.4297C44.5932 30.1361 49.9851 28.2769 56.6364 28.2769C63.2877 28.2769 68.6797 30.1361 68.6797 32.4297C68.6797 34.7233 63.2877 36.5825 56.6364 36.5825Z" fill="#B70E13"/>
<path d="M67.8709 86.0846H45.3002V36.8941C45.3002 36.8941 42.3932 36.4581 42.3516 35.2953C42.3101 34.1325 42.3309 34.091 42.3516 33.9456C42.3932 33.738 42.1025 29.1698 56.8866 29.0868C56.8866 29.0868 71.0893 29.2321 71.1309 33.5926L70.8817 35.0669C70.8817 35.0669 71.2347 35.7729 67.8501 36.998V86.0846H67.8709Z" fill="#A0141D"/>
<path d="M48.7873 62.6209L48.8704 43.7462C48.8704 43.7462 51.7151 42.9157 57.5083 43.1441C57.5083 43.1441 57.2384 41.3999 48.8496 42.5004V40.1748C48.8288 40.1748 51.5074 39.5103 57.8198 39.5726C57.8198 39.5726 56.4286 38.1814 48.8289 39.3857V36.105L47.6868 35.9596C47.6868 35.9596 46.1503 36.0635 45.9634 35.7935C45.7765 35.5236 45.6104 35.2744 45.6519 34.693C45.6727 34.1116 45.7765 30.6648 45.7765 30.6025C47.8945 29.7719 51.3206 29.0867 56.9061 29.0659C56.9061 29.0659 71.1089 29.2113 71.1504 33.5718L70.9012 35.046C70.9012 35.046 71.2542 35.752 67.8696 36.9771V86.0637C67.8904 86.0637 49.0365 86.0637 49.0365 86.0637L49.1195 62.9324L48.8081 62.6209H48.7873Z" fill="#BC1822"/>
<path d="M63.9867 35.046V34.3816H69.0532L65.7932 34.5892L65.8555 30.0626C68.7002 30.7063 71.1296 31.7861 71.1504 33.5925L70.9843 35.3575C70.9843 35.3575 70.9843 35.752 67.8696 36.9979V86.0845C67.8904 86.0845 63.7583 86.0845 63.7583 86.0845V35.046H64.0075H63.9867Z" fill="#B70E13"/>
<path d="M64.0275 39.0742L64.0898 84.5686" stroke="#9B0E13" stroke-width="0.311463" stroke-linecap="round" stroke-linejoin="round"/>
<path d="M51.2363 39.4064C51.2363 39.4064 48.9523 39.5725 47.0835 40.0293" stroke="white" stroke-width="0.207642" stroke-linecap="round" stroke-linejoin="round"/>
<path d="M58.6071 40.2992L58.7109 44.016C58.7109 44.016 55.1395 43.5592 52.1494 43.7045C49.1594 43.8499 46.7715 44.3897 46.7715 44.3897" stroke="#9B0E13" stroke-width="0.415284" stroke-linecap="round" stroke-linejoin="round"/>
<path d="M55.5759 52.5502L55.6797 64.1781L48.2669 64.1989" stroke="#9B0E13" stroke-width="0.207642" stroke-linecap="round" stroke-linejoin="round"/>
<path d="M70.5684 35.6895C70.1115 36.0425 69.2395 36.4578 67.8482 36.9769C56.4487 34.5683 45.2983 36.8938 45.2983 36.8938C43.824 36.6862 43.1181 36.3124 42.7858 36.0425C42.4536 35.7726 42.4951 35.7103 42.4951 35.7103C58.795 31.1214 70.5476 35.7103 70.5476 35.7103L70.5684 35.6895Z" fill="#9B0E13"/>
<path d="M54.9125 52.8203L48.1434 53.1318L48.1226 63.5554L55.0371 63.5139L54.9125 52.8203Z" fill="white"/>
<path d="M53.5816 56.0596C53.5816 56.0596 53.5816 56.0804 53.5816 56.1012C53.5816 56.1219 53.5816 56.0804 53.5609 56.1012C53.5609 56.1012 53.5609 56.1012 53.5609 56.0804C53.5609 56.0804 53.5609 56.0596 53.5609 56.0389C53.5609 56.0389 53.5609 56.0389 53.5609 56.0181V56.0596C53.5609 56.0596 53.5401 56.0596 53.5193 56.0596V56.0181C53.5193 56.0181 53.5193 56.0181 53.5193 55.9766C53.5193 55.9974 53.5194 55.9974 53.4986 55.9974C53.4986 55.9766 53.4986 55.9766 53.4986 55.9558V55.9351C53.4986 55.9351 53.4986 55.9351 53.4986 55.9558V55.9974V55.9766C53.4986 55.9766 53.4986 55.9351 53.4571 55.9351C53.4571 55.9766 53.4778 55.9558 53.4571 55.9974V55.9766C53.4571 55.9974 53.4571 55.9766 53.4363 55.9766C53.4363 55.9766 53.4363 55.9766 53.4155 55.9766C53.4155 55.9766 53.4155 55.9766 53.4155 55.9558C53.4155 55.9558 53.4155 55.9351 53.374 55.9351C53.374 55.9351 53.374 55.9558 53.374 55.9766C53.374 55.9766 53.374 56.0181 53.374 55.9974C53.374 55.9558 53.374 55.9974 53.374 55.9766C53.374 55.9766 53.374 55.9558 53.3532 55.9558C53.3532 55.9558 53.3532 55.9558 53.3532 55.9974V55.9558H53.3325C53.3325 55.9766 53.3325 55.9558 53.3532 55.9974C53.3532 55.9974 53.3532 55.9974 53.3532 56.0181C53.3532 56.0181 53.3532 55.9974 53.3532 55.9766C53.3532 55.9766 53.3532 55.9766 53.3532 55.9974C53.3532 55.9974 53.3532 55.9974 53.3532 56.0181C53.3532 55.9766 53.3532 56.0181 53.3532 55.9974C53.3532 55.9974 53.3325 55.9974 53.3117 55.9974C53.3117 55.9974 53.3117 55.9974 53.3117 56.0389C53.3117 56.0389 53.3117 56.0389 53.3325 56.0389C53.3325 56.0389 53.3117 56.0389 53.2909 56.0389V56.0804C53.2909 56.0804 53.2909 56.0804 53.2909 56.0596V56.0389V56.0181C53.2909 56.0181 53.2909 56.0181 53.2909 56.0389C53.2909 56.0389 53.2909 56.0389 53.2702 56.0389C53.2702 56.0596 53.2702 56.0804 53.2702 56.0804C53.2702 56.1219 53.2494 56.0804 53.2494 56.0804V56.0596C53.2494 56.1012 53.2494 56.0596 53.2286 56.0596C53.2286 56.0181 53.2286 56.0596 53.2079 56.0389C53.2079 56.0389 53.2079 56.0389 53.2079 56.0804C53.2079 56.1012 53.2286 56.1012 53.2494 56.1427H53.2079C53.2079 56.1427 53.1871 56.1219 53.1871 56.1012C53.1871 56.1012 53.1664 56.1012 53.1456 56.1012C53.1456 56.1012 53.1456 56.1012 53.1248 56.0596C53.1248 56.0596 53.1248 56.0804 53.1248 56.1012V56.0804C53.1248 56.1219 53.0833 56.0804 53.1248 56.1427H53.0833C53.0833 56.1427 53.0833 56.1427 53.0625 56.1427C53.0625 56.1219 53.1041 56.1427 53.1041 56.1427C53.1041 56.1427 53.1041 56.1427 53.1248 56.1635C53.1248 56.1635 53.1041 56.1219 53.0833 56.1427C53.0833 56.1427 53.0833 56.1427 53.0833 56.1219C53.0833 56.1219 53.0833 56.1219 53.0833 56.1012C53.0833 56.1012 53.0625 56.1012 53.0418 56.0804H53.021C53.021 56.0804 53.021 56.0804 53.021 56.0596C53.021 56.0389 53.021 56.0596 53.0002 56.0596C52.9587 56.0181 53.0002 56.0804 53.0002 56.0804H53.0418C53.0418 56.1012 53.0418 56.1012 53.0418 56.1012C53.0418 56.1012 53.0625 56.1427 53.0833 56.1427C53.0833 56.1427 53.0833 56.1635 53.0625 56.1635C53.0625 56.1635 53.0625 56.1842 53.0625 56.205C53.0418 56.205 53.0625 56.205 53.0625 56.2258C53.0625 56.2258 53.0625 56.205 53.0625 56.1842C53.0625 56.1842 53.0625 56.1842 53.0625 56.1635C53.0625 56.1635 53.0625 56.1635 53.0418 56.1635C53.0418 56.1427 53.0418 56.1635 53.021 56.1635C53.021 56.1635 53.021 56.1635 53.0418 56.205C53.0418 56.205 53.021 56.205 53.021 56.2258C53.021 56.2465 53.021 56.2465 53.021 56.2465C53.021 56.2465 53.021 56.2465 52.9795 56.2465C52.9795 56.2465 52.9795 56.2673 52.9795 56.288C52.9795 56.288 52.9587 56.288 52.938 56.288C52.938 56.288 52.9587 56.3088 52.9795 56.3296C52.9795 56.3296 52.9795 56.3296 52.9587 56.3088C52.9587 56.3088 52.9587 56.3088 52.938 56.3088C52.938 56.3088 52.9379 56.3088 52.9172 56.3088C52.9172 56.3088 52.9172 56.3296 52.9172 56.3503C52.9172 56.3503 52.9172 56.3711 52.9172 56.3919C52.9172 56.3919 52.9172 56.4126 52.8964 56.3919H52.8757C52.8757 56.3503 52.8757 56.3919 52.8964 56.3919C52.8964 56.3711 52.8549 56.3711 52.8341 56.3503C52.8341 56.3503 52.8341 56.3503 52.8757 56.3503C52.8757 56.3503 52.8757 56.3296 52.8757 56.3088C52.8757 56.3088 52.8757 56.3503 52.8964 56.3296C52.8757 56.3088 52.8549 56.2673 52.8341 56.288C52.8341 56.288 52.8134 56.288 52.7926 56.288C52.7926 56.3088 52.8134 56.3503 52.8341 56.3711C52.8341 56.3711 52.8341 56.3711 52.8134 56.3711C52.8134 56.3919 52.8134 56.3711 52.8549 56.4126H52.8341C52.8341 56.4126 52.8341 56.4126 52.8134 56.4126H52.7926C52.7926 56.4126 52.7926 56.4126 52.7926 56.3711C52.7926 56.3503 52.7926 56.3711 52.7926 56.3503C52.7926 56.3503 52.7718 56.3503 52.7511 56.3503C52.7303 56.3503 52.7511 56.3503 52.7511 56.3711C52.7511 56.3711 52.7095 56.3711 52.7303 56.3711C52.7303 56.3711 52.6888 56.3711 52.7095 56.3296C52.7095 56.3296 52.7095 56.3296 52.7095 56.3088C52.7095 56.3088 52.7303 56.3088 52.7511 56.3088H52.7926C52.7926 56.3088 52.7718 56.3088 52.7511 56.3088C52.7718 56.3088 52.7511 56.3296 52.7926 56.3088C52.7926 56.3088 52.7926 56.3088 52.7718 56.3088C52.7718 56.3088 52.7926 56.3088 52.8134 56.3088V56.2673C52.8134 56.2673 52.8134 56.2673 52.7926 56.2673C52.7926 56.2673 52.7926 56.2673 52.7926 56.2465H52.8134C52.8134 56.2465 52.8549 56.2465 52.8549 56.2258C52.8549 56.2258 52.8549 56.2258 52.8757 56.2258C52.8757 56.2258 52.8757 56.2258 52.8549 56.2258C52.8549 56.2258 52.8757 56.2258 52.8964 56.2258C52.8964 56.2258 52.8964 56.2258 52.8964 56.2673C52.9172 56.2673 52.8964 56.2465 52.8964 56.2673C52.8964 56.2673 52.8964 56.2673 52.8757 56.2258C52.8757 56.2258 52.8757 56.2258 52.9172 56.2258C52.9172 56.2258 52.8964 56.1842 52.8757 56.205C52.8757 56.2258 52.8549 56.205 52.8549 56.2258C52.8549 56.2258 52.8549 56.2258 52.8341 56.2258C52.8341 56.2258 52.7926 56.205 52.7926 56.2258C52.7926 56.2258 52.8341 56.2465 52.8549 56.2673V56.2258V56.205C52.8549 56.205 52.8964 56.2258 52.8964 56.2465H52.9172C52.9172 56.2465 52.8964 56.2465 52.8757 56.2465C52.8757 56.2465 52.8964 56.2465 52.8757 56.205C52.8757 56.205 52.8757 56.205 52.8549 56.205V56.1842C52.8549 56.1842 52.8549 56.1427 52.8964 56.1427C52.8964 56.1427 52.938 56.1635 52.938 56.1427C52.938 56.1427 52.938 56.1427 52.938 56.1219C52.938 56.1219 52.938 56.1219 52.938 56.1012C52.938 56.1012 52.938 56.1012 52.938 56.1219H52.9587C52.9587 56.1012 52.9379 56.1219 52.9172 56.0804C52.9172 56.0804 52.9172 56.0804 52.9172 56.0389C52.9379 56.0389 52.9172 56.0389 52.9587 56.0596C52.9587 56.0596 52.9587 56.0596 52.938 56.0596C52.938 56.0596 52.938 56.0596 52.9587 56.0596C52.9795 56.0596 52.9587 56.0181 53.0002 56.0596C53.0002 56.0596 53.0002 56.0596 53.0002 56.0804C53.0002 56.0804 53.0002 56.0804 53.0002 56.0596C53.0002 56.0596 53.0002 56.0804 53.021 56.0804C53.021 56.0804 53.0002 56.0596 53.021 56.0389H53.0418C53.0418 56.0181 53.1041 56.0389 53.1248 56.0389C53.1248 56.0181 53.1041 56.0181 53.0833 56.0181C53.0833 55.9974 53.1041 56.0181 53.1041 56.0181C53.1041 56.0181 53.1248 56.0181 53.1248 56.0389C53.1248 56.0596 53.1456 56.0389 53.1664 56.0389H53.1871C53.1871 56.0389 53.1871 56.0389 53.1871 56.0596C53.1871 56.1012 53.1456 56.0596 53.1456 56.1012C53.1456 56.1219 53.1664 56.1012 53.1871 56.1012C53.1871 56.0804 53.1871 56.0804 53.1664 56.0596C53.1664 56.0596 53.1664 56.0596 53.1871 56.0596C53.1871 56.0596 53.1871 56.0596 53.2079 56.0596C53.2079 56.0596 53.1871 56.0181 53.1871 56.0389C53.1871 56.0181 53.1871 55.9974 53.1456 55.9766C53.1664 55.9974 53.1664 55.9766 53.1871 55.9766C53.1871 55.9766 53.2079 55.9766 53.2286 55.9766C53.2286 55.9766 53.2286 55.9766 53.2286 55.9558C53.2702 55.9351 53.2909 55.9766 53.3325 55.9558C53.3325 55.9558 53.3325 55.9351 53.3532 55.9558C53.3532 55.9143 53.3948 55.9558 53.3948 55.9351C53.3948 55.9351 53.4155 55.9558 53.4363 55.9558V55.9351C53.4778 55.9351 53.5193 55.9351 53.5816 55.9351C53.6232 55.9351 53.6439 55.9766 53.6647 55.9766C53.6647 55.9766 53.6647 55.9766 53.6647 55.9974C53.6647 55.9974 53.6647 55.9974 53.6647 56.0389C53.6647 56.0389 53.6647 56.0181 53.6855 56.0389C53.6855 56.0181 53.6855 56.0389 53.6855 55.9974C53.6855 55.9974 53.7062 56.0389 53.727 56.0181C53.727 56.0181 53.727 56.0181 53.7062 55.9974H53.7478C53.7478 55.9974 53.7478 55.9974 53.7478 56.0181H53.7893C53.81 56.0181 53.8308 56.0181 53.8516 56.0181C53.8516 56.0181 53.8723 56.0389 53.8723 56.0596C53.8723 56.0389 53.8931 56.0596 53.9139 56.0596C53.9139 56.0596 53.9139 56.0596 53.9139 56.1012V56.1427C53.9139 56.1635 53.9139 56.1635 53.9139 56.1842C53.9139 56.1427 53.9139 56.1842 53.8931 56.1635C53.9139 56.1427 53.9554 56.1635 53.9762 56.1635C53.9762 56.1842 54.0177 56.1842 53.9969 56.2258H54.0385C54.0385 56.2465 54.08 56.2673 54.08 56.288C54.08 56.3296 54.1215 56.3503 54.08 56.3919C54.08 56.3919 54.08 56.3919 54.08 56.3711C54.08 56.3711 54.08 56.4126 54.08 56.3919C54.08 56.3919 54.0592 56.4334 54.08 56.4334C54.08 56.4957 54.1215 56.5372 54.163 56.5788C54.1838 56.5788 54.163 56.5995 54.163 56.5788C54.163 56.5788 54.2046 56.5788 54.2046 56.6203C54.2046 56.6203 54.2253 56.6203 54.2461 56.6203V56.641C54.2461 56.641 54.2461 56.641 54.2461 56.6618C54.2253 56.6618 54.1838 56.6618 54.163 56.6618H54.1215C54.1423 56.641 54.1007 56.6618 54.1215 56.641C54.1215 56.641 54.1215 56.641 54.08 56.641V56.6203C54.08 56.6203 54.08 56.6203 54.0592 56.6203C54.0592 56.6203 54.0592 56.6203 54.08 56.6203C54.08 56.6203 54.08 56.6203 54.0592 56.6203C54.08 56.6203 54.0592 56.6203 54.0592 56.5995C54.0177 56.5995 54.0592 56.5995 54.0385 56.5788H54.0177C54.0385 56.5788 54.0177 56.5787 54.0177 56.558C54.0177 56.558 54.0592 56.5372 54.0592 56.5165C54.0592 56.5165 54.0177 56.5372 53.9969 56.558C53.9969 56.558 53.9554 56.558 53.9969 56.5372C53.9969 56.5372 53.9969 56.5372 53.9762 56.5372C53.9762 56.5372 53.9762 56.5372 53.9346 56.5372C53.9346 56.5372 53.9346 56.5165 53.9554 56.4957C53.9554 56.4957 53.9346 56.4957 53.9139 56.4957C53.9139 56.4957 53.9139 56.4957 53.9346 56.4749C53.9346 56.4749 53.9346 56.4334 53.9346 56.4126V56.4334C53.9346 56.4334 53.9346 56.4334 53.9139 56.4334C53.9139 56.4334 53.9139 56.4334 53.8931 56.4334C53.8931 56.4334 53.8516 56.4334 53.8516 56.4126C53.8516 56.4126 53.8723 56.3711 53.8931 56.3503C53.8931 56.3296 53.8931 56.3503 53.8931 56.3296C53.8931 56.3296 53.8931 56.3296 53.8723 56.3296C53.8723 56.3296 53.8723 56.3296 53.8723 56.3088C53.8723 56.3088 53.8723 56.3296 53.8723 56.3503C53.8516 56.3503 53.8516 56.3503 53.8308 56.3503C53.8308 56.3088 53.8308 56.3503 53.8101 56.3503C53.8101 56.3503 53.8101 56.3503 53.8101 56.3088C53.8101 56.3088 53.8101 56.2673 53.8101 56.288C53.8101 56.288 53.81 56.288 53.7893 56.288C53.7893 56.288 53.7893 56.2465 53.7893 56.2258C53.7893 56.2258 53.8101 56.1842 53.8101 56.1635C53.8101 56.1635 53.81 56.1635 53.7893 56.1635C53.7893 56.1635 53.7685 56.1842 53.7893 56.205C53.7893 56.205 53.7685 56.2258 53.7478 56.2258L53.5816 56.0596Z" fill="#C1C6C8"/>
<path d="M53.3119 60.7316V60.7732C53.3119 60.8147 53.2911 60.7732 53.2911 60.7732C53.2911 60.7732 53.2911 60.7732 53.2911 60.7524C53.2911 60.7524 53.2911 60.7524 53.3119 60.7524C53.3119 60.7524 53.2911 60.7524 53.2704 60.7524H53.2496C53.2496 60.7109 53.2496 60.7109 53.2496 60.6901C53.2496 60.7109 53.2496 60.7316 53.2496 60.7316C53.2496 60.7109 53.2496 60.7109 53.2496 60.6901V60.6693C53.2496 60.6693 53.2496 60.6693 53.2496 60.6901V60.7316V60.7109C53.2496 60.7109 53.2288 60.6693 53.2081 60.6693C53.2081 60.7109 53.2288 60.6901 53.2288 60.7316C53.2288 60.7524 53.2288 60.7316 53.2081 60.7316C53.2081 60.7316 53.2081 60.7316 53.1873 60.7316C53.1873 60.7316 53.1873 60.7316 53.1873 60.7109C53.1873 60.7109 53.1873 60.6901 53.1665 60.7109C53.1665 60.7109 53.1665 60.7316 53.1665 60.7524C53.1665 60.7524 53.1665 60.7939 53.1665 60.7732C53.1665 60.7316 53.1665 60.7732 53.1665 60.7524C53.1665 60.7524 53.1665 60.7109 53.1458 60.7109C53.1458 60.7109 53.1458 60.7109 53.1458 60.7524V60.7109C53.1458 60.7109 53.1458 60.7109 53.125 60.7109C53.125 60.7316 53.125 60.7109 53.125 60.7524C53.125 60.7524 53.125 60.7524 53.125 60.7732C53.125 60.7732 53.125 60.7524 53.125 60.7316C53.125 60.7316 53.125 60.7316 53.125 60.7524C53.125 60.7524 53.125 60.7524 53.125 60.7732C53.125 60.7732 53.1043 60.7732 53.0835 60.7524C53.0835 60.7524 53.0835 60.7524 53.0835 60.7939C53.0835 60.7939 53.0627 60.7939 53.042 60.7939C53.042 60.7939 53.042 60.8354 53.0212 60.8354C53.0212 60.8354 53.0212 60.8355 53.0212 60.8147C53.0212 60.8147 53.0212 60.7939 53.0212 60.7732V60.7316C53.0212 60.7316 53.0212 60.7316 53.0212 60.7524C53.0212 60.7524 53.0212 60.7524 53.0212 60.7316C53.0212 60.7316 53.0212 60.7316 53.0212 60.7109C53.0212 60.7316 53.0212 60.7524 53.0212 60.7524C53.0212 60.7939 53.0212 60.7524 53.0004 60.7524V60.7316C53.0004 60.6901 53.0004 60.7316 53.0004 60.6901C53.0004 60.6901 53.0004 60.6901 53.0004 60.6693C53.0004 60.6693 53.0004 60.6693 53.0004 60.6901C53.0004 60.7316 53.0004 60.7316 53.0004 60.7732C53.0004 60.7732 52.9797 60.7732 52.9589 60.7732C52.9589 60.7732 52.9589 60.7316 52.9589 60.7109C52.9589 60.7109 52.9589 60.7109 52.9381 60.7109C52.9381 60.7109 52.9381 60.6901 52.9381 60.6693V60.6901C52.9381 60.6901 52.9381 60.7109 52.9381 60.7316V60.7109C52.9381 60.7524 52.9174 60.7109 52.8966 60.7524C52.8966 60.7524 52.8966 60.7109 52.8759 60.7109C52.8759 60.7109 52.8759 60.7109 52.8759 60.6901C52.8759 60.6693 52.8758 60.7316 52.8966 60.6901C52.8966 60.6901 52.8966 60.7109 52.8966 60.7316V60.6901C52.8966 60.6901 52.8966 60.6901 52.8966 60.6693C52.8966 60.6693 52.8966 60.6486 52.8966 60.6278C52.8966 60.6278 52.8966 60.6278 52.8966 60.607C52.8966 60.5863 52.8966 60.607 52.8966 60.5863C52.8966 60.524 52.8966 60.5863 52.8759 60.5863V60.6278C52.8759 60.6278 52.8759 60.6693 52.8759 60.6901H52.8551C52.8551 60.6901 52.8551 60.7109 52.8551 60.7316C52.8551 60.7109 52.8551 60.7316 52.8343 60.7316C52.8343 60.7316 52.8343 60.7316 52.8343 60.6901C52.8343 60.6901 52.8343 60.6901 52.8343 60.6693C52.8343 60.6901 52.8343 60.6901 52.8343 60.7109C52.8343 60.7109 52.8343 60.7109 52.8136 60.7109C52.8136 60.7109 52.8136 60.7109 52.8136 60.6901C52.8136 60.6901 52.8136 60.7109 52.8136 60.7316C52.8136 60.7316 52.8136 60.7316 52.8136 60.7109V60.6901C52.8136 60.6901 52.8136 60.6486 52.8136 60.6693C52.8136 60.6693 52.8136 60.7109 52.8136 60.7316C52.8136 60.7316 52.8136 60.7316 52.8136 60.6901C52.8136 60.6901 52.8136 60.6901 52.8136 60.6693C52.8136 60.6693 52.8136 60.6693 52.8136 60.7109C52.8136 60.7109 52.8136 60.7109 52.8136 60.7316V60.6901V60.7109C52.8136 60.6693 52.8136 60.6693 52.8136 60.6486C52.8136 60.6486 52.8136 60.6486 52.8136 60.6901C52.8136 60.6901 52.8136 60.6901 52.8551 60.6901V60.7316C52.8551 60.6901 52.8551 60.6486 52.8551 60.6486V60.6278C52.8551 60.6486 52.8551 60.6901 52.8551 60.7109C52.8551 60.7316 52.8551 60.7316 52.8551 60.7732C52.8551 60.7732 52.8551 60.7732 52.8551 60.7524C52.8551 60.7524 52.8551 60.7524 52.8551 60.7316C52.8551 60.7316 52.8551 60.7316 52.8551 60.7109C52.8551 60.6901 52.8551 60.7109 52.8551 60.6901C52.8551 60.6901 52.8551 60.6901 52.8551 60.6486V60.6693V60.6278C52.8551 60.6278 52.8551 60.6278 52.8551 60.6486C52.8551 60.6486 52.8551 60.6486 52.8551 60.6278V60.6486C52.8551 60.6486 52.8551 60.6693 52.8759 60.6901C52.8759 60.6693 52.8759 60.6693 52.8759 60.6486C52.8759 60.6693 52.8759 60.6901 52.8759 60.6901C52.8759 60.6901 52.8759 60.7109 52.8759 60.7316V60.7109C52.8759 60.7109 52.8759 60.7109 52.8759 60.6901V60.7109C52.8759 60.7109 52.8966 60.7316 52.8966 60.7109C52.8966 60.7316 52.8966 60.7316 52.8966 60.7524C52.8966 60.7524 52.9174 60.7524 52.9174 60.7732C52.9174 60.7732 52.9174 60.7732 52.9174 60.7939C52.9174 60.7732 52.9174 60.7939 52.9174 60.7524C52.9174 60.7524 52.9174 60.7524 52.9174 60.7732C52.9174 60.7524 52.9174 60.7316 52.9174 60.7316C52.9174 60.7316 52.9174 60.7316 52.8966 60.7316C52.8966 60.7109 52.8966 60.7316 52.8966 60.7109V60.6693C52.8966 60.6693 52.8966 60.7109 52.8966 60.7316C52.8966 60.7316 52.8966 60.6901 52.8966 60.7109C52.8966 60.7109 52.8966 60.6901 52.8966 60.6693C52.8966 60.6693 52.8966 60.7109 52.8966 60.7316C52.8966 60.7316 52.8966 60.7109 52.8966 60.6901C52.8966 60.6901 52.8966 60.6901 52.9174 60.6693C52.9174 60.6693 52.9174 60.6278 52.9381 60.6486V60.6901C52.9381 60.6901 52.9381 60.6901 52.9381 60.6486C52.9381 60.6486 52.9381 60.6693 52.9381 60.6901C52.9381 60.7109 52.9381 60.7109 52.9381 60.7109C52.9381 60.6901 52.9381 60.7109 52.9381 60.6693C52.9381 60.6693 52.9381 60.6693 52.9589 60.6486C52.9589 60.6693 52.9589 60.6486 52.9589 60.6901C52.9589 60.6901 52.9797 60.6486 52.9797 60.6901C52.9797 60.6901 52.9797 60.6901 52.9797 60.7109C52.9797 60.7109 52.9797 60.7316 52.9797 60.7524V60.7109C52.9797 60.7109 53.0004 60.7524 53.0212 60.7524C53.0212 60.7316 53.0212 60.7109 53.0212 60.7109C53.0212 60.7109 53.0212 60.7109 53.0212 60.7316C53.0212 60.7524 53.0212 60.7316 53.0212 60.7524C53.0212 60.7524 53.0212 60.7524 53.0212 60.7732C53.0212 60.8147 53.0004 60.7524 52.9797 60.7732V60.7939C52.9797 60.8147 52.9797 60.8147 52.9797 60.8354C52.9797 60.8354 52.9797 60.8147 52.9797 60.7939V60.7524C52.9797 60.7524 52.9797 60.7109 52.9797 60.6901C52.9797 60.7109 52.9797 60.6901 53.0004 60.7109C53.0004 60.7109 53.0004 60.7109 53.0212 60.7109C53.042 60.7109 53.042 60.7524 53.0835 60.7316C53.0835 60.6901 53.1043 60.7524 53.1043 60.7316C53.1043 60.7316 53.1043 60.7524 53.1043 60.7732V60.7524C53.125 60.7524 53.1666 60.7524 53.1873 60.7732C53.1873 60.7732 53.2288 60.8147 53.2496 60.7939C53.2496 60.7939 53.2496 60.7939 53.2496 60.8147C53.2496 60.8147 53.2496 60.8354 53.2496 60.8562V60.8354C53.2496 60.8147 53.2496 60.8355 53.2496 60.7939C53.2496 60.7939 53.2496 60.8147 53.2704 60.7939C53.2704 60.7939 53.2704 60.7939 53.2704 60.7732H53.2911C53.2911 60.7732 53.2911 60.7732 53.2911 60.7939H53.3119C53.3119 60.7939 53.3327 60.7939 53.3534 60.7939C53.3534 60.7939 53.3534 60.7939 53.3742 60.8147C53.3742 60.8147 53.3742 60.8147 53.3742 60.7939C53.3742 60.7732 53.3742 60.7939 53.3742 60.7732C53.3742 60.7732 53.3742 60.7732 53.395 60.7732C53.395 60.7732 53.395 60.7939 53.4157 60.8147C53.4157 60.8147 53.4157 60.8147 53.4365 60.8147C53.4365 60.8355 53.4365 60.8147 53.4572 60.8562C53.4572 60.8147 53.4988 60.8147 53.4988 60.8354C53.4988 60.8354 53.5403 60.8354 53.5403 60.8562L53.5611 60.8147C53.5611 60.8147 53.6026 60.8147 53.6234 60.8147C53.6234 60.8562 53.6857 60.8147 53.6857 60.877C53.6857 60.877 53.6857 60.8562 53.6857 60.8354C53.6857 60.8354 53.6857 60.877 53.7064 60.8354V60.877C53.7479 60.8977 53.7895 60.9185 53.831 60.9185C53.831 60.8977 53.831 60.9393 53.8518 60.9185C53.8518 60.9185 53.8725 60.8977 53.8933 60.9185C53.8933 60.9185 53.8933 60.9185 53.9141 60.8977C53.9141 60.8977 53.9141 60.8977 53.9141 60.9185C53.9141 60.9185 53.9141 60.9185 53.9141 60.9393C53.9141 60.96 53.8933 61.0016 53.8725 61.0223C53.8725 61.0223 53.8518 61.0639 53.8518 61.0431C53.8518 61.0639 53.8518 61.0431 53.8518 61.0846C53.8518 61.0846 53.8518 61.0639 53.831 61.0846C53.831 61.0846 53.831 61.0846 53.831 61.0639C53.831 61.0639 53.831 61.0639 53.831 61.0846C53.831 61.0846 53.831 61.0846 53.831 61.1054C53.831 61.1469 53.831 61.1054 53.8102 61.1054V61.1262C53.8102 61.1054 53.8102 61.1261 53.8102 61.1054V61.0639C53.8102 61.0639 53.8102 61.1054 53.8102 61.1262C53.8102 61.1262 53.7895 61.1677 53.7895 61.1262C53.7895 61.1262 53.7895 61.1261 53.7895 61.1469C53.7895 61.1469 53.7895 61.1469 53.7895 61.1262C53.7895 61.1262 53.7895 61.1261 53.7895 61.1469C53.7895 61.1469 53.7895 61.1261 53.7895 61.1054C53.7895 61.1054 53.7895 61.1054 53.7895 61.1469C53.7895 61.1469 53.7895 61.1469 53.7895 61.1677C53.7895 61.1677 53.7895 61.1677 53.7895 61.1469V61.1054C53.7895 61.1054 53.7895 61.1054 53.7895 61.1262C53.7895 61.1262 53.7687 61.1469 53.7479 61.1262C53.7479 61.1262 53.7479 61.0846 53.7479 61.0639C53.7479 61.0639 53.7479 61.0639 53.7479 61.0431C53.7479 61.0431 53.7479 61.0431 53.7479 61.0639C53.7479 61.0639 53.7479 61.0846 53.7479 61.1054C53.7479 61.1054 53.7479 61.1054 53.7479 61.1262C53.7479 61.1262 53.7479 61.1262 53.7272 61.1262C53.7272 61.0846 53.7272 61.1262 53.7064 61.1262C53.7064 61.1262 53.7064 61.1261 53.7064 61.0846C53.7064 61.0846 53.7064 61.0431 53.6857 61.0223C53.6857 61.0223 53.6857 60.9808 53.6857 60.96C53.6857 60.96 53.6857 60.96 53.6857 60.9808V61.0223C53.6857 61.0223 53.6857 61.0431 53.6857 61.0639L53.3119 60.7316Z" fill="#C1C6C8"/>
<path d="M50.0734 60.607V60.6486C50.0734 60.6901 50.0734 60.6486 50.0527 60.6486C50.0527 60.6486 50.0527 60.6486 50.0527 60.6278H50.0319H50.0111C50.0111 60.5863 50.0111 60.5863 50.0111 60.5655C50.0111 60.5863 50.0111 60.607 50.0111 60.607C50.0111 60.5863 50.0111 60.5863 50.0111 60.5655V60.5447C50.0111 60.5447 50.0111 60.5447 50.0111 60.5655V60.607V60.5863C50.0111 60.5863 49.9904 60.5447 49.9696 60.5447C49.9696 60.5863 49.9904 60.5655 49.9904 60.607C49.9904 60.6278 49.9904 60.607 49.9696 60.607C49.9696 60.607 49.9696 60.607 49.9488 60.607C49.9488 60.607 49.9488 60.607 49.9488 60.5863C49.9488 60.5863 49.9488 60.5863 49.9281 60.5863C49.9281 60.5863 49.9281 60.607 49.9281 60.6278C49.9281 60.6278 49.9281 60.6693 49.9281 60.6486C49.9281 60.607 49.9281 60.6486 49.9281 60.6278C49.9281 60.6278 49.9281 60.607 49.9073 60.607C49.9073 60.607 49.9073 60.607 49.9073 60.6486V60.607C49.9073 60.607 49.9073 60.607 49.8865 60.607C49.8865 60.6278 49.8865 60.607 49.8865 60.6486C49.8865 60.6486 49.8865 60.6486 49.8865 60.6693C49.8865 60.6693 49.8865 60.6486 49.8865 60.6278C49.8865 60.6278 49.8865 60.6278 49.8865 60.6486C49.8865 60.6486 49.8865 60.6486 49.8865 60.6693C49.8865 60.6278 49.8865 60.6693 49.8865 60.6486C49.8865 60.6486 49.8658 60.6486 49.845 60.6486C49.845 60.6486 49.845 60.6486 49.845 60.6901H49.8242V60.7316C49.8242 60.7316 49.8242 60.7316 49.8242 60.7109C49.8242 60.7109 49.8242 60.6901 49.8242 60.6693V60.6278C49.8242 60.6278 49.8242 60.6278 49.8242 60.6486C49.8242 60.6486 49.8242 60.6486 49.8242 60.6278C49.8242 60.6278 49.8242 60.6278 49.8242 60.607C49.8242 60.6278 49.8242 60.6486 49.8242 60.6486C49.8242 60.6901 49.8242 60.6486 49.8035 60.6486V60.6278C49.8035 60.5863 49.8035 60.6278 49.8035 60.5863C49.8035 60.5863 49.8035 60.5863 49.8035 60.5655C49.8035 60.5655 49.8035 60.5655 49.8035 60.5863C49.8035 60.6278 49.8035 60.6278 49.8035 60.6693H49.7827C49.7827 60.6693 49.7827 60.6278 49.7827 60.607C49.7827 60.607 49.7827 60.607 49.762 60.607C49.762 60.607 49.762 60.5863 49.762 60.5655V60.5863C49.762 60.5863 49.762 60.607 49.762 60.6278V60.607C49.762 60.6486 49.7412 60.607 49.7204 60.6486C49.7204 60.6486 49.7204 60.6278 49.6997 60.607C49.6997 60.607 49.6997 60.607 49.6997 60.5863C49.6997 60.5655 49.7204 60.6278 49.7204 60.5863C49.7204 60.5863 49.7204 60.607 49.7204 60.6278V60.5863C49.7204 60.5863 49.7204 60.5863 49.7204 60.5655C49.7204 60.5655 49.7204 60.5447 49.7204 60.524C49.7204 60.524 49.7204 60.524 49.7204 60.5032V60.5447C49.7204 60.5447 49.7204 60.5863 49.7204 60.607H49.6997C49.6997 60.607 49.6997 60.6278 49.6997 60.6486C49.6997 60.6278 49.6997 60.6486 49.6789 60.6486C49.6789 60.6486 49.6789 60.6278 49.6789 60.607C49.6789 60.607 49.6789 60.607 49.6789 60.5863C49.6789 60.607 49.6789 60.607 49.6789 60.6278C49.6789 60.6278 49.6789 60.6278 49.6581 60.6278C49.6581 60.6278 49.6581 60.6278 49.6581 60.607C49.6581 60.607 49.6581 60.6278 49.6581 60.6486C49.6581 60.6486 49.6581 60.6486 49.6581 60.6278V60.607C49.6581 60.607 49.6581 60.5655 49.6581 60.5863C49.6581 60.5863 49.6581 60.6278 49.6581 60.6486C49.6581 60.6486 49.6581 60.6486 49.6581 60.607C49.6581 60.607 49.6581 60.607 49.6581 60.5863C49.6581 60.5863 49.6581 60.5863 49.6581 60.6278C49.6581 60.6278 49.6581 60.6278 49.6581 60.6693V60.6278C49.6581 60.5863 49.6374 60.5863 49.6581 60.5655C49.6581 60.5655 49.6581 60.5655 49.6581 60.5863C49.6581 60.5863 49.6581 60.5863 49.6789 60.5655V60.607C49.6789 60.5655 49.6789 60.5447 49.6581 60.524C49.6581 60.524 49.6581 60.5032 49.6374 60.524C49.6374 60.5447 49.6374 60.5863 49.6374 60.607C49.6374 60.6278 49.6374 60.6278 49.6374 60.6486C49.6374 60.6486 49.6374 60.6486 49.6374 60.6278C49.6374 60.6278 49.6374 60.6278 49.6374 60.607C49.6374 60.607 49.6374 60.607 49.6374 60.5863C49.6374 60.5655 49.6374 60.5863 49.6374 60.5655C49.6374 60.5655 49.6374 60.5655 49.6374 60.524V60.5447V60.5032C49.6374 60.5032 49.6374 60.5032 49.6374 60.524C49.6374 60.524 49.6374 60.524 49.6374 60.5032C49.6374 60.5032 49.6374 60.524 49.6581 60.5447C49.6581 60.524 49.6581 60.524 49.6581 60.5032C49.6581 60.524 49.6581 60.5447 49.6581 60.5447C49.6581 60.5447 49.6581 60.5655 49.6581 60.5863C49.6581 60.5863 49.6581 60.5447 49.6581 60.5655C49.6581 60.5655 49.6581 60.5655 49.6581 60.5447C49.6581 60.5447 49.6789 60.5655 49.6789 60.5447C49.6789 60.5655 49.6789 60.5655 49.6789 60.5655C49.6789 60.5655 49.6997 60.5655 49.7204 60.5863C49.7204 60.5863 49.7204 60.5863 49.7204 60.607C49.7204 60.5863 49.7204 60.6486 49.7204 60.607C49.7204 60.5863 49.7204 60.607 49.7204 60.5655C49.7204 60.5655 49.7204 60.5655 49.7204 60.5863C49.7204 60.5655 49.7204 60.5447 49.7204 60.5447C49.7204 60.5447 49.7204 60.5447 49.6997 60.5447C49.6997 60.5447 49.6997 60.5447 49.6997 60.524V60.4824C49.6997 60.4824 49.6997 60.524 49.7204 60.5447C49.7204 60.5447 49.7204 60.5032 49.7204 60.524C49.7204 60.524 49.7204 60.5032 49.7204 60.4824C49.7204 60.4824 49.7204 60.524 49.7204 60.5447C49.7204 60.5447 49.7204 60.5447 49.7204 60.5032C49.7204 60.5032 49.7204 60.5032 49.7204 60.4824C49.7204 60.4824 49.7204 60.4409 49.7412 60.4617C49.7412 60.4617 49.7412 60.5032 49.762 60.5032C49.762 60.5032 49.762 60.5032 49.762 60.4824C49.762 60.4824 49.762 60.5032 49.762 60.524C49.762 60.5447 49.762 60.5447 49.762 60.524C49.762 60.5032 49.762 60.524 49.762 60.4824C49.762 60.4824 49.762 60.4824 49.762 60.4617C49.762 60.4824 49.762 60.4617 49.762 60.5032C49.762 60.5032 49.7619 60.4617 49.7827 60.5032C49.7827 60.5032 49.7827 60.5032 49.7827 60.524C49.7827 60.524 49.7827 60.5447 49.7827 60.5655V60.524C49.7827 60.524 49.8035 60.5447 49.8242 60.5447C49.8242 60.524 49.8242 60.5032 49.8242 60.5032C49.8242 60.5032 49.8242 60.5032 49.8242 60.524C49.8242 60.5447 49.8242 60.524 49.845 60.524C49.845 60.524 49.845 60.524 49.845 60.5447C49.845 60.5863 49.8242 60.524 49.8035 60.5447V60.5655C49.8035 60.5863 49.8035 60.5863 49.8242 60.5863C49.8242 60.5863 49.8242 60.5655 49.8242 60.5447V60.5032C49.8242 60.4825 49.8242 60.4617 49.8242 60.4409C49.8242 60.4617 49.8242 60.4409 49.845 60.4617C49.845 60.4617 49.845 60.4617 49.8658 60.4617C49.8865 60.4617 49.9073 60.5032 49.9281 60.4824C49.9281 60.4409 49.9488 60.5032 49.9488 60.4824C49.9488 60.4824 49.9488 60.5032 49.9696 60.5032V60.4824C49.9904 60.4824 50.0319 60.4824 50.0527 60.4824C50.0527 60.4824 50.0942 60.524 50.1149 60.4824C50.1149 60.4824 50.1149 60.4825 50.1149 60.5032C50.1149 60.5032 50.1149 60.524 50.1149 60.5447V60.524C50.1149 60.5032 50.1149 60.524 50.1149 60.4824C50.1149 60.4824 50.1149 60.5032 50.1357 60.4824H50.1565C50.1565 60.4824 50.1565 60.4825 50.1565 60.5032H50.1772C50.1772 60.5032 50.198 60.5032 50.2188 60.5032C50.2188 60.5032 50.2188 60.5032 50.2395 60.524C50.2395 60.524 50.2395 60.524 50.2395 60.5032C50.2395 60.4825 50.2395 60.5032 50.2395 60.4824C50.2395 60.4824 50.2395 60.5032 50.2395 60.524C50.2395 60.5447 50.2395 60.524 50.2395 60.5655C50.2395 60.524 50.2603 60.524 50.2811 60.5447C50.2811 60.5447 50.3226 60.5447 50.3226 60.5655V60.524H50.3641C50.3641 60.5655 50.4056 60.524 50.4264 60.5863C50.4264 60.5863 50.4264 60.5655 50.4264 60.5447C50.4264 60.5447 50.4264 60.5863 50.4472 60.5447V60.5863C50.4887 60.607 50.5302 60.6278 50.5718 60.5863C50.5718 60.5655 50.5718 60.607 50.5718 60.5863C50.5718 60.5863 50.5718 60.5655 50.6133 60.5863C50.6133 60.5863 50.6133 60.5655 50.6133 60.5447C50.6133 60.5447 50.6133 60.5447 50.6133 60.5655C50.6133 60.5863 50.6133 60.6278 50.6133 60.6486V60.6901C50.6133 60.6486 50.6133 60.7109 50.5925 60.6901C50.5925 60.7109 50.5925 60.6901 50.5925 60.7316C50.5925 60.7316 50.5925 60.7316 50.5718 60.7316C50.5718 60.7316 50.5718 60.7316 50.5718 60.7109C50.5718 60.7109 50.5718 60.7109 50.5718 60.7316C50.5718 60.7731 50.5718 60.7316 50.551 60.7316V60.7524C50.551 60.7316 50.551 60.7524 50.551 60.7316V60.6901C50.551 60.6901 50.551 60.7316 50.551 60.7524C50.551 60.7524 50.551 60.7939 50.5302 60.7524C50.5302 60.7524 50.5302 60.7524 50.5302 60.7731C50.5302 60.7731 50.5302 60.7731 50.5302 60.7524C50.5302 60.7524 50.5302 60.7524 50.5302 60.7731C50.5302 60.7731 50.5302 60.7524 50.5302 60.7316C50.5302 60.7316 50.5302 60.7316 50.5302 60.7731C50.5302 60.7731 50.5302 60.7731 50.5302 60.7939C50.5302 60.7939 50.5302 60.7939 50.5302 60.7731C50.5302 60.7731 50.5302 60.7316 50.5095 60.7316C50.5095 60.7316 50.5095 60.7316 50.5095 60.7524C50.5095 60.7524 50.4887 60.7731 50.4679 60.7524C50.4679 60.7524 50.4679 60.7109 50.4679 60.6901C50.4679 60.6901 50.4679 60.6901 50.4679 60.6693C50.4679 60.6693 50.4679 60.6693 50.4679 60.6901C50.4679 60.6901 50.4679 60.7109 50.4679 60.7316C50.4679 60.7316 50.4679 60.7316 50.4679 60.7524C50.4679 60.7524 50.4679 60.7524 50.4472 60.7524C50.4472 60.7109 50.4472 60.7524 50.4264 60.7524C50.4264 60.7524 50.4264 60.7524 50.4264 60.7109C50.4264 60.7109 50.4264 60.6693 50.4056 60.6486C50.4056 60.6486 50.4056 60.607 50.4056 60.5863C50.4056 60.5863 50.4056 60.5863 50.4056 60.607V60.6486C50.4056 60.6486 50.4056 60.6693 50.4056 60.6901L50.0734 60.607Z" fill="#C1C6C8"/>
<path d="M49.284 54.6894C49.284 54.6686 49.284 54.6271 49.3255 54.6063C49.3462 54.6063 49.3462 54.5648 49.3878 54.5648C49.3878 54.6063 49.4293 54.544 49.4708 54.5648C49.4708 54.544 49.5124 54.5648 49.4708 54.5233C49.4708 54.5233 49.5331 54.5233 49.5539 54.5233C49.5954 54.5233 49.5539 54.5233 49.5954 54.5233C49.5954 54.5233 49.5954 54.5233 49.5954 54.544C49.5954 54.544 49.6162 54.544 49.6369 54.544C49.6785 54.544 49.6369 54.544 49.6369 54.5233C49.6369 54.544 49.6577 54.5233 49.6785 54.5233C49.6992 54.4817 49.7408 54.5233 49.7823 54.5233C49.8031 54.5233 49.8238 54.5025 49.8238 54.5233C49.8238 54.5233 49.8238 54.5025 49.8446 54.4817C49.8446 54.5025 49.8861 54.4817 49.8861 54.4817C49.9069 54.4817 49.8861 54.5025 49.9276 54.5025C49.9692 54.5025 49.9276 54.461 49.9276 54.4402H49.9484C49.9484 54.4402 50.0107 54.3779 50.0315 54.4402C50.0315 54.4402 50.0522 54.4402 50.0522 54.4194C50.0522 54.4194 50.0938 54.4194 50.1145 54.4194C50.1145 54.4194 50.1145 54.4194 50.1145 54.4402C50.1145 54.4402 50.1561 54.4402 50.1561 54.3987C50.1768 54.3987 50.1561 54.4194 50.1768 54.4402C50.1768 54.4402 50.2183 54.4194 50.2183 54.3987H50.1768C50.1768 54.3987 50.1768 54.3987 50.1976 54.3987C50.1976 54.3987 50.1976 54.3987 50.1976 54.3779C50.1976 54.3779 50.2183 54.3779 50.2391 54.3779C50.2391 54.3779 50.2391 54.3779 50.2391 54.3987H50.2183C50.2599 54.3987 50.2599 54.4194 50.3014 54.4194C50.3014 54.4194 50.3014 54.4194 50.3222 54.4194V54.3987C50.3429 54.3987 50.3637 54.3779 50.3845 54.3779V54.3987C50.426 54.3987 50.3845 54.3987 50.4052 54.3779C50.4675 54.3779 50.509 54.3364 50.5506 54.3364C50.5506 54.3364 50.5506 54.3779 50.5713 54.3987H50.5921C50.5921 54.3987 50.6336 54.3779 50.5921 54.3779H50.6336C50.6544 54.3779 50.6336 54.3571 50.6129 54.3364V54.3156H50.6336C50.6336 54.3156 50.6336 54.3156 50.6336 54.2949H50.6752C50.7167 54.2949 50.7167 54.2949 50.7374 54.2533C50.779 54.2741 50.7375 54.2533 50.7997 54.2326C50.8205 54.2326 50.8413 54.2326 50.8413 54.2326C50.8413 54.2326 50.8413 54.2326 50.8413 54.2118C50.8413 54.2118 50.8828 54.2118 50.9036 54.2118C50.9036 54.2118 50.8828 54.2118 50.862 54.2118C50.862 54.2118 50.9036 54.191 50.9036 54.1703C50.9036 54.1703 50.9659 54.1703 51.0074 54.1703C51.0074 54.191 51.0074 54.2118 51.0489 54.2118C51.0489 54.2118 51.0697 54.191 51.0904 54.1703V54.1287V54.1495C51.0904 54.1495 51.0904 54.108 51.1112 54.0872C51.1112 54.0872 51.1112 54.0872 51.0904 54.0872C51.0489 54.0872 51.0904 54.0457 51.0697 54.0457C51.0697 54.0457 51.1112 54.0457 51.0904 54.0457C51.0904 54.0042 51.1527 54.0457 51.1735 53.9834C51.1943 53.9834 51.1735 53.9626 51.1943 53.9419C51.1943 53.9419 51.2566 53.9419 51.2358 53.9419C51.2358 53.9419 51.2358 53.9834 51.2566 53.9834C51.2773 53.9834 51.2981 53.9834 51.3189 53.9834C51.3189 53.9626 51.2981 53.9834 51.2773 53.9834H51.3396C51.3396 53.9419 51.3396 53.9419 51.2981 53.9626C51.2981 53.9419 51.3604 53.9419 51.3811 53.9626C51.3811 53.9626 51.4019 53.9626 51.4227 53.9419C51.4227 53.9419 51.4019 53.9003 51.3604 53.9211C51.3188 53.9211 51.3811 53.9211 51.3604 53.9626C51.3604 53.9626 51.3396 53.9626 51.3189 53.9626C51.2981 53.9626 51.2773 53.9834 51.2358 53.9626C51.2566 53.9211 51.3396 53.9211 51.3396 53.9003C51.3604 53.9003 51.4019 53.9003 51.4227 53.9003C51.4227 53.9003 51.4019 53.9211 51.4227 53.9419C51.4227 53.9211 51.4434 53.9003 51.485 53.8796C51.485 53.9003 51.5473 53.8796 51.5265 53.9211H51.5057C51.5473 53.9211 51.5057 53.9419 51.5265 53.9211C51.5888 53.9211 51.5265 53.9211 51.568 53.8796C51.568 53.8796 51.5265 53.8588 51.485 53.838H51.5265C51.5265 53.838 51.5265 53.838 51.5265 53.8588C51.568 53.8588 51.6303 53.8796 51.6926 53.8796C51.6926 53.838 51.5888 53.8588 51.6095 53.8173C51.6303 53.8173 51.6303 53.838 51.6718 53.8173C51.6718 53.8173 51.7341 53.8173 51.7757 53.8173C51.7757 53.8173 51.8172 53.8173 51.838 53.8173C51.838 53.8173 51.9003 53.8173 51.9418 53.8588H51.9002C51.9002 53.8588 51.8587 53.8588 51.8795 53.8588C51.921 53.8588 51.9418 53.9003 51.9833 53.9211C51.9833 53.9211 52.0041 53.9211 52.0248 53.9419C52.0664 53.9419 52.0248 53.9003 52.0248 53.9003C52.0248 53.9003 51.9833 53.9003 51.9833 53.8588H52.0248C52.0248 53.8588 52.0664 53.8588 52.0871 53.8588C52.0871 53.8796 52.0871 53.8588 52.1079 53.8588C52.0871 53.8588 52.0871 53.8588 52.0664 53.8588C52.1079 53.8796 52.0664 53.9003 52.1287 53.9211C52.1287 53.9211 52.1494 53.9419 52.1702 53.9419C52.1702 53.9419 52.1494 53.9003 52.1702 53.9003C52.1702 53.9003 52.1702 53.9003 52.1702 53.9211C52.1909 53.9211 52.1702 53.9211 52.1909 53.9626C52.1702 53.9626 52.1494 53.9626 52.1909 54.0042C52.2325 54.0042 52.2325 54.0457 52.274 54.0249C52.274 54.0249 52.2948 54.0457 52.3155 54.0457C52.3155 54.0457 52.274 54.0249 52.274 53.9834C52.2948 53.9834 52.274 54.0042 52.274 54.0249H52.3155C52.3155 54.0249 52.3155 54.0457 52.3363 54.0664C52.3363 54.0664 52.3363 54.0664 52.3363 54.0457C52.3363 54.0457 52.3363 54.0457 52.3571 54.0457C52.3571 54.0457 52.3986 54.0457 52.3778 54.0872C52.3778 54.0872 52.4194 54.0872 52.4401 54.0872C52.4194 54.1287 52.4194 54.0664 52.3986 54.0872C52.3986 54.108 52.4816 54.1287 52.5024 54.1495C52.5439 54.1495 52.5024 54.1495 52.5024 54.1287C52.4816 54.1287 52.4609 54.1287 52.4401 54.108C52.4609 54.108 52.5024 54.1287 52.5232 54.1495C52.5439 54.1495 52.5647 54.108 52.6062 54.1495C52.6062 54.1495 52.6062 54.1495 52.5855 54.1495C52.5855 54.1495 52.5855 54.1495 52.6062 54.1495C52.627 54.1495 52.627 54.108 52.6478 54.1495C52.6478 54.1495 52.6478 54.1703 52.6478 54.191V54.2118C52.6478 54.2118 52.6685 54.2118 52.6478 54.1703C52.6478 54.1703 52.6685 54.1703 52.6893 54.1703C52.6685 54.1703 52.6893 54.1287 52.6893 54.108H52.6685C52.6685 54.0664 52.7101 54.108 52.7101 54.0664C52.7101 54.0664 52.7308 54.0664 52.7308 54.0457C52.7308 54.0457 52.7308 54.0664 52.7516 54.0457V54.0042C52.7516 53.9834 52.7723 54.0042 52.7931 54.0042C52.7931 54.0249 52.7931 54.0042 52.8346 54.0042C52.8346 54.0042 52.8139 54.0042 52.7931 54.0249C52.7931 54.0249 52.8139 54.0249 52.8346 54.0249C52.8346 53.9834 52.8346 54.0042 52.8346 53.9626C52.8139 53.9626 52.7723 53.9626 52.7516 53.9626C52.7723 53.9419 52.8139 53.9003 52.8139 53.8796C52.8346 53.8588 52.8554 53.8796 52.8762 53.8796C52.8762 53.8796 52.8762 53.8796 52.8762 53.8588C52.9177 53.838 52.9385 53.8173 52.9592 53.7965C52.98 53.7965 52.98 53.7965 53.0007 53.7965C53.0007 53.7965 53.0215 53.7965 53.0423 53.7757C53.0423 53.7757 53.063 53.7342 53.0838 53.7342C53.0838 53.7342 53.063 53.7342 53.0423 53.7342H53.0007C53.0423 53.7342 53.0423 53.6927 53.0215 53.6719C53.063 53.6719 53.0215 53.7135 53.0423 53.6719C53.063 53.5889 53.1461 53.6096 53.1669 53.5473C53.1876 53.5473 53.2084 53.5473 53.2499 53.5473V53.5266C53.2499 53.5473 53.2499 53.5266 53.2499 53.5473C53.2499 53.5473 53.2499 53.5058 53.2707 53.5058C53.2707 53.5058 53.2707 53.5058 53.2707 53.5266C53.2707 53.5266 53.2707 53.5266 53.2915 53.5266C53.2915 53.5266 53.2915 53.5473 53.2915 53.5681C53.2915 53.5681 53.2914 53.5681 53.3122 53.5473C53.3122 53.5473 53.3122 53.5473 53.3122 53.5681V53.6096V53.5889C53.3122 53.6096 53.3122 53.5889 53.333 53.5889C53.333 53.5889 53.333 53.5889 53.333 53.6096H53.3745C53.3745 53.6096 53.3537 53.6512 53.3537 53.6719C53.3537 53.6719 53.3537 53.6719 53.3537 53.6927C53.3537 53.6927 53.3537 53.6719 53.3537 53.6512C53.3537 53.6512 53.3537 53.6512 53.3745 53.6512C53.3745 53.6927 53.3745 53.6512 53.3953 53.6512C53.3953 53.6512 53.3953 53.6512 53.3953 53.6927C53.3953 53.6927 53.3953 53.7342 53.3953 53.7135C53.3953 53.7135 53.3953 53.7342 53.3953 53.755C53.3953 53.755 53.416 53.755 53.4368 53.7342C53.4368 53.7342 53.4368 53.7135 53.4576 53.6927C53.4783 53.6719 53.4576 53.7135 53.4783 53.6927C53.4783 53.6927 53.4576 53.7135 53.4576 53.7342C53.4576 53.7342 53.4576 53.7342 53.4576 53.755L53.4783 53.7135C53.4783 53.7135 53.4783 53.7342 53.4576 53.7135V53.6927C53.4576 53.6927 53.4576 53.6927 53.4783 53.6927C53.4783 53.7342 53.4783 53.7342 53.4576 53.755C53.4576 53.755 53.4783 53.7342 53.4991 53.755V53.7757C53.4991 53.7757 53.4991 53.7757 53.4991 53.755C53.4991 53.755 53.4991 53.755 53.4991 53.7757C53.4991 53.7757 53.4991 53.755 53.5199 53.7342V53.755C53.5199 53.755 53.5199 53.755 53.5406 53.755C53.5406 53.755 53.5406 53.755 53.5406 53.7757C53.5406 53.7757 53.5406 53.7757 53.5406 53.7965C53.5406 53.7965 53.5406 53.7965 53.5199 53.838C53.5199 53.838 53.5199 53.838 53.5406 53.8173C53.5406 53.8173 53.5822 53.7965 53.5822 53.8173V53.838C53.5822 53.838 53.5822 53.838 53.6029 53.8173C53.6444 53.8173 53.6029 53.838 53.6029 53.8173C53.6029 53.8173 53.6029 53.8173 53.5822 53.838C53.5822 53.838 53.5822 53.838 53.6029 53.838C53.6029 53.838 53.6029 53.838 53.5822 53.8588C53.5822 53.8588 53.6029 53.8588 53.6237 53.8588C53.6237 53.8796 53.6652 53.8796 53.6444 53.9211C53.6444 53.9003 53.6237 53.9211 53.6237 53.9003C53.6237 53.9211 53.6237 53.9211 53.6237 53.9003C53.6237 53.9003 53.6237 53.9211 53.6237 53.9419C53.6237 53.9419 53.6237 53.9419 53.6237 53.9626C53.6237 53.9211 53.6029 53.9626 53.6237 53.9626C53.6237 53.9626 53.6237 53.9626 53.6029 53.9834C53.6237 53.9834 53.6652 53.9834 53.6652 53.9626C53.6652 53.9626 53.686 53.9626 53.7067 53.9419C53.7067 53.9419 53.7067 53.9419 53.7275 53.9419C53.7275 53.9419 53.7275 53.9419 53.7275 53.9626C53.7275 53.9626 53.7483 53.9626 53.769 53.9626C53.769 53.9626 53.769 53.9626 53.769 53.9834C53.769 53.9834 53.769 53.9834 53.7898 53.9834H53.769C53.7483 53.9834 53.7483 54.0042 53.7275 54.0249C53.7275 54.0249 53.7275 54.0249 53.7483 54.0042C53.7483 54.0042 53.7483 54.0042 53.7275 54.0042C53.7275 54.0042 53.7275 54.0042 53.7483 54.0042C53.7483 54.0457 53.7067 54.0457 53.7067 54.0457C53.7067 54.0457 53.7067 54.0457 53.7067 54.0664C53.7275 54.0664 53.769 54.0457 53.7898 54.0249C53.8106 54.0249 53.8106 54.0249 53.8313 54.0042C53.8313 54.0042 53.8313 54.0042 53.8106 54.0042C53.7898 54.0042 53.8106 54.0042 53.7898 54.0042C53.7898 54.0042 53.7898 54.0042 53.769 54.0249C53.769 54.0249 53.769 54.0249 53.7898 54.0249C53.7898 54.0249 53.769 54.0457 53.7483 54.0457C53.7483 54.0457 53.7483 54.0457 53.7275 54.0457V54.0249C53.7275 54.0249 53.7275 54.0249 53.7067 54.0457C53.7067 54.0457 53.7275 54.0457 53.7275 54.0249C53.7275 54.0249 53.7483 54.0249 53.7483 54.0042C53.7483 54.0042 53.7483 54.0042 53.7275 54.0042C53.7275 54.0042 53.686 54.0042 53.7067 54.0042C53.7067 54.0042 53.7067 54.0042 53.686 54.0042C53.686 54.0042 53.7067 53.9834 53.7275 53.9626C53.7275 53.9626 53.7275 53.9626 53.7067 53.9834C53.7067 53.9834 53.7067 53.9834 53.686 53.9834C53.686 53.9834 53.7067 53.9626 53.7067 53.9419C53.7067 53.9419 53.7067 53.9419 53.686 53.9419C53.686 53.9419 53.686 53.9419 53.7067 53.9419C53.686 53.9419 53.7067 53.9419 53.6652 53.9834C53.6652 53.9834 53.6652 53.9834 53.6444 53.9834C53.6444 53.9834 53.6444 53.9834 53.6652 53.9419C53.6652 53.9211 53.6652 53.9419 53.6444 53.9419C53.6444 53.9419 53.6444 53.9419 53.6652 53.9211C53.6652 53.9211 53.6444 53.9419 53.6237 53.9419V53.9003V53.9211C53.6237 53.9211 53.6237 53.9211 53.6237 53.9003C53.6237 53.9003 53.6237 53.9003 53.6237 53.8796C53.6652 53.8588 53.6237 53.9003 53.6444 53.8796C53.6652 53.8796 53.6444 53.8796 53.6444 53.838C53.6444 53.838 53.6444 53.8588 53.6237 53.8796C53.6237 53.8796 53.6237 53.8796 53.6444 53.8796V53.9211C53.6237 53.9211 53.6029 53.9626 53.6029 53.9626C53.6029 53.9419 53.6029 53.9626 53.6029 53.9419C53.6029 53.9419 53.6029 53.9419 53.6029 53.9211V53.8796C53.5822 53.9003 53.6029 53.8588 53.5822 53.8796C53.5822 53.8796 53.5822 53.8588 53.5822 53.838C53.5822 53.838 53.5822 53.838 53.5614 53.838C53.5614 53.8173 53.5614 53.7965 53.5406 53.7757V53.7342C53.5406 53.7342 53.5406 53.7342 53.5406 53.7135C53.5406 53.7135 53.5406 53.7135 53.5406 53.7342C53.5406 53.7342 53.5406 53.6927 53.5406 53.7135C53.5406 53.7135 53.5406 53.7135 53.5199 53.7135C53.5199 53.7135 53.5199 53.7135 53.4991 53.7135C53.4991 53.7135 53.4991 53.7135 53.4991 53.6719C53.4991 53.6512 53.4368 53.6719 53.4368 53.6304C53.4368 53.6304 53.4368 53.6096 53.4368 53.5889C53.4368 53.5889 53.4368 53.5889 53.4368 53.6304C53.4368 53.6304 53.4368 53.6304 53.4368 53.6512C53.4368 53.6512 53.4368 53.6512 53.3953 53.6304C53.3953 53.6304 53.3953 53.6512 53.3953 53.6719C53.3953 53.6719 53.3953 53.6719 53.416 53.6719C53.416 53.6719 53.416 53.6719 53.3953 53.6719C53.3745 53.6719 53.3953 53.7342 53.3537 53.7135V53.7342C53.3537 53.7342 53.333 53.7342 53.3122 53.7342C53.3122 53.7757 53.3537 53.7342 53.3537 53.7757H53.3122V53.8173C53.3122 53.8796 53.2292 53.8796 53.1876 53.9419C53.1876 53.9419 53.2499 53.9211 53.2499 53.9003C53.2499 53.9211 53.2084 53.9419 53.2084 53.9834C53.2084 54.0042 53.1669 54.0042 53.1461 53.9834C53.1253 54.0042 53.1461 54.0042 53.1461 54.0249C53.1253 54.0249 53.0838 54.0664 53.063 54.0664C53.063 54.0664 53.0215 54.0872 53.0007 54.108C53.0423 54.0457 53.1253 54.0664 53.1253 54.0042C53.1046 54.0042 53.0838 54.0042 53.0423 54.0249C53.0423 54.0664 53.0838 54.0249 53.1046 54.0249C53.1046 54.0249 53.0838 54.0249 53.063 54.0457C53.0008 54.0872 53.0423 54.0457 53.0215 54.0457C53.0008 54.0457 52.98 54.0664 52.9592 54.0664C52.9177 54.0872 52.8969 54.0664 52.8762 54.0664C52.9177 54.0664 52.9385 54.108 52.9592 54.0664C52.8969 54.108 52.98 54.108 53.0215 54.108C52.98 54.108 52.9592 54.1287 52.9385 54.1495C52.9177 54.1495 52.8969 54.1495 52.8762 54.1495C52.8346 54.1495 52.8139 54.1495 52.7723 54.1287C52.7931 54.1287 52.7516 54.1287 52.7723 54.1287C52.7308 54.1287 52.7101 54.1287 52.7101 54.1287C52.7101 54.1287 52.6685 54.1287 52.6685 54.108C52.6685 54.108 52.6685 54.108 52.6478 54.108C52.5439 54.108 52.5439 54.0249 52.4609 54.0042H52.4194C52.3778 54.0249 52.3571 53.9419 52.3155 53.9626C52.274 53.9626 52.2948 53.9211 52.274 53.9003V53.9211C52.1909 53.8588 52.1287 53.838 52.0456 53.7965C51.9833 53.7965 51.9418 53.7342 51.9002 53.755C51.9002 53.755 51.8587 53.755 51.8795 53.7342C51.8795 53.7342 51.8795 53.7135 51.8795 53.6927C51.838 53.6927 51.8795 53.7135 51.838 53.7135C51.838 53.7342 51.838 53.7135 51.8587 53.755C51.8587 53.755 51.838 53.755 51.8172 53.755C51.8172 53.755 51.7757 53.755 51.7549 53.755C51.7964 53.755 51.7757 53.755 51.7964 53.755C51.7757 53.755 51.7341 53.755 51.7134 53.755C51.7134 53.7342 51.6926 53.755 51.6718 53.755C51.6718 53.755 51.6718 53.755 51.6511 53.755C51.6511 53.755 51.5888 53.755 51.5888 53.7965C51.5888 53.7965 51.568 53.7965 51.5473 53.7965C51.5057 53.8173 51.4642 53.838 51.4227 53.8796C51.3811 53.8796 51.3604 53.9003 51.3189 53.9003C51.3189 53.9003 51.3604 53.8796 51.3189 53.8796C51.3189 53.8796 51.2981 53.8796 51.2773 53.8796C51.2773 53.8796 51.2566 53.9211 51.2773 53.9003C51.2773 53.9211 51.215 53.9211 51.2358 53.9626C51.2358 53.9626 51.1943 53.9834 51.1527 53.9626C51.1112 53.9834 51.0904 53.9626 51.0697 53.9626H51.0904C51.0697 53.9834 51.0489 53.9626 51.0074 53.9626C50.9866 53.9626 50.9451 53.9626 50.9243 53.9626C50.9243 53.9626 50.9243 54.0042 50.8828 53.9834C50.9243 53.9834 50.8828 53.9834 50.9243 53.9834C50.9243 54.0249 50.8205 54.0457 50.7582 54.0664C50.7167 54.0664 50.6336 54.108 50.6129 54.0664L50.5506 54.108C50.4883 54.108 50.426 54.1287 50.3845 54.108C50.3222 54.108 50.2183 54.1287 50.1768 54.0872C50.1561 54.0872 50.1768 54.0872 50.1768 54.108C50.1768 54.108 50.1145 54.0872 50.0938 54.108C50.0938 54.108 50.073 54.108 50.0522 54.108C50.0522 54.108 50.0107 54.0664 49.9899 54.0872C49.9899 54.0872 49.9899 54.0872 49.9692 54.0872C49.8446 54.0872 49.6992 54.0872 49.5539 54.1287H49.5747H49.5124C49.4708 54.1495 49.4708 54.1287 49.4501 54.1287C49.4085 54.1287 49.3878 54.1703 49.3463 54.1495C49.3047 54.1495 49.3255 54.1703 49.284 54.191H49.2632C49.2632 54.191 49.2424 54.191 49.2217 54.191L49.284 54.6894ZM53.3953 53.6719C53.3953 53.6719 53.3537 53.6719 53.3537 53.6927C53.3537 53.6927 53.3537 53.6927 53.3745 53.6927L53.3953 53.6719ZM54.1635 54.2326C54.1635 54.2326 54.1635 54.2326 54.1635 54.2118V54.2326ZM54.1013 54.2326C54.1013 54.2326 54.1013 54.2326 54.0805 54.2326H54.1013ZM54.1843 54.3987C54.1843 54.3987 54.1843 54.3987 54.2051 54.3987H54.1843Z" fill="#C1C6C8"/>
<path d="M54.0385 54.4612C54.0385 54.4612 54.0593 54.4404 54.0801 54.4404L54.0385 54.4612Z" fill="#C1C6C8"/>
<path d="M51.1751 61.4789C51.1335 61.4789 51.1751 61.4582 51.1751 61.4582C51.1751 61.4582 51.1751 61.4582 51.1958 61.4582H51.2374C51.2374 61.4374 51.2166 61.4582 51.2374 61.4582C51.2374 61.4582 51.2374 61.4582 51.2374 61.4374H51.1958H51.2166C51.2166 61.4374 51.2166 61.4374 51.2166 61.4582C51.2166 61.4582 51.2166 61.4374 51.2166 61.4166H51.2374C51.2374 61.3959 51.2581 61.4166 51.2789 61.3959C51.2581 61.3959 51.2374 61.3959 51.2374 61.3959C51.2581 61.3959 51.2374 61.3959 51.2789 61.3959C51.2789 61.3959 51.2374 61.3959 51.2374 61.4166H51.2581C51.2581 61.4166 51.2997 61.3959 51.2997 61.3751C51.2581 61.3751 51.2789 61.3959 51.2374 61.3959C51.2166 61.3959 51.2374 61.3959 51.2374 61.3751C51.2374 61.3751 51.2374 61.3751 51.2374 61.3543C51.2374 61.3543 51.2374 61.3543 51.2581 61.3543C51.2581 61.3543 51.2581 61.3544 51.2581 61.3336C51.2581 61.3336 51.2374 61.3336 51.2166 61.3336H51.1958C51.1958 61.3336 51.1958 61.3336 51.1958 61.3128H51.2166C51.2166 61.3128 51.2374 61.3128 51.2374 61.2921C51.2374 61.2921 51.2374 61.2921 51.1958 61.2921C51.1958 61.2921 51.1958 61.2713 51.1958 61.2505C51.1958 61.2505 51.1958 61.2505 51.1751 61.2505C51.1751 61.2505 51.1958 61.2505 51.2166 61.2505C51.2166 61.2505 51.2166 61.2505 51.1958 61.2505C51.1958 61.2505 51.1958 61.2505 51.1751 61.2505C51.2166 61.2505 51.1751 61.2505 51.1958 61.2505C51.1958 61.2505 51.1958 61.2298 51.1958 61.209C51.1958 61.209 51.1958 61.209 51.1751 61.209C51.1751 61.209 51.1751 61.209 51.1751 61.2298C51.1751 61.2298 51.1751 61.209 51.1751 61.1882C51.1751 61.1882 51.1335 61.1882 51.1335 61.1675C51.1335 61.1675 51.1335 61.1675 51.1543 61.1675C51.1543 61.1675 51.1751 61.1675 51.1958 61.1675C51.1958 61.1675 51.1958 61.1675 51.1751 61.1675C51.1751 61.1675 51.1751 61.1675 51.1958 61.1675V61.1882C51.1958 61.1882 51.1958 61.1882 51.1958 61.1675C51.1543 61.1675 51.1958 61.1675 51.1958 61.1467C51.1958 61.1467 51.1958 61.1467 51.1543 61.1467C51.1543 61.1467 51.1543 61.1259 51.1543 61.1052C51.1543 61.1052 51.1543 61.1052 51.1751 61.1052C51.1751 61.1052 51.1751 61.0636 51.1751 61.0429V61.0014V60.9598C51.1751 60.9598 51.1958 60.9598 51.2166 60.9391C51.2166 60.9391 51.1958 60.9598 51.1751 60.9391V60.8975C51.1751 60.8352 51.1958 60.773 51.1958 60.7107C51.1751 60.7107 51.1751 60.7522 51.1543 60.773C51.1335 60.7522 51.1543 60.7107 51.1543 60.6899C51.1543 60.6691 51.1543 60.6484 51.1751 60.6484C51.1751 60.6068 51.1751 60.6276 51.1751 60.6276C51.1958 60.6276 51.1751 60.5653 51.1751 60.5445V60.503C51.1751 60.503 51.1751 60.503 51.1958 60.503C51.2374 60.5238 51.1751 60.5861 51.2166 60.6276C51.2166 60.6276 51.2374 60.6068 51.2374 60.6276C51.2581 60.6276 51.2581 60.5861 51.2581 60.5445C51.2581 60.5238 51.2374 60.5653 51.2166 60.5861C51.2166 60.5861 51.2166 60.5653 51.2166 60.5445H51.1958C51.1958 60.503 51.1958 60.5445 51.2374 60.5445C51.2581 60.5445 51.2374 60.503 51.2374 60.503C51.2374 60.503 51.2374 60.4823 51.2374 60.4407C51.2581 60.4615 51.2166 60.4823 51.2374 60.503C51.2166 60.4407 51.1958 60.503 51.1751 60.5445C51.1751 60.5238 51.1751 60.503 51.1751 60.4823C51.1958 60.4407 51.1751 60.3992 51.1958 60.3784C51.1958 60.3369 51.1958 60.2954 51.1958 60.2746C51.1958 60.2746 51.1958 60.2746 51.1751 60.2538C51.1751 60.15 51.2166 60.1293 51.1958 60.0254C51.1958 60.0254 51.1958 60.0047 51.1958 59.9839C51.1543 59.9631 51.2166 59.9009 51.1958 59.8593C51.1958 59.8178 51.2166 59.8178 51.2166 59.7763H51.1958C51.1958 59.6517 51.1958 59.5479 51.1958 59.4233C51.1958 59.3402 51.2374 59.2572 51.1958 59.1949C51.1958 59.1949 51.1958 59.1326 51.2166 59.1533C51.2166 59.1533 51.2374 59.1533 51.2581 59.1533C51.2581 59.0911 51.2374 59.1326 51.2374 59.091C51.2166 59.091 51.2374 59.1118 51.1958 59.1118V59.0495C51.1958 59.008 51.2166 58.9872 51.1958 58.9457C51.1958 58.9457 51.1751 58.9457 51.1958 58.9665C51.1958 59.008 51.1958 58.9872 51.1958 59.0288C51.1958 58.9872 51.1958 58.9457 51.1958 58.9042C51.1958 58.9042 51.1958 58.8834 51.2166 58.8626V58.8419H51.1958C51.1958 58.8211 51.1958 58.7381 51.1958 58.7381C51.1958 58.7173 51.1958 58.6965 51.1958 58.6758C51.1958 58.6135 51.1958 58.5512 51.1958 58.4889C51.1958 58.4474 51.1958 58.4058 51.2166 58.3851C51.2166 58.3851 51.2166 58.4266 51.2166 58.4058C51.2166 58.4058 51.2166 58.3851 51.2166 58.3643C51.2166 58.3643 51.2166 58.3228 51.1958 58.3643C51.1751 58.3643 51.1958 58.2812 51.1751 58.2812C51.1751 58.2812 51.1751 58.219 51.1751 58.1982V58.219C51.1751 58.1982 51.1751 58.1982 51.1751 58.1982C51.1751 58.1567 51.1958 58.1359 51.2166 58.1151H51.1958C51.1958 58.1151 51.2166 58.0944 51.2166 58.0528V58.0321C51.2374 58.0321 51.2166 57.9698 51.2581 57.949C51.2581 57.949 51.2374 57.9283 51.2581 57.9075H51.2374C51.2374 57.949 51.2374 57.9075 51.2374 57.9698C51.1958 57.9283 51.1958 57.8452 51.2166 57.7829C51.2166 57.7414 51.2166 57.6376 51.2374 57.6168V57.5337C51.2374 57.4507 51.2374 57.3884 51.2374 57.3261C51.2789 57.2638 51.2374 57.1184 51.3204 57.0769C51.3204 57.0354 51.2997 57.0769 51.2789 57.0769C51.2789 57.0562 51.3204 57.0146 51.2789 56.9939C51.2789 56.9939 51.2789 56.9731 51.2789 56.9523C51.2789 56.9523 51.3204 56.9108 51.3204 56.89C51.3204 56.89 51.3204 56.89 51.3204 56.8693C51.3412 56.7239 51.362 56.537 51.3204 56.3917V56.3502C51.2997 56.3086 51.3412 56.3086 51.3204 56.2671C51.3204 56.2256 51.2997 56.1841 51.3204 56.1425C51.3204 56.101 51.2997 56.101 51.2789 56.0802C51.2789 56.0595 51.2789 56.0387 51.2789 56.0387C51.2789 56.0595 51.2789 56.0387 51.2789 56.0179C51.2997 56.0179 51.3412 56.0179 51.362 56.0595C51.362 56.101 51.4035 56.101 51.4035 56.1218C51.362 56.1425 51.4242 56.1841 51.4035 56.2048C51.4242 56.2048 51.4035 56.2463 51.445 56.2048C51.445 56.2048 51.445 56.2879 51.445 56.3086C51.445 56.3502 51.445 56.3294 51.445 56.3709H51.4242C51.4242 56.3709 51.4242 56.3709 51.4242 56.3917C51.4242 56.3917 51.4242 56.3709 51.4035 56.3917C51.4035 56.3917 51.4035 56.4125 51.4035 56.4332C51.4035 56.4332 51.4035 56.454 51.4035 56.4748C51.4035 56.4748 51.4035 56.454 51.4035 56.4332C51.4035 56.4748 51.4035 56.4332 51.4242 56.454C51.4035 56.454 51.4242 56.4955 51.4242 56.5163C51.4658 56.5578 51.4242 56.5786 51.4242 56.6409C51.4242 56.6616 51.4242 56.6824 51.4242 56.7032C51.4242 56.7239 51.445 56.7032 51.445 56.7447C51.4242 56.7447 51.445 56.7862 51.4242 56.7862C51.4242 56.8485 51.3827 56.807 51.362 56.8485C51.362 56.89 51.4035 56.8485 51.4242 56.8693V56.9108V56.9523C51.4242 56.9731 51.4658 57.0354 51.4242 57.0562C51.4242 57.0562 51.4242 57.0977 51.445 57.0977C51.445 57.0977 51.445 57.16 51.445 57.1807C51.445 57.1807 51.445 57.1807 51.445 57.2015C51.445 57.2015 51.445 57.2015 51.4242 57.2015C51.4242 57.2015 51.4242 57.2638 51.445 57.2638C51.445 57.2846 51.4242 57.2638 51.4035 57.2638C51.4035 57.2638 51.4035 57.3261 51.445 57.3261V57.2846C51.445 57.3053 51.445 57.2846 51.445 57.3261C51.445 57.3261 51.445 57.3261 51.4658 57.3261C51.4658 57.3261 51.4658 57.3469 51.4658 57.3676C51.4658 57.3469 51.4658 57.3676 51.445 57.3676C51.445 57.3053 51.445 57.3261 51.4242 57.3261C51.4242 57.3884 51.3827 57.3676 51.3827 57.4299C51.3827 57.4299 51.3827 57.4507 51.3827 57.4714H51.4035C51.3827 57.4922 51.4035 57.5337 51.4035 57.5545H51.3827C51.3827 57.596 51.3827 57.5545 51.4035 57.596C51.4035 57.6791 51.4242 57.7206 51.4035 57.7829H51.3827C51.3827 57.7621 51.4035 57.7414 51.4035 57.7414C51.4035 57.7206 51.362 57.7414 51.3412 57.7414C51.3412 57.7414 51.3412 57.7829 51.3412 57.7621V57.8037C51.3412 57.8037 51.3412 57.7829 51.3204 57.8037C51.3204 57.8037 51.3204 57.8452 51.3412 57.8244V57.866C51.3412 57.9075 51.362 57.866 51.3827 57.866C51.3827 57.8867 51.3827 57.8867 51.4035 57.866V57.9075C51.4035 57.9283 51.4035 57.949 51.4035 57.9698C51.4035 58.0321 51.4035 58.0321 51.4035 58.0944C51.3827 58.1359 51.4242 58.1151 51.4035 58.1774C51.4035 58.219 51.4035 58.2397 51.362 58.219C51.362 58.219 51.362 58.2397 51.362 58.2605C51.362 58.2605 51.3204 58.302 51.3412 58.3228C51.3412 58.3228 51.3412 58.302 51.3412 58.2812C51.362 58.2812 51.3412 58.3435 51.3412 58.3643C51.3412 58.3643 51.2997 58.4474 51.2789 58.4681C51.2789 58.4681 51.2374 58.4681 51.2166 58.4681C51.2166 58.4681 51.2166 58.5097 51.2374 58.5304C51.2374 58.5304 51.2789 58.5719 51.2789 58.5304C51.2789 58.5304 51.2581 58.5304 51.2789 58.4889C51.2789 58.4889 51.2997 58.5304 51.3204 58.5512C51.3204 58.5512 51.3204 58.5512 51.3204 58.5304C51.3204 58.4889 51.362 58.5304 51.362 58.5304C51.362 58.5304 51.362 58.5719 51.362 58.5512C51.4035 58.5719 51.362 58.6342 51.362 58.655C51.362 58.655 51.362 58.655 51.3412 58.655C51.3412 58.6758 51.3412 58.6758 51.3412 58.6965C51.3412 58.6965 51.3412 58.7588 51.3412 58.7381H51.2997C51.2789 58.7381 51.2997 58.7796 51.2997 58.8003C51.2997 58.8211 51.2997 58.7796 51.2997 58.7588V58.8419C51.2997 58.8626 51.2997 58.8419 51.2997 58.8003C51.2997 58.8211 51.2997 58.8626 51.2997 58.8834C51.2997 58.8834 51.2997 58.9042 51.2997 58.9249C51.2997 58.9249 51.3412 58.9249 51.3412 58.8834C51.3412 58.8419 51.3204 58.8834 51.3204 58.8626V58.8211C51.3204 58.7796 51.3204 58.7588 51.3204 58.7381C51.3204 58.7796 51.3204 58.8419 51.3204 58.8626V58.9457C51.2789 58.9457 51.2789 58.9249 51.2581 58.9457C51.2789 58.9457 51.2997 58.9872 51.2997 59.008C51.2789 59.008 51.2789 59.0703 51.2581 59.0495V59.0288C51.2581 59.0703 51.2374 59.0288 51.2374 59.0495C51.2374 59.1118 51.2374 59.0495 51.2581 59.1118C51.2581 59.1118 51.2997 59.0703 51.2997 59.0288V59.0703H51.2789C51.2789 59.1118 51.2374 59.1741 51.2374 59.2156C51.2789 59.2156 51.2581 59.1118 51.2997 59.1326C51.2997 59.1533 51.2789 59.1533 51.2997 59.1741C51.3204 59.1741 51.2997 59.2364 51.2997 59.2779C51.2997 59.2779 51.2997 59.2987 51.2997 59.3195C51.2997 59.3195 51.2997 59.3817 51.2997 59.4233V59.3817C51.2997 59.3817 51.2997 59.3402 51.2789 59.3817C51.2789 59.4233 51.2789 59.444 51.2789 59.5063C51.2789 59.5063 51.2789 59.5271 51.2789 59.5479C51.2789 59.5894 51.2997 59.5271 51.3204 59.5479V59.5063H51.3412C51.3412 59.5479 51.3412 59.5686 51.3412 59.5894H51.3204C51.3204 59.5479 51.3204 59.5479 51.3204 59.5271C51.3204 59.5686 51.2997 59.5686 51.2997 59.6102C51.2997 59.6102 51.2997 59.6517 51.2997 59.6724C51.2997 59.6724 51.2997 59.6309 51.3412 59.6517C51.3412 59.6724 51.3412 59.6724 51.3412 59.6724C51.3412 59.6724 51.3204 59.6724 51.3412 59.6932C51.3412 59.7347 51.3412 59.6932 51.3412 59.7347C51.3412 59.714 51.2997 59.714 51.2997 59.7347C51.2997 59.7763 51.2997 59.797 51.2997 59.8386C51.2997 59.8386 51.2997 59.8801 51.2997 59.9009C51.3204 59.9009 51.2997 59.8386 51.3412 59.8386C51.3412 59.8593 51.3412 59.8386 51.362 59.8386C51.362 59.8593 51.3412 59.8386 51.3204 59.8593C51.3204 59.8593 51.3204 59.9009 51.3412 59.9009C51.3412 59.9216 51.3412 59.9216 51.3412 59.9424C51.3412 59.9424 51.3412 59.9424 51.362 59.9424V59.9631V60.0047C51.362 60.0047 51.362 60.0462 51.362 60.067C51.3204 60.067 51.362 60.0254 51.3412 60.0254C51.3412 60.0462 51.3412 60.1293 51.3412 60.1708C51.3412 60.2123 51.3412 60.1708 51.3827 60.1708C51.3827 60.1293 51.3827 60.1293 51.3827 60.0877C51.3827 60.1293 51.3827 60.1915 51.3827 60.2123C51.3827 60.2538 51.4242 60.2538 51.4242 60.2954C51.4242 60.2954 51.4242 60.2954 51.4035 60.2954C51.4035 60.2954 51.4035 60.3161 51.4035 60.3369C51.4035 60.3784 51.445 60.3577 51.4035 60.3992C51.4035 60.3992 51.4035 60.3992 51.4035 60.3784C51.4035 60.3784 51.3827 60.3784 51.362 60.42C51.362 60.42 51.362 60.42 51.362 60.4407V60.4823C51.362 60.4615 51.3204 60.4823 51.3204 60.4823C51.3204 60.503 51.3204 60.5445 51.3412 60.5238C51.3412 60.5238 51.3412 60.5653 51.3412 60.5861C51.3412 60.5653 51.3412 60.5861 51.3204 60.5861V60.6276C51.3412 60.5861 51.362 60.6276 51.362 60.6276C51.362 60.6276 51.362 60.5861 51.362 60.5653C51.4035 60.6068 51.362 60.6276 51.362 60.6691C51.362 60.6691 51.362 60.7107 51.362 60.7314H51.3412V60.773C51.362 60.8145 51.3412 60.773 51.3412 60.8145C51.3412 60.8145 51.3412 60.8145 51.362 60.8145C51.362 60.8145 51.362 60.8145 51.362 60.856C51.4035 60.856 51.4035 60.7937 51.445 60.8145C51.445 60.856 51.445 60.9183 51.445 60.9391V60.9598C51.445 60.9598 51.445 60.9806 51.445 61.0014C51.445 61.0014 51.4242 61.0014 51.4035 61.0014C51.4035 61.0014 51.4035 61.0014 51.4242 61.0014C51.4242 61.0014 51.4035 61.0014 51.3827 61.0014C51.3827 61.0014 51.3827 61.0014 51.4242 61.0014C51.4242 61.0014 51.4242 61.0014 51.445 61.0221C51.4242 61.0221 51.445 61.0221 51.4035 61.0221C51.4035 61.0221 51.445 61.0429 51.4035 61.0429C51.4035 61.0429 51.4035 61.0429 51.3827 61.0429C51.3827 61.0429 51.362 61.0429 51.3412 61.0429H51.3827L51.362 61.0844C51.3827 61.0844 51.4035 61.0844 51.4035 61.0844C51.4035 61.0844 51.4035 61.0844 51.4035 61.1052C51.4035 61.1052 51.4035 61.1052 51.3827 61.1052C51.362 61.1052 51.3827 61.1052 51.362 61.1259C51.3412 61.1259 51.362 61.1259 51.362 61.1467C51.362 61.1467 51.362 61.1467 51.362 61.1675C51.362 61.1882 51.362 61.209 51.3412 61.2505C51.3412 61.2921 51.3412 61.3128 51.3412 61.3543C51.3412 61.3751 51.3204 61.3959 51.3412 61.4166C51.3412 61.4166 51.3412 61.4374 51.3412 61.4582C51.3412 61.4582 51.3412 61.4582 51.3412 61.4789C51.3204 61.5205 51.3412 61.5412 51.3412 61.5828C51.3412 61.6243 51.3204 61.562 51.2997 61.5828C51.2997 61.5828 51.2997 61.6035 51.2997 61.6243C51.2997 61.6243 51.2997 61.645 51.2789 61.6658C51.2789 61.6658 51.2789 61.6658 51.2789 61.6451C51.2789 61.6451 51.2789 61.6658 51.2789 61.6866C51.2789 61.6866 51.2789 61.6866 51.2789 61.6658V61.7489C51.2789 61.7489 51.2997 61.7281 51.2789 61.7073C51.2789 61.7281 51.2789 61.7489 51.2789 61.7904C51.2789 61.8112 51.2997 61.8527 51.3204 61.8319C51.3204 61.8319 51.3204 61.8319 51.2997 61.8319C51.2997 61.8319 51.2997 61.8527 51.2997 61.8735C51.2997 61.8942 51.2997 61.915 51.2997 61.9357C51.2997 61.9357 51.2997 61.9358 51.2997 61.9565C51.2997 61.9565 51.2997 61.9773 51.2789 61.9565C51.2789 61.9565 51.2789 61.9773 51.2789 61.998C51.2789 61.998 51.2789 62.0188 51.2581 61.998C51.2581 62.0188 51.2789 62.0396 51.2997 62.0396V62.0188V62.0811C51.2997 62.0811 51.2997 62.1226 51.3412 62.1226C51.3204 62.1226 51.3412 62.1849 51.3412 62.1849V62.1434H51.3204C51.3204 62.1642 51.3204 62.1642 51.3204 62.1642C51.3204 62.1642 51.362 62.1642 51.3204 62.1849C51.3204 62.1849 51.3412 62.1849 51.362 62.1849C51.3412 62.1849 51.2997 62.1849 51.2789 62.1849C51.2997 62.1849 51.2997 62.1849 51.3204 62.1849C51.3204 62.2057 51.3204 62.2264 51.2997 62.2264V62.268V62.3095C51.2997 62.3095 51.2997 62.351 51.2789 62.351C51.2789 62.3303 51.2789 62.3303 51.2789 62.3095C51.2789 62.3095 51.2789 62.268 51.2374 62.268C51.2374 62.268 51.2374 62.2887 51.2374 62.3095C51.2374 62.3095 51.2374 62.268 51.2374 62.2472C51.2166 62.2472 51.2374 62.1849 51.2166 62.2057C51.2166 62.2057 51.2166 62.1849 51.2166 62.1642C51.2166 62.1642 51.2166 62.2057 51.1958 62.2057C51.1958 62.268 51.2166 62.2057 51.2166 62.2057V62.2472C51.2166 62.2472 51.1958 62.2887 51.2166 62.3095C51.2166 62.3095 51.1751 62.351 51.1751 62.3095C51.1751 62.3095 51.1751 62.3095 51.1958 62.3095C51.1958 62.3095 51.1958 62.2472 51.1751 62.268V62.2057C51.1751 62.2057 51.1751 62.2057 51.1751 62.2264V62.1642C51.1751 62.1434 51.1751 62.1226 51.1751 62.1019C51.1543 62.1019 51.1751 62.1019 51.1751 62.0603C51.1751 62.0603 51.1543 62.0603 51.1335 62.0603C51.1543 62.0603 51.1335 62.0603 51.1543 62.0603C51.1543 62.0603 51.1958 62.0603 51.1958 62.0396C51.1958 62.0396 51.1543 62.0396 51.1335 62.0396C51.1335 62.0396 51.092 62.0396 51.1335 62.0188C51.1335 62.0188 51.1335 62.0188 51.1128 62.0188C51.1128 62.0188 51.1128 62.0188 51.1128 61.998C51.1128 61.998 51.1128 61.998 51.1335 61.998C51.1335 61.998 51.1335 61.998 51.1128 61.998C51.1128 61.998 51.1335 61.998 51.1543 61.998C51.1543 61.998 51.1543 61.998 51.1128 61.998C51.1128 61.998 51.1128 61.998 51.092 61.998C51.092 61.998 51.092 61.998 51.1128 61.998C51.1128 61.998 51.1128 61.998 51.1335 61.998C51.1335 61.998 51.1543 61.998 51.1751 61.9565H51.1543C51.1543 61.9565 51.1543 61.9565 51.1335 61.9565H51.1543C51.1543 61.9565 51.1543 61.9565 51.1335 61.9565C51.1335 61.9358 51.092 61.915 51.1335 61.915C51.1335 61.915 51.1751 61.915 51.1958 61.915C51.1958 61.915 51.1958 61.915 51.1751 61.915C51.1751 61.915 51.1543 61.915 51.1335 61.915H51.1128C51.1128 61.915 51.1128 61.915 51.092 61.8735C51.1128 61.8735 51.0713 61.8735 51.092 61.8527C51.092 61.8527 51.092 61.8527 51.1335 61.8527C51.1335 61.8527 51.1751 61.8527 51.1335 61.8319C51.1335 61.8319 51.1751 61.8112 51.1958 61.7904C51.1958 61.7904 51.2374 61.7904 51.2581 61.7904C51.2581 61.7904 51.2581 61.7904 51.2374 61.7904H51.1958C51.1958 61.7904 51.1751 61.7904 51.1543 61.7904H51.1128L51.1751 61.4789ZM51.5281 61.9773C51.5281 61.9773 51.5281 61.9565 51.5281 61.9357C51.5281 61.9565 51.5281 61.9773 51.5281 62.0188V61.9773ZM51.5488 62.0188C51.5488 62.0188 51.5488 62.0188 51.5281 62.0188H51.5488Z" fill="#C1C6C8"/>
<mask id="mask0_3376_6552" style="mask-type:luminance" maskUnits="userSpaceOnUse" x="51" y="71" width="4" height="6">
<path d="M51.3822 71.1967H54.123V76.5954H51.3822V71.1967Z" fill="white"/>
</mask>
<g mask="url(#mask0_3376_6552)">
<path d="M51.2992 71.9238C52.0675 71.9238 53.7079 72.2353 53.957 73.2943" stroke="#9B0E13" stroke-width="0.332228" stroke-linecap="round" stroke-linejoin="round"/>
<path d="M51.2785 72.9825C51.2785 72.9825 52.5244 72.8371 53.3965 73.3355" stroke="#9B0E13" stroke-width="0.332228" stroke-linecap="round" stroke-linejoin="round"/>
<path d="M53.5828 73.6886C53.5828 73.6886 53.7281 75.5989 53.3128 76.1803C53.3128 76.1803 52.9183 76.4295 51.3195 76.4295" stroke="#9B0E13" stroke-width="0.332228" stroke-linecap="round" stroke-linejoin="round"/>
<path d="M51.2994 74.6644C51.2994 74.6644 52.4622 74.7475 53.2305 74.7475" stroke="#9B0E13" stroke-width="0.332228" stroke-linecap="round" stroke-linejoin="round"/>
<path d="M51.9844 71.3837H51.4237" stroke="#9B0E13" stroke-width="0.332228" stroke-linecap="round" stroke-linejoin="round"/>
</g>
<mask id="mask1_3376_6552" style="mask-type:luminance" maskUnits="userSpaceOnUse" x="48" y="71" width="4" height="6">
<path d="M48.638 71.1967H51.3789V76.5954H48.638V71.1967Z" fill="white"/>
</mask>
<g mask="url(#mask1_3376_6552)">
<path d="M51.4863 71.9238C50.7181 71.9238 49.0777 72.2353 48.8285 73.2943" stroke="#9B0E13" stroke-width="0.332228" stroke-linecap="round" stroke-linejoin="round"/>
<path d="M51.5059 72.9825C51.5059 72.9825 50.26 72.8371 49.3879 73.3355" stroke="#9B0E13" stroke-width="0.332228" stroke-linecap="round" stroke-linejoin="round"/>
<path d="M49.1801 73.6886C49.1801 73.6886 49.0347 75.5989 49.45 76.1803C49.45 76.1803 49.8445 76.4295 51.4434 76.4295" stroke="#9B0E13" stroke-width="0.332228" stroke-linecap="round" stroke-linejoin="round"/>
<path d="M51.4863 74.6644C51.4863 74.6644 50.3235 74.7475 49.5553 74.7475" stroke="#9B0E13" stroke-width="0.332228" stroke-linecap="round" stroke-linejoin="round"/>
<path d="M50.7792 71.3837H51.3398" stroke="#9B0E13" stroke-width="0.332228" stroke-linecap="round" stroke-linejoin="round"/>
</g>
<path d="M51.3809 70.4907V73.5223" stroke="#9B0E13" stroke-width="0.332228" stroke-linecap="round" stroke-linejoin="round"/>
<path d="M57.362 40.0502C57.362 40.0502 53.4791 39.9256 51.1743 40.0918C48.8695 40.2579 46.9384 40.6939 46.9384 40.6939V43.2894C46.9384 43.2894 48.8695 42.8119 51.3197 42.6665C53.7698 42.5212 57.3205 42.6458 57.3205 42.6458L57.3828 40.0502H57.362Z" fill="black"/>
<path d="M58.5879 79.793C58.5879 79.793 56.5322 80.3951 52.7947 80.3536" stroke="#9B0E13" stroke-width="0.415284" stroke-linecap="round" stroke-linejoin="round"/>
<path d="M50.4062 80.5404C50.4062 80.5404 48.0184 80.6858 46.3572 80.2705" stroke="#9B0E13" stroke-width="0.415284" stroke-linecap="round" stroke-linejoin="round"/>
<path d="M43.7812 32.6167L43.6982 34.6516" stroke="#9B0E13" stroke-width="0.311463" stroke-linecap="round" stroke-linejoin="round"/>
<path d="M47.248 31.4951L47.165 33.53" stroke="#9B0E13" stroke-width="0.311463" stroke-linecap="round" stroke-linejoin="round"/>
<path d="M51.2344 30.8309L51.1513 32.8866" stroke="#9B0E13" stroke-width="0.311463" stroke-linecap="round" stroke-linejoin="round"/>
<path d="M55.4922 30.4572L55.4091 32.5128" stroke="#9B0E13" stroke-width="0.311463" stroke-linecap="round" stroke-linejoin="round"/>
<path d="M59.375 30.395L59.2919 32.4507" stroke="#9B0E13" stroke-width="0.311463" stroke-linecap="round" stroke-linejoin="round"/>
<path d="M63.2363 30.7686L63.1533 32.8242" stroke="#9B0E13" stroke-width="0.311463" stroke-linecap="round" stroke-linejoin="round"/>
<path d="M67.0371 31.7031L66.9541 33.738" stroke="#9B0E13" stroke-width="0.311463" stroke-linecap="round" stroke-linejoin="round"/>
<path d="M69.7578 32.5543L69.6748 34.34" stroke="#9B0E13" stroke-width="0.290699" stroke-linecap="round" stroke-linejoin="round"/>
</svg>
