<svg width="40" height="40" viewBox="0 0 40 40" fill="none" xmlns="http://www.w3.org/2000/svg">
<path fill-rule="evenodd" clip-rule="evenodd" d="M10 26.33H30V16.4916C30 15.4933 29.1907 14.684 28.1924 14.684H11.8076C10.8093 14.684 10 15.4933 10 16.4916V26.33ZM30 28.5908V27.5722H10V28.5908C10 29.5891 10.8093 30.3983 11.8076 30.3983H28.1924C29.1907 30.3983 30 29.5891 30 28.5908ZM15.6522 23.1934C16.6813 23.1934 17.5155 22.3591 17.5155 21.33C17.5155 20.3009 16.6813 19.4667 15.6522 19.4667C14.6231 19.4667 13.7888 20.3009 13.7888 21.33C13.7888 22.3591 14.6231 23.1934 15.6522 23.1934ZM26.2112 21.33C26.2112 22.3591 25.3769 23.1934 24.3478 23.1934C23.3187 23.1934 22.4845 22.3591 22.4845 21.33C22.4845 20.3009 23.3187 19.4667 24.3478 19.4667C25.3769 19.4667 26.2112 20.3009 26.2112 21.33Z" fill="#FFF"/>
<path d="M21.8076 11.4092C21.8076 12.4075 20.9983 13.2168 20 13.2168C19.0017 13.2168 18.1924 12.4075 18.1924 11.4092C18.1924 10.4109 19.0017 9.60165 20 9.60165C20.9983 9.60165 21.8076 10.4109 21.8076 11.4092Z" fill="#FFF"/>
<path d="M19.5481 12.3067H20.4519V15.0181H19.5481V12.3067Z" fill="#FFF"/>
</svg>
