<svg width="308" height="107" viewBox="0 0 308 107" fill="none" xmlns="http://www.w3.org/2000/svg">
<g filter="url(#filter0_d_43_47123)">
<rect x="124.087" y="24.2845" width="54.9682" height="43.3848" rx="4.91414" fill="#444444" stroke="white" stroke-width="1.40404"/>
<path d="M39.3835 49.0894C39.3835 47.2957 38.0182 46.158 35.2876 45.6761L32.3161 45.1541C30.7902 44.8864 29.4517 44.3778 28.3005 43.6282C27.1494 42.8786 26.2392 41.9551 25.57 40.8575C24.9275 39.7331 24.6062 38.4883 24.6062 37.123C24.6062 35.3829 25.0479 33.8436 25.9314 32.5051C26.8148 31.1666 28.0194 30.1225 29.5454 29.373C31.098 28.6234 32.8783 28.2486 34.886 28.2486C37.804 28.2486 40.2133 29.025 42.114 30.5776C44.0415 32.1303 45.206 34.2586 45.6076 36.9624H39.1024C38.4063 34.8475 36.9741 33.7901 34.8057 33.7901C33.6814 33.7901 32.7846 34.0444 32.1153 34.553C31.4461 35.0349 31.1114 35.6908 31.1114 36.5207C31.1114 37.2435 31.3925 37.8458 31.9547 38.3277C32.5436 38.8095 33.3735 39.1575 34.4443 39.3717L37.0946 39.8536C40.0126 40.3622 42.2211 41.3795 43.7203 42.9054C45.2194 44.4045 45.969 46.3454 45.969 48.728C45.969 51.4853 44.9919 53.6671 43.0376 55.2733C41.1102 56.8528 38.4599 57.6425 35.0868 57.6425C31.9815 57.6425 29.4784 56.8661 27.5777 55.3135C25.7038 53.7608 24.5125 51.4987 24.0039 48.5272H30.5894C31.0177 50.9097 32.5704 52.101 35.2474 52.101C36.586 52.101 37.6032 51.8467 38.2993 51.3381C39.0221 50.8027 39.3835 50.0531 39.3835 49.0894ZM48.0815 46.5194C48.0815 44.4045 48.55 42.5306 49.487 40.8976C50.4239 39.2646 51.6955 37.9797 53.3018 37.0427C54.9347 36.079 56.7685 35.5971 58.8031 35.5971C60.9179 35.5971 62.7785 36.0656 64.3847 37.0025C65.9909 37.9395 67.2491 39.2379 68.1593 40.8976C69.0695 42.5306 69.5246 44.4447 69.5246 46.6399V48.2461H54.1852C54.4797 49.5311 55.0552 50.535 55.9119 51.2578C56.7953 51.9538 57.8661 52.3018 59.1243 52.3018C60.8108 52.3018 61.9754 51.753 62.6178 50.6554H69.123C68.8018 52.0207 68.1593 53.2254 67.1956 54.2694C66.2586 55.2867 65.0941 56.0898 63.702 56.6788C62.31 57.2409 60.7841 57.522 59.1243 57.522C56.9291 57.522 55.0017 57.0669 53.3419 56.1567C51.6821 55.2198 50.3838 53.9348 49.4468 52.3018C48.5366 50.642 48.0815 48.7146 48.0815 46.5194ZM63.2603 44.2305C62.9926 43.1329 62.4572 42.2897 61.6541 41.7007C60.851 41.1118 59.9007 40.8173 58.8031 40.8173C57.7323 40.8173 56.7953 41.1118 55.9922 41.7007C55.2158 42.2897 54.667 43.1329 54.3458 44.2305H63.2603ZM72.7364 36.1191H78.9204V40.5362C79.4558 38.93 80.2723 37.7119 81.3699 36.8821C82.4674 36.0254 83.7524 35.5971 85.2248 35.5971C86.5633 35.5971 87.7412 35.9317 88.7585 36.601C89.7758 37.2702 90.5655 38.2206 91.1277 39.452C91.6898 40.6567 91.9709 42.0621 91.9709 43.6684V57H85.787V45.1541C85.787 42.5306 84.7028 41.2189 82.5344 41.2189C81.4636 41.2189 80.5935 41.5669 79.9243 42.2629C79.255 42.9589 78.9204 43.9361 78.9204 45.1943V57H72.7364V36.1191ZM94.9035 46.5596C94.9035 44.4715 95.2917 42.5975 96.068 40.9378C96.8444 39.278 97.9152 37.9797 99.2805 37.0427C100.646 36.079 102.185 35.5971 103.898 35.5971C105.371 35.5971 106.709 36.0254 107.914 36.8821C109.119 37.7387 109.989 38.9969 110.524 40.6567V28.088H116.708V57H110.524V52.4624C109.989 54.1222 109.119 55.3804 107.914 56.237C106.709 57.0937 105.371 57.522 103.898 57.522C102.185 57.522 100.646 57.0402 99.2805 56.0764C97.9152 55.1127 96.8444 53.8143 96.068 52.1813C95.2917 50.5216 94.9035 48.6476 94.9035 46.5596ZM101.168 46.5596C101.168 48.139 101.663 49.424 102.654 50.4145C103.644 51.405 104.835 51.9002 106.227 51.9002C107.619 51.9002 108.757 51.405 109.641 50.4145C110.551 49.424 111.006 48.139 111.006 46.5596C111.006 44.9801 110.551 43.6951 109.641 42.7046C108.757 41.7141 107.619 41.2189 106.227 41.2189C104.835 41.2189 103.644 41.7141 102.654 42.7046C101.663 43.6951 101.168 44.9801 101.168 46.5596ZM130.153 50.9365C130.153 48.7146 130.969 47.0548 132.602 45.9572C134.262 44.8329 136.671 44.2707 139.83 44.2707H142.962V43.4676C142.962 42.6645 142.721 42.022 142.239 41.5401C141.758 41.0582 141.035 40.8173 140.071 40.8173C139.241 40.8173 138.545 40.9913 137.983 41.3393C137.421 41.6873 137.086 42.1692 136.979 42.7849H134.57C135.052 40.0544 136.885 38.6891 140.071 38.6891C143.685 38.6891 145.492 40.6433 145.492 44.5518V45.9171H139.83C137.555 45.9171 135.788 46.332 134.53 47.1619C133.271 47.9918 132.642 49.25 132.642 50.9365C132.642 52.3821 133.164 53.5466 134.208 54.43C135.279 55.2867 136.631 55.715 138.264 55.715C139.121 55.715 139.87 55.6079 140.513 55.3938C141.155 55.1528 141.798 54.7781 142.44 54.2694C141.985 55.4205 141.289 56.2504 140.352 56.7591C139.415 57.2677 138.277 57.522 136.939 57.522C134.931 57.522 133.298 56.9197 132.04 55.715C130.782 54.4836 130.153 52.8907 130.153 50.9365ZM133.686 50.9365C133.686 49.6248 134.182 48.6209 135.172 47.9248C136.163 47.2288 137.715 46.8808 139.83 46.8808H145.492V57H142.962V52.342C142.587 53.0112 142.012 53.5868 141.236 54.0686C140.459 54.5237 139.469 54.7513 138.264 54.7513C136.818 54.7513 135.694 54.4167 134.891 53.7474C134.088 53.0514 133.686 52.1144 133.686 50.9365ZM133.445 42.7849H131.036C131.304 40.563 132.241 38.8095 133.847 37.5246C135.48 36.2396 137.555 35.5971 140.071 35.5971C142.828 35.5971 144.997 36.36 146.576 37.886C148.182 39.3851 148.986 41.3929 148.986 43.9093V57H146.456V44.4715C146.456 39.974 144.327 37.7253 140.071 37.7253C138.277 37.7253 136.792 38.167 135.614 39.0505C134.463 39.9339 133.74 41.1787 133.445 42.7849ZM136.176 50.9365C136.176 52.275 137.086 52.9443 138.906 52.9443C140.379 52.9443 141.423 52.5427 142.039 51.7396C142.654 50.9365 142.962 49.9995 142.962 48.9287V48.5272H139.83C137.394 48.5272 136.176 49.3303 136.176 50.9365ZM156.74 36.1191H159.31V40.9779C159.738 40.2016 160.3 39.5993 160.996 39.1709C161.719 38.7426 162.616 38.5284 163.687 38.5284C165.266 38.5284 166.498 39.0639 167.381 40.1347C168.291 41.1787 168.746 42.6912 168.746 44.6722V57H166.176V45.1541C166.176 42.5306 165.092 41.2189 162.924 41.2189C161.853 41.2189 160.983 41.5669 160.314 42.2629C159.645 42.9589 159.31 43.9361 159.31 45.1943V57H156.74V36.1191ZM169.79 44.7124C169.79 42.4369 169.268 40.6701 168.224 39.4119C167.18 38.1269 165.762 37.4844 163.968 37.4844C162.335 37.4844 161.13 37.8324 160.354 38.5284C160.889 37.5915 161.612 36.8687 162.522 36.36C163.433 35.8514 164.45 35.5971 165.574 35.5971C166.913 35.5971 168.091 35.9317 169.108 36.601C170.125 37.2702 170.915 38.2072 171.477 39.4119C172.066 40.6165 172.36 42.0354 172.36 43.6684V57H169.79V44.7124ZM153.126 36.1191H155.696V57H153.126V36.1191ZM186.929 36.1191H193.113V57H186.929V36.1191ZM186.487 31.4209C186.487 30.4036 186.822 29.6005 187.491 29.0116C188.16 28.3959 189.003 28.088 190.021 28.088C191.038 28.088 191.881 28.3959 192.551 29.0116C193.22 29.6005 193.554 30.4036 193.554 31.4209C193.554 32.4114 193.22 33.2279 192.551 33.8704C191.881 34.5129 191.038 34.8341 190.021 34.8341C189.03 34.8341 188.187 34.5129 187.491 33.8704C186.822 33.2279 186.487 32.4114 186.487 31.4209ZM199.364 48.5673V41.5803H195.71V36.1191H199.364V31.0595H205.548V36.1191H211.129V41.5803H205.548V47.9248C205.548 49.3972 205.749 50.4279 206.15 51.0168C206.552 51.6058 207.288 51.9002 208.359 51.9002C209.376 51.9002 210.3 51.6325 211.129 51.0971V56.5583C210.487 56.9063 209.804 57.1472 209.081 57.2811C208.385 57.4417 207.636 57.522 206.833 57.522C201.853 57.522 199.364 54.5371 199.364 48.5673ZM212.782 46.5194C212.782 44.4045 213.251 42.5306 214.187 40.8976C215.124 39.2646 216.396 37.9797 218.002 37.0427C219.635 36.079 221.469 35.5971 223.504 35.5971C225.618 35.5971 227.479 36.0656 229.085 37.0025C230.691 37.9395 231.95 39.2379 232.86 40.8976C233.77 42.5306 234.225 44.4447 234.225 46.6399V48.2461H218.886C219.18 49.5311 219.756 50.535 220.612 51.2578C221.496 51.9538 222.567 52.3018 223.825 52.3018C225.511 52.3018 226.676 51.753 227.318 50.6554H233.824C233.502 52.0207 232.86 53.2254 231.896 54.2694C230.959 55.2867 229.795 56.0898 228.403 56.6788C227.01 57.2409 225.485 57.522 223.825 57.522C221.63 57.522 219.702 57.0669 218.042 56.1567C216.383 55.2198 215.084 53.9348 214.147 52.3018C213.237 50.642 212.782 48.7146 212.782 46.5194ZM227.961 44.2305C227.693 43.1329 227.158 42.2897 226.355 41.7007C225.552 41.1118 224.601 40.8173 223.504 40.8173C222.433 40.8173 221.496 41.1118 220.693 41.7007C219.916 42.2897 219.368 43.1329 219.046 44.2305H227.961ZM237.437 36.1191H243.621V40.5362C244.156 38.9568 244.946 37.7387 245.99 36.8821C247.034 36.0254 248.279 35.5971 249.725 35.5971C251.143 35.5971 252.402 36.0923 253.499 37.0828C254.597 38.0733 255.346 39.3182 255.748 40.8173C256.256 39.1308 257.046 37.8458 258.117 36.9624C259.215 36.0522 260.513 35.5971 262.012 35.5971C263.19 35.5971 264.274 35.9183 265.265 36.5608C266.255 37.2033 267.045 38.1269 267.634 39.3316C268.223 40.5095 268.517 41.9283 268.517 43.588V57H262.333V45.0336C262.333 42.4905 261.343 41.2189 259.362 41.2189C258.371 41.2189 257.568 41.5669 256.953 42.2629C256.364 42.9589 256.069 43.9361 256.069 45.1943V57H249.885V45.0336C249.885 42.4905 248.895 41.2189 246.914 41.2189C245.923 41.2189 245.12 41.5669 244.504 42.2629C243.915 42.9589 243.621 43.9361 243.621 45.1943V57H237.437V36.1191Z" fill="white"/>
</g>
<defs>
<filter id="filter0_d_43_47123" x="0.837241" y="0.415854" width="306.291" height="106.567" filterUnits="userSpaceOnUse" color-interpolation-filters="sRGB">
<feFlood flood-opacity="0" result="BackgroundImageFix"/>
<feColorMatrix in="SourceAlpha" type="matrix" values="0 0 0 0 0 0 0 0 0 0 0 0 0 0 0 0 0 0 127 0" result="hardAlpha"/>
<feOffset dx="7.72222" dy="7.72222"/>
<feGaussianBlur stdDeviation="15.4444"/>
<feComposite in2="hardAlpha" operator="out"/>
<feColorMatrix type="matrix" values="0 0 0 0 0 0 0 0 0 0 0 0 0 0 0 0 0 0 0.25 0"/>
<feBlend mode="normal" in2="BackgroundImageFix" result="effect1_dropShadow_43_47123"/>
<feBlend mode="normal" in="SourceGraphic" in2="effect1_dropShadow_43_47123" result="shape"/>
</filter>
</defs>
</svg>
