<svg version="1.1" id="Artwork" x="0px" y="0px" enable-background="new 0 0 165.52107 105.9651" xml:space="preserve" sodipodi:docname="apple pay logo-cropped.svg" xmlns:inkscape="http://www.inkscape.org/namespaces/inkscape" xmlns:sodipodi="http://sodipodi.sourceforge.net/DTD/sodipodi-0.dtd" xmlns="http://www.w3.org/2000/svg" xmlns:svg="http://www.w3.org/2000/svg" viewBox="-2979.22 -2499.17 120.4 51.1"><defs id="defs13"/><sodipodi:namedview id="namedview13" pagecolor="#ffffff" bordercolor="#000000" borderopacity="0.25" inkscape:showpageshadow="2" inkscape:pageopacity="0.0" inkscape:pagecheckerboard="0" inkscape:deskcolor="#d1d1d1"/>
<g id="g7" transform="translate(-3001.6427,-2528.2026)">
	
	<g id="g6">
		<g id="g2">
			<path d="m 45.1862,35.64053 c 1.41724,-1.77266 2.37897,-4.15282 2.12532,-6.58506 -2.07464,0.10316 -4.60634,1.36871 -6.07207,3.14276 -1.31607,1.5192 -2.4809,3.99902 -2.17723,6.3293 2.32889,0.20201 4.65563,-1.16408 6.12398,-2.887" id="path1"/>
			<path d="m 47.28506,38.98252 c -3.38211,-0.20146 -6.25773,1.91951 -7.87286,1.91951 -1.61602,0 -4.08931,-1.81799 -6.76438,-1.76899 -3.48177,0.05114 -6.71245,2.01976 -8.4793,5.15079 -3.63411,6.2636 -0.95904,15.55471 2.57494,20.65606 1.71618,2.5238 3.78447,5.30269 6.50976,5.20287 2.57494,-0.10104 3.58421,-1.66732 6.71416,-1.66732 3.12765,0 4.03679,1.66732 6.76252,1.61681 2.82665,-0.05054 4.59381,-2.52506 6.30997,-5.05132 1.96878,-2.877 2.77473,-5.65498 2.82542,-5.80748 -0.0507,-0.05051 -5.45058,-2.12204 -5.50065,-8.33358 -0.05098,-5.20101 4.23951,-7.6749 4.44144,-7.82832 C 52.3832,39.4881 48.5975,39.08404 47.28506,38.98252" id="path2"/>
		</g>
		<g id="g5">
			<path d="m 76.73385,31.94381 c 7.35096,0 12.4697,5.06708 12.4697,12.44437 0,7.40363 -5.22407,12.49704 -12.65403,12.49704 H 68.4106 V 69.8284 H 62.53023 V 31.9438 H 76.73385 Z M 68.41059,51.9493 h 6.74732 c 5.11975,0 8.0336,-2.75636 8.0336,-7.53479 0,-4.77792 -2.91385,-7.50845 -8.00727,-7.50845 h -6.77365 z" id="path3"/>
			<path d="m 90.73997,61.97864 c 0,-4.8311 3.70182,-7.79761 10.26583,-8.16526 l 7.56061,-0.44614 v -2.12639 c 0,-3.07185 -2.07423,-4.90959 -5.53905,-4.90959 -3.28251,0 -5.33041,1.57492 -5.82871,4.04313 h -5.35574 c 0.31499,-4.98859 4.56777,-8.66407 11.3941,-8.66407 6.69466,0 10.97377,3.54432 10.97377,9.08388 v 19.03421 h -5.43472 v -4.54194 h -0.13065 c -1.60125,3.07185 -5.09341,5.01441 -8.71623,5.01441 -5.4084,0 -9.18921,-3.3605 -9.18921,-8.32224 z m 17.82644,-2.49404 v -2.17905 l -6.8,0.41981 c -3.38683,0.23649 -5.30306,1.73291 -5.30306,4.09579 0,2.41504 1.99523,3.99046 5.04075,3.99046 3.96413,0 7.06231,-2.73053 7.06231,-6.32701 z" id="path4"/>
			<path d="m 119.34167,79.9889 v -4.5946 c 0.4193,0.10483 1.36425,0.10483 1.83723,0.10483 2.6252,0 4.04313,-1.10245 4.90908,-3.9378 0,-0.05267 0.49931,-1.68025 0.49931,-1.70658 l -9.97616,-27.64562 h 6.14268 l 6.98432,22.47371 h 0.10432 l 6.98433,-22.47371 h 5.9857 l -10.34483,29.06304 c -2.36186,6.69517 -5.0924,8.84789 -10.81577,8.84789 -0.47297,0 -1.8909,-0.05267 -2.31021,-0.13116 z" id="path5"/>
		</g>
	</g>
</g>
<g id="g8" transform="translate(-3001.6427,-2528.2026)">
</g>
<g id="g9" transform="translate(-3001.6427,-2528.2026)">
</g>
<g id="g10" transform="translate(-3001.6427,-2528.2026)">
</g>
<g id="g11" transform="translate(-3001.6427,-2528.2026)">
</g>
<g id="g12" transform="translate(-3001.6427,-2528.2026)">
</g>
<g id="g13" transform="translate(-3001.6427,-2528.2026)">
</g>
</svg>