<svg width="24" height="25" viewBox="0 0 24 25" fill="none" xmlns="http://www.w3.org/2000/svg">
<path d="M12.0037 8.64991C9.61873 8.64991 7.69498 10.5737 7.69498 12.9587C7.69498 15.3437 9.61873 17.2674 12.0037 17.2674C14.3887 17.2674 16.3125 15.3437 16.3125 12.9587C16.3125 10.5737 14.3887 8.64991 12.0037 8.64991ZM12.0037 15.7599C10.4625 15.7599 9.20248 14.5037 9.20248 12.9587C9.20248 11.4137 10.4587 10.1574 12.0037 10.1574C13.5487 10.1574 14.805 11.4137 14.805 12.9587C14.805 14.5037 13.545 15.7599 12.0037 15.7599ZM17.4937 8.47366C17.4937 9.03241 17.0437 9.47866 16.4887 9.47866C15.93 9.47866 15.4837 9.02866 15.4837 8.47366C15.4837 7.91866 15.9337 7.46866 16.4887 7.46866C17.0437 7.46866 17.4937 7.91866 17.4937 8.47366ZM20.3475 9.49366C20.2837 8.14741 19.9762 6.95491 18.99 5.97241C18.0075 4.98991 16.815 4.68241 15.4687 4.61491C14.0812 4.53616 9.92248 4.53616 8.53498 4.61491C7.19248 4.67866 5.99998 4.98616 5.01373 5.96866C4.02748 6.95116 3.72373 8.14366 3.65623 9.48991C3.57748 10.8774 3.57748 15.0362 3.65623 16.4237C3.71998 17.7699 4.02748 18.9624 5.01373 19.9449C5.99998 20.9274 7.18873 21.2349 8.53498 21.3024C9.92248 21.3812 14.0812 21.3812 15.4687 21.3024C16.815 21.2387 18.0075 20.9312 18.99 19.9449C19.9725 18.9624 20.28 17.7699 20.3475 16.4237C20.4262 15.0362 20.4262 10.8812 20.3475 9.49366ZM18.555 17.9124C18.2625 18.6474 17.6962 19.2137 16.9575 19.5099C15.8512 19.9487 13.2262 19.8474 12.0037 19.8474C10.7812 19.8474 8.15248 19.9449 7.04998 19.5099C6.31498 19.2174 5.74873 18.6512 5.45248 17.9124C5.01373 16.8062 5.11498 14.1812 5.11498 12.9587C5.11498 11.7362 5.01748 9.10741 5.45248 8.00491C5.74498 7.26991 6.31123 6.70366 7.04998 6.40741C8.15623 5.96866 10.7812 6.06991 12.0037 6.06991C13.2262 6.06991 15.855 5.97241 16.9575 6.40741C17.6925 6.69991 18.2587 7.26616 18.555 8.00491C18.9937 9.11116 18.8925 11.7362 18.8925 12.9587C18.8925 14.1812 18.9937 16.8099 18.555 17.9124Z" fill="white"/>
</svg>
