<svg width="24" height="25" viewBox="0 0 24 25" fill="none" xmlns="http://www.w3.org/2000/svg">
<path d="M18.6001 4.56238H5.4001C4.92271 4.56238 4.46487 4.75202 4.12731 5.08959C3.78974 5.42715 3.6001 5.88499 3.6001 6.36238L3.6001 19.5624C3.6001 20.0398 3.78974 20.4976 4.12731 20.8352C4.46487 21.1727 4.92271 21.3624 5.4001 21.3624H10.547V15.6508H8.18447V12.9624H10.547V10.9134C10.547 8.58275 11.9345 7.29538 14.0596 7.29538C15.0773 7.29538 16.1416 7.47688 16.1416 7.47688V9.76438H14.969C13.8136 9.76438 13.4532 10.4814 13.4532 11.2168V12.9624H16.0325L15.62 15.6508H13.4532V21.3624H18.6001C19.0775 21.3624 19.5353 21.1727 19.8729 20.8352C20.2105 20.4976 20.4001 20.0398 20.4001 19.5624V6.36238C20.4001 5.88499 20.2105 5.42715 19.8729 5.08959C19.5353 4.75202 19.0775 4.56238 18.6001 4.56238Z" fill="white"/>
</svg>
