<svg width="24" height="25" viewBox="0 0 24 25" fill="none" xmlns="http://www.w3.org/2000/svg">
<path d="M7.3606 20.7624H3.8776V9.54614H7.3606V20.7624ZM5.61722 8.01614C4.50347 8.01614 3.6001 7.09364 3.6001 5.97989C3.6001 5.44492 3.81262 4.93186 4.1909 4.55357C4.56918 4.17529 5.08225 3.96277 5.61722 3.96277C6.1522 3.96277 6.66526 4.17529 7.04355 4.55357C7.42183 4.93186 7.63435 5.44492 7.63435 5.97989C7.63435 7.09364 6.7306 8.01614 5.61722 8.01614ZM20.3963 20.7624H16.9208V15.3024C16.9208 14.0011 16.8946 12.3324 15.11 12.3324C13.2991 12.3324 13.0216 13.7461 13.0216 15.2086V20.7624H9.54235V9.54614H12.8828V11.0761H12.9316C13.3966 10.1949 14.5325 9.26489 16.2271 9.26489C19.7521 9.26489 20.4001 11.5861 20.4001 14.6011V20.7624H20.3963Z" fill="white"/>
</svg>
