<svg width="276" height="206" viewBox="0 0 276 206" fill="none" xmlns="http://www.w3.org/2000/svg">
<g clip-path="url(#clip0_2717_199768)">
<path d="M3.82967 100.41C5.36924 96.8053 10.6537 85.576 22.138 79.2777C41.1121 68.8771 58.5466 83.0069 82.6388 86.7362C141.6 95.8522 167.523 33.3661 228.315 45.134C236.47 46.7086 256.027 50.7694 267.47 67.4268C278.122 82.9655 275.709 100.742 275.043 105.093C274.377 109.526 271.464 126.971 255.944 139.485C253.447 141.474 240.34 151.667 222.073 151.17C197.066 150.507 191.49 130.659 167.19 130.576C153.167 130.535 142.432 137.123 135.442 141.432C113.555 154.941 115.885 168.946 96.8277 180.921C91.9178 183.988 71.8202 195.59 47.7697 188.007C22.0964 179.927 10.2376 155.769 7.90744 150.673C4.95314 144.209 -5.28289 122.04 3.82967 100.41Z" fill="#F6E8E8"/>
<path d="M208.127 124.028H192.356V158.089H208.127V124.028Z" fill="#EDAC5C"/>
<path d="M228.601 206.115V192.939V158.09H191.734V206.115H228.601Z" fill="#A82620"/>
<path d="M223.901 129.666H208.131V139.114H223.901V129.666Z" fill="#E69638"/>
<path d="M228.353 139.112H208.131V158.09H228.353V139.112Z" fill="#EDAC5C"/>
<path d="M214.163 158.091H228.352L228.394 140.729" stroke="#1D1D1B" stroke-width="0.416828" stroke-linecap="round" stroke-linejoin="round"/>
<path d="M223.733 135.011L223.899 129.666H210.459" stroke="#1D1D1B" stroke-width="0.416828" stroke-linecap="round" stroke-linejoin="round"/>
<path d="M228.439 189.874L228.605 206.117H216.538" stroke="#1D1D1B" stroke-width="0.416828" stroke-linecap="round" stroke-linejoin="round"/>
<path d="M206.589 206.116H191.734V160.992" stroke="#1D1D1B" stroke-width="0.416828" stroke-linecap="round" stroke-linejoin="round"/>
<path d="M208.126 156.473V124.028H198.931" stroke="#1D1D1B" stroke-width="0.416828" stroke-linecap="round" stroke-linejoin="round"/>
<path d="M227.519 139.112H210.459" stroke="#1D1D1B" stroke-width="0.416828" stroke-linecap="round" stroke-linejoin="round"/>
<path d="M195.729 201.018V189.333C195.729 188.463 196.437 187.759 197.311 187.759H200.972C201.846 187.759 202.554 188.463 202.554 189.333V201.018C202.554 201.889 201.846 202.593 200.972 202.593H197.311C196.437 202.593 195.729 201.889 195.729 201.018Z" fill="#E59584"/>
<path d="M194.896 153.201V148.643C194.896 147.773 195.603 147.068 196.477 147.068H198.599C199.473 147.068 200.18 147.773 200.18 148.643V153.201C200.18 154.071 199.473 154.775 198.599 154.775H196.477C195.644 154.775 194.896 154.071 194.896 153.201Z" fill="#F2C285"/>
<path d="M160.858 205.991V192.565V150.259H123.991V205.991H160.858Z" fill="#E69638"/>
<path d="M160.737 189.458L160.862 205.991H148.795" stroke="#1D1D1B" stroke-width="0.419962" stroke-linecap="round" stroke-linejoin="round"/>
<path d="M138.846 205.991H123.991V153.242" stroke="#1D1D1B" stroke-width="0.419962" stroke-linecap="round" stroke-linejoin="round"/>
<path d="M127.986 200.853V188.961C127.986 188.091 128.694 187.345 129.609 187.345H133.271C134.145 187.345 134.894 188.049 134.894 188.961V200.853C134.894 201.723 134.186 202.469 133.271 202.469H129.609C128.694 202.428 127.986 201.723 127.986 200.853Z" fill="#F2C285"/>
<path d="M125.949 150.26H131.442H158.114V112.967H125.949V150.26Z" fill="#EDAC5C"/>
<path d="M134.521 150.136L125.949 150.26V138.036" stroke="#1D1D1B" stroke-width="0.419962" stroke-linecap="round" stroke-linejoin="round"/>
<path d="M125.949 127.967V112.967H155.201" stroke="#1D1D1B" stroke-width="0.419962" stroke-linecap="round" stroke-linejoin="round"/>
<path d="M141.343 116.985H153.035C153.909 116.985 154.658 117.69 154.658 118.601V122.372C154.658 123.242 153.95 123.988 153.035 123.988H141.343C140.469 123.988 139.72 123.284 139.72 122.372V118.601C139.72 117.69 140.469 116.985 141.343 116.985Z" fill="#F2C285"/>
<path d="M41.1934 172.926V186.102V206.116H78.1013V172.926H41.1934Z" fill="#E69638"/>
<path d="M41.3598 189.169L41.1934 172.926H53.3018" stroke="#1D1D1B" stroke-width="0.416828" stroke-linecap="round" stroke-linejoin="round"/>
<path d="M63.2061 172.926H78.1024V203.216" stroke="#1D1D1B" stroke-width="0.416828" stroke-linecap="round" stroke-linejoin="round"/>
<path d="M74.1043 178.022V189.707C74.1043 190.577 73.3969 191.282 72.5231 191.282H68.8614C67.9876 191.282 67.2803 190.577 67.2803 189.707V178.022C67.2803 177.152 67.9876 176.448 68.8614 176.448H72.5231C73.3553 176.448 74.1043 177.152 74.1043 178.022Z" fill="#F2C285"/>
<g clip-path="url(#clip1_2717_199768)">
<path d="M98.5635 21.2638C92.1902 21.6221 92.5497 8.94479 97.5386 12.9553C103.148 17.4634 110.049 9.29873 115.727 19.587C119.084 25.668 116.756 31.1052 111.917 32.2754C107.077 33.4456 98.5611 21.2638 98.5611 21.2638H98.5635Z" fill="#3A312A"/>
<path d="M110.758 14.866C107.277 10.836 94.6253 6.72587 97.8943 16.0322C101.161 25.3419 110.758 14.866 110.758 14.866Z" fill="#3A312A"/>
<path d="M105.409 43.0136C101.966 42.4656 98.9395 43.4247 95.3589 46.3063C91.5575 49.3665 67.9941 73.1917 67.9941 73.1917L70.4618 81.3342L108.089 62.3006L105.409 43.0136Z" fill="#D40918"/>
<path d="M109.59 173.534L116.638 183.47L124.149 178.495L117.426 168.015L109.59 173.534Z" fill="#D40918"/>
<path d="M115.566 184.253L113.428 187.6C112.794 188.592 112.228 189.626 111.736 190.697C111.206 191.843 110.623 192.682 110.156 193.263C108.239 195.655 106.15 196.382 106.067 198.155C106.025 198.993 106.454 199.695 106.767 200.11L116.592 193.193L115.625 190.141L118.363 182.297L115.566 184.253Z" fill="#B1B1B1"/>
<path d="M127.45 179.42L125.541 177.759L117.409 182.953L115.112 191.112L116.588 193.193L127.208 185.37C128.667 184.959 129.639 183.618 129.568 182.194C129.505 180.965 128.667 179.86 127.45 179.42Z" fill="#B1B1B1"/>
<path d="M129.505 181.6C129.91 181.795 130.497 182.124 131.098 182.655C131.781 183.261 132.294 183.718 132.39 184.42C132.532 185.491 131.585 186.359 131.427 186.496C124.007 191.719 116.588 196.943 109.168 202.166C109.168 202.166 107.547 201.336 106.767 200.111L107.855 199.322C114.779 194.314 121.702 189.307 128.622 184.299C128.83 184.079 129.214 183.618 129.41 182.925C129.568 182.364 129.543 181.883 129.505 181.6Z" fill="#D9D9D9"/>
<path d="M115.567 184.254C115.567 184.254 123.741 178.44 125.542 177.764" stroke="#1D1D1B" stroke-width="0.432186" stroke-miterlimit="10" stroke-linecap="round" stroke-linejoin="round"/>
<path d="M127.776 179.702C128.53 180.226 129.485 181.077 129.572 182.198C129.701 183.913 127.713 185.121 122.415 188.792C122.415 188.792 119.702 190.672 113.666 195.012C111.178 196.801 109.173 198.317 107.855 199.326" stroke="#1D1D1B" stroke-width="0.432186" stroke-miterlimit="10" stroke-linecap="round" stroke-linejoin="round"/>
<path d="M131.423 186.496C129.814 187.455 127.355 188.988 124.453 191.051C121.782 192.953 120.485 194.066 117.826 196.071C115.846 197.566 112.916 199.704 109.168 202.167" stroke="#1D1D1B" stroke-width="0.432186" stroke-miterlimit="10" stroke-linecap="round" stroke-linejoin="round"/>
<path d="M105.046 182.591V194.761L114.062 195.014L114.646 182.591H105.046Z" fill="#D40918"/>
<path d="M100.665 68.6827C100.665 68.6827 97.3346 63.6461 96.1966 65.8883C96.1966 65.8883 96.9261 66.7187 97.9682 67.3706C97.9682 67.3706 99.0686 68.6329 98.7893 69.181" fill="#EAAE86"/>
<path d="M109.677 180.65L84.4172 149.002C79.8154 143.824 78.4732 134.938 82.5123 128.17L97.1971 97.8177L110.281 122.382C104.75 126.829 96.4635 141.881 96.4635 141.881L124.183 172.051L109.677 180.65Z" fill="#4D4D4D"/>
<path d="M100.89 107.829L103.437 191.077L117.209 192.003L120.168 139.428L124.729 105.5L100.89 105.957V107.829Z" fill="#4D4D4D"/>
<path d="M94.4416 68.9326C94.5291 73.0599 98.0305 77.2744 94.0748 87.5843C91.6905 93.8001 91.6363 100.452 93.3411 104.953L123.995 111.169C128.584 90.8728 128.584 80.6335 128.584 67.4669L112.378 68.6046L94.4416 68.9326Z" fill="#D40918"/>
<path d="M59.6325 52.3309V66.0996V86.9726H98.085V52.3309H59.6325Z" fill="#F3930D"/>
<path d="M59.7913 69.2968L59.6329 52.3309H72.2295" stroke="#1D1D1B" stroke-width="0.432186" stroke-miterlimit="10" stroke-linecap="round" stroke-linejoin="round"/>
<path d="M82.5914 52.3309H98.085V83.9415" stroke="#1D1D1B" stroke-width="0.432186" stroke-miterlimit="10" stroke-linecap="round" stroke-linejoin="round"/>
<path d="M93.9248 70.5708V56.9308C93.9248 56.416 93.5038 55.9966 92.9869 55.9966H87.689C87.1722 55.9966 86.7512 56.416 86.7512 56.9308V70.5708C86.7512 71.0856 87.1722 71.505 87.689 71.505H92.9869C93.5038 71.505 93.9248 71.0856 93.9248 70.5708Z" fill="#FBDDB4"/>
<path d="M98.5929 60.9766C98.0427 50.1435 102.79 45.6176 104.445 44.7955C105.521 44.2599 109.022 43.2467 112.019 41.7769C115.187 40.2239 114.082 43.0101 120.418 44.2433C120.451 44.2516 131.339 46.8052 131.385 63.8707L131.055 73.3709L114.241 74.2719C109.764 75.6006 103.557 80.8365 99.0806 82.1652C99.7683 76.9542 99.7016 75.995 99.4015 72.038C99.6933 67.3959 98.8388 65.7682 98.5929 60.9766Z" fill="#D40918"/>
<path d="M116.859 60.8271L115.055 72.3329" stroke="black" stroke-width="0.432186" stroke-miterlimit="10" stroke-linecap="round" stroke-linejoin="round"/>
<path d="M105.409 50.6913C105.217 46.6679 103.104 43.5745 102.774 41.6894C102.604 40.7136 102.237 39.8043 101.691 38.9822C101.199 38.2389 99.419 38.0064 98.4436 36.6818C96.4762 34.0078 97.9809 31.72 97.364 27.3643C97.3182 25.4751 97.2723 23.4696 98.0977 21.7672C98.6437 20.6419 100.215 20.6046 101.791 20.4634C102.937 20.3596 104.029 19.9901 105.013 20.1437C107.335 20.5132 108.614 22.0495 109.786 24.0717C110.402 25.1346 111.39 26.4592 111.39 26.4592C115.129 24.819 115.504 31.6702 111.882 31.612C111.82 35.4486 112.666 39.5718 114.187 43.2299C115.704 46.8879 105.521 53.0041 105.409 50.6913Z" fill="#936037"/>
<path d="M109.568 23.5448L110.114 28.735L111.469 28.6188L111.398 24.7323L109.568 23.5448Z" fill="#3A312A"/>
<path d="M103.829 19.3926C103.866 19.3802 103.895 19.3511 103.912 19.3137C103.945 19.2432 103.912 19.156 103.837 19.1269C103.107 18.8113 102.453 18.3214 101.944 17.7193C101.219 16.8515 100.936 15.9339 100.827 15.3152C100.815 15.2363 100.74 15.1865 100.661 15.1989C100.581 15.2114 100.531 15.2861 100.544 15.365C100.656 16.0169 100.957 16.9885 101.719 17.902C102.253 18.5414 102.945 19.0563 103.716 19.3885C103.762 19.4051 103.799 19.4051 103.829 19.3926Z" fill="#B3B3B3"/>
<path d="M102.29 19.8195C102.323 19.807 102.353 19.7862 102.369 19.753C102.407 19.6824 102.382 19.5994 102.315 19.5579C101.731 19.2381 100.91 18.6361 100.314 17.6022C99.9266 16.9295 99.6974 16.1572 99.6473 15.3725C99.6432 15.2936 99.5765 15.2354 99.4973 15.2396C99.4181 15.2437 99.3597 15.3102 99.3639 15.3891C99.4139 16.2154 99.6598 17.0292 100.068 17.7392C100.694 18.8312 101.561 19.4624 102.177 19.8028C102.211 19.8319 102.253 19.8319 102.29 19.8195Z" fill="#B3B3B3"/>
<path d="M116.158 73.4242C116.158 73.4242 116.663 73.2415 117.53 73.0172C120.123 72.3363 125.946 71.2359 131.052 73.3743C130.827 73.8145 129.034 77.2068 125.208 77.9293C121.748 78.5853 118.072 76.7916 116.158 73.4242Z" fill="#7F0917"/>
<path d="M117.847 72.9065L118.634 81.7673L103.499 71.8353L100.211 76.5314L117.888 91.8488C117.888 91.8488 127.079 99.1276 129.026 89.9056L129.451 72.9314C129.455 72.9314 124.837 70.3695 117.847 72.9065Z" fill="#936037"/>
<path d="M104.399 72.4823C104.399 72.4823 102.103 67.4955 98.5263 65.8471V68.3135C98.5263 68.3135 93.6327 65.2907 90.5649 64.5931C90.5649 64.5931 88.785 64.5848 89.9938 65.7142L92.5656 67.4208C92.5656 67.4208 88.2682 66.1585 90.1814 68.1225L91.5319 68.9322C91.5319 68.9322 87.9847 69.0692 91.4986 70.6719C91.4986 70.6719 88.9851 70.8505 91.9904 72.5653C91.9904 72.5653 94.0037 74.3259 97.8135 75.4304C97.8135 75.4304 99.1015 75.9162 101.181 77.1618" fill="#936037"/>
<path d="M101.599 119.294L101.524 134.092" stroke="#1D1D1B" stroke-width="0.432186" stroke-miterlimit="10" stroke-linecap="round" stroke-linejoin="round"/>
<path d="M116.325 73.2334C117.738 72.5898 120.106 71.8424 123.399 71.7926C126.909 71.7427 129.318 72.677 130.756 73.3247" stroke="black" stroke-width="0.432186" stroke-miterlimit="10" stroke-linecap="round" stroke-linejoin="round"/>
<path d="M103.717 194.784L100.032 196.288C98.9397 196.732 97.8767 197.255 96.8555 197.845C95.7593 198.476 94.7964 198.829 94.0794 199.036C91.1283 199.887 89.0025 199.281 87.9062 200.681C87.3852 201.341 87.331 202.159 87.3477 202.682H99.3773L100.357 199.634L107.139 194.805L103.717 194.784Z" fill="#B1B1B1"/>
<path d="M116.221 197.67L115.621 195.216L105.971 194.78L99.3687 200.124V202.673L112.574 202.391C114.004 202.893 115.575 202.358 116.342 201.153C117.005 200.111 116.959 198.729 116.221 197.67Z" fill="#B1B1B1"/>
<path d="M116.638 200.631C116.859 201.025 117.146 201.627 117.326 202.408C117.534 203.292 117.688 203.965 117.359 204.592C116.855 205.551 115.579 205.709 115.371 205.734C106.284 205.734 97.197 205.734 88.1143 205.734C88.1143 205.734 87.2681 204.123 87.3473 202.673L88.6937 202.657C97.247 202.549 105.804 202.437 114.358 202.329C114.658 202.271 115.233 202.113 115.8 201.66C116.246 201.291 116.504 200.884 116.638 200.631Z" fill="#D9D9D9"/>
<path d="M103.716 194.784C103.716 194.784 113.762 194.734 115.621 195.216" stroke="#1D1D1B" stroke-width="0.432186" stroke-miterlimit="10" stroke-linecap="round" stroke-linejoin="round"/>
<path d="M116.321 198.085C116.634 198.944 116.922 200.19 116.342 201.153C115.454 202.627 113.128 202.474 106.676 202.424C106.676 202.424 103.37 202.399 95.9259 202.47C92.8539 202.499 90.3404 202.586 88.6856 202.652" stroke="#1D1D1B" stroke-width="0.432186" stroke-miterlimit="10" stroke-linecap="round" stroke-linejoin="round"/>
<path d="M115.367 205.733C113.5 205.591 110.599 205.425 107.035 205.446C103.754 205.463 102.05 205.625 98.7107 205.733C96.2264 205.816 92.5958 205.874 88.1066 205.733" stroke="#1D1D1B" stroke-width="0.432186" stroke-miterlimit="10" stroke-linecap="round" stroke-linejoin="round"/>
<path d="M101.907 145.581L102.641 174.526" stroke="#1D1D1B" stroke-width="0.432186" stroke-miterlimit="10" stroke-linecap="round" stroke-linejoin="round"/>
<path d="M102.691 26.1525C102.745 27.2154 102.537 27.9794 102.32 28.4943C101.991 29.2791 101.495 29.8604 101.741 30.2797C101.895 30.5413 102.241 30.5829 102.308 30.5912C102.775 30.6451 103.271 30.3171 103.517 29.7441" stroke="#161415" stroke-width="0.432186" stroke-miterlimit="10" stroke-linecap="round" stroke-linejoin="round"/>
<path d="M104.304 26.3138C104.529 26.9034 105.063 27.2812 105.642 27.2646C106.23 27.2439 106.751 26.8203 106.938 26.2058" stroke="#161415" stroke-width="0.432186" stroke-miterlimit="10" stroke-linecap="round" stroke-linejoin="round"/>
<path d="M98.8389 26.4679C99.0473 27.0576 99.5433 27.4354 100.077 27.4188C100.623 27.398 101.102 26.9745 101.277 26.36" stroke="#161415" stroke-width="0.432186" stroke-miterlimit="10" stroke-linecap="round" stroke-linejoin="round"/>
<path d="M100.932 33.8417C101.107 34.0825 101.491 34.5309 102.116 34.6929C103.091 34.9503 104.254 34.3939 104.93 33.2728" stroke="#161415" stroke-width="0.432186" stroke-miterlimit="10" stroke-linecap="round" stroke-linejoin="round"/>
<path d="M101.352 57.2686L103.558 56.8326L103.662 58.751L104.987 58.7011L105.004 59.9883L103.787 60.1419L103.87 61.5412L101.415 61.9066L101.277 60.3786L100.402 60.5405L100.26 59.2243L101.344 58.9876L101.352 57.2686Z" fill="#FFE200"/>
<path d="M85.7217 86.7615H60.1159" stroke="#1D1D1B" stroke-width="0.432186" stroke-miterlimit="10" stroke-linecap="round" stroke-linejoin="round"/>
<path d="M59.9121 72.9505C59.9121 72.9505 57.4612 68.7609 56.49 70.6709C56.49 70.6709 56.7651 71.7214 57.4653 72.4979C57.4653 72.4979 58.0531 73.4321 57.8155 73.8972" fill="#936037"/>
<path d="M56.5021 75.9318C56.6063 74.4162 58.0236 72.1284 59.4741 72.5851C61.4457 73.2079 63.2131 73.5775 62.7004 75.1055C62.4669 75.8072 62.8504 76.8452 62.7796 77.3601C62.6504 78.2902 62.271 79.1123 62.5045 79.5774C62.8004 80.167 62.8963 81.0182 61.4874 81.3296C60.0827 81.641 59.3824 81.7407 57.2316 81.2922C56.4896 81.1386 56.3479 78.1573 56.5021 75.9318Z" fill="#936037"/>
</g>
<g clip-path="url(#clip2_2717_199768)">
<path d="M180.7 78.7095C179.907 83.9942 179.074 89.2734 178.34 94.566C177.996 97.0368 177.798 100.601 177.45 103.297C176.62 103.683 176.083 103.425 175.217 103.593C172.239 103.89 169.411 103.89 166.433 103.89C166.044 103.901 166.069 103.944 165.689 103.89C165.307 103.752 164.906 103.882 164.647 103.89C162.364 103.966 160.047 103.733 157.65 103.742C155.311 103.73 153.027 103.522 150.653 103.593C149.807 103.586 149.155 103.651 148.42 103.593C148.28 103.576 148.07 103.556 147.825 103.593C147.208 103.594 146.902 103.537 146.336 103.445C145.718 103.319 145.229 103.624 144.699 103.593C144.695 103.599 144.533 102.999 144.562 102.865C144.471 102.25 144.351 101.769 144.186 101.175C143.157 92.9491 142.175 84.8357 141.208 76.8501C137.742 76.8501 134.282 76.8501 130.709 76.8199C130.45 76.8273 130.303 76.8649 130.156 76.9025C130.156 74.4954 130.156 72.0882 130.304 69.5085C130.696 67.905 130.966 66.4778 131.182 65.0426C131.802 60.9209 132.609 56.8981 135.439 53.5653C140.495 47.6124 147.109 44.5124 154.679 43.0232C154.972 43.6957 155.12 44.3081 155.394 44.8592C156.563 47.2187 158.608 48.1575 161.127 48.1362C164.047 48.1116 165.857 46.4707 167.061 43.8537C167.797 43.506 168.427 43.2091 169.197 42.9326C170.629 43.1833 171.942 43.3337 173.211 43.6564C184.235 46.4595 192.137 52.5906 194.941 64.0789C195.191 65.101 195.245 66.1703 195.267 67.2403C192.746 68.5827 190.254 68.4643 187.685 67.8543C186.163 67.4929 184.594 67.3274 182.922 67.0648C182.524 68.1461 182.251 69.2364 181.833 70.3425C178.785 70.5954 175.885 70.9088 172.976 71.0447C170.789 71.1469 169.714 70.15 169.332 68.035C169.109 66.802 168.94 65.5529 168.608 64.3492C168.482 63.8932 167.923 63.1907 167.636 63.2248C167.129 63.2848 166.497 63.7286 166.256 64.1881C165.991 64.6912 165.979 65.4168 166.082 66.0061C166.715 69.6108 166.24 70.2267 162.551 70.3906C162.15 70.4084 161.676 70.2945 161.365 70.4699C160.807 70.7854 160.004 71.2056 159.904 71.7018C159.438 74.0247 159.901 76.3229 161.199 78.2518C162.227 79.78 164.106 79.2179 165.671 79.2519C166.119 79.2617 166.569 79.0764 167.021 79.0637C171.581 78.9357 176.14 78.825 180.7 78.7095ZM155.367 59.4527C154.117 59.4515 152.846 59.3219 151.626 59.5108C151.119 59.5893 150.718 60.348 150.269 60.7974C150.726 61.2389 151.139 61.9879 151.65 62.0615C152.931 62.246 154.256 62.1069 155.562 62.1324C156.372 62.1482 157.029 62.0977 157.044 61.0178C157.057 60.0416 156.933 59.2949 155.367 59.4527Z" fill="#074B92"/>
<path d="M183.554 60.5532L182.809 66.716" stroke="black" stroke-width="0.432186" stroke-miterlimit="10" stroke-linecap="round" stroke-linejoin="round"/>
<path d="M195.267 67.2406C195.697 69.4802 196.004 71.7425 196.431 74.0824C196.551 74.5257 196.551 74.8914 196.551 75.3943C195.317 77.4986 193.368 78.1513 191.214 78.2452C187.767 78.3954 184.316 78.4289 180.783 78.6107C176.14 78.8254 171.581 78.936 167.021 79.064C166.569 79.0767 166.119 79.262 165.671 79.2523C164.106 79.2182 162.227 79.7803 161.199 78.2521C159.901 76.3232 159.439 74.025 159.905 71.7021C160.004 71.2059 160.807 70.7857 161.365 70.4702C161.676 70.2948 162.15 70.4087 162.551 70.3909C166.24 70.2271 166.715 69.6111 166.082 66.0064C165.979 65.4172 165.991 64.6916 166.256 64.1884C166.497 63.729 167.129 63.2851 167.636 63.2251C167.923 63.191 168.482 63.8936 168.608 64.3496C168.94 65.5532 169.109 66.8023 169.332 68.0354C169.714 70.1503 170.789 71.1472 172.976 71.045C175.885 70.9091 178.785 70.5958 181.981 70.373C182.797 70.3062 183.319 70.2252 183.949 70.1275C183.606 68.9694 183.326 68.0217 183.046 67.0741C184.594 67.3277 186.163 67.4932 187.685 67.8546C190.254 68.4646 192.746 68.5831 195.267 67.2406Z" fill="#C88277"/>
<path d="M152.434 22.0438C151.257 19.0528 151.861 16.1629 154.356 13.8742C155.557 12.7723 156.608 11.8733 158.395 11.2796C160.256 11.1618 161.9 10.9828 163.903 10.9828C164.413 11.2147 164.883 11.2756 165.267 11.4152C168.19 12.479 170.295 14.3827 171.451 17.5262C171.399 18.0819 171.357 18.3924 171.367 18.322C169.184 18.322 167.162 18.322 165.139 18.322C165.139 18.4303 165.139 18.5387 165.139 18.6471C167.49 18.972 169.84 19.2969 172.191 19.6218C172.811 20.0208 173.43 20.4198 174.103 21.0083C174.17 21.2625 174.185 21.3271 174.199 21.3917C174.199 21.3917 174.072 21.4811 173.844 21.4352C171.305 21.6631 168.995 21.9534 166.681 22.2053C164.933 22.3956 163.18 22.6559 161.429 22.6585C160.229 22.6603 159.029 22.2728 157.704 22.0186C155.864 21.9998 154.149 22.0218 152.434 22.0438Z" fill="#DC0C1B"/>
<path d="M154.673 13.6542C155.566 12.7638 158.011 11.0325 161.521 10.9826C165.031 10.9328 167.178 12.3185 168.518 13.3573" stroke="black" stroke-width="0.432186" stroke-miterlimit="10" stroke-linecap="round" stroke-linejoin="round"/>
<path d="M144.766 207.53C142.961 206.155 142.607 203.084 143.762 201.08C144.313 200.126 144.668 199.06 145.322 197.906C146.181 196.557 147.366 197.032 148.445 196.98C150.128 197.47 151.717 197.86 153.305 198.25C155.08 200.128 156.089 202.314 155.613 204.916C155.457 205.766 154.796 206.523 154.302 207.426C151.134 207.53 148.031 207.53 144.766 207.53ZM145.182 203.395C145.045 203.584 144.909 203.773 144.772 203.962C147.12 202.461 149.551 202.588 152.056 203.333C149.899 201.583 148.023 201.598 145.182 203.395ZM152.645 205.549C152.963 205.486 153.281 205.423 153.599 205.359C153.589 205.276 153.579 205.193 153.57 205.11C150.916 205.263 148.262 205.415 145.608 205.567C145.614 205.726 145.62 205.884 145.626 206.042C147.884 205.925 150.142 205.808 152.645 205.549Z" fill="#9F9D9D"/>
<path d="M141.904 182.84C141.886 181.367 141.91 179.892 141.843 178.421C141.741 176.175 141.537 173.934 141.446 171.688C141.009 160.914 140.576 150.139 140.181 139.363C140.004 134.537 139.919 129.708 139.944 124.752C140.223 125.197 140.292 125.792 140.494 126.337C140.79 127.134 141.182 127.895 141.561 128.716C141.589 128.761 141.592 128.867 141.595 128.97C141.697 129.16 141.795 129.247 141.876 129.343C141.858 129.351 141.884 129.322 141.903 129.407C142.009 129.563 142.097 129.634 142.193 129.706C142.2 129.706 142.19 129.717 142.2 129.836C142.805 130.65 143.4 131.345 143.982 132.069C143.968 132.099 143.982 132.034 143.999 132.125C144.122 132.269 144.228 132.322 144.3 132.41C144.266 132.446 144.332 132.374 144.346 132.465C144.463 132.615 144.565 132.673 144.64 132.759C144.611 132.787 144.662 132.726 144.682 132.816C144.809 132.958 144.914 133.01 144.987 133.074C144.955 133.086 145.012 133.048 145.039 133.149C145.252 133.328 145.438 133.405 145.631 133.478C145.638 133.474 145.63 133.488 145.644 133.608C146.228 134.098 146.798 134.467 147.363 134.841C147.358 134.846 147.363 134.833 147.411 134.94C148.588 135.948 148.935 134.967 149.01 134.233C149.113 133.236 148.944 132.199 148.803 131.192C148.625 129.923 148.102 128.625 149.398 127.459C148.711 124.355 148.017 121.398 147.329 118.329C147.196 118.075 147.055 117.932 146.956 117.757C146.998 117.724 146.924 117.8 146.905 117.693C146.692 117.517 146.498 117.448 146.314 117.369C146.324 117.359 146.306 117.38 146.313 117.227C146.047 115.676 145.774 114.277 145.46 112.771C145.406 112.513 144.934 112.763 145 112.5C144.92 109.772 145.169 112.272 145 109.5C145.012 109.69 142.39 103.311 145.049 103.311C144.24 102.982 151.241 103.475 150.8 103.296C153.024 103.221 155.248 103.147 157.429 103.181C156.286 103.291 155.186 103.291 154.086 103.291C154.106 103.509 154.127 103.727 154.148 103.946C154.845 103.868 155.544 103.714 156.24 103.726C159.109 103.777 161.977 103.893 164.846 103.931C165.086 103.934 165.331 103.527 165.573 103.311C165.833 103.304 166.093 103.297 166.614 103.347C169.658 103.259 172.441 103.113 175.223 102.966C175.944 102.791 176.664 102.616 177.468 102.361C178.037 107.661 178.535 113.04 179.005 118.421C179.683 126.182 180.311 133.948 181.018 141.707C181.592 148.005 180.986 154.169 179.581 160.336C177.735 168.434 176.213 176.605 174.534 184.741C173.947 187.585 173.306 190.417 172.629 193.53C171.934 193.53 171.151 193.53 170.108 193.503C169.777 193.499 169.751 193.853 169.54 193.88C166.663 193.992 163.737 193.891 161 194C160.323 194 159.791 193.88 158.904 193.88C159.332 190.639 159.729 187.507 160.162 184.38C161.178 177.054 162.191 169.727 163.246 162.407C164.119 156.351 164.361 150.292 163.574 144.21C163.296 142.058 163.131 139.889 162.762 137.753C162.191 134.451 161.489 131.17 160.931 127.677C160.935 126.841 160.5 126.5 160.181 126.153C160.187 126.155 159.496 125.649 159.5 125.5C159.383 124.309 159.121 123.542 159 122.5C158.903 122.512 160.229 122.196 160.132 122.208C160.102 122.425 160.304 122.712 160.181 123.036C160.048 125.458 159.774 127.703 159.733 130.018C159.54 133.657 159.315 137.294 159.164 140.934C159.063 143.382 159.204 145.845 158.997 148.281C158.56 153.407 157.937 158.516 157.451 163.638C157.237 165.894 157.206 168.166 157.031 170.425C156.528 176.939 155.999 183.45 155.468 189.961C155.325 191.724 155.138 193.482 154.866 195.44C154.716 195.754 154.672 195.87 154.627 195.986C154.449 196.039 154.27 196.093 153.956 195.999C153.291 195.744 152.757 195.528 152.233 195.549C150.605 195.613 148.981 195.768 147.243 195.887C146.982 195.89 146.833 195.895 146.597 195.891C146.451 195.885 146.393 195.887 146.187 195.886C144.765 195.987 143.929 195.834 143.846 194.144C143.678 190.77 143.253 187.406 142.847 184.049C142.795 183.614 142.231 183.241 141.904 182.84ZM165.573 110C165.419 110.636 165.093 111.855 165 112.5C164.886 113.285 164.562 113.707 164.5 114.5C164.759 114.521 159.954 114.773 160.213 114.793C160.672 111.88 161.13 108.966 161.638 105.743C164.846 105.743 165.607 108.238 165.573 110Z" fill="#0F4465"/>
<path d="M169.5 195.5C171.009 197.56 173.368 198.892 175.758 199.318C177.735 199.669 179.684 200.181 181.654 200.577C182.916 200.831 183.823 201.499 183.981 202.819C184.157 204.293 183.097 204.847 181.929 205.209C181.216 205.43 180.499 205.796 179.778 205.81C174.383 205.912 168.987 205.932 163.591 206C160.436 206.039 159.854 203.742 160.028 201.178C160.141 199.501 160.457 197.213 161 195.5C162.822 195.618 164.887 195.49 166.5 195.5C167.659 195.507 168.34 195.698 169.5 195.5ZM171.099 204.499C173.078 204.499 175.056 204.499 177.034 204.499C177.024 204.363 177.013 204.228 177.003 204.092C173.715 204.092 170.427 204.092 167.138 204.092C167.141 204.222 167.143 204.352 167.145 204.482C168.35 204.482 169.554 204.482 171.099 204.499ZM166 204C166 204.5 165.822 203.919 165.718 203.928C165.85 203.945 165.953 204.059 166 204Z" fill="#A09F9E"/>
<path d="M169.593 195.72C168.406 196.057 167.252 196.41 166.1 196.403C164.496 196.393 162.894 196.113 161.16 195.896C161.068 195.282 161.105 194.721 161.144 194.02C163.882 193.771 166.618 193.661 169.507 193.613C169.658 193.673 169.68 193.801 169.68 193.801C169.662 194.393 169.645 194.984 169.593 195.72Z" fill="#C68579"/>
<path d="M153.298 198.121C151.717 197.86 150.128 197.471 148.556 196.891C149.791 196.55 151.012 196.4 152.343 196.253C152.602 196.262 152.751 196.267 152.899 196.272C153.03 196.845 153.16 197.418 153.298 198.121Z" fill="#B3847F"/>
<path d="M153.025 196.248C152.751 196.266 152.602 196.261 152.178 196.239C150.386 196.11 148.87 195.999 147.354 195.887C148.98 195.768 150.605 195.613 152.233 195.548C152.757 195.527 153.29 195.744 153.862 195.978C153.654 196.144 153.402 196.184 153.025 196.248Z" fill="#374E62"/>
<path d="M154.736 195.962C154.672 195.87 154.716 195.754 154.839 195.583C154.893 195.664 154.869 195.801 154.736 195.962Z" fill="#374E62"/>
<path d="M147.321 118.441C148.016 121.398 148.71 124.355 149.275 127.499C148.2 127.722 147.709 128.003 147.974 129.134C148.305 130.554 148.434 132.022 148.648 133.47C148.795 134.461 148.469 135.014 147.362 134.834C147.362 134.834 147.357 134.846 147.311 134.744C146.72 134.258 146.174 133.873 145.629 133.488C145.629 133.488 145.637 133.474 145.589 133.387C145.365 133.215 145.188 133.131 145.011 133.048C145.011 133.048 144.954 133.087 144.956 132.992C144.859 132.841 144.76 132.784 144.661 132.727C144.661 132.727 144.611 132.787 144.613 132.675C144.52 132.501 144.426 132.438 144.331 132.374C144.331 132.374 144.265 132.446 144.27 132.328C144.177 132.151 144.079 132.093 143.981 132.035C143.981 132.035 143.967 132.099 143.959 131.948C143.364 131.104 142.777 130.41 142.19 129.717C142.19 129.717 142.199 129.706 142.18 129.618C142.068 129.46 141.976 129.391 141.883 129.322C141.883 129.322 141.857 129.351 141.855 129.248C141.766 129.052 141.679 128.96 141.591 128.867C141.591 128.867 141.588 128.761 141.556 128.576C141.19 126.046 140.86 123.703 140.523 121.36C140.318 119.929 140.104 118.5 139.894 117.071C139.802 112.618 138.15 108.535 136.732 104.424C134.141 96.9138 132.757 89.1541 131.543 81.3471C131.325 79.9446 131.088 78.5448 130.841 76.9972C134.281 76.8506 137.742 76.8506 141.207 76.8506C142.174 84.8362 143.237 93.0132 144.252 101.367C144.394 102.093 144.444 102.515 144.554 103C144.554 103 144.546 103.001 144.53 103.078C144.514 103.156 144.564 103.319 144.554 103.476C144.821 106.493 145.099 109.352 145.377 112.211C145.391 112.362 145.405 112.513 145.418 112.903C145.713 114.555 146.009 115.967 146.305 117.38C146.305 117.38 146.323 117.359 146.359 117.458C146.571 117.638 146.747 117.719 146.923 117.8C146.923 117.8 146.997 117.724 146.97 117.856C147.069 118.139 147.195 118.29 147.321 118.441Z" fill="#C98275"/>
<path d="M152.44 21.9653C154.149 21.7835 155.928 21.7924 157.8 21.9654C157.913 23.5746 157.837 25.1976 157.756 26.6098C157.63 28.8077 158.569 29.6983 160.71 29.9942C162.391 30.2264 164.004 30.9348 165.654 31.4083C165.962 31.4967 166.301 31.4913 166.627 31.501C168.434 31.5544 170.285 31.7133 172.091 31.7609C172.146 34.3373 172.351 36.8154 172.141 39.3702C172.01 40.9658 170.997 42.2801 169.263 42.8918C168.574 43.2883 168.023 43.5191 167.178 43.7823C166.223 43.7163 165.258 43.6519 164.516 43.6421C162.304 43.6128 160.354 42.9424 158.924 41.2038C158.289 40.4322 157.722 39.5588 157.332 38.6437C156.463 36.602 155.682 34.5197 154.946 32.4259C154.381 30.8219 153.83 29.2329 153.334 27.6051C151.78 26.1096 152.536 23.8995 152.44 21.9653Z" fill="#343A49"/>
<path d="M164.214 33.4699C164.214 32.9616 165.251 34.3869 165.984 34.3869C166.716 34.3869 167.311 33.646 167.311 34.1543C167.311 34.6625 166.716 35.0746 165.984 35.0746C165.251 35.0746 164.214 33.9782 164.214 33.4699Z" fill="#CA8174"/>
<path d="M153.314 27.5867C153.939 29.1755 154.381 30.8223 154.945 32.4264C155.682 34.5201 156.463 36.6024 157.332 38.6441C157.722 39.5592 158.289 40.4326 158.923 41.2042C160.353 42.9428 162.304 43.6132 164.516 43.6425C165.258 43.6523 166.329 43.6658 167.179 43.7825C166.188 46.4331 164.048 48.1119 161.127 48.1365C158.608 48.1578 156.564 47.219 155.394 44.8595C155.121 44.3084 154.972 43.696 154.679 43.0235C154.593 39.7146 154.593 36.494 154.593 33.1531C152.701 32.9624 151.357 32.2531 151.293 30.2863C151.25 28.959 151.806 27.982 153.314 27.5867Z" fill="#C78479"/>
<path d="M155.527 59.4542C156.933 59.2951 157.057 60.0419 157.044 61.018C157.03 62.0979 156.372 62.1484 155.563 62.1326C154.256 62.1072 152.931 62.2462 151.651 62.0617C151.14 61.9881 150.727 61.2392 150.27 60.7976C150.719 60.3483 151.12 59.5895 151.627 59.5111C152.847 59.3221 154.117 59.4518 155.527 59.4542Z" fill="#B61D3A"/>
<path d="M145.457 112.098C145.099 109.351 144.821 106.492 144.701 103.469C145.344 103.296 145.83 103.286 146.316 103.277C146.791 103.278 147.265 103.279 147.978 103.285C148.28 103.285 148.344 103.281 148.408 103.276C149.105 103.28 149.803 103.284 150.649 103.292C151.24 103.475 151.681 103.654 152.49 103.983C149.832 103.983 147.535 103.983 145.048 103.983C145.217 106.755 145.377 109.37 145.457 112.098Z" fill="#3C495C"/>
<path d="M165.454 103.25C165.331 103.527 165.086 103.933 164.846 103.93C161.977 103.893 159.11 103.776 156.241 103.726C155.545 103.714 154.846 103.868 154.148 103.945C154.127 103.727 154.107 103.508 154.086 103.29C155.186 103.29 156.286 103.29 157.544 103.267C159.984 103.149 162.265 103.045 164.548 102.969C164.807 102.961 165.072 103.112 165.454 103.25Z" fill="#030A20"/>
<path d="M175.078 102.96C172.441 103.113 169.658 103.259 166.744 103.344C169.359 102.507 172.13 102.332 175.078 102.96Z" fill="#294F74"/>
<path d="M146.225 103.187C145.831 103.287 145.345 103.297 144.712 103.313C144.565 103.32 144.515 103.155 144.534 103.072C145.08 103.024 145.607 103.06 146.225 103.187Z" fill="#0F4465"/>
<path d="M144.562 102.865C144.424 102.514 144.315 102.029 144.219 101.416C144.352 101.769 144.471 102.25 144.562 102.865Z" fill="#3C495C"/>
<path d="M148.371 103.224C148.345 103.281 148.281 103.286 148.121 103.284C148.128 103.242 148.23 103.206 148.371 103.224Z" fill="#0F4465"/>
<path d="M141.9 182.952C142.23 183.241 142.794 183.614 142.847 184.049C143.252 187.406 143.678 190.77 143.845 194.144C143.929 195.834 144.765 195.986 146.223 195.958C146.477 196.122 146.566 196.182 146.595 196.31C145.874 196.646 145.232 196.884 144.591 197.122C144.34 197.144 144.089 197.166 143.709 197.067C143.469 196.703 143.357 196.461 143.245 196.218C143.085 195.298 142.862 194.383 142.776 193.455C142.459 189.994 142.187 186.528 141.9 182.952Z" fill="#324A5B"/>
<path d="M139.853 117.203C140.104 118.5 140.319 119.929 140.524 121.359C140.86 123.702 141.191 126.046 141.528 128.53C141.182 127.895 140.79 127.133 140.494 126.337C140.291 125.791 140.223 125.197 139.965 124.593C139.828 122.153 139.82 119.745 139.853 117.203Z" fill="#364B5F"/>
<path d="M144.713 197.16C145.233 196.883 145.875 196.645 146.597 196.231C146.678 196.054 146.685 195.898 146.685 195.898C146.833 195.894 146.982 195.89 147.243 195.886C148.871 195.998 150.387 196.11 152.068 196.235C151.012 196.399 149.792 196.549 148.461 196.789C147.366 197.032 146.182 196.556 145.435 197.837C145.169 197.672 145.001 197.435 144.713 197.16Z" fill="#52535F"/>
<path d="M143.201 196.338C143.358 196.46 143.47 196.703 143.585 197.051C143.444 196.924 143.3 196.691 143.201 196.338Z" fill="#52535F"/>
<path d="M172.091 31.7609C170.257 31.8595 168.389 31.6659 166.583 31.6124C166.257 31.6028 165.848 31.5524 165.54 31.464C163.891 30.9905 162.16 30.2121 160.479 29.9799C158.337 29.684 157.524 28.5806 157.65 26.3827C157.731 24.9705 157.746 23.5545 157.757 21.986C158.925 22.0452 160.125 22.4327 161.324 22.4309C163.076 22.4284 164.829 22.168 166.577 21.9777C168.891 21.7259 171.2 21.4355 173.663 21.2234C173.047 21.3605 172.279 21.436 171.297 21.5326C171.531 24.758 171.886 28.43 172.091 31.7609ZM165.111 24.8164C165.085 24.8263 165.12 24.7755 165.094 24.7853C165.132 24.8026 165.716 24.8769 165.733 25.1515C166.287 26.4123 166.89 27.7966 167.222 29.0957C166.949 29.1357 166.021 29.0558 165.748 29.0957C165.762 29.1852 165.655 28.8677 165.669 28.9572C166.064 28.8853 166.579 29.2204 167.139 28.9572C166.471 27.6095 165.802 26.2618 165.111 24.8164Z" fill="#CA8174"/>
<path d="M163.87 23.4198C163.87 23.7999 163.408 23.4198 162.838 23.4198C162.268 23.4198 161.806 23.7999 161.806 23.4198C161.806 23.0397 162.268 22.7316 162.838 22.7316C163.408 22.7316 163.87 23.0397 163.87 23.4198Z" fill="#343A49"/>
<path d="M169.03 23.4198C169.03 23.7999 168.568 23.4198 167.998 23.4198C167.428 23.4198 166.966 23.7999 166.966 23.4198C166.966 23.0397 167.428 22.7316 167.998 22.7316C168.568 22.7316 169.03 23.0397 169.03 23.4198Z" fill="#343A49"/>
<path d="M172.537 19.8875C170.168 19.6325 167.482 19.2661 165.094 18.8486C165.094 18.7094 165.094 18.3942 165.094 18.255C167.148 18.255 169.129 18.255 171.346 18.255C171.337 18.3455 171.283 17.7747 171.346 17.2161C171.594 17.847 172.29 18.9345 172.537 19.8875Z" fill="#BA3134"/>
<path d="M174.287 21.3785C174.185 21.3275 174.171 21.2627 174.166 21.0985C174.242 21.121 174.308 21.2429 174.287 21.3785Z" fill="#CA8174"/>
<path d="M145.278 203.319C148.024 201.598 149.899 201.583 152.057 203.333C149.552 202.587 147.121 202.46 144.772 203.961C144.909 203.772 145.045 203.584 145.278 203.319Z" fill="#494B53"/>
<path d="M152.524 205.619C150.143 205.808 147.885 205.925 145.627 206.042C145.621 205.884 145.615 205.725 145.609 205.567C148.263 205.415 150.917 205.262 153.571 205.11C153.581 205.193 153.59 205.276 153.6 205.359C153.282 205.422 152.964 205.485 152.524 205.619Z" fill="#3A3C44"/>
<path d="M147.411 134.94C148.47 135.014 148.796 134.461 148.649 133.47C148.435 132.022 148.306 130.554 147.975 129.134C147.711 128.003 148.201 127.722 149.269 127.646C148.103 128.626 148.625 129.923 148.803 131.192C148.944 132.2 149.113 133.236 149.01 134.233C148.935 134.967 148.588 135.948 147.411 134.94Z" fill="#364B5F"/>
<path d="M146.314 117.227C146.01 115.967 145.714 114.554 145.459 113.01C145.774 114.277 146.047 115.676 146.314 117.227Z" fill="#3C495C"/>
<path d="M142.2 129.836C142.778 130.41 143.365 131.104 143.975 131.919C143.401 131.345 142.805 130.65 142.2 129.836Z" fill="#364B5F"/>
<path d="M145.644 133.608C146.175 133.873 146.721 134.257 147.317 134.739C146.798 134.467 146.228 134.098 145.644 133.608Z" fill="#364B5F"/>
<path d="M145.039 133.149C145.189 133.131 145.366 133.215 145.583 133.391C145.438 133.406 145.252 133.328 145.039 133.149Z" fill="#364B5F"/>
<path d="M146.905 117.694C146.748 117.72 146.572 117.638 146.351 117.468C146.499 117.448 146.692 117.518 146.905 117.694Z" fill="#3C495C"/>
<path d="M147.329 118.329C147.196 118.29 147.069 118.138 146.929 117.889C147.055 117.932 147.195 118.075 147.329 118.329Z" fill="#3C495C"/>
<path d="M146.597 195.891C146.684 195.898 146.677 196.055 146.676 196.134C146.566 196.183 146.477 196.123 146.371 195.961C146.393 195.887 146.451 195.885 146.597 195.891Z" fill="#374E62"/>
<path d="M144.683 132.816C144.761 132.783 144.86 132.841 144.989 132.98C144.914 133.011 144.809 132.958 144.683 132.816Z" fill="#364B5F"/>
<path d="M144.346 132.465C144.426 132.437 144.521 132.5 144.641 132.648C144.565 132.673 144.462 132.615 144.346 132.465Z" fill="#364B5F"/>
<path d="M143.999 132.125C144.079 132.092 144.177 132.151 144.304 132.292C144.228 132.322 144.122 132.269 143.999 132.125Z" fill="#364B5F"/>
<path d="M141.902 129.407C141.976 129.391 142.069 129.46 142.174 129.618C142.097 129.635 142.009 129.563 141.902 129.407Z" fill="#364B5F"/>
<path d="M141.595 128.969C141.679 128.959 141.766 129.052 141.873 129.24C141.794 129.248 141.696 129.16 141.595 128.969Z" fill="#364B5F"/>
<path d="M170.86 204.578C169.457 204.568 168.228 204.568 166.998 204.568C166.996 204.408 166.994 204.249 166.991 204.089C170.347 204.089 173.703 204.089 177.06 204.089C177.07 204.256 177.081 204.422 177.091 204.589C175.072 204.589 173.053 204.589 170.86 204.578Z" fill="#434651"/>
<path d="M165.238 25.1415C165.907 26.4892 166.576 27.8369 167.116 29.2273C166.987 29.2701 166.894 29.1651 166.894 29.1651C166.34 27.9042 165.787 26.6434 165.239 25.2576C165.246 25.1325 165.238 25.1415 165.238 25.1415Z" fill="#683E38"/>
<path d="M167.033 29.323C166.685 29.4478 166.291 29.5197 165.897 29.5915C165.882 29.502 165.868 29.4126 165.854 29.3231C166.126 29.2832 166.399 29.2433 166.783 29.1842C166.894 29.165 166.987 29.2701 167.033 29.323Z" fill="#683E38"/>
<path d="M165.25 25.1295C165.216 25.1085 165.177 25.0912 165.138 25.0738C165.164 25.0639 165.19 25.054 165.227 25.0931C165.238 25.1421 165.245 25.1331 165.25 25.1295Z" fill="#683E38"/>
<ellipse cx="162.666" cy="24.6176" rx="0.516022" ry="0.514281" fill="#343A49"/>
<ellipse cx="167.827" cy="24.6176" rx="0.516022" ry="0.514281" fill="#343A49"/>
<path d="M186.68 67.5288C187.871 67.8256 189.509 68.2642 191.428 68.2642C193.341 68.3256 194.531 67.9622 195.314 67.1645" stroke="black" stroke-width="0.432186" stroke-miterlimit="10" stroke-linecap="round" stroke-linejoin="round"/>
</g>
<path d="M141.275 76.7306L130.259 77.0283" stroke="black" stroke-width="0.432186" stroke-miterlimit="10" stroke-linecap="round" stroke-linejoin="round"/>
</g>
<defs>
<clipPath id="clip0_2717_199768">
<rect width="276" height="206" fill="white"/>
</clipPath>
<clipPath id="clip1_2717_199768">
<rect width="93.7864" height="199.173" fill="white" transform="matrix(-1 0 0 1 142.615 6.82715)"/>
</clipPath>
<clipPath id="clip2_2717_199768">
<rect width="66.3948" height="196.798" fill="white" transform="translate(129.812 10.389)"/>
</clipPath>
</defs>
</svg>
