<svg width="32" height="32" viewBox="0 0 32 32" fill="none" xmlns="http://www.w3.org/2000/svg">
<path fill-rule="evenodd" clip-rule="evenodd" d="M6.5673 15.4959C6.5673 10.5648 10.5648 6.56729 15.4959 6.56729C20.4271 6.56729 24.4246 10.5648 24.4246 15.4959C24.4246 20.4271 20.4271 24.4246 15.4959 24.4246C10.5648 24.4246 6.5673 20.4271 6.5673 15.4959ZM15.4959 4.96729C9.68113 4.96729 4.9673 9.68112 4.9673 15.4959C4.9673 21.3107 9.68113 26.0246 15.4959 26.0246C18.1159 26.0246 20.5123 25.0676 22.3548 23.4842L25.669 26.7984C25.9814 27.1108 26.4879 27.1108 26.8004 26.7984C27.1128 26.4859 27.1128 25.9794 26.8004 25.667L23.486 22.3526C25.0684 20.5105 26.0246 18.1149 26.0246 15.4959C26.0246 9.68112 21.3107 4.96729 15.4959 4.96729Z" fill="#2A2A2D"/>
<path d="M22.3548 23.4842L22.5316 23.3074L22.3677 23.1435L22.1919 23.2946L22.3548 23.4842ZM23.486 22.3526L23.2964 22.1897L23.1454 22.3655L23.3092 22.5294L23.486 22.3526ZM15.4959 6.31729C10.4267 6.31729 6.3173 10.4267 6.3173 15.4959H6.8173C6.8173 10.7028 10.7029 6.81729 15.4959 6.81729V6.31729ZM24.6746 15.4959C24.6746 10.4267 20.5652 6.31729 15.4959 6.31729V6.81729C20.289 6.81729 24.1746 10.7028 24.1746 15.4959H24.6746ZM15.4959 24.6746C20.5652 24.6746 24.6746 20.5651 24.6746 15.4959H24.1746C24.1746 20.289 20.289 24.1746 15.4959 24.1746V24.6746ZM6.3173 15.4959C6.3173 20.5651 10.4267 24.6746 15.4959 24.6746V24.1746C10.7029 24.1746 6.8173 20.289 6.8173 15.4959H6.3173ZM5.2173 15.4959C5.2173 9.81919 9.8192 5.21729 15.4959 5.21729V4.71729C9.54306 4.71729 4.7173 9.54305 4.7173 15.4959H5.2173ZM15.4959 25.7746C9.8192 25.7746 5.2173 21.1727 5.2173 15.4959H4.7173C4.7173 21.4488 9.54306 26.2746 15.4959 26.2746V25.7746ZM22.1919 23.2946C20.393 24.8405 18.0539 25.7746 15.4959 25.7746V26.2746C18.1779 26.2746 20.6316 25.2947 22.5177 23.6738L22.1919 23.2946ZM25.8458 26.6216L22.5316 23.3074L22.178 23.6609L25.4922 26.9751L25.8458 26.6216ZM26.6236 26.6216C26.4088 26.8364 26.0606 26.8364 25.8458 26.6216L25.4922 26.9751C25.9023 27.3852 26.5671 27.3852 26.9771 26.9751L26.6236 26.6216ZM26.6236 25.8438C26.8384 26.0586 26.8384 26.4068 26.6236 26.6216L26.9771 26.9751C27.3872 26.5651 27.3872 25.9003 26.9771 25.4902L26.6236 25.8438ZM23.3092 22.5294L26.6236 25.8438L26.9771 25.4902L23.6628 22.1759L23.3092 22.5294ZM25.7746 15.4959C25.7746 18.0529 24.8412 20.3912 23.2964 22.1897L23.6757 22.5155C25.2955 20.6297 26.2746 18.1769 26.2746 15.4959H25.7746ZM15.4959 5.21729C21.1727 5.21729 25.7746 9.81919 25.7746 15.4959H26.2746C26.2746 9.54305 21.4488 4.71729 15.4959 4.71729V5.21729Z" fill="#2A2A2D"/>
</svg>
